<svg width="44" height="44" viewBox="0 0 44 44" fill="none" xmlns="http://www.w3.org/2000/svg">
<path d="M19.4668 43H11V10.3633L0.892578 13.498V6.61328L18.5586 0.285156H19.4668V43Z" fill="#2593B2" fill-opacity="0.05"/>
<path d="M33.9923 38.8398C33.9923 37.4922 34.4415 36.3984 35.34 35.5586C36.2579 34.7188 37.4005 34.2988 38.7677 34.2988C40.1544 34.2988 41.297 34.7188 42.1954 35.5586C43.1134 36.3984 43.5724 37.4922 43.5724 38.8398C43.5724 40.168 43.1232 41.252 42.2247 42.0918C41.3263 42.9121 40.174 43.3223 38.7677 43.3223C37.381 43.3223 36.2384 42.9121 35.34 42.0918C34.4415 41.252 33.9923 40.168 33.9923 38.8398Z" fill="#2593B2" fill-opacity="0.1"/>
</svg>
