<svg width="18" height="18" viewBox="0 0 18 18" fill="none" xmlns="http://www.w3.org/2000/svg">
<path fill-rule="evenodd" clip-rule="evenodd" d="M0.75 9C0.75 13.5563 4.44365 17.25 9 17.25C13.5563 17.25 17.25 13.5563 17.25 9C17.25 4.44365 13.5563 0.75 9 0.75C4.44365 0.75 0.75 4.44365 0.75 9ZM15.75 9C15.75 12.7279 12.7279 15.75 9 15.75C5.27208 15.75 2.25 12.7279 2.25 9C2.25 5.27208 5.27208 2.25 9 2.25C12.7279 2.25 15.75 5.27208 15.75 9ZM9.00025 13.4988C9.4146 13.4988 9.75049 13.163 9.75049 12.7488C9.75049 12.3346 9.4146 11.9988 9.00025 11.9988C8.5859 11.9988 8.25 12.3346 8.25 12.7488C8.25 13.163 8.5859 13.4988 9.00025 13.4988ZM9.75271 4.49877H8.25222V10.4988H9.75271V4.49877Z" fill="#4D3D6C"/>
</svg>
