<svg width="17" height="17" viewBox="0 0 17 17" fill="none" xmlns="http://www.w3.org/2000/svg">
<path fill-rule="evenodd" clip-rule="evenodd" d="M1.41663 14.1666C1.41663 14.949 2.05089 15.5833 2.83329 15.5833H12.335L15.5833 12.335V2.83329C15.5833 2.05089 14.949 1.41663 14.1666 1.41663H2.83329C2.05089 1.41663 1.41663 2.05089 1.41663 2.83329V14.1666ZM2.83329 2.83329H14.1666V10.625H12.0416C11.2592 10.625 10.625 11.2592 10.625 12.0416V14.1666H2.83329V2.83329ZM12.0416 12.0416H13.8732L12.0416 13.8732V12.0416ZM4.95829 10.625V12.0416H9.20829V10.625H4.95829ZM4.95829 9.20829V7.79163H12.0416V9.20829H4.95829ZM4.95829 4.95829V6.37496H12.0416V4.95829H4.95829Z" fill="#4D3D6C"/>
</svg>
