<svg width="18" height="18" viewBox="0 0 18 18" xmlns="http://www.w3.org/2000/svg">
<g id="24 / notifications / bell">
<path id="icon" fill-rule="evenodd" clip-rule="evenodd" d="M14.25 7.50001C14.25 4.45563 12.5712 2.34264 10.399 1.7083C10.3204 1.50478 10.1961 1.31558 10.0271 1.15682C9.44979 0.614392 8.5502 0.614392 7.97288 1.15682C7.80428 1.31523 7.68015 1.50395 7.60147 1.70696C5.42651 2.33854 3.75 4.44691 3.75 7.50001C3.75 9.47543 3.35174 10.5823 2.61447 11.3845C2.4912 11.5186 2.15723 11.8259 1.931 12.034L1.93094 12.034C1.82394 12.1325 1.74104 12.2087 1.71597 12.234L1.5 12.453V15.0106H6.06598C6.22038 15.8071 6.65257 16.34 7.43415 16.817C8.39561 17.4037 9.60439 17.4037 10.5659 16.817C11.2556 16.396 11.7181 15.7492 11.9057 15.0106H16.5V12.453L16.284 12.234C16.2613 12.2109 16.1817 12.1375 16.0778 12.0416C15.8522 11.8336 15.5117 11.5194 15.3865 11.3827C14.6488 10.5768 14.25 9.46849 14.25 7.50001ZM10.3025 15.0106H7.63397C7.73993 15.2077 7.92054 15.3565 8.21551 15.5365C8.6972 15.8305 9.3028 15.8305 9.78449 15.5365C10.0075 15.4004 10.1818 15.2203 10.3025 15.0106ZM14.2801 12.3956C14.438 12.568 14.7762 12.8831 15 13.089V13.5106H3V13.0893C3.22205 12.8858 3.56133 12.571 3.71886 12.3996C4.72067 11.3096 5.25 9.83836 5.25 7.50001C5.25 4.66493 6.99958 3.0093 9 3.0093C10.9948 3.0093 12.75 4.67348 12.75 7.50001C12.75 9.83086 13.2795 11.3025 14.2801 12.3956Z"/>
</g>
</svg>
