<svg width="10" height="10" viewBox="0 0 10 10" fill="none" xmlns="http://www.w3.org/2000/svg">
<path fill-rule="evenodd" clip-rule="evenodd" d="M2.50001 2.49998H3.33335V2.08331H6.66667V2.49998H7.50001V2.08331H8.33334V3.33331H1.66667V2.08331H2.50001V2.49998ZM1.66667 4.16665V8.33331H8.33334V4.16665H1.66667ZM3.33335 1.24997H6.66667V0.833313H7.50001V1.24997H8.33334C8.79358 1.24997 9.16668 1.62307 9.16668 2.08331V8.33331C9.16668 8.79355 8.79358 9.16664 8.33334 9.16664H1.66668C1.20644 9.16664 0.833344 8.79355 0.833344 8.33331V2.08331C0.833344 1.62307 1.20644 1.24997 1.66668 1.24997H2.50001V0.833313H3.33335V1.24997ZM3.33334 6.66665V5.83331H4.58334V4.58331H5.41668V5.83331H6.66668V6.66665H5.41668V7.91665H4.58334V6.66665H3.33334Z" fill="#C7DDDB"/>
</svg>
