<svg width="46" height="45" viewBox="0 0 46 45" fill="none" xmlns="http://www.w3.org/2000/svg">
<path d="M30.1387 44H0.900391V38.1992L14.6992 23.4922C16.5938 21.4219 17.9902 19.6152 18.8887 18.0723C19.8066 16.5293 20.2656 15.0645 20.2656 13.6777C20.2656 11.7832 19.7871 10.2988 18.8301 9.22461C17.873 8.13086 16.5059 7.58398 14.7285 7.58398C12.8145 7.58398 11.3008 8.24805 10.1875 9.57617C9.09375 10.8848 8.54688 12.6133 8.54688 14.7617H0.0507812C0.0507812 12.1641 0.666016 9.79102 1.89648 7.64258C3.14648 5.49414 4.9043 3.81445 7.16992 2.60352C9.43555 1.37305 12.0039 0.757812 14.875 0.757812C19.2695 0.757812 22.6777 1.8125 25.0996 3.92188C27.541 6.03125 28.7617 9.00977 28.7617 12.8574C28.7617 14.9668 28.2148 17.1152 27.1211 19.3027C26.0273 21.4902 24.1523 24.0391 21.4961 26.9492L11.7988 37.1738H30.1387V44Z" fill="#2593B2" fill-opacity="0.05"/>
<path d="M35.9923 39.8398C35.9923 38.4922 36.4415 37.3984 37.34 36.5586C38.2579 35.7188 39.4005 35.2988 40.7677 35.2988C42.1544 35.2988 43.297 35.7188 44.1954 36.5586C45.1134 37.3984 45.5724 38.4922 45.5724 39.8398C45.5724 41.168 45.1232 42.252 44.2247 43.0918C43.3263 43.9121 42.174 44.3223 40.7677 44.3223C39.381 44.3223 38.2384 43.9121 37.34 43.0918C36.4415 42.252 35.9923 41.168 35.9923 39.8398Z" fill="#2593B2" fill-opacity="0.1"/>
</svg>
