<svg width="12" height="13" viewBox="0 0 12 13" fill="none" xmlns="http://www.w3.org/2000/svg">
<path fill-rule="evenodd" clip-rule="evenodd" d="M1.33329 0.0889893H10.6666C11.311 0.0889893 11.8333 0.646973 11.8333 1.33528V11.3056C11.8333 11.9939 11.311 12.5519 10.6666 12.5519H1.33329C0.68896 12.5519 0.166626 11.9939 0.166626 11.3056V1.33528C0.166626 0.646973 0.68896 0.0889893 1.33329 0.0889893ZM1.33329 1.33528V11.3056H10.6666V1.33528H1.33329ZM5.49425 6.32318H6.5833V10.0593H7.74996V6.32318H8.90637V5.07689H7.74996V4.45101C7.74996 4.10685 8.01113 3.82786 8.33329 3.82786H8.91663V2.58157H8.33329C7.3668 2.58157 6.5833 3.41855 6.5833 4.45101V5.07689H5.49425V6.32318Z" fill="#3E8B83"/>
</svg>
