<svg width="122" height="152" viewBox="0 0 122 152" fill="none" xmlns="http://www.w3.org/2000/svg">
<path d="M60.9999 27.2739C27.3752 27.2739 -0.000244141 55.0819 -0.000244141 89.2853C-0.000244141 123.489 27.3752 151.249 60.9999 151.249C94.6246 151.249 122 123.441 122 89.2853C122 55.1293 94.6246 27.2739 60.9999 27.2739Z" fill="#ECF5F4"/>
<path d="M21.0327 35.2325C21.0327 35.2325 21.2193 50.6762 22.3385 54.845C24.6703 63.609 31.9922 74.7891 39.3607 84.0742C39.0809 84.0269 78.7217 84.2637 78.7217 84.2637L100.641 45.9862L21.0327 35.2325Z" fill="#FFB9B0"/>
<path d="M60.0207 47.6443C53.6315 47.8811 36.8425 53.5185 36.8425 53.5185C53.5849 52.5237 56.0566 56.882 56.3364 73.131C58.6683 60.4824 60.8601 55.1766 73.5452 49.0181C73.5452 49.0655 63.4251 47.5495 60.0207 47.6443Z" fill="#FFB9B0"/>
<path d="M95.4641 28.0319C95.4641 28.0319 54.8907 25.4264 54.2377 34.5694C53.7247 42.1964 70.607 49.8235 79.7011 47.6443C63.2852 51.5763 54.6108 63.7512 56.5229 80.995C56.7095 82.7005 73.9648 93.7384 74.8976 93.4068C79.841 91.654 104.232 56.4557 104.232 38.7856C104.138 35.5642 95.4641 28.0319 95.4641 28.0319Z" fill="#FFB9B0"/>
<path d="M77.4159 48.5444C78.0688 48.1654 78.7217 47.8338 79.4212 47.4548C78.0688 47.5496 76.7163 47.739 75.3639 48.0233C72.4258 47.3601 69.3944 47.0284 66.4097 46.839C62.6788 46.6495 58.9013 46.839 55.217 47.2653C51.4861 47.739 47.8019 48.497 44.2575 49.5866C40.6665 50.6762 37.1688 52.05 33.9043 53.9923C37.6818 53.6607 41.2728 53.0922 44.9104 52.6185C48.5481 52.0974 52.139 51.6236 55.73 51.1973C59.321 50.7236 62.912 50.3446 66.5496 49.9182C68.042 49.7287 69.5343 49.5866 71.0267 49.3971C70.1406 49.7761 69.3012 50.2024 68.4617 50.6288C65.0106 52.5237 61.9793 55.3187 59.7407 58.7296C57.5488 62.1405 56.243 66.1198 55.9166 70.0518C55.5901 74.0311 56.1031 77.9631 57.4089 81.6108C57.5488 79.6685 57.6887 77.821 57.9219 75.9734C58.1551 74.1259 58.4816 72.3257 58.9013 70.5729C59.7407 67.0673 61.0932 63.7985 62.9586 60.8614C64.8241 57.9243 67.2492 55.3661 70.094 53.187C71.4931 52.0974 72.9854 51.0552 74.571 50.1077C75.4571 49.5392 76.3899 49.0181 77.3692 48.497C77.4159 48.497 77.5091 48.497 77.5558 48.4496C77.5091 48.5918 77.4625 48.5918 77.4159 48.5444Z" fill="#F4AEA8"/>
<path d="M35.2567 12.7777C30.6397 12.0197 27.142 12.4935 22.9447 14.4831C20.7062 15.5253 15.6695 36.2274 19.2138 41.0594C21.9187 44.7545 26.629 49.255 31.3859 49.634C35.5831 49.9656 40.2934 49.1602 42.0656 46.0336C40.1069 34.6167 37.1688 24.1946 35.2567 12.7777Z" fill="#FFB9B0"/>
<path d="M30.5 12.4934C30.0802 16.2359 29.5206 20.0257 28.0749 23.4366C26.3493 27.6528 23.0848 31.3953 18.8875 32.4375C18.6077 32.4849 18.3279 32.5796 18.0947 32.7217C17.8616 36.3695 18.0947 39.5435 19.214 41.0594C21.9189 44.7545 26.6292 49.255 31.386 49.6339C35.5833 49.9656 40.2936 49.1602 42.0657 46.0336C40.107 34.6167 37.2156 24.242 35.2568 12.7777C33.5313 12.4934 31.9923 12.3987 30.5 12.4934Z" fill="#FFB9B0"/>
<path d="M31.5727 12.5409C31.9925 32.9587 27.6087 35.3274 28.1217 36.7012C28.7746 38.5014 38.9879 45.6073 41.4596 46.8864C41.6928 46.6022 41.8793 46.3179 42.0192 46.0337C40.0605 34.6168 37.1691 24.242 35.2104 12.7777C34.0444 12.5883 32.7853 12.4935 31.5727 12.5409Z" fill="#F4AEA8"/>
<path d="M55.2171 5.81389C51.4862 4.62956 41.8792 5.52965 38.055 6.28762C32.0856 7.47195 30.5466 35.4221 31.8524 37.0328C34.6506 40.5384 42.2989 48.3076 45.1904 48.3076C48.1751 48.3076 54.5176 46.9811 56.8028 44.7072C58.0153 43.4755 56.7561 15.2885 55.2171 5.81389Z" fill="#FF8C67"/>
<path d="M55.2171 5.81389C51.4862 4.62956 41.8792 5.52965 38.055 6.28762C32.0856 7.47195 30.5466 35.4221 31.8524 37.0328C34.6506 40.5384 42.2989 48.3076 45.1904 48.3076C48.1751 48.3076 54.5176 46.9811 56.8028 44.7072C58.0153 43.4755 56.7561 15.2885 55.2171 5.81389Z" fill="#FFB9B0"/>
<path d="M56.8029 44.7072C57.8289 43.665 59.0414 7.51926 57.4558 5.43485C56.0567 5.38747 48.5483 5.24535 46.9627 5.3401C47.5689 15.7148 47.6622 27.3686 40.7601 32.8165C38.1018 34.9483 34.9305 36.2274 31.666 36.559C31.7127 36.7959 31.7593 36.9854 31.8526 37.0327C34.6507 40.5383 42.2991 48.3075 45.1905 48.3075C48.2219 48.3075 54.5644 46.9811 56.8029 44.7072Z" fill="#FFB9B0"/>
<path d="M55.217 5.8139C53.9112 5.38754 51.8126 5.24542 49.5274 5.24542C50.3669 20.4996 45.0037 31.5375 45.3768 33.2429C46.1696 36.8433 59.0878 44.7072 59.0878 44.7072C59.0878 44.7072 57.1291 17.7046 55.217 5.8139Z" fill="#F4AEA8"/>
<path d="M54.6108 2.59248C52.4655 5.05588 48.7346 27.416 48.7346 30.969C48.7346 34.5693 55.7767 44.3756 58.0619 45.3704C61.4197 46.7916 72.2392 46.6969 75.4571 39.1645C75.6437 34.0482 77.7889 9.84057 72.5191 3.06621C69.4877 -0.86576 57.7354 -1.00788 54.6108 2.59248Z" fill="#FFB9B0"/>
<path d="M53.2586 26.0422C51.9528 24.9526 50.4604 19.9785 50.507 18.5099C49.5277 24.0999 48.7815 29.3583 48.7815 30.969C48.7815 34.5694 55.8236 44.3756 58.1087 45.3704C61.4665 46.7916 72.2861 46.6969 75.504 39.1646C75.5973 37.2696 75.3641 29.3583 75.504 24.0999C70.1875 26.0896 56.4765 28.6951 53.2586 26.0422Z" fill="#FFB9B0"/>
<path d="M88.6088 1.97671C84.9245 -1.95526 74.8511 1.55035 73.8251 6.52453C73.3587 8.84581 76.3435 36.8433 76.3435 36.8433C84.225 36.6065 86.9299 36.7486 94.8114 36.5117C95.5576 33.1482 98.3557 22.1103 97.7028 20.4996C95.9773 16.0939 93.3657 7.093 88.6088 1.97671Z" fill="#FFB9B0"/>
<path d="M75.0374 23.9105C75.6903 30.6848 76.3432 36.8433 76.3432 36.8433C84.2247 36.6065 86.9296 36.7486 94.8111 36.5117C95.464 33.6219 97.6559 24.9053 97.7958 21.5892C90.7071 24.7632 82.5924 25.6159 75.0374 23.9105Z" fill="#FFB9B0"/>
<path d="M75.317 13.3462C74.9906 10.9302 74.6175 8.51417 74.0112 6.09814C73.6381 8.56155 73.5448 10.9776 73.4516 13.3936C73.4049 15.8096 73.4516 18.273 73.5915 20.6891C73.7314 23.1051 74.8973 32.7692 75.5502 35.1852C75.9233 32.7218 76.1098 23.0103 75.9699 20.5943C75.83 18.1783 75.5968 15.7623 75.317 13.3462Z" fill="#F4AEA8"/>
<path d="M95.4641 28.0319C95.4641 28.0319 54.8907 25.4264 54.2377 34.5694C53.7247 42.1964 70.607 49.8235 79.7011 47.6444C78.8616 47.8338 78.0688 48.0707 77.3226 48.3076H102.553C103.579 44.8493 104.185 41.628 104.185 38.833C104.138 35.5642 95.4641 28.0319 95.4641 28.0319Z" fill="#FFB9B0"/>
<path d="M70.9802 35.5642C65.1973 37.5065 54.3777 36.9854 53.5849 35.5642C52.279 33.2903 54.2378 29.6899 54.2378 29.6899C54.2378 29.6899 63.8915 28.0319 70.3272 28.3635C71.9129 30.3058 72.2393 33.5745 70.9802 35.5642Z" fill="#F4AEA8"/>
<path d="M55.9167 39.2593C63.5184 47.6444 87.3962 46.3653 93.832 44.7072C72.8923 52.2396 60.3472 46.0337 55.9167 39.2593Z" fill="#F4AEA8"/>
<path d="M70.3273 28.3635C69.2081 28.3161 67.9489 28.3161 66.6897 28.3635C66.4565 30.4479 67.3426 32.5797 68.9749 33.8588C69.6744 34.3799 70.4672 34.7588 71.3533 34.9483C72.1928 32.9113 71.7731 30.1163 70.3273 28.3635Z" fill="#F4AEA8"/>
<path d="M102.506 35.2799C100.501 51.8131 92.6194 67.4936 80.867 79.0527L46.9626 81.6582C37.2156 76.4945 26.5826 66.3567 21.9189 52.1921C22.0589 53.2343 22.1988 54.087 22.3387 54.7503C24.6705 63.5143 31.9924 74.6944 39.3609 83.9795L37.3555 146.607C44.6308 149.686 52.6055 151.439 61 151.439C69.4412 151.439 77.4626 149.686 84.7845 146.559L82.4993 85.3059C91.4068 73.4627 104.185 51.5289 104.185 38.7381C104.138 37.7907 103.486 36.6064 102.506 35.2799Z" fill="#FFB9B0"/>
</svg>
