<svg width="133" height="151" viewBox="0 0 133 151" fill="none" xmlns="http://www.w3.org/2000/svg">
<g clip-path="url(#clip0)">
<path d="M66.6276 151C103.331 151 133.085 121.337 133.085 84.7467C133.085 48.1559 103.331 18.4933 66.6276 18.4933C29.9242 18.4933 0.170166 48.1559 0.170166 84.7467C0.170166 121.337 29.9242 151 66.6276 151Z" fill="#ECF5F4"/>
<path d="M104.409 82.4562C99.5586 68.5438 95.3891 52.85 96.0698 39.277C96.4102 33.6781 96.4102 28.7579 96.7505 25.704C98.1971 9.50115 86.3692 3.22362 82.1146 2.8843C77.8599 2.46014 74.0308 -0.508961 59.9054 0.0848589C46.3756 0.593848 37.1005 10.2646 34.6328 23.5832C32.5906 34.3568 33.9521 40.7191 35.9943 50.0506C36.0794 52.7652 36.2496 63.7085 31.8248 71.3433C26.7192 80.1657 19.6565 81.7775 19.4012 102.731C19.1459 123.769 104.579 109.602 104.579 109.602C104.579 109.602 109.259 96.3686 104.409 82.4562Z" fill="#50968E"/>
<path d="M66.6277 151C93.2617 151 116.152 135.391 126.788 112.911C124.661 108.33 121.683 104.258 117.513 101.289C112.408 97.7258 106.111 96.3685 99.899 95.4354C81.604 92.7208 63.0538 93.2298 44.5036 93.8236C35.1434 94.0781 22.0391 97.3865 13.6149 101.798C9.19009 104.173 6.97768 107.481 5.78638 111.384C15.9975 134.712 39.398 151 66.6277 151Z" fill="#CCEDE5"/>
<path d="M54.2891 76.2635L51.5662 102.392C51.5662 102.392 66.8829 109.772 80.9232 102.307L78.03 70.6646L54.2891 76.2635Z" fill="#FFBAB0"/>
<path d="M54.2891 76.2635L53.6935 83.8135C56.6717 85.2556 60.6711 86.3584 63.9046 84.1528C68.0742 81.1837 72.5841 78.5539 78.8809 80.3354L78.1151 70.5798L54.2891 76.2635Z" fill="#FFA69E"/>
<path d="M65.7767 79.5719C53.0128 79.5719 42.5464 69.2225 42.5464 56.4978L42.4613 32.745C42.3762 20.1051 52.7576 9.6708 65.5215 9.6708C78.2854 9.58597 88.7518 20.0202 88.7518 32.6601L88.8369 56.4129C88.922 69.0528 78.5407 79.4871 65.7767 79.5719Z" fill="#FFBAB0"/>
<path d="M46.7159 44.6214C46.7159 44.6214 39.3979 37.0714 31.4843 41.9068C23.5707 46.827 32.165 60.1455 46.801 61.927C61.437 63.7933 46.7159 44.6214 46.7159 44.6214Z" fill="#FFBAB0"/>
<path d="M85.348 44.5365C85.348 44.5365 92.666 36.9017 100.58 41.7371C108.493 46.5725 100.069 59.9758 85.4331 61.8421C70.7972 63.7084 85.348 44.5365 85.348 44.5365Z" fill="#FFBAB0"/>
<path d="M40.8446 29.6062C41.0147 29.6062 56.9271 30.6242 66.7978 22.7349C69.2655 20.7838 72.9245 21.5472 74.5413 24.177C78.2003 29.9455 84.1568 37.5804 90.1133 36.2231C99.5586 34.1023 84.5822 0.424201 58.2886 7.80454C32.08 15.1849 40.8446 29.6062 40.8446 29.6062Z" fill="#50968E"/>
<path d="M75.9674 64.6047L56.9679 58.1182L55.5343 62.2916L74.5337 68.7782L75.9674 64.6047Z" fill="#ECF5F4"/>
<path d="M73.7706 57.0859L55.7351 65.8928L57.6816 69.8546L75.7171 61.0477L73.7706 57.0859Z" fill="#ECF5F4"/>
<path d="M4.08447 107.142C6.46707 113.844 9.95587 120.037 14.2956 125.551C13.4447 114.438 12.7639 106.294 13.2745 101.967C9.53041 103.834 6.55216 105.53 4.08447 107.142Z" fill="#CCEDE5"/>
<path d="M110.45 98.7438C111.386 99.5921 111.897 100.78 111.812 102.052L109.77 135.052C118.619 127.502 125.427 117.746 129.341 106.548C123.64 103.24 117.003 100.695 110.45 98.7438Z" fill="#CCEDE5"/>
<path d="M48.3327 94.6719C58.2885 99.677 76.6685 99.2528 82.625 95.8596C89.8579 91.7877 91.4747 106.294 91.4747 106.294L58.2885 117.916L48.3327 111.299L45.014 104.682L48.3327 94.6719Z" fill="#CCEDE5"/>
<path d="M52.0768 92.8056C48.3327 92.9753 48.6731 94.9264 51.5662 96.9623C56.2464 100.186 72.414 100.44 80.9233 97.641C85.9437 95.9444 84.327 93.3994 80.5829 93.3994C69.8612 95.0112 65.6917 95.9444 52.0768 92.8056Z" fill="#51C4BC"/>
</g>
<defs>
<clipPath id="clip0">
<rect width="133" height="151" fill="white"/>
</clipPath>
</defs>
</svg>
