<svg width="156" height="128" viewBox="0 0 156 128" fill="none" xmlns="http://www.w3.org/2000/svg">
<path d="M106.367 0C133.775 0 156 16.3621 156 36.5488C156 48.2489 148.517 58.6365 136.909 65.3126C138.712 67.8472 143.107 73.4597 151.221 80.5884C151.221 80.5884 129.718 78.2348 120.003 71.6492C115.676 72.5545 111.1 73.075 106.367 73.075C78.9579 73.075 56.7334 56.7129 56.7334 36.5262C56.7334 16.3395 78.9579 0 106.367 0Z" fill="#ECF5F4"/>
<path d="M101.228 33.8331C101.228 36.594 100.709 38.8119 99.6723 40.4865C98.41 42.5233 96.4941 43.5417 93.902 43.5417C93.2484 43.5417 92.5947 43.3607 91.9185 43.0212C91.1972 42.6138 90.7689 42.116 90.6337 41.5276C90.6112 41.5502 90.5886 41.5728 90.5435 41.5955C90.1153 41.9349 89.4391 42.3875 88.4924 42.9759C87.681 43.3607 86.7343 43.5417 85.6523 43.5417C84.0971 43.5417 82.8123 42.908 81.798 41.6181C80.8738 40.4187 80.423 39.0155 80.423 37.4088C80.423 35.6888 80.8062 34.1499 81.55 32.7921C82.3389 31.3437 83.4885 30.3027 85.0212 29.6916C85.8777 29.3295 86.7343 29.1711 87.5908 29.1711C89.1235 29.1711 90.3632 29.7595 91.2648 30.959C91.3775 30.6648 91.5579 30.28 91.7833 29.8501C92.0312 29.3974 92.3918 29.1711 92.8652 29.1711C93.8569 29.1711 94.3528 29.5785 94.3528 30.3706V30.7779C94.3528 30.9363 94.3528 31.0721 94.3303 31.2079L93.1357 38.0424C93.068 38.4271 93.0455 38.8345 93.0455 39.3097C93.0455 40.5092 93.5188 41.0976 94.4881 41.0976C97.1478 41.0976 98.4777 38.744 98.4777 34.0368C98.4777 31.0948 97.3507 28.8317 95.1192 27.2475C93.1357 25.8444 90.6337 25.1202 87.5908 25.1202C84.2098 25.1202 81.4373 26.2065 79.2735 28.3564C77.1097 30.529 76.0277 33.3126 76.0277 36.7072C76.0277 40.2602 76.9969 42.9533 78.9354 44.7864C80.8062 46.5516 83.5336 47.4342 87.1175 47.4342C88.8305 47.4342 90.2956 47.2758 91.5128 46.9363C92.6623 46.6195 93.7442 46.2121 94.7811 45.6916C95.6151 45.2617 96.156 45.058 96.4265 45.058C97.1253 45.058 97.4859 45.4427 97.4859 46.2121C97.4859 46.5969 97.1478 47.0042 96.4941 47.4342C95.4347 48.1358 93.9471 48.7468 92.0087 49.2673C90.1829 49.7426 88.5826 49.9915 87.1851 49.9915C82.9024 49.9915 79.5214 48.86 77.0646 46.5742C74.5401 44.2433 73.2778 40.9165 73.2778 36.6393C73.2778 32.6336 74.6753 29.3069 77.4703 26.6138C80.2653 23.9208 83.6463 22.5629 87.6584 22.5629C91.4677 22.5629 94.6008 23.4455 97.1027 25.2334C99.8301 27.2928 101.228 30.1443 101.228 33.8331ZM90.4759 35.2588C90.4759 32.9731 89.5292 31.8416 87.6133 31.8416C86.2609 31.8416 85.2466 32.43 84.5479 33.5841C83.9393 34.5573 83.6237 35.7567 83.6237 37.2051C83.6237 39.6492 84.5253 40.8713 86.3285 40.8713C87.6359 40.8713 88.6953 40.2376 89.4842 38.9929C90.1378 37.9066 90.4759 36.6619 90.4759 35.2588Z" fill="#50968E"/>
<path d="M112.362 45.1485C112.362 45.7822 112.137 46.3479 111.664 46.8005C111.213 47.2532 110.649 47.5021 110.018 47.5021C109.387 47.5021 108.824 47.2758 108.373 46.8005C107.922 46.3479 107.674 45.7822 107.674 45.1485C107.674 44.5148 107.899 43.9491 108.373 43.4964C108.824 43.0438 109.387 42.7949 110.018 42.7949C110.649 42.7949 111.213 43.0212 111.664 43.4964C112.137 43.9717 112.362 44.5148 112.362 45.1485ZM112.069 37.4993C112.069 39.355 111.393 40.2829 110.018 40.2829C108.643 40.2829 107.945 39.355 107.945 37.4993V25.1428C107.945 23.355 108.621 22.4498 109.996 22.4498C111.371 22.4498 112.069 23.3324 112.069 25.1428V37.4993Z" fill="#50968E"/>
<path d="M126.157 28.0169C127.464 28.0169 128.749 28.0169 130.056 28.0169C130.056 27.6322 130.056 27.2701 130.056 26.8854C130.079 25.5954 130.079 24.3055 130.124 23.0155C130.147 22.2913 130.733 21.5445 131.386 21.3182C132.22 21.0466 133.099 21.2729 133.595 21.9066C133.933 22.314 134.046 22.7892 134.046 23.2871C134.069 24.4865 134.069 25.686 134.069 26.8854C134.069 27.2475 134.069 27.6322 134.069 28.0396C134.159 28.0396 134.226 28.0396 134.294 28.0396C134.925 28.0396 135.534 28.0169 136.165 28.0622C136.954 28.1075 137.585 28.4695 137.878 29.2616C138.171 30.0763 138.103 30.8458 137.517 31.5021C137.179 31.8642 136.751 32.0679 136.278 32.0905C135.646 32.1131 134.993 32.1131 134.362 32.1131C134.271 32.1131 134.204 32.1131 134.114 32.1131C134.114 33.6067 134.114 35.0551 134.114 36.5488C134.181 36.5488 134.249 36.5488 134.317 36.5488C134.925 36.5488 135.556 36.5261 136.165 36.5714C136.909 36.6166 137.517 36.9335 137.855 37.635C138.193 38.3592 138.171 39.106 137.72 39.7623C137.359 40.3281 136.796 40.577 136.142 40.5997C135.534 40.6223 134.948 40.6223 134.339 40.6223C134.271 40.6223 134.204 40.6223 134.114 40.6223C134.114 40.6902 134.114 40.7581 134.114 40.826C134.114 42.4101 134.091 43.9717 134.091 45.5558C134.069 46.6421 133.28 47.4116 132.198 47.4568C131.048 47.5021 130.395 46.8232 130.124 45.85C130.102 45.7821 130.102 45.6916 130.102 45.6237C130.102 44.0396 130.102 42.4328 130.102 40.8486C130.102 40.7807 130.102 40.7355 130.102 40.6676C128.794 40.6676 127.509 40.6676 126.18 40.6676C126.18 40.9844 126.18 41.2786 126.18 41.5954C126.18 42.9759 126.202 44.3564 126.18 45.7369C126.18 46.3479 125.841 46.8005 125.346 47.14C124.557 47.6831 123.407 47.5926 122.776 46.9363C122.393 46.5516 122.167 46.099 122.167 45.5332C122.167 43.9717 122.167 42.4101 122.167 40.8486C122.167 40.7807 122.167 40.7355 122.167 40.6676C121.852 40.6676 121.536 40.6676 121.243 40.6676C120.815 40.6676 120.387 40.6902 119.981 40.6223C118.223 40.396 117.862 38.4497 118.561 37.4766C118.944 36.9787 119.44 36.6393 120.071 36.6166C120.702 36.594 121.356 36.594 121.987 36.5714C122.055 36.5714 122.1 36.5714 122.167 36.5714C122.167 35.0778 122.167 33.6294 122.167 32.1357C122.1 32.1357 122.055 32.1357 121.987 32.1357C121.356 32.1357 120.725 32.1584 120.094 32.1131C119.237 32.0678 118.448 31.3437 118.268 30.5063C117.952 29.1032 119.034 28.1301 120.139 28.0848C120.747 28.0622 121.356 28.0622 121.965 28.0622C122.032 28.0622 122.077 28.0622 122.167 28.0622C122.167 27.9717 122.167 27.9038 122.167 27.8359C122.167 26.6817 122.167 25.5502 122.167 24.396C122.167 23.966 122.213 23.536 122.213 23.106C122.213 22.4045 122.596 21.9292 123.114 21.5671C123.43 21.3408 123.768 21.2503 124.174 21.2729C124.534 21.3182 124.895 21.2956 125.21 21.4993C125.819 21.8613 126.112 22.4045 126.134 23.106C126.157 23.8981 126.18 24.6902 126.18 25.4823C126.18 26.2744 126.18 27.0891 126.18 27.8811C126.157 27.9264 126.157 27.9717 126.157 28.0169ZM126.157 32.1131C126.157 33.5841 126.157 35.0551 126.157 36.5261C127.464 36.5261 128.749 36.5261 130.056 36.5261C130.056 35.0551 130.056 33.5841 130.056 32.1131C128.749 32.1131 127.464 32.1131 126.157 32.1131Z" fill="#50968E"/>
<path d="M49.6333 47.4116C22.2245 47.4116 0 63.7737 0 83.9604C0 95.6606 7.48331 106.048 19.0915 112.724C17.2883 115.259 12.8929 120.871 4.7785 128C4.7785 128 26.2818 125.646 35.9965 119.061C40.3242 119.966 44.8999 120.487 49.6333 120.487C77.042 120.487 99.2666 104.124 99.2666 83.9378C99.2666 63.7511 77.0646 47.4116 49.6333 47.4116Z" fill="#50968E"/>
<path d="M44.4942 81.2447C44.4942 84.0057 43.9757 86.2235 42.9389 87.8982C41.6766 89.9349 39.7607 90.9533 37.1686 90.9533C36.515 90.9533 35.8613 90.7723 35.1851 90.4328C34.4638 90.0255 34.0356 89.5276 33.9003 88.9392C33.8778 88.9618 33.8552 88.9844 33.8102 89.0071C33.3819 89.3465 32.7057 89.7992 31.759 90.3876C30.9476 90.7723 30.0009 90.9533 28.919 90.9533C27.3637 90.9533 26.0789 90.3197 25.0646 89.0297C24.1404 87.8303 23.6896 86.4272 23.6896 84.8204C23.6896 83.1004 24.0728 81.5615 24.8167 80.2037C25.6056 78.7553 26.7551 77.7143 28.2878 77.1033C29.1444 76.7412 30.0009 76.5827 30.8574 76.5827C32.3901 76.5827 33.6298 77.1711 34.5314 78.3706C34.6441 78.0764 34.8245 77.6917 35.0499 77.2617C35.2978 76.8091 35.6584 76.5827 36.1318 76.5827C37.1235 76.5827 37.6194 76.9901 37.6194 77.7822V78.1895C37.6194 78.348 37.6194 78.4837 37.5969 78.6195L36.4023 85.454C36.3346 85.8388 36.3121 86.2461 36.3121 86.7214C36.3121 87.9208 36.7854 88.5092 37.7547 88.5092C40.4144 88.5092 41.7443 86.1556 41.7443 81.4484C41.7443 78.5064 40.6173 76.2433 38.3858 74.6591C36.4023 73.256 33.9003 72.5318 30.8574 72.5318C27.4764 72.5318 24.7039 73.6181 22.5401 75.768C20.3763 77.9406 19.2943 80.7242 19.2943 84.1188C19.2943 87.6719 20.2635 90.3649 22.202 92.198C24.0728 93.9632 26.8002 94.8458 30.3841 94.8458C32.0971 94.8458 33.5622 94.6874 34.7794 94.348C35.9289 94.0311 37.0108 93.6238 38.0477 93.1033C38.8817 92.6733 39.4226 92.4696 39.6931 92.4696C40.3919 92.4696 40.7525 92.8543 40.7525 93.6238C40.7525 94.0085 40.4144 94.4158 39.7607 94.8458C38.7014 95.5474 37.2137 96.1584 35.2753 96.6789C33.4495 97.1542 31.8492 97.4031 30.4517 97.4031C26.1691 97.4031 22.788 96.2716 20.3312 93.9859C17.8067 91.6549 16.5444 88.3281 16.5444 84.0509C16.5444 80.0453 17.9419 76.7185 20.7369 74.0255C23.5319 71.3324 26.9129 69.9745 30.925 69.9745C34.7343 69.9745 37.8674 70.8571 40.3693 72.645C43.0967 74.7044 44.4942 77.5559 44.4942 81.2447ZM33.7425 82.6704C33.7425 80.3847 32.7958 79.2532 30.8799 79.2532C29.5275 79.2532 28.5132 79.8416 27.8145 80.9958C27.2059 81.9689 26.8903 83.1683 26.8903 84.6167C26.8903 87.0608 27.7919 88.2829 29.5952 88.2829C30.9025 88.2829 31.9619 87.6492 32.7508 86.4045C33.427 85.3409 33.7425 84.0962 33.7425 82.6704Z" fill="#ECF5F4"/>
<path d="M55.6515 92.5828C55.6515 93.2164 55.4261 93.7822 54.9527 94.2348C54.5019 94.6874 53.9384 94.9364 53.3073 94.9364C52.6762 94.9364 52.1127 94.7101 51.6619 94.2348C51.2111 93.7822 50.9631 93.2164 50.9631 92.5828C50.9631 91.9491 51.1885 91.3833 51.6619 90.9307C52.1127 90.4781 52.6762 90.2292 53.3073 90.2292C53.9384 90.2292 54.5019 90.4555 54.9527 90.9307C55.4035 91.3833 55.6515 91.9491 55.6515 92.5828ZM55.3359 84.9335C55.3359 86.7893 54.6597 87.7171 53.2848 87.7171C51.9098 87.7171 51.2111 86.7893 51.2111 84.9335V72.5771C51.2111 70.7893 51.8873 69.884 53.2622 69.884C54.6372 69.884 55.3359 70.7666 55.3359 72.5771V84.9335Z" fill="#ECF5F4"/>
<path d="M69.4461 75.4512C70.7534 75.4512 72.0382 75.4512 73.3455 75.4512C73.3455 75.0665 73.3455 74.7044 73.3455 74.3197C73.3681 73.0297 73.3681 71.7397 73.4132 70.4498C73.4357 69.7256 74.0217 68.9788 74.6754 68.7525C75.5094 68.4809 76.3885 68.7072 76.8843 69.3409C77.2224 69.7482 77.3351 70.2235 77.3351 70.7214C77.3577 71.9208 77.3577 73.1202 77.3577 74.3197C77.3577 74.6817 77.3577 75.0665 77.3577 75.4738C77.4478 75.4738 77.5155 75.4738 77.5831 75.4738C78.2142 75.4738 78.8228 75.4512 79.4539 75.4965C80.2428 75.5417 80.8739 75.9038 81.167 76.6959C81.46 77.5106 81.3924 78.28 80.8063 78.9363C80.4682 79.2984 80.0399 79.5021 79.5666 79.5247C78.9355 79.5474 78.2818 79.5474 77.6507 79.5474C77.5605 79.5474 77.4929 79.5474 77.4028 79.5474C77.4028 81.041 77.4028 82.4894 77.4028 83.983C77.4704 83.983 77.538 83.983 77.6056 83.983C78.2142 83.983 78.8453 83.9604 79.4539 84.0057C80.1977 84.0509 80.8063 84.3677 81.1444 85.0693C81.4825 85.7935 81.46 86.5403 81.0092 87.1966C80.6485 87.7624 80.085 88.0113 79.4314 88.0339C78.8228 88.0566 78.2367 88.0566 77.6282 88.0566C77.5605 88.0566 77.4929 88.0566 77.4028 88.0566C77.4028 88.1245 77.4028 88.1924 77.4028 88.2602C77.4028 89.8444 77.3802 91.4059 77.3802 92.9901C77.3577 94.0764 76.5688 94.8458 75.4868 94.8911C74.3373 94.9363 73.6836 94.2574 73.4132 93.2843C73.3906 93.2164 73.3906 93.1259 73.3906 93.058C73.3906 91.4738 73.3906 89.867 73.3906 88.2829C73.3906 88.215 73.3906 88.1697 73.3906 88.1018C72.0833 88.1018 70.7985 88.1018 69.4686 88.1018C69.4686 88.4187 69.4686 88.7129 69.4686 89.0297C69.4686 90.4102 69.4912 91.7907 69.4686 93.1711C69.4686 93.7822 69.1305 94.2348 68.6347 94.5742C67.8458 95.1174 66.6962 95.0269 66.0651 94.3706C65.6819 93.9858 65.4565 93.5332 65.4565 92.9675C65.4565 91.4059 65.4565 89.8444 65.4565 88.2829C65.4565 88.215 65.4565 88.1697 65.4565 88.1018C65.1409 88.1018 64.8254 88.1018 64.5324 88.1018C64.1041 88.1018 63.6758 88.1245 63.2701 88.0566C61.512 87.8303 61.1513 85.884 61.8501 84.9109C62.2333 84.413 62.7292 84.0735 63.3603 84.0509C63.9914 84.0283 64.6451 84.0283 65.2762 84.0057C65.3438 84.0057 65.3889 84.0057 65.4565 84.0057C65.4565 82.512 65.4565 81.0636 65.4565 79.57C65.3889 79.57 65.3438 79.57 65.2762 79.57C64.6451 79.57 64.0139 79.5926 63.3828 79.5474C62.5263 79.5021 61.7374 78.7779 61.5571 77.9406C61.2415 76.5375 62.3234 75.5644 63.4279 75.5191C64.0365 75.4965 64.6451 75.4965 65.2536 75.4965C65.3213 75.4965 65.3663 75.4965 65.4565 75.4965C65.4565 75.4059 65.4565 75.338 65.4565 75.2702C65.4565 74.116 65.4565 72.9844 65.4565 71.8303C65.4565 71.4003 65.5016 70.9703 65.5016 70.5403C65.5016 69.8388 65.8848 69.3635 66.4032 69.0014C66.7188 68.7751 67.0568 68.6846 67.4626 68.7072C67.8232 68.7525 68.1839 68.7298 68.4994 68.9335C69.108 69.2956 69.401 69.8388 69.4236 70.5403C69.4461 71.3324 69.4686 72.1245 69.4686 72.9165C69.4686 73.7086 69.4686 74.5233 69.4686 75.3154C69.4236 75.338 69.4236 75.3833 69.4461 75.4512ZM69.4461 79.5474C69.4461 81.0184 69.4461 82.4894 69.4461 83.9604C70.7534 83.9604 72.0382 83.9604 73.3455 83.9604C73.3455 82.4894 73.3455 81.0184 73.3455 79.5474C72.0382 79.5474 70.7309 79.5474 69.4461 79.5474Z" fill="#ECF5F4"/>
</svg>
