<svg width="123" height="131" viewBox="0 0 123 131" fill="none" xmlns="http://www.w3.org/2000/svg">
<path opacity="0.04" d="M61.5 130.014C95.4655 130.014 123 128.013 123 125.546C123 123.078 95.4655 121.078 61.5 121.078C27.5345 121.078 0 123.078 0 125.546C0 128.013 27.5345 130.014 61.5 130.014Z" fill="#50968E"/>
<path d="M105.754 7.7301V11.321H19.0424V7.7301C19.0424 3.46758 22.4971 0 26.7744 0H98.0354C102.299 0 105.754 3.45387 105.754 7.7301Z" fill="#50968E"/>
<path d="M105.754 5.9895H19.0424V11.3211H105.754V5.9895Z" fill="#50968E"/>
<path d="M122.726 73.5456C122.726 73.9842 122.726 74.4365 122.712 74.8751C122.027 103.603 98.3233 126.437 69.5748 126.437H55.2349C26.4864 126.437 2.78304 103.603 2.09757 74.8751C2.08386 74.4365 2.08386 73.9842 2.08386 73.5456C2.08386 48.8203 19.056 31.9072 19.056 31.9072V11.321H105.767V31.9072C105.754 31.8935 122.726 48.8065 122.726 73.5456Z" fill="#ECF5F4"/>
<path opacity="0.5" d="M94.3065 14.6241H102.957V32.5788H95.8008L94.3065 14.6241Z" fill="white"/>
<path opacity="0.5" d="M104.369 36.9235C104.369 36.9235 123.631 57.9483 113.527 82.4955H104.438C104.438 82.4955 114.089 63.3621 100.202 38.9246L104.369 36.9235Z" fill="white"/>
<path opacity="0.7" d="M50.8891 13.8977H22.1406V31.9483C22.1406 31.9483 23.3059 21.3948 27.3365 18.1465C31.463 14.8297 50.8891 13.8977 50.8891 13.8977Z" fill="#ECF5F4"/>
<path d="M52.2599 89.4032C50.3131 88.2931 48.6132 86.9225 47.16 85.2778C36.6724 73.3811 42.5125 54.5493 58.0178 51.1639C66.2297 49.3684 73.0843 52.0548 78.4721 58.4828C78.5955 58.6336 78.6229 58.9077 78.5955 59.1133C78.4035 60.3194 77.7455 61.0732 76.5254 61.4022C75.7988 61.5941 75.1133 61.9641 74.4415 62.2931C74.2085 62.4027 73.9754 62.6494 73.8795 62.8824C72.8513 65.5414 71.8368 68.2003 70.836 70.8729C70.6715 71.3252 70.4247 71.6679 69.9997 71.9283C69.5336 72.2161 69.136 72.5999 68.6699 72.9562C68.3683 72.5862 68.0941 72.1887 67.7651 71.846C66.6546 70.7222 65.3385 69.8998 64.0087 69.0775C63.0902 68.5155 62.1854 67.9125 61.3354 67.2409C60.6637 66.7064 60.2935 65.9662 60.4306 65.0616C60.5266 64.4038 60.883 63.9652 61.5136 63.7459C63.1039 63.1977 64.3241 63.9789 64.4886 65.6236C64.5023 65.7058 64.5023 65.7881 64.516 65.9114C66.1611 65.9114 67.7788 65.9114 69.4651 65.9114C69.4788 64.3215 69.1497 62.8687 68.2586 61.553C67.3538 60.2235 66.0514 59.4834 64.4886 59.0859C64.4886 58.2224 64.4886 57.3864 64.4886 56.5092C63.1176 56.5092 61.7878 56.5092 60.4169 56.5092C60.4169 57.2493 60.4032 57.962 60.4169 58.6884C60.4306 58.9763 60.3484 59.1133 60.0605 59.1955C54.9058 60.6484 54.6042 66.35 56.7702 69.3379C57.5379 70.3932 58.4839 71.243 59.5806 71.9557C60.7322 72.7095 61.8838 73.4359 62.9943 74.2446C63.5289 74.6283 64.0225 75.1217 64.3926 75.6563C64.9547 76.4649 65.0232 77.3832 64.4474 78.2193C63.8031 79.1513 62.816 79.2061 61.8015 79.0553C60.8282 78.9046 60.2661 78.2741 60.0605 77.3284C60.0056 77.0406 59.9782 76.7527 59.9234 76.4375C58.3057 76.4375 56.688 76.4375 55.0017 76.4375C55.0566 79.4528 56.0436 81.8924 58.9774 83.2904C57.8807 83.8113 56.8799 84.3184 55.838 84.7707C55.2896 85.0037 54.9058 85.36 54.5904 85.8534C53.8227 87.0321 53.0413 88.1971 52.2599 89.4032Z" fill="#50968E"/>
<path d="M82.9551 52.836C82.0914 53.3843 81.2688 53.9051 80.4463 54.4533C80.268 54.5767 80.1035 54.7823 80.0213 54.9879C79.7608 55.6732 79.5415 56.3722 79.2947 57.0986C74.373 51.5477 68.2998 48.7654 60.8968 49.2314C54.9195 49.6015 49.9019 52.1233 45.9673 56.6326C41.3884 61.8956 39.6199 68.0495 40.703 74.9299C41.786 81.7965 45.5012 86.9773 51.3962 90.6779C50.3817 92.2267 49.3809 93.7617 48.3802 95.2968C42.1013 91.884 34.8354 83.3179 34.7942 71.5308C34.7531 59.5245 42.2384 48.8476 53.48 45.01C64.516 41.2409 76.0593 44.9004 82.9551 52.836Z" fill="#50968E"/>
<path d="M52.0816 91.0891C60.7048 95.0638 68.9304 94.6115 76.2649 88.5398C83.9695 82.1392 85.8751 73.7649 83.3252 64.1708C84.984 63.554 86.7114 62.9236 88.425 62.2931C91.7016 71.2019 90.2484 84.1265 80.1172 92.7064C70.4658 100.902 57.5242 100.861 48.5583 95.4338C49.7511 93.981 50.9163 92.5282 52.0816 91.0891Z" fill="#50968E"/>
<path d="M81.8035 64.7327C84.23 71.476 82.9688 80.9742 75.6206 87.2377C68.6014 93.2272 59.3476 93.2135 53.1099 89.8281C53.9324 88.8276 54.7413 87.8271 55.5501 86.8403C55.605 86.7717 55.6872 86.7306 55.7558 86.7032C57.2638 86.0316 58.7581 85.36 60.3484 84.6473C60.3484 85.2093 60.3484 85.7027 60.3484 86.2509C61.7467 86.2509 63.0765 86.2509 64.4475 86.2509C64.4475 85.4011 64.4475 84.5651 64.4475 83.7153C64.8725 83.5783 65.27 83.4686 65.6402 83.3179C68.3409 82.2625 69.8627 79.9462 69.7941 76.8898C69.7804 76.0126 70.3288 75.437 70.6578 74.738C70.7263 74.6146 70.9731 74.5598 71.1513 74.505C72.8513 73.9156 74.5512 73.34 76.2649 72.7506C76.3883 72.7095 76.5117 72.6136 76.6488 72.5999C78.0745 72.4765 78.102 71.4075 78.2253 70.3658C78.3899 68.9678 78.5818 67.5698 78.7874 66.1718C78.8148 66.0211 78.9382 65.8018 79.0616 65.7607C79.9527 65.3906 80.8712 65.0754 81.8035 64.7327Z" fill="#50968E"/>
</svg>
