<svg width="20" height="13" viewBox="0 0 20 13" xmlns="http://www.w3.org/2000/svg">
<path d="M19.2188 3H0.78125C0.349609 3 0 2.32875 0 1.5C0 0.67125 0.349609 0 0.78125 0H19.2188C19.6504 0 20 0.67125 20 1.5C20 2.32875 19.6504 3 19.2188 3Z"/>
<path d="M19.2188 8H0.78125C0.349609 8 0 7.32875 0 6.5C0 5.67125 0.349609 5 0.78125 5H19.2188C19.6504 5 20 5.67125 20 6.5C20 7.32875 19.6504 8 19.2188 8Z"/>
<path d="M19.2188 13H0.78125C0.349609 13 0 12.3288 0 11.5C0 10.6712 0.349609 10 0.78125 10H19.2188C19.6504 10 20 10.6712 20 11.5C20 12.3288 19.6504 13 19.2188 13Z" />
</svg>
