<svg width="34" height="28" viewBox="0 0 34 28" xmlns="http://www.w3.org/2000/svg">
<path d="M0.686035 0C1.76888 1.92112 3.01414 3.6799 4.53012 5.19515C7.39965 8.09037 10.8377 9.8762 14.763 10.7691C17.3347 11.3644 19.9335 11.8514 22.5053 12.4738C25.2394 13.1232 27.8383 14.1514 30.0581 15.9643C32.2508 17.7501 33.5773 19.9959 33.821 22.837C33.9292 24.0546 33.848 25.2723 33.848 26.4358C33.3066 26.2193 32.7923 25.8946 32.2238 25.7593C31.0597 25.4887 30.0039 25.8675 28.9482 26.3275C27.9466 26.7334 26.9179 27.1122 25.8892 27.464C25.6726 27.5451 25.4289 27.5181 25.1853 27.464C27.1886 25.4617 29.625 24.4064 32.4674 24.1358C32.6569 23.1617 32.4945 22.1876 32.2238 21.2677C31.3575 18.2101 29.3542 16.1807 26.3494 15.2608C23.2903 14.3137 20.1772 13.4479 17.064 12.582C14.3569 11.8244 11.6498 11.0668 8.9427 10.3091C8.80734 10.2821 8.67199 10.255 8.53663 10.228C8.50956 10.2821 8.48249 10.3632 8.45542 10.4174C9.48412 10.9044 10.4857 11.5538 11.5686 11.8785C15.142 12.9879 18.7424 13.989 22.3428 15.0172C22.5053 15.0714 22.6677 15.0984 22.8031 15.2337C22.1263 15.2066 21.4224 15.1525 20.7457 15.1255C20.0418 15.0714 19.338 15.0714 18.6341 14.9902C16.5767 14.7467 14.5464 14.3408 12.5702 13.6914C8.3742 12.2573 4.93618 9.82209 2.58101 6.0069C1.55231 4.32929 0.956745 2.48934 0.686035 0.541162C0.686035 0.351755 0.686035 0.189407 0.686035 0Z" />
<path d="M3.0415 11.9596C4.85526 12.7172 6.58781 13.5019 8.37449 14.1513C11.5959 15.3419 14.9257 16.1265 18.3366 16.4783C19.4465 16.5865 20.5565 16.6677 21.6664 16.803C22.4785 16.9112 23.3989 17.5606 23.2636 18.4265C22.5056 18.4806 21.7746 18.5347 21.0167 18.5347C17.7952 18.6159 14.6008 18.5347 11.4606 17.6418C8.15793 16.6948 5.2884 15.0442 3.231 12.2031C3.14979 12.149 3.09565 12.0678 3.0415 11.9596Z" />
<path d="M5.45068 18.4536C7.07494 18.8324 8.59092 19.2383 10.1069 19.5089C12.8952 20.023 15.6835 20.2124 18.526 20.0771C20.2315 19.9959 21.964 19.7795 23.6695 20.2665C23.7778 20.2936 23.8861 20.3206 23.9943 20.3747C24.0485 20.4018 24.0755 20.4289 24.1568 20.51C24.0755 20.9159 23.7507 20.97 23.4258 21.0512C20.042 21.8088 16.6039 21.9982 13.1389 21.7547C11.5146 21.6194 9.89033 21.4571 8.37435 20.8347C7.15616 20.3206 6.10039 19.6712 5.45068 18.4536Z" />
<path d="M9.97119 22.783C11.3247 22.9454 12.5971 23.1889 13.8965 23.216C15.7644 23.2701 17.6323 23.243 19.5002 23.1077C21.2598 22.9995 23.0194 22.7019 24.779 22.5395C25.158 22.5124 25.5641 22.6748 25.9702 22.756C25.9702 22.8101 25.9972 22.8642 25.9972 22.9183C25.4558 23.1077 24.9144 23.3783 24.3459 23.5136C22.5863 23.8924 20.8267 24.2442 19.0671 24.5147C17.7406 24.7041 16.387 24.8394 15.0335 24.8394C13.328 24.8394 11.7308 24.4336 10.4043 23.2701C10.296 23.1889 10.2148 23.0807 10.1336 22.9995C10.0795 22.9183 10.0253 22.8642 9.97119 22.783Z" />
<path d="M16.4961 25.8673C17.1729 25.7862 17.8767 25.6509 18.5535 25.6509C20.5838 25.6779 22.5329 25.4615 24.455 24.8391C25.1859 24.5956 25.8897 24.2709 26.6207 24.0003C27.1079 23.838 27.5952 23.6486 28.1366 24.0544C28.0554 24.1627 28.0013 24.2438 27.9201 24.298C26.0251 25.4344 24.103 26.4897 21.8832 26.8955C19.9883 27.2473 18.1745 27.0579 16.4961 26.1109C16.5232 26.0297 16.5232 25.9485 16.4961 25.8673Z" />
</svg>
