<svg width="96" height="40" viewBox="0 0 96 40" fill="none" xmlns="http://www.w3.org/2000/svg">
<path d="M0.685974 8.29395C1.40614 9.57163 2.23433 10.7413 3.24257 11.7491C5.15101 13.6746 7.43754 14.8623 10.0481 15.4562C11.7585 15.8521 13.4869 16.176 15.1973 16.5899C17.0158 17.0218 18.7442 17.7056 20.2205 18.9113C21.6788 20.099 22.561 21.5927 22.7231 23.4822C22.7951 24.292 22.7411 25.1018 22.7411 25.8756C22.381 25.7317 22.0389 25.5157 21.6608 25.4257C20.8867 25.2458 20.1845 25.4977 19.4823 25.8036C18.8162 26.0736 18.132 26.3255 17.4479 26.5594C17.3038 26.6134 17.1418 26.5954 16.9797 26.5594C18.3121 25.2278 19.9324 24.5259 21.8229 24.346C21.9489 23.6982 21.8409 23.0503 21.6608 22.4385C21.0847 20.405 19.7524 19.0553 17.7539 18.4434C15.7195 17.8136 13.649 17.2377 11.5785 16.6619C9.77808 16.158 7.97766 15.6541 6.17725 15.1503C6.08722 15.1323 5.9972 15.1143 5.90718 15.0963C5.88918 15.1323 5.87118 15.1862 5.85317 15.2222C6.53733 15.5462 7.20348 15.9781 7.92365 16.194C10.3002 16.9318 12.6948 17.5977 15.0893 18.2815C15.1973 18.3175 15.3054 18.3355 15.3954 18.4255C14.9453 18.4075 14.4772 18.3715 14.0271 18.3535C13.559 18.3175 13.0908 18.3175 12.6227 18.2635C11.2544 18.1015 9.90411 17.8316 8.58981 17.3997C5.79916 16.4459 3.51263 14.8263 1.94627 12.289C1.26211 11.1732 0.866016 9.94954 0.685974 8.65386C0.685974 8.52789 0.685974 8.41991 0.685974 8.29395Z" fill="#8BD0E4"/>
<path d="M2.25241 16.2479C3.45869 16.7518 4.61096 17.2737 5.79923 17.7056C7.94173 18.4974 10.1562 19.0192 12.4248 19.2532C13.1629 19.3252 13.9011 19.3792 14.6393 19.4691C15.1794 19.5411 15.7915 19.973 15.7015 20.5489C15.1974 20.5849 14.7113 20.6209 14.2072 20.6209C12.0647 20.6748 9.94019 20.6209 7.85171 20.027C5.6552 19.3972 3.74676 18.2994 2.37844 16.4099C2.32443 16.3739 2.28842 16.3199 2.25241 16.2479Z" fill="#8BD0E4"/>
<path d="M3.85474 20.5669C4.93499 20.8188 5.94322 21.0888 6.95145 21.2687C8.80588 21.6106 10.6603 21.7366 12.5508 21.6466C13.685 21.5926 14.8373 21.4487 15.9715 21.7726C16.0436 21.7906 16.1156 21.8086 16.1876 21.8446C16.2236 21.8626 16.2416 21.8806 16.2956 21.9346C16.2416 22.2045 16.0256 22.2405 15.8095 22.2945C13.559 22.7983 11.2725 22.9243 8.96792 22.7624C7.88767 22.6724 6.80742 22.5644 5.79919 22.1505C4.989 21.8086 4.28684 21.3767 3.85474 20.5669Z" fill="#8BD0E4"/>
<path d="M6.86145 23.4463C7.76166 23.5543 8.60785 23.7162 9.47205 23.7342C10.7143 23.7702 11.9566 23.7522 13.1989 23.6623C14.3692 23.5903 15.5395 23.3923 16.7097 23.2843C16.9618 23.2664 17.2319 23.3743 17.5019 23.4283C17.5019 23.4643 17.5199 23.5003 17.5199 23.5363C17.1598 23.6623 16.7998 23.8422 16.4217 23.9322C15.2514 24.1841 14.0811 24.4181 12.9109 24.598C12.0286 24.724 11.1284 24.814 10.2282 24.814C9.09397 24.814 8.03172 24.544 7.14952 23.7702C7.0775 23.7162 7.02349 23.6443 6.96948 23.5903C6.93347 23.5363 6.89746 23.5003 6.86145 23.4463Z" fill="#8BD0E4"/>
<path d="M11.2004 25.4976C11.6505 25.4436 12.1186 25.3536 12.5687 25.3536C13.919 25.3716 15.2153 25.2277 16.4936 24.8138C16.9797 24.6518 17.4479 24.4359 17.934 24.2559C18.258 24.1479 18.5821 24.022 18.9422 24.2919C18.8882 24.3639 18.8522 24.4179 18.7982 24.4538C17.5379 25.2097 16.2596 25.9115 14.7832 26.1814C13.5229 26.4154 12.3167 26.2894 11.2004 25.6596C11.2184 25.6056 11.2184 25.5516 11.2004 25.4976Z" fill="#8BD0E4"/>
<path d="M95.982 8.29395C95.2618 9.57163 94.4336 10.7413 93.4254 11.7491C91.535 13.6566 89.2484 14.8623 86.6378 15.4562C84.9274 15.8521 83.199 16.176 81.4887 16.5899C79.6702 17.0218 77.9418 17.7056 76.4655 18.9113C75.0072 20.099 74.125 21.5927 73.9629 23.4822C73.8909 24.292 73.9449 25.1018 73.9449 25.8756C74.305 25.7317 74.6471 25.5157 75.0252 25.4257C75.7993 25.2458 76.5015 25.4977 77.2037 25.8036C77.8698 26.0736 78.554 26.3255 79.2381 26.5594C79.3822 26.6134 79.5442 26.5954 79.7062 26.5594C78.3739 25.2278 76.7536 24.5259 74.8631 24.346C74.7371 23.6982 74.8451 23.0503 75.0252 22.4385C75.6013 20.405 76.9336 19.0553 78.9321 18.4434C80.9665 17.8136 83.037 17.2377 85.1075 16.6619C86.9079 16.158 88.7083 15.6541 90.5087 15.1503C90.5988 15.1323 90.6888 15.1143 90.7788 15.0963C90.7968 15.1323 90.8148 15.1862 90.8328 15.2222C90.1487 15.5462 89.4825 15.9781 88.7623 16.194C86.3858 16.9318 83.9912 17.5977 81.6147 18.2815C81.5067 18.3175 81.3986 18.3355 81.3086 18.4255C81.7587 18.4075 82.2268 18.3715 82.6769 18.3535C83.145 18.3175 83.6131 18.3175 84.0813 18.2635C85.4496 18.1015 86.7999 17.8316 88.1142 17.3997C90.9048 16.4459 93.1914 14.8443 94.7397 12.307C95.4239 11.1912 95.838 9.96753 96 8.67185C96 8.52789 95.982 8.41991 95.982 8.29395Z" fill="#8BD0E4"/>
<path d="M94.4337 16.2479C93.2275 16.7518 92.0752 17.2737 90.8869 17.7056C88.7444 18.4974 86.5299 19.0192 84.2614 19.2532C83.5232 19.3252 82.785 19.3792 82.0469 19.4691C81.5067 19.5411 80.8946 19.973 80.9846 20.5489C81.4887 20.5849 81.9748 20.6209 82.479 20.6209C84.6215 20.6748 86.746 20.6209 88.8344 20.027C91.0309 19.3972 92.9394 18.2994 94.3077 16.4099C94.3617 16.3739 94.3797 16.3199 94.4337 16.2479Z" fill="#8BD0E4"/>
<path d="M92.8313 20.5669C91.751 20.8188 90.7428 21.0888 89.7345 21.2687C87.8801 21.6106 86.0257 21.7366 84.1352 21.6466C83.001 21.5926 81.8487 21.4487 80.7145 21.7726C80.6424 21.7906 80.5704 21.8086 80.4984 21.8446C80.4624 21.8626 80.4444 21.8806 80.3904 21.9346C80.4444 22.2045 80.6604 22.2405 80.8765 22.2945C83.127 22.7983 85.4135 22.9243 87.7181 22.7624C88.7983 22.6724 89.8786 22.5644 90.8868 22.1505C91.679 21.8086 92.3812 21.3767 92.8313 20.5669Z" fill="#8BD0E4"/>
<path d="M89.8246 23.4463C88.9244 23.5543 88.0782 23.7162 87.214 23.7342C85.9717 23.7702 84.7294 23.7522 83.4871 23.6623C82.3169 23.5903 81.1466 23.3923 79.9763 23.2843C79.7243 23.2664 79.4542 23.3743 79.1841 23.4283C79.1841 23.4643 79.1661 23.5003 79.1661 23.5363C79.5262 23.6623 79.8863 23.8422 80.2644 23.9322C81.4347 24.1841 82.6049 24.4181 83.7752 24.598C84.6574 24.724 85.5576 24.814 86.4578 24.814C87.5921 24.814 88.6543 24.544 89.5365 23.7702C89.6086 23.7162 89.6626 23.6443 89.7166 23.5903C89.7526 23.5363 89.7706 23.5003 89.8246 23.4463Z" fill="#8BD0E4"/>
<path d="M85.4676 25.4976C85.0175 25.4436 84.5494 25.3536 84.0993 25.3536C82.749 25.3716 81.4527 25.2277 80.1744 24.8138C79.6883 24.6518 79.2201 24.4359 78.734 24.2559C78.41 24.1479 78.0859 24.022 77.7258 24.2919C77.7798 24.3639 77.8158 24.4179 77.8698 24.4538C79.1301 25.2097 80.4084 25.9115 81.8848 26.1814C83.1451 26.4154 84.3513 26.2894 85.4676 25.6596C85.4676 25.6056 85.4676 25.5516 85.4676 25.4976Z" fill="#8BD0E4"/>
<path d="M29.1866 21.5928C29.1866 23.2483 29.1866 24.598 29.2766 25.3178C29.3307 25.8217 29.4387 26.1996 29.9428 26.2716C30.1769 26.3076 30.5549 26.3436 30.717 26.3436C30.825 26.3436 30.861 26.3976 30.861 26.4516C30.861 26.5415 30.771 26.5955 30.591 26.5955C29.6367 26.5955 28.5565 26.5415 28.4845 26.5415C28.3944 26.5415 27.3142 26.5955 26.7921 26.5955C26.594 26.5955 26.522 26.5595 26.522 26.4516C26.522 26.3976 26.558 26.3436 26.666 26.3436C26.8281 26.3436 27.0261 26.3076 27.1882 26.2716C27.5302 26.1996 27.6203 25.8217 27.6923 25.3178C27.7823 24.598 27.7823 23.2303 27.7823 21.5928V14.3225L25.2437 14.3585C24.1815 14.3765 23.7674 14.5025 23.4973 14.9164C23.2993 15.2043 23.2633 15.3303 23.2092 15.4563C23.1552 15.6002 23.1012 15.6362 23.0292 15.6362C22.9752 15.6362 22.9392 15.5822 22.9392 15.4743C22.9392 15.2943 23.2813 13.8187 23.3173 13.6927C23.3533 13.5847 23.4253 13.3688 23.4973 13.3688C23.6233 13.3688 23.7854 13.5487 24.2535 13.5667C24.7576 13.6207 25.4057 13.6567 25.6038 13.6567H32.0133C32.5714 13.6567 32.9675 13.6207 33.2376 13.5667C33.4896 13.5307 33.6517 13.4767 33.7237 13.4767C33.8137 13.4767 33.8137 13.5847 33.8137 13.6747C33.8137 14.1966 33.7597 15.3843 33.7597 15.5642C33.7597 15.7262 33.7057 15.7802 33.6337 15.7802C33.5436 15.7802 33.5076 15.7262 33.4896 15.4923L33.4716 15.2943C33.4176 14.7724 33.0035 14.3765 31.3651 14.3405L29.2046 14.3045V21.5928H29.1866Z" fill="#8BD0E4"/>
<path d="M37.2165 19.6673C37.2165 17.3458 37.2165 16.9319 37.1805 16.4641C37.1445 15.9602 37.0365 15.7262 36.5323 15.6183C36.4063 15.5823 36.1542 15.5823 36.0282 15.5823C35.9742 15.5823 35.9022 15.5463 35.9022 15.4923C35.9022 15.4023 35.9742 15.3663 36.1362 15.3663C36.8024 15.3663 37.7386 15.4023 37.8106 15.4023C37.9727 15.4023 39.1069 15.3663 39.557 15.3663C40.4933 15.3663 41.4835 15.4563 42.2757 16.0142C42.6538 16.2841 43.3019 17.0039 43.3019 18.0297C43.3019 19.1274 42.8338 20.2251 41.5015 21.4668C42.7258 23.0324 43.734 24.3461 44.5982 25.2639C45.4084 26.1097 46.0385 26.2716 46.4166 26.3256C46.7047 26.3616 46.9027 26.3616 46.9928 26.3616C47.0648 26.3616 47.1188 26.3976 47.1188 26.4516C47.1188 26.5416 47.0288 26.5776 46.7587 26.5776H45.6965C44.8683 26.5776 44.4902 26.5056 44.1121 26.2896C43.4639 25.9477 42.9598 25.2279 42.1136 24.1122C41.4835 23.3024 40.7993 22.2946 40.4933 21.9167C40.4392 21.8627 40.3852 21.8267 40.2952 21.8267L38.4588 21.7908C38.3868 21.7908 38.3508 21.8267 38.3508 21.9167V22.2766C38.3508 23.6983 38.3508 24.886 38.4228 25.4978C38.4588 25.9297 38.5488 26.2537 38.9989 26.3076C39.215 26.3436 39.539 26.3616 39.6651 26.3616C39.7551 26.3616 39.7911 26.3976 39.7911 26.4516C39.7911 26.5236 39.7191 26.5776 39.557 26.5776C38.7468 26.5776 37.8106 26.5416 37.7206 26.5416C37.7026 26.5416 36.7664 26.5776 36.3163 26.5776C36.1542 26.5776 36.0822 26.5416 36.0822 26.4516C36.0822 26.4156 36.1182 26.3616 36.2083 26.3616C36.3343 26.3616 36.5143 26.3256 36.6584 26.3076C36.9644 26.2537 37.0365 25.9297 37.0905 25.4978C37.1625 24.868 37.1625 23.6983 37.1625 22.2766V19.6673H37.2165ZM38.4048 20.963C38.4048 21.0349 38.4408 21.0889 38.5128 21.1429C38.7288 21.2689 39.413 21.3769 40.0792 21.3769C40.4392 21.3769 40.8533 21.3409 41.1954 21.0889C41.7175 20.729 42.0956 19.9372 42.0956 18.8035C42.0956 16.9499 41.1234 15.8342 39.521 15.8342C39.0709 15.8342 38.6748 15.8702 38.5308 15.9242C38.4588 15.9602 38.4048 16.0142 38.4048 16.1042V20.963Z" fill="#8BD0E4"/>
<path d="M49.6754 22.2766C49.6754 23.6983 49.6754 24.886 49.7474 25.4978C49.7834 25.9297 49.8735 26.2537 50.3236 26.3076C50.5396 26.3436 50.8637 26.3616 50.9897 26.3616C51.0797 26.3616 51.1157 26.3976 51.1157 26.4516C51.1157 26.5236 51.0437 26.5776 50.8817 26.5776C50.0715 26.5776 49.1353 26.5416 49.0453 26.5416C48.9733 26.5416 48.037 26.5776 47.5869 26.5776C47.4249 26.5776 47.3529 26.5416 47.3529 26.4516C47.3529 26.4156 47.3889 26.3616 47.4789 26.3616C47.6049 26.3616 47.785 26.3256 47.929 26.3076C48.2351 26.2537 48.3071 25.9297 48.3611 25.4978C48.4331 24.868 48.4331 23.6983 48.4331 22.2766V19.6673C48.4331 17.3458 48.4331 16.9319 48.3971 16.4641C48.3611 15.9602 48.2171 15.7082 47.893 15.6363C47.731 15.6003 47.5329 15.5823 47.4249 15.5823C47.3709 15.5823 47.2989 15.5463 47.2989 15.4923C47.2989 15.4023 47.3709 15.3663 47.5329 15.3663C48.019 15.3663 48.9552 15.4023 49.0273 15.4023C49.0993 15.4023 50.0355 15.3663 50.4856 15.3663C50.6476 15.3663 50.7197 15.4023 50.7197 15.4923C50.7197 15.5463 50.6656 15.5823 50.5936 15.5823C50.4856 15.5823 50.3956 15.6003 50.2155 15.6183C49.8194 15.6903 49.6934 15.9422 49.6574 16.4641C49.6214 16.9319 49.6214 17.3638 49.6214 19.6673V22.2766H49.6754Z" fill="#8BD0E4"/>
<path d="M55.3647 24.58C55.4007 25.8037 55.5448 26.1816 55.9409 26.3076C56.2289 26.3796 56.553 26.3976 56.679 26.3976C56.751 26.3976 56.8051 26.4336 56.8051 26.4875C56.8051 26.5775 56.715 26.6135 56.535 26.6135C55.6888 26.6135 55.0947 26.5775 54.9506 26.5775C54.8246 26.5775 54.1945 26.6135 53.5283 26.6135C53.3843 26.6135 53.2943 26.5955 53.2943 26.4875C53.2943 26.4336 53.3303 26.3976 53.4203 26.3976C53.5463 26.3976 53.7984 26.3796 54.0324 26.3076C54.4105 26.1996 54.4825 25.7677 54.4825 24.4181L54.5005 15.9062C54.5005 15.3303 54.5365 15.1683 54.6626 15.1683C54.7886 15.1683 55.0407 15.4923 55.1847 15.6362C55.4007 15.8882 57.6152 18.2816 59.9198 20.729C61.3961 22.3126 63.0165 24.1121 63.4846 24.616L63.3226 17.0759C63.3046 16.1041 63.1965 15.7802 62.7464 15.6722C62.4764 15.6182 62.1343 15.6002 62.0263 15.6002C61.9182 15.6002 61.9002 15.5642 61.9002 15.4923C61.9002 15.4023 62.0263 15.3843 62.2063 15.3843C62.8725 15.3843 63.5926 15.4203 63.7547 15.4203C63.9167 15.4203 64.4028 15.3843 65.015 15.3843C65.177 15.3843 65.285 15.4023 65.285 15.4923C65.285 15.5462 65.231 15.6002 65.123 15.6002C65.051 15.6002 64.9429 15.6002 64.7629 15.6362C64.2768 15.7442 64.2048 16.0681 64.2048 16.9679L64.1688 25.6777C64.1688 26.6675 64.1328 26.7395 64.0427 26.7395C63.9167 26.7395 63.7367 26.5775 62.9625 25.7857C62.8004 25.6418 60.658 23.4463 59.0736 21.7547C57.3452 19.9012 55.6708 18.0296 55.1847 17.4898L55.3647 24.58Z" fill="#8BD0E4"/>
<path d="M70.2901 22.2766C70.2901 23.6983 70.2901 24.886 70.3621 25.4978C70.3981 25.9297 70.4882 26.2537 70.9383 26.3076C71.1543 26.3436 71.4784 26.3616 71.6044 26.3616C71.6944 26.3616 71.7304 26.3976 71.7304 26.4516C71.7304 26.5236 71.6584 26.5776 71.4964 26.5776C70.6862 26.5776 69.75 26.5416 69.66 26.5416C69.588 26.5416 68.6517 26.5776 68.2016 26.5776C68.0396 26.5776 67.9676 26.5416 67.9676 26.4516C67.9676 26.4156 68.0036 26.3616 68.0936 26.3616C68.2196 26.3616 68.3997 26.3256 68.5437 26.3076C68.8498 26.2537 68.9218 25.9297 68.9758 25.4978C69.0478 24.868 69.0478 23.6983 69.0478 22.2766V19.6673C69.0478 17.3458 69.0478 16.9319 69.0118 16.4641C68.9758 15.9602 68.8318 15.7082 68.5077 15.6363C68.3457 15.6003 68.1476 15.5823 68.0396 15.5823C67.9856 15.5823 67.9136 15.5463 67.9136 15.4923C67.9136 15.4023 67.9856 15.3663 68.1476 15.3663C68.6337 15.3663 69.57 15.4023 69.642 15.4023C69.714 15.4023 70.6502 15.3663 71.1003 15.3663C71.2623 15.3663 71.3344 15.4023 71.3344 15.4923C71.3344 15.5463 71.2803 15.5823 71.2083 15.5823C71.1003 15.5823 71.0103 15.6003 70.8302 15.6183C70.4342 15.6903 70.3081 15.9422 70.2721 16.4641C70.2361 16.9319 70.2361 17.3638 70.2361 19.6673V22.2766H70.2901Z" fill="#8BD0E4"/>
</svg>
