<svg width="256" height="206" viewBox="0 0 256 206" fill="none" xmlns="http://www.w3.org/2000/svg">
<path opacity="0.3" d="M255.171 166.417C255.171 166.443 255.171 166.456 255.158 166.456C255.158 166.623 255.12 179.402 232.341 190.271C214.045 199.022 188.928 202.714 168.656 204.211C138.964 206.457 104.505 205.27 74.7107 202.804C63.4698 201.72 45.2649 202.055 26.4268 187.005C4.43609 169.282 -3.96224 136.948 1.7357 114.037C5.90902 97.5021 16.9431 84.9299 31.5821 75.7137C39.3602 71.0669 46.7378 69.0661 53.5469 68.4982C57.8107 68.1368 62.4491 68.3562 66.0927 68.8854C72.2945 69.6728 78.1734 71.2347 82.1529 71.9317C85.4864 72.5771 89.3496 73.1063 92.4376 71.8284C96.9469 70.1246 101.637 64.0321 106.392 58.727C117.826 45.8063 131.677 36.177 148.642 33.8665C220.325 24.0953 219.601 98.0958 216.048 105.647C215.57 106.667 215.609 107.751 215.544 108.732C215.208 113.405 217.185 116.773 220.415 119.562C220.441 119.587 220.454 119.6 220.48 119.613C221.152 120.168 221.862 120.71 222.612 121.252C226.669 124.066 231.953 126.441 237.121 129.346H237.134C237.431 129.513 237.703 129.668 238 129.836C238.155 129.927 238.297 130.017 238.452 130.107C242.367 132.392 246.153 135.038 249.189 138.51C254.499 144.538 257.574 153.044 255.171 166.417Z" fill="#BEDDDB"/>
<path d="M214.33 139.027C210.893 130.624 206.965 131.488 203.825 130.004C203.05 129.643 198.618 126.222 198.618 126.222L193.838 130.12L198.812 134.199C198.838 134.948 199.083 135.645 199.471 136.277H199.458C199.458 136.277 202.016 140.64 204.2 142.06C206.383 143.48 207.133 144.164 206.797 141.892C206.668 141.053 206.409 140.24 206.112 139.53C208.916 140.137 211.177 141.492 213.27 141.802C215.673 142.137 214.33 139.027 214.33 139.027Z" fill="#FEBAB0"/>
<path d="M159.237 69.2339C148.668 72.5642 134.856 64.4452 134.856 64.4452C134.856 64.4452 136.303 62.1863 137.608 57.8493C138.176 55.9647 138.719 53.6929 139.094 51.0468C139.507 48.1684 139.74 44.8382 139.61 41.0691L153.332 52.1182C153.332 52.1182 153.293 56.3261 152.092 63.4125C156.627 65.9166 159.237 69.2339 159.237 69.2339Z" fill="#FEBAB0"/>
<path d="M153.332 52.1311C150.386 56.6101 139.959 57.6815 137.608 57.8622C138.176 55.9776 138.719 53.7059 139.093 51.0598L153.332 52.1311Z" fill="#EFA69E"/>
<path d="M133.964 205.411C145.864 205.411 157.596 205.063 168.656 204.224C169.25 204.185 169.844 204.134 170.452 204.082C172.118 182.887 173.488 165.733 173.488 165.733L131.574 163.138C131.587 163.151 132.646 182.758 133.964 205.411Z" fill="#1A3D75"/>
<path d="M121.082 182.319C120.889 186.979 118.615 196.195 115.527 205.127C127.517 205.476 139.584 205.528 151.226 205.14C160.038 184.591 166.64 168.069 166.64 168.069L123.486 155.858C123.498 155.858 121.457 173.439 121.082 182.319Z" fill="#2A4E96"/>
<path d="M136.354 54.235C136.354 54.235 155.179 58.2623 157.518 46.5033C159.844 34.7442 163.849 27.3481 151.924 24.2889C139.998 21.2168 136.768 25.2441 135.036 28.9744C133.305 32.7048 131.522 52.8797 136.354 54.235Z" fill="#FEBAB0"/>
<path d="M200.983 132.185C202.469 129.191 203.166 125.706 203.166 125.706C203.166 125.706 176.744 108.332 174.431 106.396C172.118 104.459 148.112 69.1565 148.112 69.1565L117.232 72.59C117.232 72.59 157.479 114.708 163.449 119.497C173.307 127.422 197.946 136.019 197.946 136.019C197.946 136.019 199.807 134.535 200.983 132.185Z" fill="#006359"/>
<path d="M173.979 167.295C173.656 167.553 173.294 167.721 172.868 167.721C168.901 167.669 157.324 169.863 147.531 168.869C139.274 168.082 131.974 165.63 124.132 162.119C123.085 161.654 120.695 160.376 120.746 159.214C120.785 157.936 120.914 156.091 121.069 153.767C121.224 151.508 121.418 148.798 121.573 145.713C122.013 137.749 122.323 127.28 121.638 115.715C121.47 112.733 121.38 109.764 121.367 106.847C121.354 103.517 120.992 100.238 120.449 97.0244C118.472 84.9427 114.222 74.0873 118.227 67.1558C120.113 63.8901 132.762 61.244 135.941 60.9084C136.845 60.8051 139.585 61.1536 143.758 63.2189C147.621 65.1163 151.484 65.3358 155.128 64.5871L158.784 67.8141C163.229 71.9316 168.1 77.5465 170.219 86.0528C172.015 93.2941 173.074 106.357 173.656 119.884C173.914 126.015 174.134 132.198 174.186 138.071V138.278C174.237 138.859 174.237 139.491 174.237 140.072C174.457 155.135 174.25 167.075 173.979 167.295Z" fill="#50968E"/>
<path d="M153.862 53.1379C153.862 53.1379 152.763 46.6581 154.469 45.0189C156.187 43.3796 155.606 37.3387 153.345 37.9196C151.084 38.5004 149.314 34.1247 148.848 30.3168C148.37 26.509 135.011 28.9873 131.677 26.5994C128.344 24.2114 128.008 20.4166 128.008 20.4166C128.008 20.4166 134.274 19.9906 137.31 16.6991C140.347 13.4076 153.926 14.2208 157.919 17.1638C157.919 17.1638 165.981 21.0361 165.968 36.4739C165.955 47.3423 153.862 53.1379 153.862 53.1379Z" fill="#233862"/>
<path d="M121.586 145.7C122.026 137.736 122.336 127.268 121.651 115.702C121.483 112.72 121.392 109.752 121.38 106.834C121.367 103.504 121.005 100.226 120.462 97.0116C120.488 96.9729 120.514 96.9341 120.553 96.8825C123.964 91.9646 131.742 94.0299 132.375 99.9804C133.473 110.268 133.137 128.403 121.586 145.7Z" fill="#006359" fill-opacity="0.3"/>
<path d="M74.659 147.223C79.6334 145.377 78.4964 143.247 78.4964 143.247C78.4964 143.247 68.9481 114.734 70.2014 111.985C71.4547 109.235 130.902 91.5387 130.902 91.5387L120.475 65.2971C120.475 65.2971 62.798 91.8485 57.9528 102.588C52.1644 115.392 67.4493 116.438 67.4493 116.438C67.4493 116.438 72.2041 148.139 74.659 147.223Z" fill="#50968E"/>
<path d="M136.781 45.9095C140.773 47.7424 146.51 46.2451 146.652 42.7342C146.652 42.7342 149.184 51.4212 136.781 45.9095Z" fill="white"/>
<path d="M50.6786 71.0023H45.6913C40.9365 71.0023 37.0604 67.117 37.0604 62.3799C37.0604 57.6298 40.9494 53.7574 45.6913 53.7574H50.6786C55.4333 53.7574 59.3095 57.6427 59.3095 62.3799C59.3095 67.117 55.4333 71.0023 50.6786 71.0023Z" fill="#D6CCEA"/>
<path d="M54.3213 74.2953C54.8663 73.7509 54.8663 72.8682 54.3213 72.3238C53.7764 71.7794 52.8929 71.7794 52.3479 72.3238C51.803 72.8682 51.803 73.7509 52.3479 74.2953C52.8929 74.8397 53.7764 74.8397 54.3213 74.2953Z" fill="#D6CCEA"/>
<path d="M56.9321 75.7524C56.5444 75.7524 56.2343 76.0622 56.2343 76.4494C56.2343 76.8366 56.5444 77.1464 56.9321 77.1464C57.3197 77.1464 57.6298 76.8366 57.6298 76.4494C57.6298 76.0622 57.3197 75.7524 56.9321 75.7524Z" fill="#D6CCEA"/>
<path d="M174.031 21.8106C173.746 22.172 173.385 22.3785 172.919 22.4302C172.454 22.4818 172.054 22.3785 171.692 22.0946C171.33 21.8106 171.123 21.4492 171.072 20.9845C171.02 20.5198 171.123 20.1197 171.408 19.7582C171.692 19.3968 172.054 19.1903 172.519 19.1387C172.984 19.087 173.384 19.1903 173.746 19.4743C174.108 19.7582 174.315 20.1197 174.366 20.5843C174.418 21.049 174.302 21.4621 174.031 21.8106ZM177.183 17.4219C176.382 18.4546 175.594 18.674 174.832 18.0802C174.056 17.4736 174.069 16.6604 174.883 15.6277L180.245 8.74788C181.021 7.75398 181.796 7.54745 182.558 8.14121C183.333 8.74788 183.333 9.54816 182.558 10.5421L177.183 17.4219Z" fill="#50968E"/>
<path d="M171.24 15.7052C171.085 16.1311 170.787 16.4409 170.374 16.6216C169.948 16.8153 169.534 16.8282 169.108 16.6733C168.681 16.5184 168.371 16.2215 168.19 15.8085C167.997 15.3825 167.984 14.9694 168.139 14.5435C168.294 14.1175 168.591 13.8077 169.004 13.627C169.431 13.4334 169.844 13.4205 170.271 13.5754C170.697 13.7303 171.007 14.0272 171.188 14.4402C171.382 14.8533 171.395 15.2792 171.24 15.7052ZM172.945 10.5679C172.48 11.7941 171.795 12.233 170.891 11.8974C169.973 11.5489 169.741 10.7615 170.206 9.53525L173.281 1.37751C173.72 0.18999 174.405 -0.22306 175.31 0.112543C176.227 0.461054 176.472 1.22262 176.02 2.39723L172.945 10.5679Z" fill="#50968E"/>
<path d="M81.7136 55.0224C91.1714 53.5767 97.0373 57.1005 101.508 67.4784C101.508 67.4784 98.6394 50.5176 81.7136 55.0224Z" fill="#745DAF"/>
<path d="M87.7991 53.4089C94.3628 52.4021 98.4327 54.8546 101.521 62.0443C101.534 62.0443 99.5439 50.2852 87.7991 53.4089Z" fill="#745DAF"/>
<path d="M44.4121 63.4125C45.1685 63.4125 45.7817 62.7999 45.7817 62.0442C45.7817 61.2886 45.1685 60.676 44.4121 60.676C43.6557 60.676 43.0425 61.2886 43.0425 62.0442C43.0425 62.7999 43.6557 63.4125 44.4121 63.4125Z" fill="#745DAF"/>
<path d="M48.1849 63.4125C48.9413 63.4125 49.5545 62.7999 49.5545 62.0442C49.5545 61.2886 48.9413 60.676 48.1849 60.676C47.4285 60.676 46.8153 61.2886 46.8153 62.0442C46.8153 62.7999 47.4285 63.4125 48.1849 63.4125Z" fill="#745DAF"/>
<path d="M51.9706 63.4125C52.727 63.4125 53.3402 62.7999 53.3402 62.0442C53.3402 61.2886 52.727 60.676 51.9706 60.676C51.2142 60.676 50.601 61.2886 50.601 62.0442C50.601 62.7999 51.2142 63.4125 51.9706 63.4125Z" fill="#745DAF"/>
<path d="M148.202 42.7987C148.719 45.0705 149.391 45.9869 150.36 46.0386C150.36 46.0386 148.202 47.6262 148.202 42.7987Z" fill="#EFA69E"/>
<path d="M52.5521 150.45C52.5521 150.45 53.224 158.362 57.7203 158.233C62.2166 158.104 66.0669 151.973 66.0669 151.973L52.5521 150.45Z" fill="#EFA69E"/>
<path d="M76.6617 58.2364C76.6617 58.2364 90.4221 54.0414 97.3474 67.9818C102.632 78.6308 111.03 83.3163 112.813 95.2044C114.596 107.093 112.271 107.48 115.875 113.404C119.48 119.329 114.402 126.712 108.046 127.771C101.689 128.829 76.9718 122.453 74.8399 116.67C72.6951 110.887 67.6432 100.613 64.9945 96.4694C62.3458 92.3389 65.8085 84.7749 63.0952 75.4555C61.4801 69.8922 64.6715 58.9851 76.6617 58.2364Z" fill="#2C3A64"/>
<path d="M108.937 179.828C100.41 152.58 109.751 146.655 108.86 133.011C107.968 119.368 97.3991 104.717 97.3991 104.717C97.3991 104.717 96.8694 104.524 95.952 104.446C95.2414 104.072 95.0476 101.245 95.0605 98.1216C95.0734 94.3654 95.3577 90.3769 95.3577 90.3769L91.9079 89.6928L82.6827 87.8728L81.9333 87.7179C81.9462 89.809 81.817 91.7322 81.5973 93.4619C81.2097 96.5985 80.512 99.1155 79.7368 100.897C78.9616 102.717 78.1088 103.762 77.4499 103.943C75.6798 104.304 71.5194 103.698 69.5167 106.525C64.7232 113.288 62.475 128.197 64.2322 139.995C64.5423 142.124 65.0591 144.228 65.7956 146.268C68.9353 154.955 70.5632 158.491 70.4857 161.77C70.3824 165.913 67.5786 169.644 61.6869 182.836C58.4309 190.116 117.646 207.67 108.937 179.828Z" fill="#FEBAB0"/>
<path d="M110.423 204.96C110.462 200.752 110.488 197.06 110.513 196.26C110.707 189.87 110.423 186.321 110.423 186.321L109.712 186.398L95.3964 188.076L79.2846 189.961L77.8375 190.128C77.8375 190.916 77.8245 191.703 77.8116 192.516C77.8116 193.872 77.7987 195.253 77.7599 196.673C77.747 197.525 77.2948 200.132 76.778 202.972C87.5666 203.837 98.9237 204.534 110.423 204.96Z" fill="#183B6D"/>
<path d="M74.7236 202.817C80.3311 203.282 86.0936 203.695 91.9596 204.056C92.3988 201.694 92.7477 199.796 92.8381 199.396C93.2128 197.796 93.5488 196.337 93.8589 195.008C94.6341 191.613 95.1638 189.173 95.3964 188.063C95.4868 187.624 95.5385 187.392 95.5385 187.392L70.7312 181.958L64.6585 180.641C63.7024 181.777 62.798 183.107 61.9711 184.63V184.643C60.8341 186.734 59.8133 189.186 58.9089 191.884C58.573 192.852 58.2629 193.859 57.9528 194.904C57.6427 195.963 57.113 198.338 56.5961 200.803C63.5991 202.133 69.8267 202.339 74.7236 202.817Z" fill="#2A4E96"/>
<path d="M111.314 108.357C108.821 106.189 101.236 105.143 97.9547 104.795C97.7738 104.769 97.5929 104.743 97.412 104.717C97.412 104.717 96.3913 104.601 96.4171 104.64C96.8823 105.466 103.058 114.811 102.58 117.212C102.076 119.729 80.1631 117.457 78.6515 116.076C77.1398 114.695 74.7495 104.098 74.7495 104.098C74.7495 104.098 66.9972 104.95 63.1985 107.699C63.1985 107.699 63.2115 107.712 63.2373 107.751C62.7851 108.074 62.4362 108.422 62.2424 108.796C58.1854 116.502 54.1413 135.929 51.2988 149.804C58.1854 153.599 64.2063 152.464 66.0798 151.973C63.6378 167.94 58.0949 185.082 57.7332 192.362C57.6815 193.42 57.7332 194.272 57.927 194.879C58.5988 196.995 60.9116 197.951 66.4803 197.383C69.8914 197.034 71.4031 191.316 72.0878 186.45C74.1293 193.42 76.9976 197.331 80.7058 198.144C86.1195 199.345 113.382 202.662 115.178 189.703C116.599 179.376 113.911 163.306 112.193 150.05C116.806 150.05 118.602 147.313 118.795 146.5C119.015 145.584 116.121 112.553 111.314 108.357Z" fill="#745DAF"/>
<path d="M57.7331 192.349C61.4801 191.097 66.2865 187.779 72.062 180.319C87.3469 160.583 73.354 137.387 71.4806 136.961C69.6071 136.535 66.0798 151.96 66.0798 151.96C63.6378 167.927 58.0949 185.069 57.7331 192.349Z" fill="#513B6D" fill-opacity="0.3"/>
<path d="M79.7367 100.897C85.7447 100.729 95.3576 90.364 95.3576 90.364C94.3627 89.8476 93.1869 89.6411 91.9078 89.6798C88.6002 89.7573 84.6336 91.4224 81.5973 93.4489C81.1967 96.5984 80.499 99.1155 79.7367 100.897Z" fill="#EFA69E"/>
<path d="M78.9745 97.4504C78.9745 97.4504 96.9598 94.8688 95.0863 84.5813C93.2129 74.2937 94.2853 67.0266 82.7214 68.2271C71.1576 69.4404 69.6459 73.7129 69.3616 77.3013C69.0903 80.8767 74.2456 97.8634 78.9745 97.4504Z" fill="#FEBAB0"/>
<path d="M71.5968 65.9295C71.5968 65.9295 74.2068 73.0288 86.0807 77.7014C94.4273 80.98 93.2128 97.4633 95.1121 101.491C97.0114 105.518 110.152 100.548 111.637 102.859C111.637 102.859 108.73 93.2553 103.536 86.9563C98.3422 80.6573 100.836 73.4935 96.1328 67.543C91.4427 61.5666 72.5529 63.5932 71.5968 65.9295Z" fill="#2C3A64"/>
<path d="M106.043 139.995C104.983 139.995 98.6265 139.995 98.6265 139.995C94.802 141.324 69.943 146.397 58.0303 149.417C53.4952 150.566 52.5262 156.826 56.6866 158.982C58.9993 160.182 61.9065 160.712 64.7877 160.544C71.4676 160.144 99.7764 143.841 99.7764 143.841H112.736C112.723 143.828 109.803 139.995 106.043 139.995Z" fill="#FEBAB0"/>
<path d="M114.39 143.906C102.115 143.376 81.9204 141.892 77.9021 141.363C77.9021 141.363 71.5194 141.685 70.6149 142.073C69.7105 142.46 67.4365 147.171 67.4365 147.171L74.5815 145.558C74.5815 145.558 103.433 157.123 110.048 156.155C112.904 155.742 115.643 154.619 117.658 152.98C121.276 150.05 119.054 144.099 114.39 143.906Z" fill="#FEBAB0"/>
<path d="M60.7177 112.178C58.4696 111.068 58.5083 107.26 62.6946 104.537C66.8808 101.813 69.3098 104.059 68.8964 105.234C68.4829 106.421 60.7177 112.178 60.7177 112.178Z" fill="#006359"/>
<path d="M60.1235 110.461C59.7488 112.165 61.4026 112.436 62.7592 113.818C65.6793 116.812 65.24 118.916 66.3899 119.691C68.0696 120.814 69.62 117.406 69.62 117.406C71.6227 113.275 70.9767 110.152 69.6846 107.983C70.4599 108.435 71.1059 108.758 71.3643 108.693C72.0232 108.538 71.3901 107.273 69.5813 105.802C66.6612 103.427 60.7307 106.718 60.1235 110.461Z" fill="#FEBAB0"/>
<path d="M77.9925 91.0998C78.7806 89.0475 81.8686 89.0475 83.8713 91.0998C83.8713 91.0998 80.2148 89.1378 77.9925 91.0998Z" fill="#EFA69E"/>
</svg>
