<svg width="331" height="270" viewBox="0 0 331 270" fill="none" xmlns="http://www.w3.org/2000/svg">
<rect x="0.5" y="0.5" width="330" height="269" rx="9.5" fill="white" stroke="#EDEEED"/>
<path d="M197.513 115.689C213.798 99.3838 213.798 72.9472 197.513 56.6416C181.227 40.3361 154.823 40.3361 138.538 56.6416C122.253 72.9472 122.253 99.3838 138.538 115.689C154.823 131.995 181.227 131.995 197.513 115.689Z" fill="#ECF5F4"/>
<path d="M182.738 125.212C175.659 128.262 166.65 128.434 160.686 127.231L162.145 118.983L181.623 101.629L182.738 125.212Z" fill="#FFB9B0"/>
<path d="M178.577 126.63C179.993 126.243 181.408 125.771 182.695 125.212L181.623 101.629L177.547 105.28C178.362 112.368 178.577 119.499 178.577 126.63Z" fill="#FFB9B0"/>
<path d="M172.227 127.746C168.023 128.133 163.904 127.875 160.729 127.231L162.188 118.983L174.115 112.368C173.729 116.32 173.128 123.837 172.227 127.746Z" fill="#FFB9B0"/>
<path d="M168.923 84.6614C162.745 82.4277 157.812 83.8882 153.049 92.0499C148.287 100.169 141.723 107.256 144.855 109.791C147.987 112.325 154.122 119.671 163.432 118.983C177.332 117.91 186.986 91.1907 168.923 84.6614Z" fill="#FFB9B0"/>
<path d="M151.891 112.841C154.937 114.559 158.798 113.442 160.514 110.392L180.422 74.6096L164.59 65.8036L149.059 104.98C147.901 107.901 149.102 111.294 151.891 112.841Z" fill="#4198C5"/>
<path d="M179.735 78.132L184.798 80.9671C187.887 82.6854 191.748 81.5685 193.464 78.5186L195.137 75.5117C196.853 72.4189 195.738 68.5528 192.692 66.8345L187.629 63.9994C184.54 62.2812 180.679 63.398 178.963 66.4479L177.29 69.4549C175.531 72.5477 176.646 76.4138 179.735 78.132Z" fill="#7EC6DC"/>
<path d="M177.075 69.7986L179.134 66.0614C179.392 65.5889 179.735 65.1593 180.078 64.7727L179.006 66.7057C177.418 69.5838 178.448 73.2351 181.322 74.8245L187.071 78.0462C189.474 79.3778 192.391 78.9053 194.236 77.0152L193.25 78.7764C191.662 81.6545 188.015 82.6855 185.141 81.0961L179.392 77.8744C176.517 76.3279 175.445 72.6767 177.075 69.7986Z" fill="#4198C5"/>
<path d="M166.092 74.5666L176.002 80.108C179.692 82.1699 184.326 80.8382 186.342 77.144L190.246 70.1421C192.306 66.4479 190.976 61.8086 187.286 59.7897L177.375 54.2483C173.686 52.1864 169.052 53.518 167.036 57.2123L163.132 64.2142C161.115 67.8654 162.445 72.5047 166.092 74.5666Z" fill="#7EC6DC"/>
<path d="M162.96 64.5579L167.25 56.8687C167.937 55.6659 168.881 54.7209 169.996 54.0765C169.953 54.1195 169.91 54.2054 169.867 54.2484L165.577 61.9375C163.646 65.417 164.891 69.8415 168.366 71.7745L178.963 77.7025C181.237 78.9912 183.94 78.8623 186.042 77.6595C184.068 81.0101 179.735 82.1699 176.346 80.2799L165.749 74.3519C162.274 72.4189 161.029 68.0373 162.96 64.5579Z" fill="#4198C5"/>
<path d="M123.06 71.1302C141.98 72.3759 152.492 69.9274 164.118 76.4138C172.055 80.8383 185.827 56.0526 177.89 51.6281C165.234 44.5403 161.887 34.6604 151.848 19.4109L123.06 71.1302Z" fill="#CEEAEB"/>
<path d="M126.063 65.8037C144.383 66.8776 154.723 64.6439 166.135 71.0014C170.468 73.4069 176.474 67.1783 179.821 60.2623C177.761 68.7247 169.567 79.4208 164.161 76.3709C152.534 69.8845 142.023 72.333 123.103 71.0873L126.063 65.8037Z" fill="#7EC6DC"/>
<path d="M145.752 49.8823C153.7 35.6041 156.434 21.9604 151.86 19.4081C147.286 16.8558 137.135 26.3614 129.188 40.6396C121.241 54.9177 118.506 68.5615 123.08 71.1138C127.654 73.6661 137.805 64.1604 145.752 49.8823Z" fill="#3F98CA"/>
<path d="M125.119 71.5167C123.704 66.276 126.707 55.2362 133.057 43.7669C139.964 31.3526 148.545 22.5465 153.693 22.1599C155.152 27.4006 152.148 38.4403 145.756 49.9097C138.848 62.324 130.268 71.1301 125.119 71.5167Z" fill="#78C9DA"/>
<path d="M121.73 74.6097C127.865 78.0462 140.136 67.7796 149.059 51.714C157.983 35.6483 160.257 19.8404 154.122 16.4039C147.987 12.9674 135.716 23.234 126.793 39.2996C117.826 55.3653 115.552 71.1732 121.73 74.6097ZM129.152 40.6313C137.089 26.3698 147.257 16.8765 151.848 19.4109C156.439 21.9883 153.693 35.6054 145.756 49.8669C137.819 64.1283 127.651 73.6217 123.06 71.0873C118.512 68.5528 121.215 54.8928 129.152 40.6313Z" fill="#75C0E0"/>
<g opacity="0.5">
<path opacity="0.5" d="M128.423 38.6982C136.403 24.4367 146.528 14.9434 151.119 17.4778C152.148 18.0362 152.792 19.1531 153.092 20.6995C152.749 20.1411 152.32 19.7115 151.805 19.4108C147.215 16.8335 137.047 26.3698 129.109 40.6312C122.974 51.7569 119.971 62.496 121.087 67.9085C118.47 63.5699 121.387 51.3703 128.423 38.6982Z" fill="#75C0E0"/>
<path opacity="0.5" d="M121.001 72.6765C127.136 76.113 139.406 65.8464 148.33 49.7808C155.152 37.5383 158.112 25.4246 156.353 18.8523C159.399 24.7373 156.61 38.1397 149.059 51.7138C140.093 67.8224 127.865 78.046 121.73 74.6095C120.271 73.7934 119.285 72.2899 118.77 70.228C119.285 71.3448 120.057 72.161 121.001 72.6765Z" fill="#75C0E0"/>
</g>
<path d="M145.756 49.9098C143.997 53.0456 142.195 55.9237 140.307 58.5011L132.284 54.0336L142.195 36.2498L150.218 40.7172C148.974 43.6812 147.515 46.774 145.756 49.9098Z" fill="#3F98CA"/>
<path d="M148.03 45.5283C148.03 45.5283 149.574 42.3066 150.218 40.7172L142.152 36.2498L139.492 41.0609L148.03 45.5283Z" fill="#3F98CA"/>
<path d="M142.152 36.2498L142.795 36.5934L135.802 49.1796L143.611 53.5182C142.538 55.2794 141.423 56.9547 140.307 58.5011L132.284 54.0336L142.152 36.2498Z" fill="#4198C5"/>
<path d="M134.387 43.5522C131.641 48.4492 130.697 53.1314 132.284 54.0335C133.872 54.8926 137.347 51.628 140.093 46.731C142.838 41.8339 143.782 37.1517 142.195 36.2496C140.607 35.3905 137.089 38.6552 134.387 43.5522Z" fill="#CEEAEB"/>
<path d="M146.571 103.176C143.611 102.402 140.565 107.901 144.383 110.177C148.63 112.712 152.492 113.442 153.65 113.614C156.61 114.044 157.94 110.049 154.937 107.729C151.934 105.409 149.102 103.82 146.571 103.176Z" fill="#FFB9B0"/>
<path opacity="0.3" d="M153.65 113.614C152.492 113.442 148.63 112.712 144.383 110.177C142.796 109.232 142.409 107.729 142.71 106.354C142.924 106.526 143.139 106.741 143.396 106.87C147.644 109.404 151.505 110.134 152.663 110.306C154.208 110.521 155.28 109.576 155.581 108.287C157.683 110.65 156.353 114 153.65 113.614Z" fill="#EF9F9A"/>
<path d="M148.373 96.0877C144.898 95.1856 141.294 101.672 145.756 104.335C150.776 107.342 155.323 108.201 156.696 108.373C160.214 108.889 161.759 104.163 158.241 101.414C154.766 98.708 151.376 96.8609 148.373 96.0877Z" fill="#FFB9B0"/>
<path opacity="0.3" d="M156.739 108.416C155.366 108.201 150.818 107.342 145.799 104.335C143.825 103.175 143.439 101.242 143.868 99.5671C144.126 100.469 144.726 101.285 145.799 101.93C150.818 104.937 155.366 105.796 156.739 106.011C158.412 106.268 159.614 105.323 160.085 103.992C160.815 106.354 159.313 108.803 156.739 108.416Z" fill="#EF9F9A"/>
<path d="M153.478 87.8831C149.789 85.9501 143.954 92.2646 148.287 96.5603C153.135 101.328 158.112 103.519 159.571 104.121C163.432 105.667 166.435 100.727 163.175 96.6462C159.957 92.5653 156.61 89.5584 153.478 87.8831Z" fill="#FFB9B0"/>
<path opacity="0.3" d="M159.571 104.121C158.112 103.519 153.135 101.329 148.287 96.5604C146.657 94.971 146.442 93.0809 147.043 91.4486C147.3 92.093 147.686 92.6943 148.287 93.2957C153.135 98.0639 158.112 100.255 159.571 100.856C161.716 101.715 163.604 100.555 164.29 98.6653C165.448 102.102 162.788 105.409 159.571 104.121Z" fill="#EF9F9A"/>
<path d="M159.485 81.5256C156.053 79.7214 150.647 85.6064 154.68 89.5584C159.184 93.9829 163.003 96.3026 164.333 96.9899C168.065 98.8799 171.455 94.5843 168.452 90.8042C165.448 87.067 162.445 83.072 159.485 81.5256Z" fill="#FFB9B0"/>
<path opacity="0.3" d="M164.333 96.9899C163.003 96.3026 159.185 93.9829 154.68 89.5584C152.749 87.6684 153.006 85.3058 154.165 83.5446C154.208 84.6185 154.594 85.6494 155.581 86.6374C160.085 91.0619 163.904 93.3815 165.234 94.0688C166.95 94.928 168.58 94.4984 169.567 93.4245C169.867 96.2596 167.207 98.4504 164.333 96.9899Z" fill="#EF9F9A"/>
<path d="M163.518 77.4878C160 77.4878 157.168 84.4897 168.409 89.8592C168.194 92.8232 170.296 94.7992 168.194 97.3336C164.976 101.2 163.303 103.39 163.99 107.6C164.676 111.896 169.91 114.645 175.059 111.939C180.293 109.19 187.672 96.0449 174.372 84.2319C173.128 83.158 167.25 80.1511 166.693 79.5927C164.976 77.8314 164.462 77.4878 163.518 77.4878Z" fill="#FFB9B0"/>
<path opacity="0.3" d="M175.059 111.939C169.953 114.602 164.676 111.896 163.99 107.6C163.303 103.433 164.976 101.243 168.194 97.3336C170.296 94.7992 168.194 92.8232 168.409 89.8592C157.168 84.4897 159.957 77.4878 163.518 77.4878C163.603 77.4878 163.689 77.4878 163.732 77.4878C162.231 79.8074 163.046 84.5326 171.112 88.3987C170.897 91.3627 172.999 93.3387 170.897 95.8731C167.679 99.7391 166.006 101.93 166.693 106.14C167.336 110.049 168.966 111.853 175.059 111.939Z" fill="#EF9F9A"/>
<path d="M30.7345 191.402H26.5646L25.6281 194H24.2746L28.0753 184.047H29.2238L33.0314 194H31.6847L30.7345 191.402ZM26.9611 190.322H30.3449L28.6496 185.667L26.9611 190.322ZM40.2688 190.384C40.2688 191.509 40.0113 192.416 39.4964 193.104C38.9814 193.793 38.2841 194.137 37.4046 194.137C36.5068 194.137 35.8004 193.852 35.2854 193.282V196.844H34.0208V186.604H35.176L35.2376 187.424C35.7525 186.786 36.468 186.467 37.3841 186.467C38.2727 186.467 38.9746 186.802 39.4895 187.472C40.0091 188.142 40.2688 189.074 40.2688 190.268V190.384ZM39.0042 190.24C39.0042 189.406 38.8264 188.748 38.471 188.265C38.1155 187.782 37.6279 187.54 37.0081 187.54C36.2425 187.54 35.6682 187.88 35.2854 188.559V192.093C35.6637 192.767 36.2425 193.104 37.0218 193.104C37.6279 193.104 38.1087 192.865 38.4641 192.387C38.8242 191.904 39.0042 191.188 39.0042 190.24ZM46.2963 193.269C45.8041 193.847 45.0818 194.137 44.1293 194.137C43.3409 194.137 42.7393 193.909 42.3246 193.453C41.9145 192.993 41.7071 192.314 41.7025 191.416V186.604H42.9672V191.382C42.9672 192.503 43.4229 193.063 44.3344 193.063C45.3005 193.063 45.9431 192.703 46.2621 191.983V186.604H47.5268V194H46.3236L46.2963 193.269ZM50.4986 186.604L50.5396 187.533C51.1047 186.822 51.843 186.467 52.7544 186.467C54.3176 186.467 55.106 187.349 55.1197 189.112V194H53.855V189.105C53.8505 188.572 53.7274 188.178 53.4859 187.923C53.2489 187.668 52.8775 187.54 52.3716 187.54C51.9615 187.54 51.6014 187.649 51.2915 187.868C50.9817 188.087 50.7401 188.374 50.5669 188.729V194H49.3023V186.604H50.4986ZM58.5905 184.812V186.604H59.9714V187.581H58.5905V192.168C58.5905 192.464 58.652 192.688 58.7751 192.838C58.8981 192.984 59.1078 193.057 59.404 193.057C59.5498 193.057 59.7503 193.029 60.0055 192.975V194C59.6729 194.091 59.3493 194.137 59.0348 194.137C58.4697 194.137 58.0436 193.966 57.7565 193.624C57.4694 193.282 57.3259 192.797 57.3259 192.168V187.581H55.9792V186.604H57.3259V184.812H58.5905ZM65.869 194C65.796 193.854 65.7368 193.594 65.6912 193.221C65.1033 193.831 64.4015 194.137 63.5858 194.137C62.8566 194.137 62.2573 193.932 61.7879 193.521C61.3231 193.107 61.0906 192.583 61.0906 191.949C61.0906 191.179 61.3823 190.582 61.9656 190.158C62.5535 189.73 63.3784 189.516 64.4402 189.516H65.6707V188.935C65.6707 188.493 65.5386 188.142 65.2742 187.882C65.0099 187.618 64.6203 187.485 64.1053 187.485C63.6541 187.485 63.2759 187.599 62.9705 187.827C62.6652 188.055 62.5125 188.331 62.5125 188.654H61.241C61.241 188.285 61.3709 187.93 61.6307 187.588C61.895 187.242 62.2505 186.968 62.6971 186.768C63.1483 186.567 63.6427 186.467 64.1805 186.467C65.0327 186.467 65.7003 186.681 66.1834 187.109C66.6665 187.533 66.9171 188.119 66.9354 188.866V192.271C66.9354 192.95 67.022 193.49 67.1951 193.891V194H65.869ZM63.7703 193.036C64.1668 193.036 64.5428 192.934 64.8983 192.729C65.2537 192.523 65.5112 192.257 65.6707 191.929V190.411H64.6795C63.13 190.411 62.3553 190.865 62.3553 191.771C62.3553 192.168 62.4874 192.478 62.7518 192.701C63.0161 192.924 63.3556 193.036 63.7703 193.036ZM76.6524 194C76.5795 193.854 76.5203 193.594 76.4747 193.221C75.8868 193.831 75.185 194.137 74.3692 194.137C73.6401 194.137 73.0408 193.932 72.5714 193.521C72.1065 193.107 71.8741 192.583 71.8741 191.949C71.8741 191.179 72.1658 190.582 72.7491 190.158C73.337 189.73 74.1619 189.516 75.2237 189.516H76.4542V188.935C76.4542 188.493 76.322 188.142 76.0577 187.882C75.7934 187.618 75.4037 187.485 74.8887 187.485C74.4376 187.485 74.0593 187.599 73.754 187.827C73.4486 188.055 73.296 188.331 73.296 188.654H72.0245C72.0245 188.285 72.1544 187.93 72.4141 187.588C72.6785 187.242 73.0339 186.968 73.4805 186.768C73.9317 186.567 74.4262 186.467 74.9639 186.467C75.8162 186.467 76.4838 186.681 76.9669 187.109C77.4499 187.533 77.7006 188.119 77.7188 188.866V192.271C77.7188 192.95 77.8054 193.49 77.9786 193.891V194H76.6524ZM74.5538 193.036C74.9503 193.036 75.3262 192.934 75.6817 192.729C76.0372 192.523 76.2947 192.257 76.4542 191.929V190.411H75.463C73.9135 190.411 73.1387 190.865 73.1387 191.771C73.1387 192.168 73.2709 192.478 73.5352 192.701C73.7996 192.924 74.1391 193.036 74.5538 193.036ZM84.2435 194H82.9789V186.604H84.2435V194ZM82.8763 184.642C82.8763 184.437 82.9378 184.263 83.0609 184.122C83.1885 183.981 83.3753 183.91 83.6214 183.91C83.8675 183.91 84.0544 183.981 84.182 184.122C84.3096 184.263 84.3734 184.437 84.3734 184.642C84.3734 184.847 84.3096 185.018 84.182 185.154C84.0544 185.291 83.8675 185.359 83.6214 185.359C83.3753 185.359 83.1885 185.291 83.0609 185.154C82.9378 185.018 82.8763 184.847 82.8763 184.642ZM87.311 186.604L87.3452 187.424C87.8875 186.786 88.619 186.467 89.5395 186.467C90.574 186.467 91.2781 186.863 91.6518 187.656C91.8979 187.301 92.2169 187.014 92.6089 186.795C93.0054 186.576 93.4725 186.467 94.0102 186.467C95.6326 186.467 96.4575 187.326 96.4848 189.044V194H95.2202V189.119C95.2202 188.59 95.0994 188.196 94.8579 187.937C94.6164 187.672 94.2108 187.54 93.6411 187.54C93.1717 187.54 92.782 187.681 92.4722 187.964C92.1623 188.242 91.9822 188.618 91.9321 189.092V194H90.6606V189.153C90.6606 188.078 90.1343 187.54 89.0815 187.54C88.2521 187.54 87.6847 187.893 87.3794 188.6V194H86.1147V186.604H87.311ZM104.495 190.384C104.495 191.509 104.237 192.416 103.722 193.104C103.207 193.793 102.51 194.137 101.63 194.137C100.733 194.137 100.026 193.852 99.5113 193.282V196.844H98.2467V186.604H99.402L99.4635 187.424C99.9785 186.786 100.694 186.467 101.61 186.467C102.499 186.467 103.2 186.802 103.715 187.472C104.235 188.142 104.495 189.074 104.495 190.268V190.384ZM103.23 190.24C103.23 189.406 103.052 188.748 102.697 188.265C102.341 187.782 101.854 187.54 101.234 187.54C100.468 187.54 99.8942 187.88 99.5113 188.559V192.093C99.8896 192.767 100.468 193.104 101.248 193.104C101.854 193.104 102.335 192.865 102.69 192.387C103.05 191.904 103.23 191.188 103.23 190.24ZM107.33 194H106.065V183.5H107.33V194ZM112.277 194.137C111.275 194.137 110.459 193.809 109.83 193.152C109.201 192.492 108.887 191.61 108.887 190.507V190.274C108.887 189.541 109.026 188.887 109.304 188.312C109.586 187.734 109.978 187.283 110.479 186.959C110.985 186.631 111.532 186.467 112.12 186.467C113.082 186.467 113.829 186.784 114.362 187.417C114.895 188.05 115.162 188.957 115.162 190.138V190.664H110.151C110.169 191.393 110.381 191.983 110.787 192.435C111.197 192.881 111.717 193.104 112.346 193.104C112.792 193.104 113.17 193.013 113.48 192.831C113.79 192.649 114.061 192.407 114.294 192.106L115.066 192.708C114.447 193.66 113.517 194.137 112.277 194.137ZM112.12 187.506C111.61 187.506 111.181 187.693 110.835 188.066C110.488 188.436 110.274 188.955 110.192 189.625H113.897V189.529C113.861 188.887 113.688 188.39 113.378 188.039C113.068 187.684 112.649 187.506 112.12 187.506ZM117.669 186.604L117.703 187.424C118.245 186.786 118.977 186.467 119.897 186.467C120.932 186.467 121.636 186.863 122.01 187.656C122.256 187.301 122.575 187.014 122.967 186.795C123.363 186.576 123.83 186.467 124.368 186.467C125.991 186.467 126.815 187.326 126.843 189.044V194H125.578V189.119C125.578 188.59 125.457 188.196 125.216 187.937C124.974 187.672 124.569 187.54 123.999 187.54C123.53 187.54 123.14 187.681 122.83 187.964C122.52 188.242 122.34 188.618 122.29 189.092V194H121.019V189.153C121.019 188.078 120.492 187.54 119.439 187.54C118.61 187.54 118.043 187.893 117.737 188.6V194H116.473V186.604H117.669ZM131.674 194.137C130.671 194.137 129.856 193.809 129.227 193.152C128.598 192.492 128.283 191.61 128.283 190.507V190.274C128.283 189.541 128.422 188.887 128.7 188.312C128.983 187.734 129.375 187.283 129.876 186.959C130.382 186.631 130.929 186.467 131.517 186.467C132.478 186.467 133.226 186.784 133.759 187.417C134.292 188.05 134.559 188.957 134.559 190.138V190.664H129.548C129.566 191.393 129.778 191.983 130.184 192.435C130.594 192.881 131.113 193.104 131.742 193.104C132.189 193.104 132.567 193.013 132.877 192.831C133.187 192.649 133.458 192.407 133.691 192.106L134.463 192.708C133.843 193.66 132.914 194.137 131.674 194.137ZM131.517 187.506C131.006 187.506 130.578 187.693 130.232 188.066C129.885 188.436 129.671 188.955 129.589 189.625H133.294V189.529C133.258 188.887 133.084 188.39 132.775 188.039C132.465 187.684 132.045 187.506 131.517 187.506ZM137.073 186.604L137.114 187.533C137.679 186.822 138.417 186.467 139.328 186.467C140.892 186.467 141.68 187.349 141.694 189.112V194H140.429V189.105C140.424 188.572 140.301 188.178 140.06 187.923C139.823 187.668 139.451 187.54 138.946 187.54C138.535 187.54 138.175 187.649 137.866 187.868C137.556 188.087 137.314 188.374 137.141 188.729V194H135.876V186.604H137.073ZM145.164 184.812V186.604H146.545V187.581H145.164V192.168C145.164 192.464 145.226 192.688 145.349 192.838C145.472 192.984 145.682 193.057 145.978 193.057C146.124 193.057 146.324 193.029 146.58 192.975V194C146.247 194.091 145.923 194.137 145.609 194.137C145.044 194.137 144.618 193.966 144.33 193.624C144.043 193.282 143.9 192.797 143.9 192.168V187.581H142.553V186.604H143.9V184.812H145.164ZM152.443 194C152.37 193.854 152.311 193.594 152.265 193.221C151.677 193.831 150.975 194.137 150.16 194.137C149.431 194.137 148.831 193.932 148.362 193.521C147.897 193.107 147.665 192.583 147.665 191.949C147.665 191.179 147.956 190.582 148.54 190.158C149.127 189.73 149.952 189.516 151.014 189.516H152.245V188.935C152.245 188.493 152.113 188.142 151.848 187.882C151.584 187.618 151.194 187.485 150.679 187.485C150.228 187.485 149.85 187.599 149.544 187.827C149.239 188.055 149.086 188.331 149.086 188.654H147.815C147.815 188.285 147.945 187.93 148.205 187.588C148.469 187.242 148.824 186.968 149.271 186.768C149.722 186.567 150.217 186.467 150.754 186.467C151.607 186.467 152.274 186.681 152.757 187.109C153.24 187.533 153.491 188.119 153.509 188.866V192.271C153.509 192.95 153.596 193.49 153.769 193.891V194H152.443ZM150.344 193.036C150.741 193.036 151.117 192.934 151.472 192.729C151.828 192.523 152.085 192.257 152.245 191.929V190.411H151.253C149.704 190.411 148.929 190.865 148.929 191.771C148.929 192.168 149.061 192.478 149.326 192.701C149.59 192.924 149.93 193.036 150.344 193.036ZM158.915 187.738C158.723 187.706 158.516 187.69 158.293 187.69C157.463 187.69 156.9 188.044 156.604 188.75V194H155.34V186.604H156.57L156.591 187.458C157.005 186.797 157.593 186.467 158.354 186.467C158.6 186.467 158.787 186.499 158.915 186.562V187.738ZM166.321 194.137C165.319 194.137 164.503 193.809 163.874 193.152C163.245 192.492 162.931 191.61 162.931 190.507V190.274C162.931 189.541 163.07 188.887 163.348 188.312C163.63 187.734 164.022 187.283 164.523 186.959C165.029 186.631 165.576 186.467 166.164 186.467C167.126 186.467 167.873 186.784 168.406 187.417C168.939 188.05 169.206 188.957 169.206 190.138V190.664H164.195C164.213 191.393 164.425 191.983 164.831 192.435C165.241 192.881 165.761 193.104 166.39 193.104C166.836 193.104 167.214 193.013 167.524 192.831C167.834 192.649 168.105 192.407 168.338 192.106L169.11 192.708C168.491 193.66 167.561 194.137 166.321 194.137ZM166.164 187.506C165.654 187.506 165.225 187.693 164.879 188.066C164.533 188.436 164.318 188.955 164.236 189.625H167.941V189.529C167.905 188.887 167.732 188.39 167.422 188.039C167.112 187.684 166.693 187.506 166.164 187.506ZM174.83 192.038C174.83 191.696 174.7 191.432 174.441 191.245C174.185 191.054 173.736 190.89 173.094 190.753C172.456 190.616 171.948 190.452 171.569 190.261C171.196 190.069 170.918 189.841 170.735 189.577C170.558 189.313 170.469 188.998 170.469 188.634C170.469 188.028 170.724 187.515 171.234 187.096C171.749 186.676 172.406 186.467 173.203 186.467C174.042 186.467 174.721 186.683 175.24 187.116C175.764 187.549 176.026 188.103 176.026 188.777H174.755C174.755 188.431 174.607 188.132 174.311 187.882C174.019 187.631 173.65 187.506 173.203 187.506C172.743 187.506 172.383 187.606 172.123 187.807C171.863 188.007 171.733 188.269 171.733 188.593C171.733 188.898 171.854 189.128 172.096 189.283C172.337 189.438 172.773 189.586 173.401 189.728C174.035 189.869 174.548 190.037 174.94 190.233C175.331 190.429 175.621 190.666 175.808 190.944C175.999 191.218 176.095 191.553 176.095 191.949C176.095 192.61 175.83 193.141 175.302 193.542C174.773 193.938 174.087 194.137 173.244 194.137C172.652 194.137 172.128 194.032 171.672 193.822C171.216 193.613 170.858 193.321 170.599 192.947C170.344 192.569 170.216 192.161 170.216 191.724H171.481C171.503 192.147 171.672 192.485 171.986 192.735C172.305 192.981 172.725 193.104 173.244 193.104C173.723 193.104 174.106 193.009 174.393 192.817C174.684 192.621 174.83 192.362 174.83 192.038ZM183.838 190.384C183.838 191.509 183.581 192.416 183.066 193.104C182.551 193.793 181.853 194.137 180.974 194.137C180.076 194.137 179.37 193.852 178.855 193.282V196.844H177.59V186.604H178.745L178.807 187.424C179.322 186.786 180.037 186.467 180.953 186.467C181.842 186.467 182.544 186.802 183.059 187.472C183.578 188.142 183.838 189.074 183.838 190.268V190.384ZM182.573 190.24C182.573 189.406 182.396 188.748 182.04 188.265C181.685 187.782 181.197 187.54 180.577 187.54C179.812 187.54 179.238 187.88 178.855 188.559V192.093C179.233 192.767 179.812 193.104 180.591 193.104C181.197 193.104 181.678 192.865 182.033 192.387C182.393 191.904 182.573 191.188 182.573 190.24ZM189.866 194C189.793 193.854 189.733 193.594 189.688 193.221C189.1 193.831 188.398 194.137 187.582 194.137C186.853 194.137 186.254 193.932 185.785 193.521C185.32 193.107 185.087 192.583 185.087 191.949C185.087 191.179 185.379 190.582 185.962 190.158C186.55 189.73 187.375 189.516 188.437 189.516H189.667V188.935C189.667 188.493 189.535 188.142 189.271 187.882C189.007 187.618 188.617 187.485 188.102 187.485C187.651 187.485 187.272 187.599 186.967 187.827C186.662 188.055 186.509 188.331 186.509 188.654H185.238C185.238 188.285 185.368 187.93 185.627 187.588C185.892 187.242 186.247 186.968 186.694 186.768C187.145 186.567 187.639 186.467 188.177 186.467C189.029 186.467 189.697 186.681 190.18 187.109C190.663 187.533 190.914 188.119 190.932 188.866V192.271C190.932 192.95 191.019 193.49 191.192 193.891V194H189.866ZM187.767 193.036C188.163 193.036 188.539 192.934 188.895 192.729C189.25 192.523 189.508 192.257 189.667 191.929V190.411H188.676C187.127 190.411 186.352 190.865 186.352 191.771C186.352 192.168 186.484 192.478 186.748 192.701C187.013 192.924 187.352 193.036 187.767 193.036ZM195.729 193.104C196.18 193.104 196.574 192.968 196.912 192.694C197.249 192.421 197.436 192.079 197.472 191.669H198.668C198.646 192.093 198.5 192.496 198.231 192.879C197.962 193.262 197.602 193.567 197.151 193.795C196.704 194.023 196.23 194.137 195.729 194.137C194.722 194.137 193.92 193.802 193.323 193.132C192.73 192.457 192.434 191.537 192.434 190.37V190.158C192.434 189.438 192.566 188.798 192.831 188.237C193.095 187.677 193.473 187.242 193.965 186.932C194.462 186.622 195.048 186.467 195.722 186.467C196.552 186.467 197.24 186.715 197.787 187.212C198.338 187.709 198.632 188.354 198.668 189.146H197.472C197.436 188.668 197.253 188.276 196.925 187.971C196.602 187.661 196.201 187.506 195.722 187.506C195.08 187.506 194.581 187.738 194.225 188.203C193.874 188.663 193.699 189.331 193.699 190.206V190.445C193.699 191.298 193.874 191.954 194.225 192.414C194.576 192.874 195.077 193.104 195.729 193.104ZM201.312 194H200.047V186.604H201.312V194ZM199.945 184.642C199.945 184.437 200.006 184.263 200.13 184.122C200.257 183.981 200.444 183.91 200.69 183.91C200.936 183.91 201.123 183.981 201.251 184.122C201.378 184.263 201.442 184.437 201.442 184.642C201.442 184.847 201.378 185.018 201.251 185.154C201.123 185.291 200.936 185.359 200.69 185.359C200.444 185.359 200.257 185.291 200.13 185.154C200.006 185.018 199.945 184.847 199.945 184.642ZM202.855 190.233C202.855 189.509 202.997 188.857 203.279 188.278C203.566 187.7 203.963 187.253 204.469 186.938C204.979 186.624 205.56 186.467 206.212 186.467C207.219 186.467 208.032 186.815 208.652 187.513C209.276 188.21 209.589 189.137 209.589 190.295V190.384C209.589 191.104 209.45 191.751 209.172 192.325C208.898 192.895 208.504 193.339 207.989 193.658C207.479 193.977 206.891 194.137 206.225 194.137C205.223 194.137 204.409 193.788 203.785 193.091C203.165 192.394 202.855 191.471 202.855 190.322V190.233ZM204.127 190.384C204.127 191.204 204.316 191.863 204.694 192.359C205.077 192.856 205.587 193.104 206.225 193.104C206.868 193.104 207.378 192.854 207.757 192.353C208.135 191.847 208.324 191.14 208.324 190.233C208.324 189.422 208.13 188.766 207.743 188.265C207.36 187.759 206.85 187.506 206.212 187.506C205.587 187.506 205.084 187.754 204.701 188.251C204.318 188.748 204.127 189.459 204.127 190.384ZM215.329 192.038C215.329 191.696 215.199 191.432 214.939 191.245C214.684 191.054 214.235 190.89 213.593 190.753C212.955 190.616 212.447 190.452 212.068 190.261C211.695 190.069 211.417 189.841 211.234 189.577C211.057 189.313 210.968 188.998 210.968 188.634C210.968 188.028 211.223 187.515 211.733 187.096C212.248 186.676 212.905 186.467 213.702 186.467C214.541 186.467 215.22 186.683 215.739 187.116C216.263 187.549 216.525 188.103 216.525 188.777H215.254C215.254 188.431 215.106 188.132 214.809 187.882C214.518 187.631 214.149 187.506 213.702 187.506C213.242 187.506 212.882 187.606 212.622 187.807C212.362 188.007 212.232 188.269 212.232 188.593C212.232 188.898 212.353 189.128 212.595 189.283C212.836 189.438 213.271 189.586 213.9 189.728C214.534 189.869 215.046 190.037 215.438 190.233C215.83 190.429 216.12 190.666 216.307 190.944C216.498 191.218 216.594 191.553 216.594 191.949C216.594 192.61 216.329 193.141 215.801 193.542C215.272 193.938 214.586 194.137 213.743 194.137C213.151 194.137 212.627 194.032 212.171 193.822C211.715 193.613 211.357 193.321 211.098 192.947C210.842 192.569 210.715 192.161 210.715 191.724H211.979C212.002 192.147 212.171 192.485 212.485 192.735C212.804 192.981 213.224 193.104 213.743 193.104C214.222 193.104 214.604 193.009 214.891 192.817C215.183 192.621 215.329 192.362 215.329 192.038ZM224.376 193.104C224.827 193.104 225.222 192.968 225.559 192.694C225.896 192.421 226.083 192.079 226.119 191.669H227.316C227.293 192.093 227.147 192.496 226.878 192.879C226.609 193.262 226.249 193.567 225.798 193.795C225.351 194.023 224.877 194.137 224.376 194.137C223.369 194.137 222.567 193.802 221.97 193.132C221.377 192.457 221.081 191.537 221.081 190.37V190.158C221.081 189.438 221.213 188.798 221.478 188.237C221.742 187.677 222.12 187.242 222.612 186.932C223.109 186.622 223.695 186.467 224.369 186.467C225.199 186.467 225.887 186.715 226.434 187.212C226.985 187.709 227.279 188.354 227.316 189.146H226.119C226.083 188.668 225.901 188.276 225.572 187.971C225.249 187.661 224.848 187.506 224.369 187.506C223.727 187.506 223.228 187.738 222.872 188.203C222.521 188.663 222.346 189.331 222.346 190.206V190.445C222.346 191.298 222.521 191.954 222.872 192.414C223.223 192.874 223.724 193.104 224.376 193.104ZM233.152 193.269C232.659 193.847 231.937 194.137 230.985 194.137C230.196 194.137 229.595 193.909 229.18 193.453C228.77 192.993 228.562 192.314 228.558 191.416V186.604H229.823V191.382C229.823 192.503 230.278 193.063 231.19 193.063C232.156 193.063 232.798 192.703 233.117 191.983V186.604H234.382V194H233.179L233.152 193.269ZM237.532 194H236.267V183.5H237.532V194ZM241.126 184.812V186.604H242.506V187.581H241.126V192.168C241.126 192.464 241.187 192.688 241.31 192.838C241.433 192.984 241.643 193.057 241.939 193.057C242.085 193.057 242.285 193.029 242.541 192.975V194C242.208 194.091 241.884 194.137 241.57 194.137C241.005 194.137 240.579 193.966 240.292 193.624C240.004 193.282 239.861 192.797 239.861 192.168V187.581H238.514V186.604H239.861V184.812H241.126ZM248.404 193.269C247.912 193.847 247.189 194.137 246.237 194.137C245.449 194.137 244.847 193.909 244.432 193.453C244.022 192.993 243.815 192.314 243.81 191.416V186.604H245.075V191.382C245.075 192.503 245.531 193.063 246.442 193.063C247.408 193.063 248.051 192.703 248.37 191.983V186.604H249.634V194H248.431L248.404 193.269ZM254.985 187.738C254.794 187.706 254.586 187.69 254.363 187.69C253.534 187.69 252.971 188.044 252.675 188.75V194H251.41V186.604H252.64L252.661 187.458C253.076 186.797 253.664 186.467 254.425 186.467C254.671 186.467 254.858 186.499 254.985 186.562V187.738ZM260.295 194C260.222 193.854 260.163 193.594 260.117 193.221C259.529 193.831 258.827 194.137 258.012 194.137C257.283 194.137 256.683 193.932 256.214 193.521C255.749 193.107 255.517 192.583 255.517 191.949C255.517 191.179 255.808 190.582 256.392 190.158C256.979 189.73 257.804 189.516 258.866 189.516H260.097V188.935C260.097 188.493 259.964 188.142 259.7 187.882C259.436 187.618 259.046 187.485 258.531 187.485C258.08 187.485 257.702 187.599 257.396 187.827C257.091 188.055 256.938 188.331 256.938 188.654H255.667C255.667 188.285 255.797 187.93 256.057 187.588C256.321 187.242 256.676 186.968 257.123 186.768C257.574 186.567 258.069 186.467 258.606 186.467C259.459 186.467 260.126 186.681 260.609 187.109C261.092 187.533 261.343 188.119 261.361 188.866V192.271C261.361 192.95 261.448 193.49 261.621 193.891V194H260.295ZM258.196 193.036C258.593 193.036 258.969 192.934 259.324 192.729C259.68 192.523 259.937 192.257 260.097 191.929V190.411H259.105C257.556 190.411 256.781 190.865 256.781 191.771C256.781 192.168 256.913 192.478 257.178 192.701C257.442 192.924 257.782 193.036 258.196 193.036ZM264.566 194H263.301V183.5H264.566V194ZM269.513 194.137C268.51 194.137 267.695 193.809 267.066 193.152C266.437 192.492 266.122 191.61 266.122 190.507V190.274C266.122 189.541 266.261 188.887 266.539 188.312C266.822 187.734 267.214 187.283 267.715 186.959C268.221 186.631 268.768 186.467 269.356 186.467C270.317 186.467 271.065 186.784 271.598 187.417C272.131 188.05 272.398 188.957 272.398 190.138V190.664H267.387C267.405 191.393 267.617 191.983 268.023 192.435C268.433 192.881 268.952 193.104 269.581 193.104C270.028 193.104 270.406 193.013 270.716 192.831C271.026 192.649 271.297 192.407 271.53 192.106L272.302 192.708C271.682 193.66 270.753 194.137 269.513 194.137ZM269.356 187.506C268.845 187.506 268.417 187.693 268.071 188.066C267.724 188.436 267.51 188.955 267.428 189.625H271.133V189.529C271.097 188.887 270.923 188.39 270.614 188.039C270.304 187.684 269.884 187.506 269.356 187.506ZM278.022 192.038C278.022 191.696 277.892 191.432 277.632 191.245C277.377 191.054 276.928 190.89 276.286 190.753C275.648 190.616 275.139 190.452 274.761 190.261C274.387 190.069 274.109 189.841 273.927 189.577C273.749 189.313 273.661 188.998 273.661 188.634C273.661 188.028 273.916 187.515 274.426 187.096C274.941 186.676 275.597 186.467 276.395 186.467C277.233 186.467 277.912 186.683 278.432 187.116C278.956 187.549 279.218 188.103 279.218 188.777H277.947C277.947 188.431 277.799 188.132 277.502 187.882C277.211 187.631 276.842 187.506 276.395 187.506C275.935 187.506 275.575 187.606 275.315 187.807C275.055 188.007 274.925 188.269 274.925 188.593C274.925 188.898 275.046 189.128 275.287 189.283C275.529 189.438 275.964 189.586 276.593 189.728C277.227 189.869 277.739 190.037 278.131 190.233C278.523 190.429 278.813 190.666 278.999 190.944C279.191 191.218 279.287 191.553 279.287 191.949C279.287 192.61 279.022 193.141 278.494 193.542C277.965 193.938 277.279 194.137 276.436 194.137C275.843 194.137 275.319 194.032 274.864 193.822C274.408 193.613 274.05 193.321 273.79 192.947C273.535 192.569 273.408 192.161 273.408 191.724H274.672C274.695 192.147 274.864 192.485 275.178 192.735C275.497 192.981 275.916 193.104 276.436 193.104C276.914 193.104 277.297 193.009 277.584 192.817C277.876 192.621 278.022 192.362 278.022 192.038ZM283.795 190.24C283.795 189.078 284.061 188.16 284.594 187.485C285.128 186.806 285.843 186.467 286.741 186.467C287.616 186.467 288.306 186.761 288.812 187.349L288.867 186.604H290.029V196.844H288.764V193.316C288.254 193.863 287.575 194.137 286.727 194.137C285.834 194.137 285.121 193.79 284.588 193.098C284.059 192.4 283.795 191.478 283.795 190.329V190.24ZM285.059 190.384C285.059 191.231 285.237 191.897 285.592 192.38C285.952 192.863 286.436 193.104 287.042 193.104C287.794 193.104 288.368 192.772 288.764 192.106V188.483C288.363 187.832 287.794 187.506 287.055 187.506C286.445 187.506 285.959 187.75 285.599 188.237C285.239 188.72 285.059 189.436 285.059 190.384ZM296.473 193.269C295.981 193.847 295.259 194.137 294.306 194.137C293.518 194.137 292.916 193.909 292.502 193.453C292.092 192.993 291.884 192.314 291.88 191.416V186.604H293.144V191.382C293.144 192.503 293.6 193.063 294.511 193.063C295.478 193.063 296.12 192.703 296.439 191.983V186.604H297.704V194H296.501L296.473 193.269ZM302.549 194.137C301.546 194.137 300.73 193.809 300.101 193.152C299.473 192.492 299.158 191.61 299.158 190.507V190.274C299.158 189.541 299.297 188.887 299.575 188.312C299.858 187.734 300.25 187.283 300.751 186.959C301.257 186.631 301.804 186.467 302.392 186.467C303.353 186.467 304.101 186.784 304.634 187.417C305.167 188.05 305.434 188.957 305.434 190.138V190.664H300.423C300.441 191.393 300.653 191.983 301.059 192.435C301.469 192.881 301.988 193.104 302.617 193.104C303.064 193.104 303.442 193.013 303.752 192.831C304.062 192.649 304.333 192.407 304.565 192.106L305.338 192.708C304.718 193.66 303.788 194.137 302.549 194.137ZM302.392 187.506C301.881 187.506 301.453 187.693 301.106 188.066C300.76 188.436 300.546 188.955 300.464 189.625H304.169V189.529C304.132 188.887 303.959 188.39 303.649 188.039C303.339 187.684 302.92 187.506 302.392 187.506ZM18.5898 214.137C17.5872 214.137 16.7714 213.809 16.1425 213.152C15.5136 212.492 15.1992 211.61 15.1992 210.507V210.274C15.1992 209.541 15.3382 208.887 15.6161 208.312C15.8987 207.734 16.2906 207.283 16.7919 206.959C17.2978 206.631 17.8447 206.467 18.4326 206.467C19.3941 206.467 20.1415 206.784 20.6747 207.417C21.2079 208.05 21.4745 208.957 21.4745 210.138V210.664H16.4638C16.482 211.393 16.6939 211.983 17.0995 212.435C17.5097 212.881 18.0292 213.104 18.6581 213.104C19.1048 213.104 19.483 213.013 19.7929 212.831C20.1028 212.649 20.374 212.407 20.6064 212.106L21.3788 212.708C20.7591 213.66 19.8294 214.137 18.5898 214.137ZM18.4326 207.506C17.9221 207.506 17.4938 207.693 17.1474 208.066C16.801 208.436 16.5869 208.955 16.5048 209.625H20.2099V209.529C20.1734 208.887 20.0003 208.39 19.6904 208.039C19.3805 207.684 18.9612 207.506 18.4326 207.506ZM23.9815 206.604L24.0157 207.424C24.558 206.786 25.2895 206.467 26.21 206.467C27.2445 206.467 27.9486 206.863 28.3223 207.656C28.5684 207.301 28.8874 207.014 29.2794 206.795C29.6759 206.576 30.143 206.467 30.6807 206.467C32.3031 206.467 33.128 207.326 33.1553 209.044V214H31.8907V209.119C31.8907 208.59 31.7699 208.196 31.5284 207.937C31.2869 207.672 30.8813 207.54 30.3116 207.54C29.8422 207.54 29.4525 207.681 29.1426 207.964C28.8328 208.242 28.6527 208.618 28.6026 209.092V214H27.3311V209.153C27.3311 208.078 26.8048 207.54 25.752 207.54C24.9226 207.54 24.3552 207.893 24.0499 208.6V214H22.7852V206.604H23.9815ZM41.1652 210.384C41.1652 211.509 40.9078 212.416 40.3928 213.104C39.8778 213.793 39.1805 214.137 38.301 214.137C37.4032 214.137 36.6968 213.852 36.1818 213.282V216.844H34.9172V206.604H36.0725L36.134 207.424C36.649 206.786 37.3645 206.467 38.2805 206.467C39.1691 206.467 39.871 206.802 40.3859 207.472C40.9055 208.142 41.1652 209.074 41.1652 210.268V210.384ZM39.9006 210.24C39.9006 209.406 39.7229 208.748 39.3674 208.265C39.0119 207.782 38.5243 207.54 37.9045 207.54C37.1389 207.54 36.5647 207.88 36.1818 208.559V212.093C36.5601 212.767 37.1389 213.104 37.9182 213.104C38.5243 213.104 39.0051 212.865 39.3606 212.387C39.7206 211.904 39.9006 211.188 39.9006 210.24ZM42.2913 210.233C42.2913 209.509 42.4326 208.857 42.7152 208.278C43.0023 207.7 43.3988 207.253 43.9046 206.938C44.415 206.624 44.9961 206.467 45.6478 206.467C46.655 206.467 47.4684 206.815 48.0882 207.513C48.7126 208.21 49.0247 209.137 49.0247 210.295V210.384C49.0247 211.104 48.8857 211.751 48.6078 212.325C48.3343 212.895 47.9401 213.339 47.4251 213.658C46.9147 213.977 46.3268 214.137 45.6615 214.137C44.6589 214.137 43.8454 213.788 43.221 213.091C42.6012 212.394 42.2913 211.471 42.2913 210.322V210.233ZM43.5628 210.384C43.5628 211.204 43.752 211.863 44.1302 212.359C44.513 212.856 45.0234 213.104 45.6615 213.104C46.304 213.104 46.8145 212.854 47.1927 212.353C47.571 211.847 47.7601 211.14 47.7601 210.233C47.7601 209.422 47.5664 208.766 47.179 208.265C46.7962 207.759 46.2858 207.506 45.6478 207.506C45.0234 207.506 44.5199 207.754 44.1371 208.251C43.7542 208.748 43.5628 209.459 43.5628 210.384ZM50.1509 210.24C50.1509 209.105 50.4197 208.194 50.9575 207.506C51.4953 206.813 52.1994 206.467 53.0698 206.467C53.9357 206.467 54.6216 206.763 55.1274 207.355V203.5H56.3921V214H55.23L55.1684 213.207C54.6626 213.827 53.9585 214.137 53.0561 214.137C52.1994 214.137 51.4998 213.786 50.9575 213.084C50.4197 212.382 50.1509 211.466 50.1509 210.336V210.24ZM51.4155 210.384C51.4155 211.222 51.5887 211.879 51.935 212.353C52.2814 212.826 52.7599 213.063 53.3706 213.063C54.1727 213.063 54.7583 212.703 55.1274 211.983V208.586C54.7492 207.889 54.1681 207.54 53.3843 207.54C52.7645 207.54 52.2814 207.779 51.935 208.258C51.5887 208.736 51.4155 209.445 51.4155 210.384ZM61.2779 214.137C60.2753 214.137 59.4596 213.809 58.8307 213.152C58.2018 212.492 57.8873 211.61 57.8873 210.507V210.274C57.8873 209.541 58.0263 208.887 58.3043 208.312C58.5869 207.734 58.9788 207.283 59.4801 206.959C59.9859 206.631 60.5328 206.467 61.1207 206.467C62.0823 206.467 62.8297 206.784 63.3629 207.417C63.8961 208.05 64.1627 208.957 64.1627 210.138V210.664H59.152C59.1702 211.393 59.3821 211.983 59.7877 212.435C60.1979 212.881 60.7174 213.104 61.3463 213.104C61.7929 213.104 62.1712 213.013 62.4811 212.831C62.791 212.649 63.0621 212.407 63.2945 212.106L64.067 212.708C63.4472 213.66 62.5175 214.137 61.2779 214.137ZM61.1207 207.506C60.6103 207.506 60.1819 207.693 59.8356 208.066C59.4892 208.436 59.275 208.955 59.193 209.625H62.8981V209.529C62.8616 208.887 62.6884 208.39 62.3785 208.039C62.0686 207.684 61.6494 207.506 61.1207 207.506ZM69.0554 207.738C68.864 207.706 68.6566 207.69 68.4333 207.69C67.6039 207.69 67.0411 208.044 66.7449 208.75V214H65.4802V206.604H66.7107L66.7312 207.458C67.1459 206.797 67.7338 206.467 68.4949 206.467C68.741 206.467 68.9278 206.499 69.0554 206.562V207.738ZM73.0048 214.137C72.0022 214.137 71.1864 213.809 70.5575 213.152C69.9286 212.492 69.6141 211.61 69.6141 210.507V210.274C69.6141 209.541 69.7531 208.887 70.0311 208.312C70.3137 207.734 70.7056 207.283 71.2069 206.959C71.7128 206.631 72.2596 206.467 72.8475 206.467C73.8091 206.467 74.5565 206.784 75.0897 207.417C75.6229 208.05 75.8895 208.957 75.8895 210.138V210.664H70.8788C70.897 211.393 71.1089 211.983 71.5145 212.435C71.9247 212.881 72.4442 213.104 73.0731 213.104C73.5197 213.104 73.898 213.013 74.2079 212.831C74.5178 212.649 74.7889 212.407 75.0214 212.106L75.7938 212.708C75.174 213.66 74.2443 214.137 73.0048 214.137ZM72.8475 207.506C72.3371 207.506 71.9087 207.693 71.5624 208.066C71.216 208.436 71.0018 208.955 70.9198 209.625H74.6249V209.529C74.5884 208.887 74.4152 208.39 74.1053 208.039C73.7955 207.684 73.3762 207.506 72.8475 207.506ZM78.4033 206.604L78.4444 207.533C79.0095 206.822 79.7477 206.467 80.6592 206.467C82.2223 206.467 83.0108 207.349 83.0244 209.112V214H81.7598V209.105C81.7552 208.572 81.6322 208.178 81.3906 207.923C81.1537 207.668 80.7822 207.54 80.2764 207.54C79.8662 207.54 79.5062 207.649 79.1963 207.868C78.8864 208.087 78.6449 208.374 78.4717 208.729V214H77.207V206.604H78.4033ZM92.6663 214C92.5934 213.854 92.5341 213.594 92.4886 213.221C91.9007 213.831 91.1988 214.137 90.3831 214.137C89.6539 214.137 89.0546 213.932 88.5852 213.521C88.1204 213.107 87.888 212.583 87.888 211.949C87.888 211.179 88.1796 210.582 88.763 210.158C89.3509 209.73 90.1757 209.516 91.2376 209.516H92.468V208.935C92.468 208.493 92.3359 208.142 92.0716 207.882C91.8072 207.618 91.4176 207.485 90.9026 207.485C90.4514 207.485 90.0732 207.599 89.7679 207.827C89.4625 208.055 89.3098 208.331 89.3098 208.654H88.0384C88.0384 208.285 88.1682 207.93 88.428 207.588C88.6923 207.242 89.0478 206.968 89.4944 206.768C89.9456 206.567 90.4401 206.467 90.9778 206.467C91.83 206.467 92.4977 206.681 92.9807 207.109C93.4638 207.533 93.7145 208.119 93.7327 208.866V212.271C93.7327 212.95 93.8193 213.49 93.9925 213.891V214H92.6663ZM90.5677 213.036C90.9641 213.036 91.3401 212.934 91.6956 212.729C92.0511 212.523 92.3085 212.257 92.468 211.929V210.411H91.4768C89.9274 210.411 89.1526 210.865 89.1526 211.771C89.1526 212.168 89.2848 212.478 89.5491 212.701C89.8134 212.924 90.1529 213.036 90.5677 213.036ZM100.257 214H98.9927V203.5H100.257V214ZM106.702 214C106.629 213.854 106.57 213.594 106.524 213.221C105.936 213.831 105.234 214.137 104.419 214.137C103.689 214.137 103.09 213.932 102.621 213.521C102.156 213.107 101.924 212.583 101.924 211.949C101.924 211.179 102.215 210.582 102.799 210.158C103.386 209.73 104.211 209.516 105.273 209.516H106.504V208.935C106.504 208.493 106.371 208.142 106.107 207.882C105.843 207.618 105.453 207.485 104.938 207.485C104.487 207.485 104.109 207.599 103.803 207.827C103.498 208.055 103.345 208.331 103.345 208.654H102.074C102.074 208.285 102.204 207.93 102.464 207.588C102.728 207.242 103.083 206.968 103.53 206.768C103.981 206.567 104.476 206.467 105.013 206.467C105.866 206.467 106.533 206.681 107.016 207.109C107.499 207.533 107.75 208.119 107.768 208.866V212.271C107.768 212.95 107.855 213.49 108.028 213.891V214H106.702ZM104.603 213.036C105 213.036 105.376 212.934 105.731 212.729C106.087 212.523 106.344 212.257 106.504 211.929V210.411H105.512C103.963 210.411 103.188 210.865 103.188 211.771C103.188 212.168 103.32 212.478 103.585 212.701C103.849 212.924 104.188 213.036 104.603 213.036ZM115.886 213.104C116.337 213.104 116.731 212.968 117.068 212.694C117.406 212.421 117.592 212.079 117.629 211.669H118.825C118.802 212.093 118.657 212.496 118.388 212.879C118.119 213.262 117.759 213.567 117.308 213.795C116.861 214.023 116.387 214.137 115.886 214.137C114.879 214.137 114.076 213.802 113.479 213.132C112.887 212.457 112.591 211.537 112.591 210.37V210.158C112.591 209.438 112.723 208.798 112.987 208.237C113.252 207.677 113.63 207.242 114.122 206.932C114.619 206.622 115.204 206.467 115.879 206.467C116.708 206.467 117.396 206.715 117.943 207.212C118.495 207.709 118.789 208.354 118.825 209.146H117.629C117.592 208.668 117.41 208.276 117.082 207.971C116.758 207.661 116.357 207.506 115.879 207.506C115.236 207.506 114.737 207.738 114.382 208.203C114.031 208.663 113.855 209.331 113.855 210.206V210.445C113.855 211.298 114.031 211.954 114.382 212.414C114.733 212.874 115.234 213.104 115.886 213.104ZM119.76 210.233C119.76 209.509 119.901 208.857 120.184 208.278C120.471 207.7 120.867 207.253 121.373 206.938C121.884 206.624 122.465 206.467 123.116 206.467C124.123 206.467 124.937 206.815 125.557 207.513C126.181 208.21 126.493 209.137 126.493 210.295V210.384C126.493 211.104 126.354 211.751 126.076 212.325C125.803 212.895 125.409 213.339 124.894 213.658C124.383 213.977 123.795 214.137 123.13 214.137C122.127 214.137 121.314 213.788 120.69 213.091C120.07 212.394 119.76 211.471 119.76 210.322V210.233ZM121.031 210.384C121.031 211.204 121.22 211.863 121.599 212.359C121.982 212.856 122.492 213.104 123.13 213.104C123.773 213.104 124.283 212.854 124.661 212.353C125.039 211.847 125.229 211.14 125.229 210.233C125.229 209.422 125.035 208.766 124.648 208.265C124.265 207.759 123.754 207.506 123.116 207.506C122.492 207.506 121.988 207.754 121.606 208.251C121.223 208.748 121.031 209.459 121.031 210.384ZM129.116 206.604L129.151 207.424C129.693 206.786 130.424 206.467 131.345 206.467C132.379 206.467 133.084 206.863 133.457 207.656C133.703 207.301 134.022 207.014 134.414 206.795C134.811 206.576 135.278 206.467 135.816 206.467C137.438 206.467 138.263 207.326 138.29 209.044V214H137.026V209.119C137.026 208.59 136.905 208.196 136.663 207.937C136.422 207.672 136.016 207.54 135.447 207.54C134.977 207.54 134.587 207.681 134.278 207.964C133.968 208.242 133.788 208.618 133.738 209.092V214H132.466V209.153C132.466 208.078 131.94 207.54 130.887 207.54C130.058 207.54 129.49 207.893 129.185 208.6V214H127.92V206.604H129.116ZM144.619 213.269C144.126 213.847 143.404 214.137 142.452 214.137C141.663 214.137 141.062 213.909 140.647 213.453C140.237 212.993 140.029 212.314 140.025 211.416V206.604H141.289V211.382C141.289 212.503 141.745 213.063 142.657 213.063C143.623 213.063 144.265 212.703 144.584 211.983V206.604H145.849V214H144.646L144.619 213.269ZM148.821 206.604L148.862 207.533C149.427 206.822 150.165 206.467 151.077 206.467C152.64 206.467 153.428 207.349 153.442 209.112V214H152.177V209.105C152.173 208.572 152.05 208.178 151.808 207.923C151.571 207.668 151.2 207.54 150.694 207.54C150.284 207.54 149.924 207.649 149.614 207.868C149.304 208.087 149.062 208.374 148.889 208.729V214H147.624V206.604H148.821ZM156.571 214H155.306V206.604H156.571V214ZM155.204 204.642C155.204 204.437 155.265 204.263 155.388 204.122C155.516 203.981 155.703 203.91 155.949 203.91C156.195 203.91 156.382 203.981 156.509 204.122C156.637 204.263 156.701 204.437 156.701 204.642C156.701 204.847 156.637 205.018 156.509 205.154C156.382 205.291 156.195 205.359 155.949 205.359C155.703 205.359 155.516 205.291 155.388 205.154C155.265 205.018 155.204 204.847 155.204 204.642ZM158.141 210.24C158.141 209.105 158.41 208.194 158.948 207.506C159.486 206.813 160.19 206.467 161.06 206.467C161.926 206.467 162.612 206.763 163.118 207.355V203.5H164.383V214H163.22L163.159 213.207C162.653 213.827 161.949 214.137 161.047 214.137C160.19 214.137 159.49 213.786 158.948 213.084C158.41 212.382 158.141 211.466 158.141 210.336V210.24ZM159.406 210.384C159.406 211.222 159.579 211.879 159.926 212.353C160.272 212.826 160.75 213.063 161.361 213.063C162.163 213.063 162.749 212.703 163.118 211.983V208.586C162.74 207.889 162.159 207.54 161.375 207.54C160.755 207.54 160.272 207.779 159.926 208.258C159.579 208.736 159.406 209.445 159.406 210.384ZM170.766 214C170.693 213.854 170.633 213.594 170.588 213.221C170 213.831 169.298 214.137 168.482 214.137C167.753 214.137 167.154 213.932 166.684 213.521C166.22 213.107 165.987 212.583 165.987 211.949C165.987 211.179 166.279 210.582 166.862 210.158C167.45 209.73 168.275 209.516 169.337 209.516H170.567V208.935C170.567 208.493 170.435 208.142 170.171 207.882C169.906 207.618 169.517 207.485 169.002 207.485C168.551 207.485 168.172 207.599 167.867 207.827C167.562 208.055 167.409 208.331 167.409 208.654H166.138C166.138 208.285 166.267 207.93 166.527 207.588C166.792 207.242 167.147 206.968 167.594 206.768C168.045 206.567 168.539 206.467 169.077 206.467C169.929 206.467 170.597 206.681 171.08 207.109C171.563 207.533 171.814 208.119 171.832 208.866V212.271C171.832 212.95 171.919 213.49 172.092 213.891V214H170.766ZM168.667 213.036C169.063 213.036 169.439 212.934 169.795 212.729C170.15 212.523 170.408 212.257 170.567 211.929V210.411H169.576C168.027 210.411 167.252 210.865 167.252 211.771C167.252 212.168 167.384 212.478 167.648 212.701C167.913 212.924 168.252 213.036 168.667 213.036ZM173.355 210.24C173.355 209.105 173.623 208.194 174.161 207.506C174.699 206.813 175.403 206.467 176.273 206.467C177.139 206.467 177.825 206.763 178.331 207.355V203.5H179.596V214H178.434L178.372 213.207C177.866 213.827 177.162 214.137 176.26 214.137C175.403 214.137 174.703 213.786 174.161 213.084C173.623 212.382 173.355 211.466 173.355 210.336V210.24ZM174.619 210.384C174.619 211.222 174.792 211.879 175.139 212.353C175.485 212.826 175.964 213.063 176.574 213.063C177.376 213.063 177.962 212.703 178.331 211.983V208.586C177.953 207.889 177.372 207.54 176.588 207.54C175.968 207.54 175.485 207.779 175.139 208.258C174.792 208.736 174.619 209.445 174.619 210.384ZM189.299 213.269C188.807 213.847 188.085 214.137 187.132 214.137C186.344 214.137 185.742 213.909 185.327 213.453C184.917 212.993 184.71 212.314 184.705 211.416V206.604H185.97V211.382C185.97 212.503 186.426 213.063 187.337 213.063C188.303 213.063 188.946 212.703 189.265 211.983V206.604H190.53V214H189.326L189.299 213.269ZM193.501 206.604L193.542 207.533C194.108 206.822 194.846 206.467 195.757 206.467C197.32 206.467 198.109 207.349 198.122 209.112V214H196.858V209.105C196.853 208.572 196.73 208.178 196.489 207.923C196.252 207.668 195.88 207.54 195.374 207.54C194.964 207.54 194.604 207.649 194.294 207.868C193.984 208.087 193.743 208.374 193.57 208.729V214H192.305V206.604H193.501ZM201.252 214H199.987V206.604H201.252V214ZM199.884 204.642C199.884 204.437 199.946 204.263 200.069 204.122C200.197 203.981 200.383 203.91 200.629 203.91C200.876 203.91 201.062 203.981 201.19 204.122C201.318 204.263 201.381 204.437 201.381 204.642C201.381 204.847 201.318 205.018 201.19 205.154C201.062 205.291 200.876 205.359 200.629 205.359C200.383 205.359 200.197 205.291 200.069 205.154C199.946 205.018 199.884 204.847 199.884 204.642ZM205.57 212.284L207.402 206.604H208.694L206.042 214H205.078L202.398 206.604H203.69L205.57 212.284ZM212.732 214.137C211.73 214.137 210.914 213.809 210.285 213.152C209.656 212.492 209.342 211.61 209.342 210.507V210.274C209.342 209.541 209.481 208.887 209.759 208.312C210.041 207.734 210.433 207.283 210.934 206.959C211.44 206.631 211.987 206.467 212.575 206.467C213.537 206.467 214.284 206.784 214.817 207.417C215.35 208.05 215.617 208.957 215.617 210.138V210.664H210.606C210.625 211.393 210.836 211.983 211.242 212.435C211.652 212.881 212.172 213.104 212.801 213.104C213.247 213.104 213.625 213.013 213.935 212.831C214.245 212.649 214.516 212.407 214.749 212.106L215.521 212.708C214.902 213.66 213.972 214.137 212.732 214.137ZM212.575 207.506C212.065 207.506 211.636 207.693 211.29 208.066C210.944 208.436 210.729 208.955 210.647 209.625H214.352V209.529C214.316 208.887 214.143 208.39 213.833 208.039C213.523 207.684 213.104 207.506 212.575 207.506ZM220.51 207.738C220.318 207.706 220.111 207.69 219.888 207.69C219.058 207.69 218.495 208.044 218.199 208.75V214H216.935V206.604H218.165L218.186 207.458C218.6 206.797 219.188 206.467 219.949 206.467C220.195 206.467 220.382 206.499 220.51 206.562V207.738ZM225.833 212.038C225.833 211.696 225.703 211.432 225.443 211.245C225.188 211.054 224.739 210.89 224.097 210.753C223.459 210.616 222.951 210.452 222.572 210.261C222.199 210.069 221.921 209.841 221.738 209.577C221.561 209.313 221.472 208.998 221.472 208.634C221.472 208.028 221.727 207.515 222.237 207.096C222.752 206.676 223.409 206.467 224.206 206.467C225.045 206.467 225.724 206.683 226.243 207.116C226.767 207.549 227.029 208.103 227.029 208.777H225.758C225.758 208.431 225.61 208.132 225.314 207.882C225.022 207.631 224.653 207.506 224.206 207.506C223.746 207.506 223.386 207.606 223.126 207.807C222.866 208.007 222.736 208.269 222.736 208.593C222.736 208.898 222.857 209.128 223.099 209.283C223.34 209.438 223.775 209.586 224.404 209.728C225.038 209.869 225.551 210.037 225.942 210.233C226.334 210.429 226.624 210.666 226.811 210.944C227.002 211.218 227.098 211.553 227.098 211.949C227.098 212.61 226.833 213.141 226.305 213.542C225.776 213.938 225.09 214.137 224.247 214.137C223.655 214.137 223.131 214.032 222.675 213.822C222.219 213.613 221.861 213.321 221.602 212.947C221.346 212.569 221.219 212.161 221.219 211.724H222.483C222.506 212.147 222.675 212.485 222.989 212.735C223.308 212.981 223.728 213.104 224.247 213.104C224.726 213.104 225.108 213.009 225.396 212.817C225.687 212.621 225.833 212.362 225.833 212.038ZM229.967 214H228.702V206.604H229.967V214ZM228.6 204.642C228.6 204.437 228.661 204.263 228.784 204.122C228.912 203.981 229.099 203.91 229.345 203.91C229.591 203.91 229.778 203.981 229.906 204.122C230.033 204.263 230.097 204.437 230.097 204.642C230.097 204.847 230.033 205.018 229.906 205.154C229.778 205.291 229.591 205.359 229.345 205.359C229.099 205.359 228.912 205.291 228.784 205.154C228.661 205.018 228.6 204.847 228.6 204.642ZM233.561 204.812V206.604H234.942V207.581H233.561V212.168C233.561 212.464 233.622 212.688 233.745 212.838C233.869 212.984 234.078 213.057 234.374 213.057C234.52 213.057 234.721 213.029 234.976 212.975V214C234.643 214.091 234.32 214.137 234.005 214.137C233.44 214.137 233.014 213.966 232.727 213.624C232.44 213.282 232.296 212.797 232.296 212.168V207.581H230.95V206.604H232.296V204.812H233.561ZM240.839 214C240.766 213.854 240.707 213.594 240.662 213.221C240.074 213.831 239.372 214.137 238.556 214.137C237.827 214.137 237.228 213.932 236.758 213.521C236.293 213.107 236.061 212.583 236.061 211.949C236.061 211.179 236.353 210.582 236.936 210.158C237.524 209.73 238.349 209.516 239.411 209.516H240.641V208.935C240.641 208.493 240.509 208.142 240.245 207.882C239.98 207.618 239.591 207.485 239.076 207.485C238.625 207.485 238.246 207.599 237.941 207.827C237.636 208.055 237.483 208.331 237.483 208.654H236.211C236.211 208.285 236.341 207.93 236.601 207.588C236.865 207.242 237.221 206.968 237.667 206.768C238.119 206.567 238.613 206.467 239.151 206.467C240.003 206.467 240.671 206.681 241.154 207.109C241.637 207.533 241.888 208.119 241.906 208.866V212.271C241.906 212.95 241.992 213.49 242.166 213.891V214H240.839ZM238.741 213.036C239.137 213.036 239.513 212.934 239.869 212.729C240.224 212.523 240.482 212.257 240.641 211.929V210.411H239.65C238.1 210.411 237.326 210.865 237.326 211.771C237.326 212.168 237.458 212.478 237.722 212.701C237.986 212.924 238.326 213.036 238.741 213.036ZM247.311 207.738C247.12 207.706 246.912 207.69 246.689 207.69C245.86 207.69 245.297 208.044 245.001 208.75V214H243.736V206.604H244.966L244.987 207.458C245.402 206.797 245.99 206.467 246.751 206.467C246.997 206.467 247.184 206.499 247.311 206.562V207.738ZM249.702 214H248.437V206.604H249.702V214ZM248.335 204.642C248.335 204.437 248.396 204.263 248.519 204.122C248.647 203.981 248.834 203.91 249.08 203.91C249.326 203.91 249.513 203.981 249.64 204.122C249.768 204.263 249.832 204.437 249.832 204.642C249.832 204.847 249.768 205.018 249.64 205.154C249.513 205.291 249.326 205.359 249.08 205.359C248.834 205.359 248.647 205.291 248.519 205.154C248.396 205.018 248.335 204.847 248.335 204.642ZM256.146 214C256.073 213.854 256.014 213.594 255.969 213.221C255.381 213.831 254.679 214.137 253.863 214.137C253.134 214.137 252.535 213.932 252.065 213.521C251.6 213.107 251.368 212.583 251.368 211.949C251.368 211.179 251.66 210.582 252.243 210.158C252.831 209.73 253.656 209.516 254.718 209.516H255.948V208.935C255.948 208.493 255.816 208.142 255.552 207.882C255.287 207.618 254.898 207.485 254.383 207.485C253.932 207.485 253.553 207.599 253.248 207.827C252.943 208.055 252.79 208.331 252.79 208.654H251.518C251.518 208.285 251.648 207.93 251.908 207.588C252.172 207.242 252.528 206.968 252.975 206.768C253.426 206.567 253.92 206.467 254.458 206.467C255.31 206.467 255.978 206.681 256.461 207.109C256.944 207.533 257.195 208.119 257.213 208.866V212.271C257.213 212.95 257.299 213.49 257.473 213.891V214H256.146ZM254.048 213.036C254.444 213.036 254.82 212.934 255.176 212.729C255.531 212.523 255.789 212.257 255.948 211.929V210.411H254.957C253.407 210.411 252.633 210.865 252.633 211.771C252.633 212.168 252.765 212.478 253.029 212.701C253.294 212.924 253.633 213.036 254.048 213.036ZM264.783 212.147L266.506 206.604H267.86L264.886 215.142C264.426 216.372 263.694 216.987 262.692 216.987L262.452 216.967L261.981 216.878V215.853L262.322 215.88C262.751 215.88 263.084 215.793 263.32 215.62C263.562 215.447 263.76 215.13 263.915 214.67L264.195 213.918L261.557 206.604H262.938L264.783 212.147ZM272.785 214V207.581H271.616V206.604H272.785V205.845C272.785 205.052 272.997 204.439 273.42 204.006C273.844 203.573 274.443 203.356 275.218 203.356C275.51 203.356 275.799 203.395 276.086 203.473L276.018 204.498C275.804 204.457 275.576 204.437 275.334 204.437C274.924 204.437 274.608 204.557 274.384 204.799C274.161 205.036 274.049 205.378 274.049 205.824V206.604H275.628V207.581H274.049V214H272.785ZM276.543 210.233C276.543 209.509 276.684 208.857 276.966 208.278C277.253 207.7 277.65 207.253 278.156 206.938C278.666 206.624 279.247 206.467 279.899 206.467C280.906 206.467 281.72 206.815 282.339 207.513C282.964 208.21 283.276 209.137 283.276 210.295V210.384C283.276 211.104 283.137 211.751 282.859 212.325C282.586 212.895 282.191 213.339 281.676 213.658C281.166 213.977 280.578 214.137 279.913 214.137C278.91 214.137 278.097 213.788 277.472 213.091C276.852 212.394 276.543 211.471 276.543 210.322V210.233ZM277.814 210.384C277.814 211.204 278.003 211.863 278.381 212.359C278.764 212.856 279.275 213.104 279.913 213.104C280.555 213.104 281.066 212.854 281.444 212.353C281.822 211.847 282.011 211.14 282.011 210.233C282.011 209.422 281.818 208.766 281.43 208.265C281.047 207.759 280.537 207.506 279.899 207.506C279.275 207.506 278.771 207.754 278.388 208.251C278.005 208.748 277.814 209.459 277.814 210.384ZM288.285 207.738C288.093 207.706 287.886 207.69 287.663 207.69C286.833 207.69 286.271 208.044 285.974 208.75V214H284.71V206.604H285.94L285.961 207.458C286.375 206.797 286.963 206.467 287.724 206.467C287.97 206.467 288.157 206.499 288.285 206.562V207.738ZM290.491 206.604L290.525 207.424C291.068 206.786 291.799 206.467 292.72 206.467C293.754 206.467 294.458 206.863 294.832 207.656C295.078 207.301 295.397 207.014 295.789 206.795C296.185 206.576 296.653 206.467 297.19 206.467C298.813 206.467 299.638 207.326 299.665 209.044V214H298.4V209.119C298.4 208.59 298.279 208.196 298.038 207.937C297.796 207.672 297.391 207.54 296.821 207.54C296.352 207.54 295.962 207.681 295.652 207.964C295.342 208.242 295.162 208.618 295.112 209.092V214H293.841V209.153C293.841 208.078 293.314 207.54 292.262 207.54C291.432 207.54 290.865 207.893 290.559 208.6V214H289.295V206.604H290.491ZM304.496 214.137C303.493 214.137 302.678 213.809 302.049 213.152C301.42 212.492 301.105 211.61 301.105 210.507V210.274C301.105 209.541 301.244 208.887 301.522 208.312C301.805 207.734 302.197 207.283 302.698 206.959C303.204 206.631 303.751 206.467 304.339 206.467C305.3 206.467 306.048 206.784 306.581 207.417C307.114 208.05 307.381 208.957 307.381 210.138V210.664H302.37C302.388 211.393 302.6 211.983 303.006 212.435C303.416 212.881 303.936 213.104 304.564 213.104C305.011 213.104 305.389 213.013 305.699 212.831C306.009 212.649 306.28 212.407 306.513 212.106L307.285 212.708C306.665 213.66 305.736 214.137 304.496 214.137ZM304.339 207.506C303.828 207.506 303.4 207.693 303.054 208.066C302.707 208.436 302.493 208.955 302.411 209.625H306.116V209.529C306.08 208.887 305.907 208.39 305.597 208.039C305.287 207.684 304.867 207.506 304.339 207.506ZM309.895 206.604L309.936 207.533C310.501 206.822 311.239 206.467 312.15 206.467C313.714 206.467 314.502 207.349 314.516 209.112V214H313.251V209.105C313.246 208.572 313.123 208.178 312.882 207.923C312.645 207.668 312.274 207.54 311.768 207.54C311.357 207.54 310.997 207.649 310.688 207.868C310.378 208.087 310.136 208.374 309.963 208.729V214H308.698V206.604H309.895ZM51.9205 227.738C51.729 227.706 51.5217 227.69 51.2984 227.69C50.469 227.69 49.9061 228.044 49.6099 228.75V234H48.3453V226.604H49.5757L49.5962 227.458C50.011 226.797 50.5988 226.467 51.3599 226.467C51.606 226.467 51.7929 226.499 51.9205 226.562V227.738ZM55.8698 234.137C54.8672 234.137 54.0514 233.809 53.4225 233.152C52.7936 232.492 52.4792 231.61 52.4792 230.507V230.274C52.4792 229.541 52.6182 228.887 52.8962 228.312C53.1787 227.734 53.5707 227.283 54.072 226.959C54.5778 226.631 55.1247 226.467 55.7126 226.467C56.6742 226.467 57.4216 226.784 57.9548 227.417C58.488 228.05 58.7546 228.957 58.7546 230.138V230.664H53.7438C53.7621 231.393 53.974 231.983 54.3796 232.435C54.7897 232.881 55.3093 233.104 55.9382 233.104C56.3848 233.104 56.763 233.013 57.0729 232.831C57.3828 232.649 57.654 232.407 57.8864 232.106L58.6589 232.708C58.0391 233.66 57.1094 234.137 55.8698 234.137ZM55.7126 227.506C55.2022 227.506 54.7738 227.693 54.4274 228.066C54.0811 228.436 53.8669 228.955 53.7848 229.625H57.4899V229.529C57.4535 228.887 57.2803 228.39 56.9704 228.039C56.6605 227.684 56.2412 227.506 55.7126 227.506ZM59.7645 230.24C59.7645 229.105 60.0333 228.194 60.5711 227.506C61.1089 226.813 61.813 226.467 62.6834 226.467C63.5493 226.467 64.2352 226.763 64.741 227.355V223.5H66.0057V234H64.8436L64.782 233.207C64.2762 233.827 63.5721 234.137 62.6697 234.137C61.813 234.137 61.1134 233.786 60.5711 233.084C60.0333 232.382 59.7645 231.466 59.7645 230.336V230.24ZM61.0291 230.384C61.0291 231.222 61.2023 231.879 61.5486 232.353C61.895 232.826 62.3735 233.063 62.9842 233.063C63.7863 233.063 64.3719 232.703 64.741 231.983V228.586C64.3628 227.889 63.7817 227.54 62.9979 227.54C62.3781 227.54 61.895 227.779 61.5486 228.258C61.2023 228.736 61.0291 229.445 61.0291 230.384ZM70.8916 234.137C69.8889 234.137 69.0732 233.809 68.4443 233.152C67.8154 232.492 67.5009 231.61 67.5009 230.507V230.274C67.5009 229.541 67.6399 228.887 67.9179 228.312C68.2005 227.734 68.5924 227.283 69.0937 226.959C69.5996 226.631 70.1464 226.467 70.7343 226.467C71.6959 226.467 72.4433 226.784 72.9765 227.417C73.5097 228.05 73.7763 228.957 73.7763 230.138V230.664H68.7656C68.7838 231.393 68.9957 231.983 69.4013 232.435C69.8115 232.881 70.331 233.104 70.9599 233.104C71.4065 233.104 71.7848 233.013 72.0947 232.831C72.4046 232.649 72.6757 232.407 72.9082 232.106L73.6806 232.708C73.0608 233.66 72.1311 234.137 70.8916 234.137ZM70.7343 227.506C70.2239 227.506 69.7955 227.693 69.4492 228.066C69.1028 228.436 68.8886 228.955 68.8066 229.625H72.5117V229.529C72.4752 228.887 72.302 228.39 71.9921 228.039C71.6822 227.684 71.263 227.506 70.7343 227.506ZM79.4005 232.038C79.4005 231.696 79.2706 231.432 79.0108 231.245C78.7556 231.054 78.3067 230.89 77.6641 230.753C77.0261 230.616 76.518 230.452 76.1397 230.261C75.766 230.069 75.488 229.841 75.3057 229.577C75.128 229.313 75.0391 228.998 75.0391 228.634C75.0391 228.028 75.2944 227.515 75.8048 227.096C76.3197 226.676 76.976 226.467 77.7735 226.467C78.6121 226.467 79.2911 226.683 79.8106 227.116C80.3347 227.549 80.5968 228.103 80.5968 228.777H79.3253C79.3253 228.431 79.1772 228.132 78.8809 227.882C78.5893 227.631 78.2201 227.506 77.7735 227.506C77.3132 227.506 76.9532 227.606 76.6934 227.807C76.4337 228.007 76.3038 228.269 76.3038 228.593C76.3038 228.898 76.4246 229.128 76.6661 229.283C76.9076 229.438 77.3429 229.586 77.9718 229.728C78.6052 229.869 79.1179 230.037 79.5098 230.233C79.9018 230.429 80.1912 230.666 80.378 230.944C80.5694 231.218 80.6651 231.553 80.6651 231.949C80.6651 232.61 80.4008 233.141 79.8722 233.542C79.3435 233.938 78.6576 234.137 77.8145 234.137C77.2221 234.137 76.698 234.032 76.2423 233.822C75.7865 233.613 75.4288 233.321 75.169 232.947C74.9138 232.569 74.7862 232.161 74.7862 231.724H76.0509C76.0737 232.147 76.2423 232.485 76.5567 232.735C76.8757 232.981 77.295 233.104 77.8145 233.104C78.2931 233.104 78.6759 233.009 78.963 232.817C79.2546 232.621 79.4005 232.362 79.4005 232.038ZM85.1732 230.24C85.1732 229.105 85.4421 228.194 85.9798 227.506C86.5176 226.813 87.2217 226.467 88.0921 226.467C88.958 226.467 89.6439 226.763 90.1498 227.355V223.5H91.4144V234H90.2523L90.1908 233.207C89.6849 233.827 88.9808 234.137 88.0785 234.137C87.2217 234.137 86.5222 233.786 85.9798 233.084C85.4421 232.382 85.1732 231.466 85.1732 230.336V230.24ZM86.4378 230.384C86.4378 231.222 86.611 231.879 86.9574 232.353C87.3037 232.826 87.7822 233.063 88.3929 233.063C89.195 233.063 89.7806 232.703 90.1498 231.983V228.586C89.7715 227.889 89.1904 227.54 88.4066 227.54C87.7868 227.54 87.3037 227.779 86.9574 228.258C86.611 228.736 86.4378 229.445 86.4378 230.384ZM96.3003 234.137C95.2977 234.137 94.4819 233.809 93.853 233.152C93.2241 232.492 92.9097 231.61 92.9097 230.507V230.274C92.9097 229.541 93.0487 228.887 93.3266 228.312C93.6092 227.734 94.0011 227.283 94.5024 226.959C95.0083 226.631 95.5552 226.467 96.1431 226.467C97.1046 226.467 97.852 226.784 98.3852 227.417C98.9184 228.05 99.185 228.957 99.185 230.138V230.664H94.1743C94.1925 231.393 94.4044 231.983 94.81 232.435C95.2202 232.881 95.7397 233.104 96.3686 233.104C96.8153 233.104 97.1935 233.013 97.5034 232.831C97.8133 232.649 98.0845 232.407 98.3169 232.106L99.0893 232.708C98.4695 233.66 97.5399 234.137 96.3003 234.137ZM96.1431 227.506C95.6326 227.506 95.2042 227.693 94.8579 228.066C94.5115 228.436 94.2973 228.955 94.2153 229.625H97.9204V229.529C97.8839 228.887 97.7108 228.39 97.4009 228.039C97.091 227.684 96.6717 227.506 96.1431 227.506ZM108.389 234C108.316 233.854 108.257 233.594 108.212 233.221C107.624 233.831 106.922 234.137 106.106 234.137C105.377 234.137 104.778 233.932 104.308 233.521C103.844 233.107 103.611 232.583 103.611 231.949C103.611 231.179 103.903 230.582 104.486 230.158C105.074 229.73 105.899 229.516 106.961 229.516H108.191V228.935C108.191 228.493 108.059 228.142 107.795 227.882C107.53 227.618 107.141 227.485 106.626 227.485C106.175 227.485 105.796 227.599 105.491 227.827C105.186 228.055 105.033 228.331 105.033 228.654H103.761C103.761 228.285 103.891 227.93 104.151 227.588C104.415 227.242 104.771 226.968 105.218 226.768C105.669 226.567 106.163 226.467 106.701 226.467C107.553 226.467 108.221 226.681 108.704 227.109C109.187 227.533 109.438 228.119 109.456 228.866V232.271C109.456 232.95 109.542 233.49 109.716 233.891V234H108.389ZM106.291 233.036C106.687 233.036 107.063 232.934 107.419 232.729C107.774 232.523 108.032 232.257 108.191 231.929V230.411H107.2C105.65 230.411 104.876 230.865 104.876 231.771C104.876 232.168 105.008 232.478 105.272 232.701C105.537 232.924 105.876 233.036 106.291 233.036ZM117.534 230.384C117.534 231.509 117.277 232.416 116.762 233.104C116.247 233.793 115.549 234.137 114.67 234.137C113.772 234.137 113.066 233.852 112.551 233.282V236.844H111.286V226.604H112.441L112.503 227.424C113.018 226.786 113.733 226.467 114.649 226.467C115.538 226.467 116.24 226.802 116.755 227.472C117.274 228.142 117.534 229.074 117.534 230.268V230.384ZM116.269 230.24C116.269 229.406 116.092 228.748 115.736 228.265C115.381 227.782 114.893 227.54 114.273 227.54C113.508 227.54 112.933 227.88 112.551 228.559V232.093C112.929 232.767 113.508 233.104 114.287 233.104C114.893 233.104 115.374 232.865 115.729 232.387C116.089 231.904 116.269 231.188 116.269 230.24ZM118.66 230.233C118.66 229.509 118.801 228.857 119.084 228.278C119.371 227.7 119.768 227.253 120.273 226.938C120.784 226.624 121.365 226.467 122.017 226.467C123.024 226.467 123.837 226.815 124.457 227.513C125.081 228.21 125.394 229.137 125.394 230.295V230.384C125.394 231.104 125.255 231.751 124.977 232.325C124.703 232.895 124.309 233.339 123.794 233.658C123.284 233.977 122.696 234.137 122.03 234.137C121.028 234.137 120.214 233.788 119.59 233.091C118.97 232.394 118.66 231.471 118.66 230.322V230.233ZM119.932 230.384C119.932 231.204 120.121 231.863 120.499 232.359C120.882 232.856 121.392 233.104 122.03 233.104C122.673 233.104 123.183 232.854 123.562 232.353C123.94 231.847 124.129 231.14 124.129 230.233C124.129 229.422 123.935 228.766 123.548 228.265C123.165 227.759 122.655 227.506 122.017 227.506C121.392 227.506 120.889 227.754 120.506 228.251C120.123 228.748 119.932 229.459 119.932 230.384ZM129.138 232.147L130.861 226.604H132.214L129.24 235.142C128.78 236.372 128.049 236.987 127.046 236.987L126.807 236.967L126.335 236.878V235.853L126.677 235.88C127.105 235.88 127.438 235.793 127.675 235.62C127.916 235.447 128.115 235.13 128.27 234.67L128.55 233.918L125.911 226.604H127.292L129.138 232.147ZM132.752 230.233C132.752 229.509 132.894 228.857 133.176 228.278C133.463 227.7 133.86 227.253 134.366 226.938C134.876 226.624 135.457 226.467 136.109 226.467C137.116 226.467 137.929 226.815 138.549 227.513C139.173 228.21 139.486 229.137 139.486 230.295V230.384C139.486 231.104 139.347 231.751 139.069 232.325C138.795 232.895 138.401 233.339 137.886 233.658C137.376 233.977 136.788 234.137 136.122 234.137C135.12 234.137 134.306 233.788 133.682 233.091C133.062 232.394 132.752 231.471 132.752 230.322V230.233ZM134.024 230.384C134.024 231.204 134.213 231.863 134.591 232.359C134.974 232.856 135.484 233.104 136.122 233.104C136.765 233.104 137.275 232.854 137.654 232.353C138.032 231.847 138.221 231.14 138.221 230.233C138.221 229.422 138.027 228.766 137.64 228.265C137.257 227.759 136.747 227.506 136.109 227.506C135.484 227.506 134.981 227.754 134.598 228.251C134.215 228.748 134.024 229.459 134.024 230.384ZM147.309 234.137C146.307 234.137 145.491 233.809 144.862 233.152C144.233 232.492 143.919 231.61 143.919 230.507V230.274C143.919 229.541 144.058 228.887 144.335 228.312C144.618 227.734 145.01 227.283 145.511 226.959C146.017 226.631 146.564 226.467 147.152 226.467C148.113 226.467 148.861 226.784 149.394 227.417C149.927 228.05 150.194 228.957 150.194 230.138V230.664H145.183C145.201 231.393 145.413 231.983 145.819 232.435C146.229 232.881 146.749 233.104 147.377 233.104C147.824 233.104 148.202 233.013 148.512 232.831C148.822 232.649 149.093 232.407 149.326 232.106L150.098 232.708C149.478 233.66 148.549 234.137 147.309 234.137ZM147.152 227.506C146.641 227.506 146.213 227.693 145.867 228.066C145.52 228.436 145.306 228.955 145.224 229.625H148.929V229.529C148.893 228.887 148.72 228.39 148.41 228.039C148.1 227.684 147.681 227.506 147.152 227.506ZM152.708 226.604L152.749 227.533C153.314 226.822 154.052 226.467 154.964 226.467C156.527 226.467 157.315 227.349 157.329 229.112V234H156.064V229.105C156.06 228.572 155.937 228.178 155.695 227.923C155.458 227.668 155.087 227.54 154.581 227.54C154.171 227.54 153.811 227.649 153.501 227.868C153.191 228.087 152.949 228.374 152.776 228.729V234H151.511V226.604H152.708ZM160.8 224.812V226.604H162.18V227.581H160.8V232.168C160.8 232.464 160.861 232.688 160.984 232.838C161.107 232.984 161.317 233.057 161.613 233.057C161.759 233.057 161.959 233.029 162.215 232.975V234C161.882 234.091 161.558 234.137 161.244 234.137C160.679 234.137 160.253 233.966 159.966 233.624C159.679 233.282 159.535 232.797 159.535 232.168V227.581H158.188V226.604H159.535V224.812H160.8ZM167.087 227.738C166.895 227.706 166.688 227.69 166.465 227.69C165.635 227.69 165.073 228.044 164.776 228.75V234H163.512V226.604H164.742L164.763 227.458C165.177 226.797 165.765 226.467 166.526 226.467C166.772 226.467 166.959 226.499 167.087 226.562V227.738ZM171.036 234.137C170.034 234.137 169.218 233.809 168.589 233.152C167.96 232.492 167.646 231.61 167.646 230.507V230.274C167.646 229.541 167.785 228.887 168.063 228.312C168.345 227.734 168.737 227.283 169.238 226.959C169.744 226.631 170.291 226.467 170.879 226.467C171.841 226.467 172.588 226.784 173.121 227.417C173.654 228.05 173.921 228.957 173.921 230.138V230.664H168.91C168.928 231.393 169.14 231.983 169.546 232.435C169.956 232.881 170.476 233.104 171.105 233.104C171.551 233.104 171.929 233.013 172.239 232.831C172.549 232.649 172.82 232.407 173.053 232.106L173.825 232.708C173.205 233.66 172.276 234.137 171.036 234.137ZM170.879 227.506C170.369 227.506 169.94 227.693 169.594 228.066C169.247 228.436 169.033 228.955 168.951 229.625H172.656V229.529C172.62 228.887 172.447 228.39 172.137 228.039C171.827 227.684 171.408 227.506 170.879 227.506ZM179.933 234H178.668V223.5H179.933V234ZM181.476 230.233C181.476 229.509 181.617 228.857 181.9 228.278C182.187 227.7 182.583 227.253 183.089 226.938C183.6 226.624 184.181 226.467 184.833 226.467C185.84 226.467 186.653 226.815 187.273 227.513C187.897 228.21 188.209 229.137 188.209 230.295V230.384C188.209 231.104 188.07 231.751 187.792 232.325C187.519 232.895 187.125 233.339 186.61 233.658C186.099 233.977 185.512 234.137 184.846 234.137C183.844 234.137 183.03 233.788 182.406 233.091C181.786 232.394 181.476 231.471 181.476 230.322V230.233ZM182.748 230.384C182.748 231.204 182.937 231.863 183.315 232.359C183.698 232.856 184.208 233.104 184.846 233.104C185.489 233.104 185.999 232.854 186.377 232.353C186.756 231.847 186.945 231.14 186.945 230.233C186.945 229.422 186.751 228.766 186.364 228.265C185.981 227.759 185.471 227.506 184.833 227.506C184.208 227.506 183.705 227.754 183.322 228.251C182.939 228.748 182.748 229.459 182.748 230.384ZM193.95 232.038C193.95 231.696 193.82 231.432 193.56 231.245C193.305 231.054 192.856 230.89 192.214 230.753C191.575 230.616 191.067 230.452 190.689 230.261C190.315 230.069 190.037 229.841 189.855 229.577C189.677 229.313 189.589 228.998 189.589 228.634C189.589 228.028 189.844 227.515 190.354 227.096C190.869 226.676 191.525 226.467 192.323 226.467C193.161 226.467 193.84 226.683 194.36 227.116C194.884 227.549 195.146 228.103 195.146 228.777H193.875C193.875 228.431 193.727 228.132 193.43 227.882C193.139 227.631 192.769 227.506 192.323 227.506C191.863 227.506 191.503 227.606 191.243 227.807C190.983 228.007 190.853 228.269 190.853 228.593C190.853 228.898 190.974 229.128 191.215 229.283C191.457 229.438 191.892 229.586 192.521 229.728C193.155 229.869 193.667 230.037 194.059 230.233C194.451 230.429 194.741 230.666 194.927 230.944C195.119 231.218 195.214 231.553 195.214 231.949C195.214 232.61 194.95 233.141 194.422 233.542C193.893 233.938 193.207 234.137 192.364 234.137C191.771 234.137 191.247 234.032 190.792 233.822C190.336 233.613 189.978 233.321 189.718 232.947C189.463 232.569 189.336 232.161 189.336 231.724H190.6C190.623 232.147 190.792 232.485 191.106 232.735C191.425 232.981 191.844 233.104 192.364 233.104C192.842 233.104 193.225 233.009 193.512 232.817C193.804 232.621 193.95 232.362 193.95 232.038ZM206.278 230.384C206.278 231.509 206.021 232.416 205.506 233.104C204.991 233.793 204.294 234.137 203.414 234.137C202.516 234.137 201.81 233.852 201.295 233.282V236.844H200.03V226.604H201.185L201.247 227.424C201.762 226.786 202.477 226.467 203.393 226.467C204.282 226.467 204.984 226.802 205.499 227.472C206.018 228.142 206.278 229.074 206.278 230.268V230.384ZM205.014 230.24C205.014 229.406 204.836 228.748 204.48 228.265C204.125 227.782 203.637 227.54 203.017 227.54C202.252 227.54 201.678 227.88 201.295 228.559V232.093C201.673 232.767 202.252 233.104 203.031 233.104C203.637 233.104 204.118 232.865 204.474 232.387C204.834 231.904 205.014 231.188 205.014 230.24ZM212.306 234C212.233 233.854 212.174 233.594 212.128 233.221C211.54 233.831 210.838 234.137 210.022 234.137C209.293 234.137 208.694 233.932 208.225 233.521C207.76 233.107 207.527 232.583 207.527 231.949C207.527 231.179 207.819 230.582 208.402 230.158C208.99 229.73 209.815 229.516 210.877 229.516H212.107V228.935C212.107 228.493 211.975 228.142 211.711 227.882C211.447 227.618 211.057 227.485 210.542 227.485C210.091 227.485 209.713 227.599 209.407 227.827C209.102 228.055 208.949 228.331 208.949 228.654H207.678C207.678 228.285 207.808 227.93 208.067 227.588C208.332 227.242 208.687 226.968 209.134 226.768C209.585 226.567 210.079 226.467 210.617 226.467C211.469 226.467 212.137 226.681 212.62 227.109C213.103 227.533 213.354 228.119 213.372 228.866V232.271C213.372 232.95 213.459 233.49 213.632 233.891V234H212.306ZM210.207 233.036C210.604 233.036 210.98 232.934 211.335 232.729C211.69 232.523 211.948 232.257 212.107 231.929V230.411H211.116C209.567 230.411 208.792 230.865 208.792 231.771C208.792 232.168 208.924 232.478 209.189 232.701C209.453 232.924 209.792 233.036 210.207 233.036ZM218.778 227.738C218.586 227.706 218.379 227.69 218.155 227.69C217.326 227.69 216.763 228.044 216.467 228.75V234H215.202V226.604H216.433L216.453 227.458C216.868 226.797 217.456 226.467 218.217 226.467C218.463 226.467 218.65 226.499 218.778 226.562V227.738ZM221.852 224.812V226.604H223.233V227.581H221.852V232.168C221.852 232.464 221.913 232.688 222.036 232.838C222.159 232.984 222.369 233.057 222.665 233.057C222.811 233.057 223.012 233.029 223.267 232.975V234C222.934 234.091 222.611 234.137 222.296 234.137C221.731 234.137 221.305 233.966 221.018 233.624C220.731 233.282 220.587 232.797 220.587 232.168V227.581H219.241V226.604H220.587V224.812H221.852ZM225.938 234H224.673V226.604H225.938V234ZM224.571 224.642C224.571 224.437 224.632 224.263 224.755 224.122C224.883 223.981 225.07 223.91 225.316 223.91C225.562 223.91 225.749 223.981 225.876 224.122C226.004 224.263 226.068 224.437 226.068 224.642C226.068 224.847 226.004 225.018 225.876 225.154C225.749 225.291 225.562 225.359 225.316 225.359C225.07 225.359 224.883 225.291 224.755 225.154C224.632 225.018 224.571 224.847 224.571 224.642ZM230.783 233.104C231.234 233.104 231.628 232.968 231.965 232.694C232.303 232.421 232.489 232.079 232.526 231.669H233.722C233.699 232.093 233.554 232.496 233.285 232.879C233.016 233.262 232.656 233.567 232.205 233.795C231.758 234.023 231.284 234.137 230.783 234.137C229.776 234.137 228.974 233.802 228.377 233.132C227.784 232.457 227.488 231.537 227.488 230.37V230.158C227.488 229.438 227.62 228.798 227.884 228.237C228.149 227.677 228.527 227.242 229.019 226.932C229.516 226.622 230.101 226.467 230.776 226.467C231.605 226.467 232.294 226.715 232.84 227.212C233.392 227.709 233.686 228.354 233.722 229.146H232.526C232.489 228.668 232.307 228.276 231.979 227.971C231.655 227.661 231.254 227.506 230.776 227.506C230.133 227.506 229.634 227.738 229.279 228.203C228.928 228.663 228.753 229.331 228.753 230.206V230.445C228.753 231.298 228.928 231.954 229.279 232.414C229.63 232.874 230.131 233.104 230.783 233.104ZM236.366 234H235.101V226.604H236.366V234ZM234.999 224.642C234.999 224.437 235.06 224.263 235.183 224.122C235.311 223.981 235.498 223.91 235.744 223.91C235.99 223.91 236.177 223.981 236.304 224.122C236.432 224.263 236.496 224.437 236.496 224.642C236.496 224.847 236.432 225.018 236.304 225.154C236.177 225.291 235.99 225.359 235.744 225.359C235.498 225.359 235.311 225.291 235.183 225.154C235.06 225.018 234.999 224.847 234.999 224.642ZM244.492 230.384C244.492 231.509 244.235 232.416 243.72 233.104C243.205 233.793 242.507 234.137 241.628 234.137C240.73 234.137 240.024 233.852 239.509 233.282V236.844H238.244V226.604H239.399L239.461 227.424C239.976 226.786 240.691 226.467 241.607 226.467C242.496 226.467 243.198 226.802 243.713 227.472C244.232 228.142 244.492 229.074 244.492 230.268V230.384ZM243.227 230.24C243.227 229.406 243.05 228.748 242.694 228.265C242.339 227.782 241.851 227.54 241.231 227.54C240.466 227.54 239.891 227.88 239.509 228.559V232.093C239.887 232.767 240.466 233.104 241.245 233.104C241.851 233.104 242.332 232.865 242.687 232.387C243.047 231.904 243.227 231.188 243.227 230.24ZM250.52 234C250.447 233.854 250.387 233.594 250.342 233.221C249.754 233.831 249.052 234.137 248.236 234.137C247.507 234.137 246.908 233.932 246.438 233.521C245.974 233.107 245.741 232.583 245.741 231.949C245.741 231.179 246.033 230.582 246.616 230.158C247.204 229.73 248.029 229.516 249.091 229.516H250.321V228.935C250.321 228.493 250.189 228.142 249.925 227.882C249.66 227.618 249.271 227.485 248.756 227.485C248.305 227.485 247.926 227.599 247.621 227.827C247.316 228.055 247.163 228.331 247.163 228.654H245.892C245.892 228.285 246.021 227.93 246.281 227.588C246.546 227.242 246.901 226.968 247.348 226.768C247.799 226.567 248.293 226.467 248.831 226.467C249.683 226.467 250.351 226.681 250.834 227.109C251.317 227.533 251.568 228.119 251.586 228.866V232.271C251.586 232.95 251.672 233.49 251.846 233.891V234H250.52ZM248.421 233.036C248.817 233.036 249.193 232.934 249.549 232.729C249.904 232.523 250.162 232.257 250.321 231.929V230.411H249.33C247.781 230.411 247.006 230.865 247.006 231.771C247.006 232.168 247.138 232.478 247.402 232.701C247.667 232.924 248.006 233.036 248.421 233.036ZM254.612 226.604L254.653 227.533C255.219 226.822 255.957 226.467 256.868 226.467C258.431 226.467 259.22 227.349 259.234 229.112V234H257.969V229.105C257.964 228.572 257.841 228.178 257.6 227.923C257.363 227.668 256.991 227.54 256.485 227.54C256.075 227.54 255.715 227.649 255.405 227.868C255.095 228.087 254.854 228.374 254.681 228.729V234H253.416V226.604H254.612ZM262.704 224.812V226.604H264.085V227.581H262.704V232.168C262.704 232.464 262.766 232.688 262.889 232.838C263.012 232.984 263.222 233.057 263.518 233.057C263.664 233.057 263.864 233.029 264.119 232.975V234C263.787 234.091 263.463 234.137 263.149 234.137C262.584 234.137 262.157 233.966 261.87 233.624C261.583 233.282 261.44 232.797 261.44 232.168V227.581H260.093V226.604H261.44V224.812H262.704ZM268.486 234.137C267.483 234.137 266.667 233.809 266.038 233.152C265.41 232.492 265.095 231.61 265.095 230.507V230.274C265.095 229.541 265.234 228.887 265.512 228.312C265.795 227.734 266.187 227.283 266.688 226.959C267.194 226.631 267.741 226.467 268.329 226.467C269.29 226.467 270.037 226.784 270.571 227.417C271.104 228.05 271.37 228.957 271.37 230.138V230.664H266.36C266.378 231.393 266.59 231.983 266.995 232.435C267.406 232.881 267.925 233.104 268.554 233.104C269.001 233.104 269.379 233.013 269.689 232.831C269.999 232.649 270.27 232.407 270.502 232.106L271.275 232.708C270.655 233.66 269.725 234.137 268.486 234.137ZM268.329 227.506C267.818 227.506 267.39 227.693 267.043 228.066C266.697 228.436 266.483 228.955 266.401 229.625H270.106V229.529C270.069 228.887 269.896 228.39 269.586 228.039C269.276 227.684 268.857 227.506 268.329 227.506ZM276.995 232.038C276.995 231.696 276.865 231.432 276.605 231.245C276.35 231.054 275.901 230.89 275.258 230.753C274.62 230.616 274.112 230.452 273.734 230.261C273.36 230.069 273.082 229.841 272.9 229.577C272.722 229.313 272.633 228.998 272.633 228.634C272.633 228.028 272.889 227.515 273.399 227.096C273.914 226.676 274.57 226.467 275.368 226.467C276.206 226.467 276.885 226.683 277.405 227.116C277.929 227.549 278.191 228.103 278.191 228.777H276.919C276.919 228.431 276.771 228.132 276.475 227.882C276.183 227.631 275.814 227.506 275.368 227.506C274.907 227.506 274.547 227.606 274.288 227.807C274.028 228.007 273.898 228.269 273.898 228.593C273.898 228.898 274.019 229.128 274.26 229.283C274.502 229.438 274.937 229.586 275.566 229.728C276.199 229.869 276.712 230.037 277.104 230.233C277.496 230.429 277.785 230.666 277.972 230.944C278.164 231.218 278.259 231.553 278.259 231.949C278.259 232.61 277.995 233.141 277.466 233.542C276.938 233.938 276.252 234.137 275.409 234.137C274.816 234.137 274.292 234.032 273.836 233.822C273.381 233.613 273.023 233.321 272.763 232.947C272.508 232.569 272.38 232.161 272.38 231.724H273.645C273.668 232.147 273.836 232.485 274.151 232.735C274.47 232.981 274.889 233.104 275.409 233.104C275.887 233.104 276.27 233.009 276.557 232.817C276.849 232.621 276.995 232.362 276.995 232.038ZM279.782 233.337C279.782 233.118 279.846 232.936 279.973 232.79C280.105 232.644 280.301 232.571 280.561 232.571C280.821 232.571 281.017 232.644 281.149 232.79C281.286 232.936 281.354 233.118 281.354 233.337C281.354 233.547 281.286 233.722 281.149 233.863C281.017 234.005 280.821 234.075 280.561 234.075C280.301 234.075 280.105 234.005 279.973 233.863C279.846 233.722 279.782 233.547 279.782 233.337Z" fill="#858585"/>
<path d="M34.4533 159.834C34.3244 161.199 33.8205 162.266 32.9416 163.033C32.0627 163.795 30.8937 164.176 29.4348 164.176C28.4152 164.176 27.5158 163.936 26.7365 163.455C25.9631 162.969 25.3654 162.28 24.9435 161.39C24.5217 160.499 24.3019 159.465 24.2844 158.287V157.092C24.2844 155.885 24.4982 154.821 24.926 153.901C25.3537 152.981 25.966 152.272 26.7629 151.774C27.5656 151.276 28.4914 151.027 29.5402 151.027C30.9523 151.027 32.0891 151.411 32.9504 152.179C33.8117 152.946 34.3127 154.03 34.4533 155.431H32.2385C32.133 154.511 31.8635 153.849 31.4299 153.444C31.0021 153.034 30.3723 152.829 29.5402 152.829C28.5734 152.829 27.8293 153.184 27.3078 153.893C26.7922 154.596 26.5285 155.63 26.5168 156.995V158.129C26.5168 159.512 26.7629 160.566 27.2551 161.293C27.7531 162.02 28.4797 162.383 29.4348 162.383C30.3078 162.383 30.9641 162.187 31.4035 161.794C31.843 161.401 32.1213 160.748 32.2385 159.834H34.4533ZM43.4593 161.021H38.5023L37.4652 164H35.1536L39.9876 151.203H41.9827L46.8255 164H44.5052L43.4593 161.021ZM39.1263 159.228H42.8353L40.9808 153.919L39.1263 159.228ZM51.0151 151.203L54.7065 161.012L58.3891 151.203H61.2631V164H59.0483V159.781L59.268 154.139L55.4887 164H53.8979L50.1274 154.147L50.3471 159.781V164H48.1323V151.203H51.0151ZM65.9713 159.245V164H63.7476V151.203H68.6432C70.0728 151.203 71.2066 151.575 72.0445 152.319C72.8883 153.063 73.3101 154.048 73.3101 155.272C73.3101 156.526 72.8971 157.502 72.0709 158.199C71.2506 158.896 70.0992 159.245 68.6168 159.245H65.9713ZM65.9713 157.461H68.6432C69.4342 157.461 70.0377 157.276 70.4537 156.907C70.8697 156.532 71.0777 155.993 71.0777 155.29C71.0777 154.599 70.8668 154.048 70.4449 153.638C70.023 153.222 69.443 153.008 68.7047 152.996H65.9713V157.461ZM80.7077 161.021H75.7507L74.7136 164H72.4021L77.2361 151.203H79.2312L84.0739 164H81.7536L80.7077 161.021ZM76.3747 159.228H80.0837L78.2292 153.919L76.3747 159.228ZM95.5321 164H93.3085L87.6044 154.921V164H85.3807V151.203H87.6044L93.326 160.317V151.203H95.5321V164ZM93.6864 147.969C93.6864 148.613 93.4989 149.149 93.1239 149.577C92.7547 150.005 92.2889 150.219 91.7264 150.219C91.4979 150.219 91.2987 150.195 91.1288 150.148C90.9647 150.096 90.7274 149.981 90.4169 149.806C90.1122 149.63 89.8954 149.524 89.7665 149.489C89.6434 149.454 89.5057 149.437 89.3534 149.437C89.1307 149.437 88.9403 149.521 88.7821 149.691C88.6297 149.855 88.5536 150.072 88.5536 150.342L87.244 150.271C87.244 149.627 87.4286 149.085 87.7977 148.646C88.1727 148.206 88.6385 147.986 89.1952 147.986C89.5292 147.986 89.9305 148.118 90.3993 148.382C90.8739 148.646 91.2635 148.777 91.5682 148.777C91.7909 148.777 91.9813 148.695 92.1395 148.531C92.2977 148.361 92.3768 148.139 92.3768 147.863L93.6864 147.969ZM105.329 161.021H100.372L99.335 164H97.0234L101.857 151.203H103.853L108.695 164H106.375L105.329 161.021ZM100.996 159.228H104.705L102.851 153.919L100.996 159.228ZM116.679 164H114.464V151.203H116.679V164ZM129.412 164H127.188L121.484 154.921V164H119.26V151.203H121.484L127.205 160.317V151.203H129.412V164ZM139.261 158.577H134.111V164H131.887V151.203H140.017V152.996H134.111V156.802H139.261V158.577ZM151.844 157.936C151.844 159.189 151.628 160.291 151.194 161.24C150.76 162.184 150.139 162.91 149.331 163.42C148.528 163.924 147.602 164.176 146.553 164.176C145.516 164.176 144.59 163.924 143.776 163.42C142.967 162.91 142.34 162.187 141.895 161.249C141.456 160.312 141.233 159.23 141.227 158.006V157.285C141.227 156.037 141.447 154.936 141.886 153.98C142.332 153.025 142.956 152.296 143.758 151.792C144.567 151.282 145.493 151.027 146.536 151.027C147.579 151.027 148.502 151.279 149.304 151.783C150.113 152.281 150.737 153.002 151.176 153.945C151.616 154.883 151.839 155.976 151.844 157.224V157.936ZM149.621 157.268C149.621 155.85 149.351 154.763 148.812 154.007C148.279 153.251 147.52 152.873 146.536 152.873C145.575 152.873 144.822 153.251 144.277 154.007C143.738 154.757 143.463 155.82 143.451 157.197V157.936C143.451 159.342 143.723 160.429 144.268 161.196C144.819 161.964 145.581 162.348 146.553 162.348C147.538 162.348 148.294 161.973 148.821 161.223C149.354 160.473 149.621 159.377 149.621 157.936V157.268ZM157.845 159.421H153.23V157.698H157.845V159.421ZM166.35 160.704C166.35 160.142 166.15 159.708 165.752 159.403C165.359 159.099 164.647 158.791 163.616 158.48C162.585 158.17 161.765 157.824 161.155 157.443C159.989 156.711 159.406 155.756 159.406 154.578C159.406 153.547 159.825 152.697 160.663 152.029C161.507 151.361 162.6 151.027 163.941 151.027C164.832 151.027 165.626 151.191 166.323 151.52C167.02 151.848 167.568 152.316 167.967 152.926C168.365 153.529 168.564 154.2 168.564 154.938H166.35C166.35 154.271 166.139 153.749 165.717 153.374C165.301 152.993 164.703 152.803 163.924 152.803C163.197 152.803 162.632 152.958 162.227 153.269C161.829 153.579 161.63 154.013 161.63 154.569C161.63 155.038 161.847 155.431 162.28 155.747C162.714 156.058 163.429 156.362 164.425 156.661C165.421 156.954 166.221 157.291 166.824 157.672C167.428 158.047 167.87 158.48 168.151 158.973C168.433 159.459 168.573 160.03 168.573 160.687C168.573 161.753 168.163 162.603 167.343 163.235C166.528 163.862 165.421 164.176 164.02 164.176C163.095 164.176 162.242 164.006 161.463 163.666C160.689 163.32 160.086 162.846 159.652 162.242C159.225 161.639 159.011 160.936 159.011 160.133H161.234C161.234 160.859 161.475 161.422 161.955 161.82C162.435 162.219 163.124 162.418 164.02 162.418C164.794 162.418 165.374 162.263 165.761 161.952C166.153 161.636 166.35 161.22 166.35 160.704ZM177.852 158.287H172.596V162.225H178.739V164H170.372V151.203H178.678V152.996H172.596V156.529H177.852V158.287ZM190.549 164H188.325L182.621 154.921V164H180.398V151.203H182.621L188.343 160.317V151.203H190.549V164ZM199.713 160.704C199.713 160.142 199.514 159.708 199.116 159.403C198.723 159.099 198.011 158.791 196.98 158.48C195.949 158.17 195.128 157.824 194.519 157.443C193.353 156.711 192.77 155.756 192.77 154.578C192.77 153.547 193.189 152.697 194.027 152.029C194.87 151.361 195.963 151.027 197.305 151.027C198.196 151.027 198.99 151.191 199.687 151.52C200.384 151.848 200.932 152.316 201.33 152.926C201.729 153.529 201.928 154.2 201.928 154.938H199.713C199.713 154.271 199.502 153.749 199.08 153.374C198.664 152.993 198.067 152.803 197.287 152.803C196.561 152.803 195.995 152.958 195.591 153.269C195.193 153.579 194.993 154.013 194.993 154.569C194.993 155.038 195.21 155.431 195.644 155.747C196.077 156.058 196.792 156.362 197.788 156.661C198.785 156.954 199.584 157.291 200.188 157.672C200.791 158.047 201.234 158.48 201.515 158.973C201.796 159.459 201.937 160.03 201.937 160.687C201.937 161.753 201.527 162.603 200.706 163.235C199.892 163.862 198.785 164.176 197.384 164.176C196.458 164.176 195.606 164.006 194.826 163.666C194.053 163.32 193.45 162.846 193.016 162.242C192.588 161.639 192.374 160.936 192.374 160.133H194.598C194.598 160.859 194.838 161.422 195.319 161.82C195.799 162.219 196.488 162.418 197.384 162.418C198.158 162.418 198.738 162.263 199.124 161.952C199.517 161.636 199.713 161.22 199.713 160.704ZM206.082 164H203.868V151.203H206.082V164ZM208.664 164V151.203H213.049C214.497 151.203 215.598 151.493 216.354 152.073C217.11 152.653 217.488 153.518 217.488 154.666C217.488 155.252 217.33 155.779 217.013 156.248C216.697 156.717 216.234 157.08 215.625 157.338C216.316 157.525 216.849 157.88 217.224 158.401C217.605 158.917 217.796 159.538 217.796 160.265C217.796 161.466 217.409 162.389 216.635 163.033C215.868 163.678 214.766 164 213.331 164H208.664ZM210.887 158.226V162.225H213.357C214.054 162.225 214.599 162.052 214.992 161.706C215.384 161.36 215.581 160.88 215.581 160.265C215.581 158.935 214.901 158.255 213.542 158.226H210.887ZM210.887 156.591H213.067C213.758 156.591 214.297 156.436 214.684 156.125C215.077 155.809 215.273 155.363 215.273 154.789C215.273 154.156 215.091 153.699 214.728 153.418C214.371 153.137 213.811 152.996 213.049 152.996H210.887V156.591ZM222.214 164H219.999V151.203H222.214V164ZM227.018 162.225H232.828V164H224.795V151.203H227.018V162.225ZM236.728 164H234.513V151.203H236.728V164ZM241.401 162.225H248.238V164H238.711V162.559L245.329 152.996H238.755V151.203H248.027V152.609L241.401 162.225ZM257.288 161.021H252.331L251.294 164H248.983L253.817 151.203H255.812L260.655 164H258.334L257.288 161.021ZM252.955 159.228H256.664L254.81 153.919L252.955 159.228ZM261.961 164V151.203H265.741C266.871 151.203 267.873 151.455 268.746 151.959C269.625 152.463 270.305 153.178 270.786 154.104C271.266 155.029 271.506 156.09 271.506 157.285V157.927C271.506 159.14 271.263 160.206 270.777 161.126C270.296 162.046 269.608 162.755 268.711 163.253C267.821 163.751 266.798 164 265.644 164H261.961ZM264.185 152.996V162.225H265.635C266.801 162.225 267.695 161.861 268.316 161.135C268.943 160.402 269.262 159.354 269.274 157.988V157.276C269.274 155.888 268.972 154.827 268.369 154.095C267.765 153.362 266.889 152.996 265.741 152.996H264.185ZM283.782 157.936C283.782 159.189 283.565 160.291 283.131 161.24C282.698 162.184 282.077 162.91 281.268 163.42C280.465 163.924 279.54 164.176 278.491 164.176C277.454 164.176 276.528 163.924 275.713 163.42C274.905 162.91 274.278 162.187 273.833 161.249C273.393 160.312 273.17 159.23 273.165 158.006V157.285C273.165 156.037 273.384 154.936 273.824 153.98C274.269 153.025 274.893 152.296 275.696 151.792C276.504 151.282 277.43 151.027 278.473 151.027C279.516 151.027 280.439 151.279 281.242 151.783C282.05 152.281 282.674 153.002 283.114 153.945C283.553 154.883 283.776 155.976 283.782 157.224V157.936ZM281.558 157.268C281.558 155.85 281.289 154.763 280.75 154.007C280.216 153.251 279.458 152.873 278.473 152.873C277.512 152.873 276.759 153.251 276.214 154.007C275.675 154.757 275.4 155.82 275.388 157.197V157.936C275.388 159.342 275.661 160.429 276.206 161.196C276.756 161.964 277.518 162.348 278.491 162.348C279.475 162.348 280.231 161.973 280.758 161.223C281.292 160.473 281.558 159.377 281.558 157.936V157.268ZM290.547 159.069H288.068V164H285.844V151.203H290.344C291.821 151.203 292.961 151.534 293.763 152.196C294.566 152.858 294.967 153.816 294.967 155.07C294.967 155.926 294.759 156.644 294.343 157.224C293.933 157.798 293.359 158.24 292.621 158.551L295.495 163.886V164H293.113L290.547 159.069ZM288.068 157.285H290.353C291.103 157.285 291.689 157.098 292.111 156.723C292.533 156.342 292.744 155.823 292.744 155.167C292.744 154.481 292.548 153.951 292.155 153.576C291.768 153.201 291.188 153.008 290.415 152.996H288.068V157.285ZM304.088 161.021H299.131L298.094 164H295.782L300.616 151.203H302.611L307.454 164H305.134L304.088 161.021ZM299.755 159.228H303.464L301.609 153.919L299.755 159.228Z" fill="#8BD0E4"/>
<circle cx="40.8414" cy="40.8414" r="19.8414" fill="#8BD0E4"/>
<path d="M41.7721 48.7665H38.8087V37.3436L35.2711 38.4408V36.0311L41.4543 33.8163H41.7721V48.7665ZM46.7571 47.3104C46.7571 46.8387 46.9143 46.4559 47.2288 46.162C47.5501 45.868 47.95 45.7211 48.4285 45.7211C48.9139 45.7211 49.3138 45.868 49.6282 46.162C49.9495 46.4559 50.1101 46.8387 50.1101 47.3104C50.1101 47.7753 49.9529 48.1547 49.6385 48.4486C49.324 48.7357 48.9207 48.8793 48.4285 48.8793C47.9432 48.8793 47.5433 48.7357 47.2288 48.4486C46.9143 48.1547 46.7571 47.7753 46.7571 47.3104Z" fill="white"/>
</svg>
