<svg width="563" height="293" viewBox="0 0 563 293" fill="none" xmlns="http://www.w3.org/2000/svg">
<g filter="url(#filter0_d)">
<rect x="33" y="29" width="530" height="256" rx="10" fill="white"/>
<rect x="33.5" y="29.5" width="529" height="255" rx="9.5" stroke="#EDEEED"/>
</g>
<g filter="url(#filter1_d)">
<circle cx="34.1024" cy="28.1024" r="28.1024" fill="#8BD0E4"/>
<path d="M35.1299 38H31.0376V22.2256L26.1523 23.7407V20.4131L34.6909 17.3545H35.1299V38ZM42.0719 35.9893C42.0719 35.3379 42.289 34.8092 42.7233 34.4033C43.167 33.9974 43.7192 33.7944 44.38 33.7944C45.0503 33.7944 45.6025 33.9974 46.0368 34.4033C46.4804 34.8092 46.7023 35.3379 46.7023 35.9893C46.7023 36.6312 46.4852 37.1551 46.0509 37.561C45.6167 37.9575 45.0597 38.1558 44.38 38.1558C43.7098 38.1558 43.1575 37.9575 42.7233 37.561C42.289 37.1551 42.0719 36.6312 42.0719 35.9893Z" fill="white"/>
</g>
<path d="M209.363 214.822C234.835 189.318 234.835 147.969 209.363 122.465C183.891 96.9618 142.593 96.9618 117.121 122.465C91.6491 147.969 91.6491 189.318 117.121 214.822C142.593 240.325 183.891 240.325 209.363 214.822Z" fill="#ECF5F4"/>
<path d="M186.254 229.716C175.182 234.486 161.09 234.755 151.763 232.874L154.044 219.974L184.51 192.83L186.254 229.716Z" fill="#FFB9B0"/>
<path d="M179.745 231.933C181.96 231.329 184.174 230.59 186.187 229.716L184.51 192.83L178.135 198.541C179.41 209.627 179.745 220.78 179.745 231.933Z" fill="#FFB9B0"/>
<path d="M169.814 233.68C163.238 234.285 156.796 233.882 151.83 232.874L154.111 219.974L172.766 209.627C172.163 215.808 171.223 227.566 169.814 233.68Z" fill="#FFB9B0"/>
<path d="M164.647 166.291C154.984 162.797 147.267 165.081 139.818 177.847C132.369 190.546 122.102 201.632 127.001 205.596C131.9 209.56 141.496 221.049 156.057 219.974C177.799 218.294 192.898 176.503 164.647 166.291Z" fill="#FFB9B0"/>
<path d="M138.006 210.366C142.771 213.054 148.81 211.307 151.494 206.536L182.631 150.569L157.869 136.795L133.577 198.071C131.766 202.639 133.645 207.947 138.006 210.366Z" fill="#4198C5"/>
<path d="M181.557 156.078L189.475 160.513C194.307 163.2 200.346 161.453 203.031 156.683L205.648 151.98C208.332 147.142 206.587 141.095 201.823 138.408L193.904 133.973C189.073 131.286 183.033 133.033 180.349 137.803L177.732 142.506C174.981 147.344 176.726 153.391 181.557 156.078Z" fill="#7EC6DC"/>
<path d="M177.397 143.044L180.618 137.199C181.02 136.46 181.557 135.788 182.094 135.183L180.416 138.206C177.934 142.708 179.544 148.419 184.04 150.905L193.032 155.944C196.79 158.027 201.353 157.288 204.239 154.331L202.695 157.086C200.212 161.588 194.508 163.2 190.012 160.714L181.02 155.675C176.524 153.256 174.847 147.546 177.397 143.044Z" fill="#4198C5"/>
<path d="M160.218 150.502L175.719 159.169C181.49 162.394 188.737 160.311 191.891 154.533L197.998 143.581C201.219 137.803 199.139 130.547 193.368 127.389L177.866 118.722C172.095 115.497 164.848 117.58 161.694 123.358L155.588 134.309C152.434 140.02 154.514 147.277 160.218 150.502Z" fill="#7EC6DC"/>
<path d="M155.319 134.847L162.03 122.82C163.103 120.939 164.58 119.461 166.324 118.453C166.257 118.52 166.19 118.655 166.123 118.722L159.413 130.749C156.393 136.191 158.339 143.111 163.774 146.135L180.349 155.407C183.906 157.422 188.133 157.221 191.422 155.339C188.335 160.58 181.557 162.394 176.256 159.438L159.681 150.166C154.246 147.142 152.3 140.289 155.319 134.847Z" fill="#4198C5"/>
<path d="M92.9121 145.127C122.505 147.075 138.946 143.245 157.131 153.391C169.546 160.311 191.086 121.544 178.672 114.624C158.876 103.538 153.642 88.0843 137.939 64.2327L92.9121 145.127Z" fill="#CEEAEB"/>
<path d="M97.6093 136.795C126.263 138.475 142.435 134.981 160.285 144.925C167.063 148.688 176.457 138.945 181.691 128.128C178.47 141.364 165.653 158.094 157.198 153.324C139.013 143.178 122.572 147.008 92.9791 145.06L97.6093 136.795Z" fill="#7EC6DC"/>
<path d="M128.405 111.893C140.835 89.5606 145.112 68.2204 137.958 64.2283C130.804 60.2363 114.927 75.1041 102.497 97.4365C90.0663 119.769 85.7892 141.109 92.9436 145.101C100.098 149.093 115.975 134.225 128.405 111.893Z" fill="#3F98CA"/>
<path d="M96.1331 145.731C93.9186 137.534 98.616 120.267 108.547 102.328C119.351 82.9108 132.772 69.1373 140.825 68.5326C143.106 76.7295 138.409 93.9968 128.41 111.936C117.607 131.353 104.186 145.127 96.1331 145.731Z" fill="#78C9DA"/>
<path d="M90.8318 150.569C100.428 155.944 119.62 139.886 133.577 114.758C147.535 89.6297 151.092 64.9046 141.496 59.5296C131.9 54.1545 112.708 70.2124 98.7501 95.3406C84.7253 120.469 81.1687 145.194 90.8318 150.569ZM102.441 97.4235C114.855 75.1171 130.759 60.2686 137.939 64.2327C145.119 68.264 140.825 89.5625 128.41 111.869C115.996 134.175 100.092 149.024 92.912 145.06C85.799 141.096 90.0265 119.73 102.441 97.4235Z" fill="#75C0E0"/>
<g opacity="0.5">
<path opacity="0.5" d="M101.3 94.3999C113.782 72.0936 129.618 57.2451 136.798 61.2091C138.409 62.0826 139.416 63.8295 139.885 66.2482C139.348 65.3748 138.677 64.7029 137.872 64.2326C130.692 60.2013 114.788 75.117 102.374 97.4234C92.7779 114.825 88.0806 131.622 89.8253 140.088C85.7319 133.302 90.295 114.22 101.3 94.3999Z" fill="#75C0E0"/>
<path opacity="0.5" d="M89.6911 147.545C99.287 152.92 118.479 136.862 132.437 111.734C143.106 92.5857 147.737 73.6388 144.985 63.3591C149.75 72.5638 145.388 93.5264 133.577 114.758C119.553 139.953 100.428 155.944 90.8319 150.569C88.5503 149.292 87.0069 146.941 86.2017 143.716C87.0069 145.463 88.2148 146.739 89.6911 147.545Z" fill="#75C0E0"/>
</g>
<path d="M128.41 111.936C125.659 116.841 122.841 121.342 119.888 125.373L107.339 118.386L122.841 90.5702L135.389 97.5577C133.443 102.194 131.162 107.031 128.41 111.936Z" fill="#3F98CA"/>
<path d="M131.967 105.083C131.967 105.083 134.383 100.044 135.389 97.5577L122.774 90.5702L118.613 98.0952L131.967 105.083Z" fill="#3F98CA"/>
<path d="M122.774 90.5702L123.78 91.1077L112.842 110.794L125.055 117.58C123.377 120.334 121.633 122.955 119.888 125.373L107.339 118.386L122.774 90.5702Z" fill="#4198C5"/>
<path d="M110.628 101.992C106.333 109.652 104.857 116.975 107.34 118.386C109.822 119.73 115.258 114.623 119.553 106.964C123.847 99.3046 125.324 91.9812 122.841 90.5702C120.358 89.2265 114.855 94.3327 110.628 101.992Z" fill="#CEEAEB"/>
<path d="M129.685 195.249C125.055 194.039 120.291 202.639 126.263 206.2C132.906 210.165 138.946 211.307 140.758 211.575C145.388 212.247 147.468 205.999 142.771 202.371C138.073 198.743 133.645 196.257 129.685 195.249Z" fill="#FFB9B0"/>
<path opacity="0.3" d="M140.758 211.575C138.946 211.307 132.906 210.165 126.263 206.2C123.78 204.722 123.176 202.371 123.646 200.221C123.982 200.489 124.317 200.825 124.72 201.027C131.363 204.991 137.402 206.133 139.214 206.402C141.63 206.738 143.308 205.26 143.777 203.244C147.065 206.939 144.985 212.18 140.758 211.575Z" fill="#EF9F9A"/>
<path d="M132.504 184.163C127.068 182.752 121.432 192.897 128.41 197.063C136.262 201.766 143.375 203.11 145.522 203.379C151.025 204.185 153.44 196.794 147.938 192.494C142.502 188.261 137.201 185.372 132.504 184.163Z" fill="#FFB9B0"/>
<path opacity="0.3" d="M145.589 203.446C143.442 203.11 136.329 201.766 128.478 197.063C125.391 195.249 124.787 192.225 125.458 189.605C125.86 191.016 126.8 192.292 128.478 193.3C136.329 198.003 143.442 199.347 145.589 199.683C148.206 200.086 150.085 198.608 150.823 196.525C151.964 200.221 149.615 204.05 145.589 203.446Z" fill="#EF9F9A"/>
<path d="M140.489 171.33C134.718 168.306 125.592 178.183 132.37 184.902C139.952 192.36 147.737 195.786 150.018 196.727C156.058 199.146 160.755 191.419 155.655 185.036C150.622 178.653 145.388 173.95 140.489 171.33Z" fill="#FFB9B0"/>
<path opacity="0.3" d="M150.018 196.727C147.736 195.786 139.952 192.36 132.37 184.902C129.82 182.416 129.484 179.46 130.424 176.907C130.826 177.914 131.43 178.855 132.37 179.796C139.952 187.254 147.736 190.68 150.018 191.621C153.373 192.964 156.326 191.15 157.4 188.194C159.211 193.569 155.051 198.743 150.018 196.727Z" fill="#EF9F9A"/>
<path d="M149.884 161.386C144.515 158.564 136.06 167.769 142.368 173.95C149.414 180.871 155.386 184.499 157.467 185.574C163.305 188.53 168.606 181.811 163.909 175.899C159.211 170.053 154.514 163.805 149.884 161.386Z" fill="#FFB9B0"/>
<path opacity="0.3" d="M157.467 185.574C155.386 184.499 149.414 180.871 142.368 173.95C139.348 170.994 139.751 167.299 141.563 164.544C141.63 166.224 142.234 167.836 143.777 169.382C150.823 176.302 156.796 179.93 158.876 181.005C161.56 182.349 164.11 181.677 165.653 179.997C166.123 184.432 161.963 187.858 157.467 185.574Z" fill="#EF9F9A"/>
<path d="M156.192 155.071C150.689 155.071 146.26 166.022 163.842 174.421C163.506 179.057 166.794 182.147 163.506 186.111C158.473 192.158 155.856 195.585 156.93 202.169C158.004 208.888 166.19 213.188 174.243 208.955C182.43 204.655 193.972 184.096 173.169 165.619C171.223 163.939 162.03 159.236 161.157 158.363C158.473 155.608 157.668 155.071 156.192 155.071Z" fill="#FFB9B0"/>
<path opacity="0.3" d="M174.243 208.955C166.257 213.121 158.003 208.888 156.93 202.169C155.856 195.652 158.473 192.225 163.506 186.111C166.794 182.147 163.506 179.057 163.842 174.421C146.26 166.022 150.622 155.071 156.192 155.071C156.326 155.071 156.46 155.071 156.527 155.071C154.178 158.699 155.453 166.089 168.069 172.136C167.734 176.772 171.022 179.863 167.734 183.827C162.701 189.874 160.084 193.3 161.157 199.885C162.164 205.999 164.714 208.821 174.243 208.955Z" fill="#EF9F9A"/>
<path d="M264.651 162.402H260.481L259.545 165H258.191L261.992 155.047H263.141L266.948 165H265.602L264.651 162.402ZM260.878 161.322H264.262L262.566 156.667L260.878 161.322ZM274.186 161.384C274.186 162.509 273.928 163.416 273.413 164.104C272.898 164.793 272.201 165.137 271.321 165.137C270.424 165.137 269.717 164.852 269.202 164.282V167.844H267.938V157.604H269.093L269.154 158.424C269.669 157.786 270.385 157.467 271.301 157.467C272.19 157.467 272.891 157.802 273.406 158.472C273.926 159.142 274.186 160.074 274.186 161.268V161.384ZM272.921 161.24C272.921 160.406 272.743 159.748 272.388 159.265C272.032 158.782 271.545 158.54 270.925 158.54C270.159 158.54 269.585 158.88 269.202 159.559V163.093C269.581 163.767 270.159 164.104 270.939 164.104C271.545 164.104 272.026 163.865 272.381 163.387C272.741 162.904 272.921 162.188 272.921 161.24ZM280.213 164.269C279.721 164.847 278.999 165.137 278.046 165.137C277.258 165.137 276.656 164.909 276.241 164.453C275.831 163.993 275.624 163.314 275.619 162.416V157.604H276.884V162.382C276.884 163.503 277.34 164.063 278.251 164.063C279.217 164.063 279.86 163.703 280.179 162.983V157.604H281.444V165H280.24L280.213 164.269ZM284.415 157.604L284.456 158.533C285.022 157.822 285.76 157.467 286.671 157.467C288.234 157.467 289.023 158.349 289.037 160.112V165H287.772V160.105C287.767 159.572 287.644 159.178 287.403 158.923C287.166 158.668 286.794 158.54 286.288 158.54C285.878 158.54 285.518 158.649 285.208 158.868C284.899 159.087 284.657 159.374 284.484 159.729V165H283.219V157.604H284.415ZM292.507 155.812V157.604H293.888V158.581H292.507V163.168C292.507 163.464 292.569 163.688 292.692 163.838C292.815 163.984 293.025 164.057 293.321 164.057C293.467 164.057 293.667 164.029 293.922 163.975V165C293.59 165.091 293.266 165.137 292.952 165.137C292.387 165.137 291.96 164.966 291.673 164.624C291.386 164.282 291.243 163.797 291.243 163.168V158.581H289.896V157.604H291.243V155.812H292.507ZM299.786 165C299.713 164.854 299.654 164.594 299.608 164.221C299.02 164.831 298.318 165.137 297.503 165.137C296.773 165.137 296.174 164.932 295.705 164.521C295.24 164.107 295.007 163.583 295.007 162.949C295.007 162.179 295.299 161.582 295.882 161.158C296.47 160.73 297.295 160.516 298.357 160.516H299.588V159.935C299.588 159.493 299.455 159.142 299.191 158.882C298.927 158.618 298.537 158.485 298.022 158.485C297.571 158.485 297.193 158.599 296.887 158.827C296.582 159.055 296.429 159.331 296.429 159.654H295.158C295.158 159.285 295.288 158.93 295.548 158.588C295.812 158.242 296.167 157.968 296.614 157.768C297.065 157.567 297.56 157.467 298.097 157.467C298.95 157.467 299.617 157.681 300.1 158.109C300.583 158.533 300.834 159.119 300.852 159.866V163.271C300.852 163.95 300.939 164.49 301.112 164.891V165H299.786ZM297.687 164.036C298.084 164.036 298.46 163.934 298.815 163.729C299.171 163.523 299.428 163.257 299.588 162.929V161.411H298.596C297.047 161.411 296.272 161.865 296.272 162.771C296.272 163.168 296.404 163.478 296.669 163.701C296.933 163.924 297.272 164.036 297.687 164.036ZM310.569 165C310.496 164.854 310.437 164.594 310.392 164.221C309.804 164.831 309.102 165.137 308.286 165.137C307.557 165.137 306.958 164.932 306.488 164.521C306.023 164.107 305.791 163.583 305.791 162.949C305.791 162.179 306.083 161.582 306.666 161.158C307.254 160.73 308.079 160.516 309.141 160.516H310.371V159.935C310.371 159.493 310.239 159.142 309.975 158.882C309.71 158.618 309.321 158.485 308.806 158.485C308.354 158.485 307.976 158.599 307.671 158.827C307.365 159.055 307.213 159.331 307.213 159.654H305.941C305.941 159.285 306.071 158.93 306.331 158.588C306.595 158.242 306.951 157.968 307.397 157.768C307.849 157.567 308.343 157.467 308.881 157.467C309.733 157.467 310.401 157.681 310.884 158.109C311.367 158.533 311.617 159.119 311.636 159.866V163.271C311.636 163.95 311.722 164.49 311.895 164.891V165H310.569ZM308.471 164.036C308.867 164.036 309.243 163.934 309.599 163.729C309.954 163.523 310.212 163.257 310.371 162.929V161.411H309.38C307.83 161.411 307.056 161.865 307.056 162.771C307.056 163.168 307.188 163.478 307.452 163.701C307.716 163.924 308.056 164.036 308.471 164.036ZM318.16 165H316.896V157.604H318.16V165ZM316.793 155.642C316.793 155.437 316.855 155.263 316.978 155.122C317.105 154.981 317.292 154.91 317.538 154.91C317.784 154.91 317.971 154.981 318.099 155.122C318.226 155.263 318.29 155.437 318.29 155.642C318.29 155.847 318.226 156.018 318.099 156.154C317.971 156.291 317.784 156.359 317.538 156.359C317.292 156.359 317.105 156.291 316.978 156.154C316.855 156.018 316.793 155.847 316.793 155.642ZM321.228 157.604L321.262 158.424C321.804 157.786 322.536 157.467 323.456 157.467C324.491 157.467 325.195 157.863 325.569 158.656C325.815 158.301 326.134 158.014 326.526 157.795C326.922 157.576 327.389 157.467 327.927 157.467C329.549 157.467 330.374 158.326 330.402 160.044V165H329.137V160.119C329.137 159.59 329.016 159.196 328.775 158.937C328.533 158.672 328.128 158.54 327.558 158.54C327.089 158.54 326.699 158.681 326.389 158.964C326.079 159.242 325.899 159.618 325.849 160.092V165H324.577V160.153C324.577 159.078 324.051 158.54 322.998 158.54C322.169 158.54 321.602 158.893 321.296 159.6V165H320.032V157.604H321.228ZM338.412 161.384C338.412 162.509 338.154 163.416 337.639 164.104C337.124 164.793 336.427 165.137 335.547 165.137C334.65 165.137 333.943 164.852 333.428 164.282V167.844H332.164V157.604H333.319L333.38 158.424C333.895 157.786 334.611 157.467 335.527 157.467C336.416 157.467 337.117 157.802 337.632 158.472C338.152 159.142 338.412 160.074 338.412 161.268V161.384ZM337.147 161.24C337.147 160.406 336.969 159.748 336.614 159.265C336.258 158.782 335.771 158.54 335.151 158.54C334.385 158.54 333.811 158.88 333.428 159.559V163.093C333.806 163.767 334.385 164.104 335.165 164.104C335.771 164.104 336.251 163.865 336.607 163.387C336.967 162.904 337.147 162.188 337.147 161.24ZM341.247 165H339.982V154.5H341.247V165ZM346.194 165.137C345.191 165.137 344.376 164.809 343.747 164.152C343.118 163.492 342.803 162.61 342.803 161.507V161.274C342.803 160.541 342.942 159.887 343.22 159.312C343.503 158.734 343.895 158.283 344.396 157.959C344.902 157.631 345.449 157.467 346.037 157.467C346.998 157.467 347.746 157.784 348.279 158.417C348.812 159.05 349.079 159.957 349.079 161.138V161.664H344.068C344.086 162.393 344.298 162.983 344.704 163.435C345.114 163.881 345.634 164.104 346.262 164.104C346.709 164.104 347.087 164.013 347.397 163.831C347.707 163.649 347.978 163.407 348.211 163.106L348.983 163.708C348.363 164.66 347.434 165.137 346.194 165.137ZM346.037 158.506C345.526 158.506 345.098 158.693 344.752 159.066C344.405 159.436 344.191 159.955 344.109 160.625H347.814V160.529C347.778 159.887 347.605 159.39 347.295 159.039C346.985 158.684 346.566 158.506 346.037 158.506ZM351.586 157.604L351.62 158.424C352.162 157.786 352.894 157.467 353.814 157.467C354.849 157.467 355.553 157.863 355.927 158.656C356.173 158.301 356.492 158.014 356.884 157.795C357.28 157.576 357.747 157.467 358.285 157.467C359.907 157.467 360.732 158.326 360.76 160.044V165H359.495V160.119C359.495 159.59 359.374 159.196 359.133 158.937C358.891 158.672 358.486 158.54 357.916 158.54C357.446 158.54 357.057 158.681 356.747 158.964C356.437 159.242 356.257 159.618 356.207 160.092V165H354.935V160.153C354.935 159.078 354.409 158.54 353.356 158.54C352.527 158.54 351.96 158.893 351.654 159.6V165H350.39V157.604H351.586ZM365.591 165.137C364.588 165.137 363.772 164.809 363.144 164.152C362.515 163.492 362.2 162.61 362.2 161.507V161.274C362.2 160.541 362.339 159.887 362.617 159.312C362.9 158.734 363.292 158.283 363.793 157.959C364.299 157.631 364.846 157.467 365.434 157.467C366.395 157.467 367.143 157.784 367.676 158.417C368.209 159.05 368.476 159.957 368.476 161.138V161.664H363.465C363.483 162.393 363.695 162.983 364.101 163.435C364.511 163.881 365.03 164.104 365.659 164.104C366.106 164.104 366.484 164.013 366.794 163.831C367.104 163.649 367.375 163.407 367.607 163.106L368.38 163.708C367.76 164.66 366.83 165.137 365.591 165.137ZM365.434 158.506C364.923 158.506 364.495 158.693 364.148 159.066C363.802 159.436 363.588 159.955 363.506 160.625H367.211V160.529C367.174 159.887 367.001 159.39 366.691 159.039C366.382 158.684 365.962 158.506 365.434 158.506ZM370.989 157.604L371.03 158.533C371.596 157.822 372.334 157.467 373.245 157.467C374.808 157.467 375.597 158.349 375.61 160.112V165H374.346V160.105C374.341 159.572 374.218 159.178 373.977 158.923C373.74 158.668 373.368 158.54 372.862 158.54C372.452 158.54 372.092 158.649 371.782 158.868C371.472 159.087 371.231 159.374 371.058 159.729V165H369.793V157.604H370.989ZM379.081 155.812V157.604H380.462V158.581H379.081V163.168C379.081 163.464 379.143 163.688 379.266 163.838C379.389 163.984 379.599 164.057 379.895 164.057C380.041 164.057 380.241 164.029 380.496 163.975V165C380.164 165.091 379.84 165.137 379.526 165.137C378.961 165.137 378.534 164.966 378.247 164.624C377.96 164.282 377.817 163.797 377.817 163.168V158.581H376.47V157.604H377.817V155.812H379.081ZM386.36 165C386.287 164.854 386.228 164.594 386.182 164.221C385.594 164.831 384.892 165.137 384.077 165.137C383.347 165.137 382.748 164.932 382.279 164.521C381.814 164.107 381.581 163.583 381.581 162.949C381.581 162.179 381.873 161.582 382.456 161.158C383.044 160.73 383.869 160.516 384.931 160.516H386.162V159.935C386.162 159.493 386.029 159.142 385.765 158.882C385.501 158.618 385.111 158.485 384.596 158.485C384.145 158.485 383.767 158.599 383.461 158.827C383.156 159.055 383.003 159.331 383.003 159.654H381.732C381.732 159.285 381.862 158.93 382.121 158.588C382.386 158.242 382.741 157.968 383.188 157.768C383.639 157.567 384.134 157.467 384.671 157.467C385.524 157.467 386.191 157.681 386.674 158.109C387.157 158.533 387.408 159.119 387.426 159.866V163.271C387.426 163.95 387.513 164.49 387.686 164.891V165H386.36ZM384.261 164.036C384.658 164.036 385.034 163.934 385.389 163.729C385.745 163.523 386.002 163.257 386.162 162.929V161.411H385.17C383.621 161.411 382.846 161.865 382.846 162.771C382.846 163.168 382.978 163.478 383.243 163.701C383.507 163.924 383.846 164.036 384.261 164.036ZM392.832 158.738C392.64 158.706 392.433 158.69 392.21 158.69C391.38 158.69 390.817 159.044 390.521 159.75V165H389.256V157.604H390.487L390.507 158.458C390.922 157.797 391.51 157.467 392.271 157.467C392.517 157.467 392.704 157.499 392.832 157.562V158.738ZM400.238 165.137C399.235 165.137 398.42 164.809 397.791 164.152C397.162 163.492 396.847 162.61 396.847 161.507V161.274C396.847 160.541 396.986 159.887 397.264 159.312C397.547 158.734 397.939 158.283 398.44 157.959C398.946 157.631 399.493 157.467 400.081 157.467C401.042 157.467 401.79 157.784 402.323 158.417C402.856 159.05 403.123 159.957 403.123 161.138V161.664H398.112C398.13 162.393 398.342 162.983 398.748 163.435C399.158 163.881 399.678 164.104 400.306 164.104C400.753 164.104 401.131 164.013 401.441 163.831C401.751 163.649 402.022 163.407 402.255 163.106L403.027 163.708C402.407 164.66 401.478 165.137 400.238 165.137ZM400.081 158.506C399.57 158.506 399.142 158.693 398.796 159.066C398.449 159.436 398.235 159.955 398.153 160.625H401.858V160.529C401.822 159.887 401.649 159.39 401.339 159.039C401.029 158.684 400.61 158.506 400.081 158.506ZM408.747 163.038C408.747 162.696 408.617 162.432 408.357 162.245C408.102 162.054 407.653 161.89 407.011 161.753C406.373 161.616 405.865 161.452 405.486 161.261C405.113 161.069 404.835 160.841 404.652 160.577C404.475 160.313 404.386 159.998 404.386 159.634C404.386 159.028 404.641 158.515 405.151 158.096C405.666 157.676 406.323 157.467 407.12 157.467C407.959 157.467 408.638 157.683 409.157 158.116C409.681 158.549 409.943 159.103 409.943 159.777H408.672C408.672 159.431 408.524 159.132 408.227 158.882C407.936 158.631 407.567 158.506 407.12 158.506C406.66 158.506 406.3 158.606 406.04 158.807C405.78 159.007 405.65 159.269 405.65 159.593C405.65 159.898 405.771 160.128 406.013 160.283C406.254 160.438 406.689 160.586 407.318 160.728C407.952 160.869 408.464 161.037 408.856 161.233C409.248 161.429 409.538 161.666 409.725 161.944C409.916 162.218 410.012 162.553 410.012 162.949C410.012 163.61 409.747 164.141 409.219 164.542C408.69 164.938 408.004 165.137 407.161 165.137C406.569 165.137 406.045 165.032 405.589 164.822C405.133 164.613 404.775 164.321 404.516 163.947C404.26 163.569 404.133 163.161 404.133 162.724H405.397C405.42 163.147 405.589 163.485 405.903 163.735C406.222 163.981 406.642 164.104 407.161 164.104C407.64 164.104 408.022 164.009 408.31 163.817C408.601 163.621 408.747 163.362 408.747 163.038ZM417.755 161.384C417.755 162.509 417.497 163.416 416.982 164.104C416.468 164.793 415.77 165.137 414.891 165.137C413.993 165.137 413.287 164.852 412.772 164.282V167.844H411.507V157.604H412.662L412.724 158.424C413.239 157.786 413.954 157.467 414.87 157.467C415.759 157.467 416.461 157.802 416.976 158.472C417.495 159.142 417.755 160.074 417.755 161.268V161.384ZM416.49 161.24C416.49 160.406 416.313 159.748 415.957 159.265C415.602 158.782 415.114 158.54 414.494 158.54C413.729 158.54 413.154 158.88 412.772 159.559V163.093C413.15 163.767 413.729 164.104 414.508 164.104C415.114 164.104 415.595 163.865 415.95 163.387C416.31 162.904 416.49 162.188 416.49 161.24ZM423.782 165C423.71 164.854 423.65 164.594 423.605 164.221C423.017 164.831 422.315 165.137 421.499 165.137C420.77 165.137 420.171 164.932 419.701 164.521C419.237 164.107 419.004 163.583 419.004 162.949C419.004 162.179 419.296 161.582 419.879 161.158C420.467 160.73 421.292 160.516 422.354 160.516H423.584V159.935C423.584 159.493 423.452 159.142 423.188 158.882C422.923 158.618 422.534 158.485 422.019 158.485C421.568 158.485 421.189 158.599 420.884 158.827C420.579 159.055 420.426 159.331 420.426 159.654H419.155C419.155 159.285 419.284 158.93 419.544 158.588C419.808 158.242 420.164 157.968 420.611 157.768C421.062 157.567 421.556 157.467 422.094 157.467C422.946 157.467 423.614 157.681 424.097 158.109C424.58 158.533 424.831 159.119 424.849 159.866V163.271C424.849 163.95 424.935 164.49 425.109 164.891V165H423.782ZM421.684 164.036C422.08 164.036 422.456 163.934 422.812 163.729C423.167 163.523 423.425 163.257 423.584 162.929V161.411H422.593C421.044 161.411 420.269 161.865 420.269 162.771C420.269 163.168 420.401 163.478 420.665 163.701C420.93 163.924 421.269 164.036 421.684 164.036ZM429.646 164.104C430.097 164.104 430.491 163.968 430.828 163.694C431.166 163.421 431.353 163.079 431.389 162.669H432.585C432.563 163.093 432.417 163.496 432.148 163.879C431.879 164.262 431.519 164.567 431.068 164.795C430.621 165.023 430.147 165.137 429.646 165.137C428.639 165.137 427.837 164.802 427.24 164.132C426.647 163.457 426.351 162.537 426.351 161.37V161.158C426.351 160.438 426.483 159.798 426.747 159.237C427.012 158.677 427.39 158.242 427.882 157.932C428.379 157.622 428.965 157.467 429.639 157.467C430.468 157.467 431.157 157.715 431.703 158.212C432.255 158.709 432.549 159.354 432.585 160.146H431.389C431.353 159.668 431.17 159.276 430.842 158.971C430.519 158.661 430.118 158.506 429.639 158.506C428.996 158.506 428.497 158.738 428.142 159.203C427.791 159.663 427.616 160.331 427.616 161.206V161.445C427.616 162.298 427.791 162.954 428.142 163.414C428.493 163.874 428.994 164.104 429.646 164.104ZM435.229 165H433.964V157.604H435.229V165ZM433.862 155.642C433.862 155.437 433.923 155.263 434.046 155.122C434.174 154.981 434.361 154.91 434.607 154.91C434.853 154.91 435.04 154.981 435.167 155.122C435.295 155.263 435.359 155.437 435.359 155.642C435.359 155.847 435.295 156.018 435.167 156.154C435.04 156.291 434.853 156.359 434.607 156.359C434.361 156.359 434.174 156.291 434.046 156.154C433.923 156.018 433.862 155.847 433.862 155.642ZM436.772 161.233C436.772 160.509 436.913 159.857 437.196 159.278C437.483 158.7 437.88 158.253 438.385 157.938C438.896 157.624 439.477 157.467 440.129 157.467C441.136 157.467 441.949 157.815 442.569 158.513C443.193 159.21 443.505 160.137 443.505 161.295V161.384C443.505 162.104 443.366 162.751 443.089 163.325C442.815 163.895 442.421 164.339 441.906 164.658C441.395 164.977 440.808 165.137 440.142 165.137C439.14 165.137 438.326 164.788 437.702 164.091C437.082 163.394 436.772 162.471 436.772 161.322V161.233ZM438.044 161.384C438.044 162.204 438.233 162.863 438.611 163.359C438.994 163.856 439.504 164.104 440.142 164.104C440.785 164.104 441.295 163.854 441.673 163.353C442.052 162.847 442.241 162.14 442.241 161.233C442.241 160.422 442.047 159.766 441.66 159.265C441.277 158.759 440.767 158.506 440.129 158.506C439.504 158.506 439.001 158.754 438.618 159.251C438.235 159.748 438.044 160.459 438.044 161.384ZM449.246 163.038C449.246 162.696 449.116 162.432 448.856 162.245C448.601 162.054 448.152 161.89 447.51 161.753C446.872 161.616 446.363 161.452 445.985 161.261C445.611 161.069 445.333 160.841 445.151 160.577C444.973 160.313 444.885 159.998 444.885 159.634C444.885 159.028 445.14 158.515 445.65 158.096C446.165 157.676 446.821 157.467 447.619 157.467C448.457 157.467 449.136 157.683 449.656 158.116C450.18 158.549 450.442 159.103 450.442 159.777H449.171C449.171 159.431 449.023 159.132 448.726 158.882C448.435 158.631 448.066 158.506 447.619 158.506C447.159 158.506 446.799 158.606 446.539 158.807C446.279 159.007 446.149 159.269 446.149 159.593C446.149 159.898 446.27 160.128 446.511 160.283C446.753 160.438 447.188 160.586 447.817 160.728C448.451 160.869 448.963 161.037 449.355 161.233C449.747 161.429 450.037 161.666 450.223 161.944C450.415 162.218 450.51 162.553 450.51 162.949C450.51 163.61 450.246 164.141 449.718 164.542C449.189 164.938 448.503 165.137 447.66 165.137C447.067 165.137 446.543 165.032 446.088 164.822C445.632 164.613 445.274 164.321 445.014 163.947C444.759 163.569 444.632 163.161 444.632 162.724H445.896C445.919 163.147 446.088 163.485 446.402 163.735C446.721 163.981 447.14 164.104 447.66 164.104C448.138 164.104 448.521 164.009 448.808 163.817C449.1 163.621 449.246 163.362 449.246 163.038ZM458.293 164.104C458.744 164.104 459.138 163.968 459.476 163.694C459.813 163.421 460 163.079 460.036 162.669H461.232C461.21 163.093 461.064 163.496 460.795 163.879C460.526 164.262 460.166 164.567 459.715 164.795C459.268 165.023 458.794 165.137 458.293 165.137C457.286 165.137 456.484 164.802 455.887 164.132C455.294 163.457 454.998 162.537 454.998 161.37V161.158C454.998 160.438 455.13 159.798 455.395 159.237C455.659 158.677 456.037 158.242 456.529 157.932C457.026 157.622 457.612 157.467 458.286 157.467C459.116 157.467 459.804 157.715 460.351 158.212C460.902 158.709 461.196 159.354 461.232 160.146H460.036C460 159.668 459.817 159.276 459.489 158.971C459.166 158.661 458.765 158.506 458.286 158.506C457.644 158.506 457.145 158.738 456.789 159.203C456.438 159.663 456.263 160.331 456.263 161.206V161.445C456.263 162.298 456.438 162.954 456.789 163.414C457.14 163.874 457.641 164.104 458.293 164.104ZM467.069 164.269C466.576 164.847 465.854 165.137 464.902 165.137C464.113 165.137 463.512 164.909 463.097 164.453C462.687 163.993 462.479 163.314 462.475 162.416V157.604H463.739V162.382C463.739 163.503 464.195 164.063 465.107 164.063C466.073 164.063 466.715 163.703 467.034 162.983V157.604H468.299V165H467.096L467.069 164.269ZM471.449 165H470.184V154.5H471.449V165ZM475.042 155.812V157.604H476.423V158.581H475.042V163.168C475.042 163.464 475.104 163.688 475.227 163.838C475.35 163.984 475.56 164.057 475.856 164.057C476.002 164.057 476.202 164.029 476.457 163.975V165C476.125 165.091 475.801 165.137 475.487 165.137C474.922 165.137 474.496 164.966 474.208 164.624C473.921 164.282 473.778 163.797 473.778 163.168V158.581H472.431V157.604H473.778V155.812H475.042ZM482.321 164.269C481.829 164.847 481.106 165.137 480.154 165.137C479.365 165.137 478.764 164.909 478.349 164.453C477.939 163.993 477.732 163.314 477.727 162.416V157.604H478.992V162.382C478.992 163.503 479.447 164.063 480.359 164.063C481.325 164.063 481.968 163.703 482.287 162.983V157.604H483.551V165H482.348L482.321 164.269ZM488.902 158.738C488.711 158.706 488.503 158.69 488.28 158.69C487.451 158.69 486.888 159.044 486.591 159.75V165H485.327V157.604H486.557L486.578 158.458C486.993 157.797 487.58 157.467 488.341 157.467C488.588 157.467 488.774 157.499 488.902 157.562V158.738ZM494.212 165C494.139 164.854 494.08 164.594 494.034 164.221C493.446 164.831 492.744 165.137 491.929 165.137C491.199 165.137 490.6 164.932 490.131 164.521C489.666 164.107 489.433 163.583 489.433 162.949C489.433 162.179 489.725 161.582 490.308 161.158C490.896 160.73 491.721 160.516 492.783 160.516H494.014V159.935C494.014 159.493 493.881 159.142 493.617 158.882C493.353 158.618 492.963 158.485 492.448 158.485C491.997 158.485 491.619 158.599 491.313 158.827C491.008 159.055 490.855 159.331 490.855 159.654H489.584C489.584 159.285 489.714 158.93 489.973 158.588C490.238 158.242 490.593 157.968 491.04 157.768C491.491 157.567 491.986 157.467 492.523 157.467C493.375 157.467 494.043 157.681 494.526 158.109C495.009 158.533 495.26 159.119 495.278 159.866V163.271C495.278 163.95 495.365 164.49 495.538 164.891V165H494.212ZM492.113 164.036C492.51 164.036 492.886 163.934 493.241 163.729C493.597 163.523 493.854 163.257 494.014 162.929V161.411H493.022C491.473 161.411 490.698 161.865 490.698 162.771C490.698 163.168 490.83 163.478 491.095 163.701C491.359 163.924 491.698 164.036 492.113 164.036ZM498.482 165H497.218V154.5H498.482V165ZM503.43 165.137C502.427 165.137 501.611 164.809 500.983 164.152C500.354 163.492 500.039 162.61 500.039 161.507V161.274C500.039 160.541 500.178 159.887 500.456 159.312C500.739 158.734 501.131 158.283 501.632 157.959C502.138 157.631 502.685 157.467 503.273 157.467C504.234 157.467 504.982 157.784 505.515 158.417C506.048 159.05 506.315 159.957 506.315 161.138V161.664H501.304C501.322 162.393 501.534 162.983 501.94 163.435C502.35 163.881 502.869 164.104 503.498 164.104C503.945 164.104 504.323 164.013 504.633 163.831C504.943 163.649 505.214 163.407 505.446 163.106L506.219 163.708C505.599 164.66 504.669 165.137 503.43 165.137ZM503.273 158.506C502.762 158.506 502.334 158.693 501.987 159.066C501.641 159.436 501.427 159.955 501.345 160.625H505.05V160.529C505.013 159.887 504.84 159.39 504.53 159.039C504.22 158.684 503.801 158.506 503.273 158.506ZM511.939 163.038C511.939 162.696 511.809 162.432 511.549 162.245C511.294 162.054 510.845 161.89 510.202 161.753C509.564 161.616 509.056 161.452 508.678 161.261C508.304 161.069 508.026 160.841 507.844 160.577C507.666 160.313 507.577 159.998 507.577 159.634C507.577 159.028 507.833 158.515 508.343 158.096C508.858 157.676 509.514 157.467 510.312 157.467C511.15 157.467 511.829 157.683 512.349 158.116C512.873 158.549 513.135 159.103 513.135 159.777H511.864C511.864 159.431 511.715 159.132 511.419 158.882C511.128 158.631 510.758 158.506 510.312 158.506C509.851 158.506 509.491 158.606 509.232 158.807C508.972 159.007 508.842 159.269 508.842 159.593C508.842 159.898 508.963 160.128 509.204 160.283C509.446 160.438 509.881 160.586 510.51 160.728C511.143 160.869 511.656 161.037 512.048 161.233C512.44 161.429 512.729 161.666 512.916 161.944C513.108 162.218 513.203 162.553 513.203 162.949C513.203 163.61 512.939 164.141 512.41 164.542C511.882 164.938 511.196 165.137 510.353 165.137C509.76 165.137 509.236 165.032 508.781 164.822C508.325 164.613 507.967 164.321 507.707 163.947C507.452 163.569 507.324 163.161 507.324 162.724H508.589C508.612 163.147 508.781 163.485 509.095 163.735C509.414 163.981 509.833 164.104 510.353 164.104C510.831 164.104 511.214 164.009 511.501 163.817C511.793 163.621 511.939 163.362 511.939 163.038ZM258.649 181.24C258.649 180.078 258.916 179.16 259.449 178.485C259.982 177.806 260.698 177.467 261.596 177.467C262.471 177.467 263.161 177.761 263.667 178.349L263.722 177.604H264.884V187.844H263.619V184.316C263.109 184.863 262.43 185.137 261.582 185.137C260.689 185.137 259.976 184.79 259.442 184.098C258.914 183.4 258.649 182.478 258.649 181.329V181.24ZM259.914 181.384C259.914 182.231 260.092 182.897 260.447 183.38C260.807 183.863 261.29 184.104 261.896 184.104C262.648 184.104 263.223 183.772 263.619 183.106V179.483C263.218 178.832 262.648 178.506 261.91 178.506C261.299 178.506 260.814 178.75 260.454 179.237C260.094 179.72 259.914 180.436 259.914 181.384ZM271.328 184.269C270.836 184.847 270.114 185.137 269.161 185.137C268.373 185.137 267.771 184.909 267.357 184.453C266.946 183.993 266.739 183.314 266.735 182.416V177.604H267.999V182.382C267.999 183.503 268.455 184.063 269.366 184.063C270.332 184.063 270.975 183.703 271.294 182.983V177.604H272.559V185H271.356L271.328 184.269ZM277.404 185.137C276.401 185.137 275.585 184.809 274.956 184.152C274.327 183.492 274.013 182.61 274.013 181.507V181.274C274.013 180.541 274.152 179.887 274.43 179.312C274.713 178.734 275.104 178.283 275.606 177.959C276.112 177.631 276.658 177.467 277.246 177.467C278.208 177.467 278.955 177.784 279.489 178.417C280.022 179.05 280.288 179.957 280.288 181.138V181.664H275.278C275.296 182.393 275.508 182.983 275.913 183.435C276.324 183.881 276.843 184.104 277.472 184.104C277.919 184.104 278.297 184.013 278.607 183.831C278.917 183.649 279.188 183.407 279.42 183.106L280.193 183.708C279.573 184.66 278.643 185.137 277.404 185.137ZM277.246 178.506C276.736 178.506 276.308 178.693 275.961 179.066C275.615 179.436 275.401 179.955 275.319 180.625H279.024V180.529C278.987 179.887 278.814 179.39 278.504 179.039C278.194 178.684 277.775 178.506 277.246 178.506ZM287.996 185.137C286.993 185.137 286.177 184.809 285.548 184.152C284.919 183.492 284.605 182.61 284.605 181.507V181.274C284.605 180.541 284.744 179.887 285.022 179.312C285.305 178.734 285.696 178.283 286.198 177.959C286.704 177.631 287.251 177.467 287.838 177.467C288.8 177.467 289.547 177.784 290.081 178.417C290.614 179.05 290.88 179.957 290.88 181.138V181.664H285.87C285.888 182.393 286.1 182.983 286.505 183.435C286.916 183.881 287.435 184.104 288.064 184.104C288.511 184.104 288.889 184.013 289.199 183.831C289.509 183.649 289.78 183.407 290.012 183.106L290.785 183.708C290.165 184.66 289.235 185.137 287.996 185.137ZM287.838 178.506C287.328 178.506 286.9 178.693 286.553 179.066C286.207 179.436 285.993 179.955 285.911 180.625H289.616V180.529C289.579 179.887 289.406 179.39 289.096 179.039C288.786 178.684 288.367 178.506 287.838 178.506ZM293.387 177.604L293.422 178.424C293.964 177.786 294.695 177.467 295.616 177.467C296.65 177.467 297.354 177.863 297.728 178.656C297.974 178.301 298.293 178.014 298.685 177.795C299.082 177.576 299.549 177.467 300.087 177.467C301.709 177.467 302.534 178.326 302.561 180.044V185H301.297V180.119C301.297 179.59 301.176 179.196 300.934 178.937C300.693 178.672 300.287 178.54 299.717 178.54C299.248 178.54 298.858 178.681 298.549 178.964C298.239 179.242 298.059 179.618 298.008 180.092V185H296.737V180.153C296.737 179.078 296.211 178.54 295.158 178.54C294.328 178.54 293.761 178.893 293.456 179.6V185H292.191V177.604H293.387ZM310.571 181.384C310.571 182.509 310.314 183.416 309.799 184.104C309.284 184.793 308.586 185.137 307.707 185.137C306.809 185.137 306.103 184.852 305.588 184.282V187.844H304.323V177.604H305.478L305.54 178.424C306.055 177.786 306.77 177.467 307.686 177.467C308.575 177.467 309.277 177.802 309.792 178.472C310.311 179.142 310.571 180.074 310.571 181.268V181.384ZM309.306 181.24C309.306 180.406 309.129 179.748 308.773 179.265C308.418 178.782 307.93 178.54 307.31 178.54C306.545 178.54 305.971 178.88 305.588 179.559V183.093C305.966 183.767 306.545 184.104 307.324 184.104C307.93 184.104 308.411 183.865 308.766 183.387C309.126 182.904 309.306 182.188 309.306 181.24ZM311.697 181.233C311.697 180.509 311.838 179.857 312.121 179.278C312.408 178.7 312.805 178.253 313.31 177.938C313.821 177.624 314.402 177.467 315.054 177.467C316.061 177.467 316.874 177.815 317.494 178.513C318.118 179.21 318.431 180.137 318.431 181.295V181.384C318.431 182.104 318.292 182.751 318.014 183.325C317.74 183.895 317.346 184.339 316.831 184.658C316.321 184.977 315.733 185.137 315.067 185.137C314.065 185.137 313.251 184.788 312.627 184.091C312.007 183.394 311.697 182.471 311.697 181.322V181.233ZM312.969 181.384C312.969 182.204 313.158 182.863 313.536 183.359C313.919 183.856 314.429 184.104 315.067 184.104C315.71 184.104 316.22 183.854 316.599 183.353C316.977 182.847 317.166 182.14 317.166 181.233C317.166 180.422 316.972 179.766 316.585 179.265C316.202 178.759 315.692 178.506 315.054 178.506C314.429 178.506 313.926 178.754 313.543 179.251C313.16 179.748 312.969 180.459 312.969 181.384ZM319.557 181.24C319.557 180.105 319.826 179.194 320.363 178.506C320.901 177.813 321.605 177.467 322.476 177.467C323.342 177.467 324.027 177.763 324.533 178.355V174.5H325.798V185H324.636L324.574 184.207C324.068 184.827 323.364 185.137 322.462 185.137C321.605 185.137 320.906 184.786 320.363 184.084C319.826 183.382 319.557 182.466 319.557 181.336V181.24ZM320.821 181.384C320.821 182.222 320.995 182.879 321.341 183.353C321.687 183.826 322.166 184.063 322.776 184.063C323.579 184.063 324.164 183.703 324.533 182.983V179.586C324.155 178.889 323.574 178.54 322.79 178.54C322.17 178.54 321.687 178.779 321.341 179.258C320.995 179.736 320.821 180.445 320.821 181.384ZM330.684 185.137C329.681 185.137 328.865 184.809 328.237 184.152C327.608 183.492 327.293 182.61 327.293 181.507V181.274C327.293 180.541 327.432 179.887 327.71 179.312C327.993 178.734 328.385 178.283 328.886 177.959C329.392 177.631 329.939 177.467 330.527 177.467C331.488 177.467 332.236 177.784 332.769 178.417C333.302 179.05 333.569 179.957 333.569 181.138V181.664H328.558C328.576 182.393 328.788 182.983 329.194 183.435C329.604 183.881 330.123 184.104 330.752 184.104C331.199 184.104 331.577 184.013 331.887 183.831C332.197 183.649 332.468 183.407 332.7 183.106L333.473 183.708C332.853 184.66 331.923 185.137 330.684 185.137ZM330.527 178.506C330.016 178.506 329.588 178.693 329.241 179.066C328.895 179.436 328.681 179.955 328.599 180.625H332.304V180.529C332.267 179.887 332.094 179.39 331.784 179.039C331.474 178.684 331.055 178.506 330.527 178.506ZM338.461 178.738C338.27 178.706 338.063 178.69 337.839 178.69C337.01 178.69 336.447 179.044 336.151 179.75V185H334.886V177.604H336.117L336.137 178.458C336.552 177.797 337.14 177.467 337.901 177.467C338.147 177.467 338.334 177.499 338.461 177.562V178.738ZM342.411 185.137C341.408 185.137 340.592 184.809 339.963 184.152C339.334 183.492 339.02 182.61 339.02 181.507V181.274C339.02 180.541 339.159 179.887 339.437 179.312C339.72 178.734 340.111 178.283 340.613 177.959C341.119 177.631 341.666 177.467 342.253 177.467C343.215 177.467 343.962 177.784 344.496 178.417C345.029 179.05 345.295 179.957 345.295 181.138V181.664H340.285C340.303 182.393 340.515 182.983 340.92 183.435C341.331 183.881 341.85 184.104 342.479 184.104C342.926 184.104 343.304 184.013 343.614 183.831C343.924 183.649 344.195 183.407 344.427 183.106L345.2 183.708C344.58 184.66 343.65 185.137 342.411 185.137ZM342.253 178.506C341.743 178.506 341.315 178.693 340.968 179.066C340.622 179.436 340.408 179.955 340.326 180.625H344.031V180.529C343.994 179.887 343.821 179.39 343.511 179.039C343.201 178.684 342.782 178.506 342.253 178.506ZM347.809 177.604L347.85 178.533C348.415 177.822 349.154 177.467 350.065 177.467C351.628 177.467 352.417 178.349 352.43 180.112V185H351.166V180.105C351.161 179.572 351.038 179.178 350.796 178.923C350.56 178.668 350.188 178.54 349.682 178.54C349.272 178.54 348.912 178.649 348.602 178.868C348.292 179.087 348.051 179.374 347.878 179.729V185H346.613V177.604H347.809ZM362.072 185C361.999 184.854 361.94 184.594 361.894 184.221C361.307 184.831 360.605 185.137 359.789 185.137C359.06 185.137 358.46 184.932 357.991 184.521C357.526 184.107 357.294 183.583 357.294 182.949C357.294 182.179 357.585 181.582 358.169 181.158C358.757 180.73 359.582 180.516 360.643 180.516H361.874V179.935C361.874 179.493 361.742 179.142 361.477 178.882C361.213 178.618 360.823 178.485 360.308 178.485C359.857 178.485 359.479 178.599 359.174 178.827C358.868 179.055 358.716 179.331 358.716 179.654H357.444C357.444 179.285 357.574 178.93 357.834 178.588C358.098 178.242 358.454 177.968 358.9 177.768C359.351 177.567 359.846 177.467 360.384 177.467C361.236 177.467 361.904 177.681 362.387 178.109C362.87 178.533 363.12 179.119 363.139 179.866V183.271C363.139 183.95 363.225 184.49 363.398 184.891V185H362.072ZM359.974 184.036C360.37 184.036 360.746 183.934 361.101 183.729C361.457 183.523 361.714 183.257 361.874 182.929V181.411H360.883C359.333 181.411 358.558 181.865 358.558 182.771C358.558 183.168 358.691 183.478 358.955 183.701C359.219 183.924 359.559 184.036 359.974 184.036ZM369.663 185H368.399V174.5H369.663V185ZM376.108 185C376.035 184.854 375.976 184.594 375.93 184.221C375.342 184.831 374.64 185.137 373.824 185.137C373.095 185.137 372.496 184.932 372.027 184.521C371.562 184.107 371.329 183.583 371.329 182.949C371.329 182.179 371.621 181.582 372.204 181.158C372.792 180.73 373.617 180.516 374.679 180.516H375.909V179.935C375.909 179.493 375.777 179.142 375.513 178.882C375.249 178.618 374.859 178.485 374.344 178.485C373.893 178.485 373.515 178.599 373.209 178.827C372.904 179.055 372.751 179.331 372.751 179.654H371.48C371.48 179.285 371.61 178.93 371.869 178.588C372.134 178.242 372.489 177.968 372.936 177.768C373.387 177.567 373.881 177.467 374.419 177.467C375.271 177.467 375.939 177.681 376.422 178.109C376.905 178.533 377.156 179.119 377.174 179.866V183.271C377.174 183.95 377.261 184.49 377.434 184.891V185H376.108ZM374.009 184.036C374.406 184.036 374.782 183.934 375.137 183.729C375.492 183.523 375.75 183.257 375.909 182.929V181.411H374.918C373.369 181.411 372.594 181.865 372.594 182.771C372.594 183.168 372.726 183.478 372.991 183.701C373.255 183.924 373.594 184.036 374.009 184.036ZM385.292 184.104C385.743 184.104 386.137 183.968 386.474 183.694C386.811 183.421 386.998 183.079 387.035 182.669H388.231C388.208 183.093 388.062 183.496 387.794 183.879C387.525 184.262 387.165 184.567 386.713 184.795C386.267 185.023 385.793 185.137 385.292 185.137C384.284 185.137 383.482 184.802 382.885 184.132C382.293 183.457 381.997 182.537 381.997 181.37V181.158C381.997 180.438 382.129 179.798 382.393 179.237C382.657 178.677 383.036 178.242 383.528 177.932C384.025 177.622 384.61 177.467 385.285 177.467C386.114 177.467 386.802 177.715 387.349 178.212C387.901 178.709 388.195 179.354 388.231 180.146H387.035C386.998 179.668 386.816 179.276 386.488 178.971C386.164 178.661 385.763 178.506 385.285 178.506C384.642 178.506 384.143 178.738 383.788 179.203C383.437 179.663 383.261 180.331 383.261 181.206V181.445C383.261 182.298 383.437 182.954 383.788 183.414C384.139 183.874 384.64 184.104 385.292 184.104ZM389.166 181.233C389.166 180.509 389.307 179.857 389.59 179.278C389.877 178.7 390.273 178.253 390.779 177.938C391.289 177.624 391.87 177.467 392.522 177.467C393.529 177.467 394.343 177.815 394.963 178.513C395.587 179.21 395.899 180.137 395.899 181.295V181.384C395.899 182.104 395.76 182.751 395.482 183.325C395.209 183.895 394.814 184.339 394.299 184.658C393.789 184.977 393.201 185.137 392.536 185.137C391.533 185.137 390.72 184.788 390.095 184.091C389.476 183.394 389.166 182.471 389.166 181.322V181.233ZM390.437 181.384C390.437 182.204 390.626 182.863 391.005 183.359C391.387 183.856 391.898 184.104 392.536 184.104C393.178 184.104 393.689 183.854 394.067 183.353C394.445 182.847 394.634 182.14 394.634 181.233C394.634 180.422 394.441 179.766 394.053 179.265C393.671 178.759 393.16 178.506 392.522 178.506C391.898 178.506 391.394 178.754 391.011 179.251C390.629 179.748 390.437 180.459 390.437 181.384ZM398.522 177.604L398.556 178.424C399.099 177.786 399.83 177.467 400.751 177.467C401.785 177.467 402.489 177.863 402.863 178.656C403.109 178.301 403.428 178.014 403.82 177.795C404.217 177.576 404.684 177.467 405.221 177.467C406.844 177.467 407.669 178.326 407.696 180.044V185H406.431V180.119C406.431 179.59 406.311 179.196 406.069 178.937C405.828 178.672 405.422 178.54 404.852 178.54C404.383 178.54 403.993 178.681 403.683 178.964C403.374 179.242 403.194 179.618 403.143 180.092V185H401.872V180.153C401.872 179.078 401.346 178.54 400.293 178.54C399.463 178.54 398.896 178.893 398.591 179.6V185H397.326V177.604H398.522ZM414.024 184.269C413.532 184.847 412.81 185.137 411.857 185.137C411.069 185.137 410.467 184.909 410.053 184.453C409.643 183.993 409.435 183.314 409.431 182.416V177.604H410.695V182.382C410.695 183.503 411.151 184.063 412.062 184.063C413.029 184.063 413.671 183.703 413.99 182.983V177.604H415.255V185H414.052L414.024 184.269ZM418.227 177.604L418.268 178.533C418.833 177.822 419.571 177.467 420.482 177.467C422.046 177.467 422.834 178.349 422.848 180.112V185H421.583V180.105C421.579 179.572 421.455 179.178 421.214 178.923C420.977 178.668 420.606 178.54 420.1 178.54C419.69 178.54 419.33 178.649 419.02 178.868C418.71 179.087 418.468 179.374 418.295 179.729V185H417.03V177.604H418.227ZM425.977 185H424.712V177.604H425.977V185ZM424.61 175.642C424.61 175.437 424.671 175.263 424.794 175.122C424.922 174.981 425.109 174.91 425.355 174.91C425.601 174.91 425.788 174.981 425.915 175.122C426.043 175.263 426.107 175.437 426.107 175.642C426.107 175.847 426.043 176.018 425.915 176.154C425.788 176.291 425.601 176.359 425.355 176.359C425.109 176.359 424.922 176.291 424.794 176.154C424.671 176.018 424.61 175.847 424.61 175.642ZM427.547 181.24C427.547 180.105 427.816 179.194 428.354 178.506C428.892 177.813 429.596 177.467 430.466 177.467C431.332 177.467 432.018 177.763 432.524 178.355V174.5H433.788V185H432.626L432.565 184.207C432.059 184.827 431.355 185.137 430.452 185.137C429.596 185.137 428.896 184.786 428.354 184.084C427.816 183.382 427.547 182.466 427.547 181.336V181.24ZM428.812 181.384C428.812 182.222 428.985 182.879 429.331 183.353C429.678 183.826 430.156 184.063 430.767 184.063C431.569 184.063 432.155 183.703 432.524 182.983V179.586C432.146 178.889 431.564 178.54 430.781 178.54C430.161 178.54 429.678 178.779 429.331 179.258C428.985 179.736 428.812 180.445 428.812 181.384ZM440.171 185C440.098 184.854 440.039 184.594 439.994 184.221C439.406 184.831 438.704 185.137 437.888 185.137C437.159 185.137 436.56 184.932 436.09 184.521C435.625 184.107 435.393 183.583 435.393 182.949C435.393 182.179 435.685 181.582 436.268 181.158C436.856 180.73 437.681 180.516 438.743 180.516H439.973V179.935C439.973 179.493 439.841 179.142 439.577 178.882C439.312 178.618 438.923 178.485 438.408 178.485C437.957 178.485 437.578 178.599 437.273 178.827C436.968 179.055 436.815 179.331 436.815 179.654H435.543C435.543 179.285 435.673 178.93 435.933 178.588C436.197 178.242 436.553 177.968 436.999 177.768C437.451 177.567 437.945 177.467 438.483 177.467C439.335 177.467 440.003 177.681 440.486 178.109C440.969 178.533 441.22 179.119 441.238 179.866V183.271C441.238 183.95 441.324 184.49 441.498 184.891V185H440.171ZM438.073 184.036C438.469 184.036 438.845 183.934 439.201 183.729C439.556 183.523 439.814 183.257 439.973 182.929V181.411H438.982C437.432 181.411 436.658 181.865 436.658 182.771C436.658 183.168 436.79 183.478 437.054 183.701C437.319 183.924 437.658 184.036 438.073 184.036ZM442.76 181.24C442.76 180.105 443.029 179.194 443.567 178.506C444.105 177.813 444.809 177.467 445.679 177.467C446.545 177.467 447.231 177.763 447.737 178.355V174.5H449.002V185H447.839L447.778 184.207C447.272 184.827 446.568 185.137 445.666 185.137C444.809 185.137 444.109 184.786 443.567 184.084C443.029 183.382 442.76 182.466 442.76 181.336V181.24ZM444.025 181.384C444.025 182.222 444.198 182.879 444.545 183.353C444.891 183.826 445.369 184.063 445.98 184.063C446.782 184.063 447.368 183.703 447.737 182.983V179.586C447.359 178.889 446.778 178.54 445.994 178.54C445.374 178.54 444.891 178.779 444.545 179.258C444.198 179.736 444.025 180.445 444.025 181.384ZM263.523 204.269C263.031 204.847 262.309 205.137 261.356 205.137C260.568 205.137 259.966 204.909 259.552 204.453C259.142 203.993 258.934 203.314 258.93 202.416V197.604H260.194V202.382C260.194 203.503 260.65 204.063 261.562 204.063C262.528 204.063 263.17 203.703 263.489 202.983V197.604H264.754V205H263.551L263.523 204.269ZM267.726 197.604L267.767 198.533C268.332 197.822 269.07 197.467 269.982 197.467C271.545 197.467 272.333 198.349 272.347 200.112V205H271.082V200.105C271.078 199.572 270.955 199.178 270.713 198.923C270.476 198.668 270.105 198.54 269.599 198.54C269.189 198.54 268.829 198.649 268.519 198.868C268.209 199.087 267.967 199.374 267.794 199.729V205H266.529V197.604H267.726ZM275.476 205H274.211V197.604H275.476V205ZM274.109 195.642C274.109 195.437 274.17 195.263 274.293 195.122C274.421 194.981 274.608 194.91 274.854 194.91C275.1 194.91 275.287 194.981 275.414 195.122C275.542 195.263 275.606 195.437 275.606 195.642C275.606 195.847 275.542 196.018 275.414 196.154C275.287 196.291 275.1 196.359 274.854 196.359C274.608 196.359 274.421 196.291 274.293 196.154C274.17 196.018 274.109 195.847 274.109 195.642ZM279.794 203.284L281.626 197.604H282.918L280.266 205H279.302L276.622 197.604H277.914L279.794 203.284ZM286.957 205.137C285.954 205.137 285.138 204.809 284.509 204.152C283.88 203.492 283.566 202.61 283.566 201.507V201.274C283.566 200.541 283.705 199.887 283.983 199.312C284.265 198.734 284.657 198.283 285.159 197.959C285.665 197.631 286.211 197.467 286.799 197.467C287.761 197.467 288.508 197.784 289.042 198.417C289.575 199.05 289.841 199.957 289.841 201.138V201.664H284.831C284.849 202.393 285.061 202.983 285.466 203.435C285.877 203.881 286.396 204.104 287.025 204.104C287.472 204.104 287.85 204.013 288.16 203.831C288.47 203.649 288.741 203.407 288.973 203.106L289.746 203.708C289.126 204.66 288.196 205.137 286.957 205.137ZM286.799 198.506C286.289 198.506 285.861 198.693 285.514 199.066C285.168 199.436 284.954 199.955 284.872 200.625H288.577V200.529C288.54 199.887 288.367 199.39 288.057 199.039C287.747 198.684 287.328 198.506 286.799 198.506ZM294.734 198.738C294.543 198.706 294.335 198.69 294.112 198.69C293.283 198.69 292.72 199.044 292.424 199.75V205H291.159V197.604H292.389L292.41 198.458C292.825 197.797 293.412 197.467 294.174 197.467C294.42 197.467 294.606 197.499 294.734 197.562V198.738ZM300.057 203.038C300.057 202.696 299.928 202.432 299.668 202.245C299.413 202.054 298.964 201.89 298.321 201.753C297.683 201.616 297.175 201.452 296.797 201.261C296.423 201.069 296.145 200.841 295.963 200.577C295.785 200.313 295.696 199.998 295.696 199.634C295.696 199.028 295.951 198.515 296.462 198.096C296.977 197.676 297.633 197.467 298.43 197.467C299.269 197.467 299.948 197.683 300.468 198.116C300.992 198.549 301.254 199.103 301.254 199.777H299.982C299.982 199.431 299.834 199.132 299.538 198.882C299.246 198.631 298.877 198.506 298.43 198.506C297.97 198.506 297.61 198.606 297.35 198.807C297.091 199.007 296.961 199.269 296.961 199.593C296.961 199.898 297.082 200.128 297.323 200.283C297.565 200.438 298 200.586 298.629 200.728C299.262 200.869 299.775 201.037 300.167 201.233C300.559 201.429 300.848 201.666 301.035 201.944C301.226 202.218 301.322 202.553 301.322 202.949C301.322 203.61 301.058 204.141 300.529 204.542C300 204.938 299.315 205.137 298.471 205.137C297.879 205.137 297.355 205.032 296.899 204.822C296.443 204.613 296.086 204.321 295.826 203.947C295.571 203.569 295.443 203.161 295.443 202.724H296.708C296.731 203.147 296.899 203.485 297.214 203.735C297.533 203.981 297.952 204.104 298.471 204.104C298.95 204.104 299.333 204.009 299.62 203.817C299.912 203.621 300.057 203.362 300.057 203.038ZM304.191 205H302.927V197.604H304.191V205ZM302.824 195.642C302.824 195.437 302.886 195.263 303.009 195.122C303.136 194.981 303.323 194.91 303.569 194.91C303.815 194.91 304.002 194.981 304.13 195.122C304.257 195.263 304.321 195.437 304.321 195.642C304.321 195.847 304.257 196.018 304.13 196.154C304.002 196.291 303.815 196.359 303.569 196.359C303.323 196.359 303.136 196.291 303.009 196.154C302.886 196.018 302.824 195.847 302.824 195.642ZM307.785 195.812V197.604H309.166V198.581H307.785V203.168C307.785 203.464 307.847 203.688 307.97 203.838C308.093 203.984 308.302 204.057 308.599 204.057C308.745 204.057 308.945 204.029 309.2 203.975V205C308.868 205.091 308.544 205.137 308.23 205.137C307.664 205.137 307.238 204.966 306.951 204.624C306.664 204.282 306.521 203.797 306.521 203.168V198.581H305.174V197.604H306.521V195.812H307.785ZM315.064 205C314.991 204.854 314.932 204.594 314.886 204.221C314.298 204.831 313.596 205.137 312.78 205.137C312.051 205.137 311.452 204.932 310.983 204.521C310.518 204.107 310.285 203.583 310.285 202.949C310.285 202.179 310.577 201.582 311.16 201.158C311.748 200.73 312.573 200.516 313.635 200.516H314.865V199.935C314.865 199.493 314.733 199.142 314.469 198.882C314.205 198.618 313.815 198.485 313.3 198.485C312.849 198.485 312.471 198.599 312.165 198.827C311.86 199.055 311.707 199.331 311.707 199.654H310.436C310.436 199.285 310.566 198.93 310.825 198.588C311.09 198.242 311.445 197.968 311.892 197.768C312.343 197.567 312.837 197.467 313.375 197.467C314.227 197.467 314.895 197.681 315.378 198.109C315.861 198.533 316.112 199.119 316.13 199.866V203.271C316.13 203.95 316.217 204.49 316.39 204.891V205H315.064ZM312.965 204.036C313.362 204.036 313.738 203.934 314.093 203.729C314.448 203.523 314.706 203.257 314.865 202.929V201.411H313.874C312.325 201.411 311.55 201.865 311.55 202.771C311.55 203.168 311.682 203.478 311.946 203.701C312.211 203.924 312.55 204.036 312.965 204.036ZM321.535 198.738C321.344 198.706 321.137 198.69 320.913 198.69C320.084 198.69 319.521 199.044 319.225 199.75V205H317.96V197.604H319.191L319.211 198.458C319.626 197.797 320.214 197.467 320.975 197.467C321.221 197.467 321.408 197.499 321.535 197.562V198.738ZM323.926 205H322.662V197.604H323.926V205ZM322.559 195.642C322.559 195.437 322.621 195.263 322.744 195.122C322.871 194.981 323.058 194.91 323.304 194.91C323.55 194.91 323.737 194.981 323.865 195.122C323.992 195.263 324.056 195.437 324.056 195.642C324.056 195.847 323.992 196.018 323.865 196.154C323.737 196.291 323.55 196.359 323.304 196.359C323.058 196.359 322.871 196.291 322.744 196.154C322.621 196.018 322.559 195.847 322.559 195.642ZM330.371 205C330.298 204.854 330.239 204.594 330.193 204.221C329.605 204.831 328.903 205.137 328.088 205.137C327.358 205.137 326.759 204.932 326.29 204.521C325.825 204.107 325.592 203.583 325.592 202.949C325.592 202.179 325.884 201.582 326.467 201.158C327.055 200.73 327.88 200.516 328.942 200.516H330.172V199.935C330.172 199.493 330.04 199.142 329.776 198.882C329.512 198.618 329.122 198.485 328.607 198.485C328.156 198.485 327.778 198.599 327.472 198.827C327.167 199.055 327.014 199.331 327.014 199.654H325.743C325.743 199.285 325.873 198.93 326.132 198.588C326.397 198.242 326.752 197.968 327.199 197.768C327.65 197.567 328.144 197.467 328.682 197.467C329.534 197.467 330.202 197.681 330.685 198.109C331.168 198.533 331.419 199.119 331.437 199.866V203.271C331.437 203.95 331.524 204.49 331.697 204.891V205H330.371ZM328.272 204.036C328.669 204.036 329.045 203.934 329.4 203.729C329.755 203.523 330.013 203.257 330.172 202.929V201.411H329.181C327.632 201.411 326.857 201.865 326.857 202.771C326.857 203.168 326.989 203.478 327.254 203.701C327.518 203.924 327.857 204.036 328.272 204.036ZM339.008 203.147L340.73 197.604H342.084L339.11 206.142C338.65 207.372 337.918 207.987 336.916 207.987L336.677 207.967L336.205 207.878V206.853L336.547 206.88C336.975 206.88 337.308 206.793 337.545 206.62C337.786 206.447 337.985 206.13 338.14 205.67L338.42 204.918L335.781 197.604H337.162L339.008 203.147ZM347.009 205V198.581H345.84V197.604H347.009V196.845C347.009 196.052 347.221 195.439 347.645 195.006C348.069 194.573 348.668 194.356 349.443 194.356C349.734 194.356 350.024 194.395 350.311 194.473L350.242 195.498C350.028 195.457 349.8 195.437 349.559 195.437C349.149 195.437 348.832 195.557 348.609 195.799C348.385 196.036 348.274 196.378 348.274 196.824V197.604H349.853V198.581H348.274V205H347.009ZM350.767 201.233C350.767 200.509 350.908 199.857 351.191 199.278C351.478 198.7 351.874 198.253 352.38 197.938C352.891 197.624 353.472 197.467 354.123 197.467C355.13 197.467 355.944 197.815 356.564 198.513C357.188 199.21 357.5 200.137 357.5 201.295V201.384C357.5 202.104 357.361 202.751 357.083 203.325C356.81 203.895 356.416 204.339 355.901 204.658C355.39 204.977 354.802 205.137 354.137 205.137C353.134 205.137 352.321 204.788 351.697 204.091C351.077 203.394 350.767 202.471 350.767 201.322V201.233ZM352.038 201.384C352.038 202.204 352.227 202.863 352.606 203.359C352.989 203.856 353.499 204.104 354.137 204.104C354.78 204.104 355.29 203.854 355.668 203.353C356.046 202.847 356.236 202.14 356.236 201.233C356.236 200.422 356.042 199.766 355.655 199.265C355.272 198.759 354.761 198.506 354.123 198.506C353.499 198.506 352.995 198.754 352.613 199.251C352.23 199.748 352.038 200.459 352.038 201.384ZM362.509 198.738C362.318 198.706 362.11 198.69 361.887 198.69C361.058 198.69 360.495 199.044 360.199 199.75V205H358.934V197.604H360.164L360.185 198.458C360.6 197.797 361.188 197.467 361.949 197.467C362.195 197.467 362.382 197.499 362.509 197.562V198.738ZM364.715 197.604L364.75 198.424C365.292 197.786 366.023 197.467 366.944 197.467C367.978 197.467 368.683 197.863 369.056 198.656C369.302 198.301 369.621 198.014 370.013 197.795C370.41 197.576 370.877 197.467 371.415 197.467C373.037 197.467 373.862 198.326 373.889 200.044V205H372.625V200.119C372.625 199.59 372.504 199.196 372.262 198.937C372.021 198.672 371.615 198.54 371.045 198.54C370.576 198.54 370.186 198.681 369.877 198.964C369.567 199.242 369.387 199.618 369.336 200.092V205H368.065V200.153C368.065 199.078 367.539 198.54 366.486 198.54C365.656 198.54 365.089 198.893 364.784 199.6V205H363.519V197.604H364.715ZM378.72 205.137C377.718 205.137 376.902 204.809 376.273 204.152C375.644 203.492 375.33 202.61 375.33 201.507V201.274C375.33 200.541 375.469 199.887 375.747 199.312C376.029 198.734 376.421 198.283 376.923 197.959C377.428 197.631 377.975 197.467 378.563 197.467C379.525 197.467 380.272 197.784 380.805 198.417C381.339 199.05 381.605 199.957 381.605 201.138V201.664H376.594C376.613 202.393 376.825 202.983 377.23 203.435C377.64 203.881 378.16 204.104 378.789 204.104C379.235 204.104 379.614 204.013 379.924 203.831C380.233 203.649 380.505 203.407 380.737 203.106L381.509 203.708C380.89 204.66 379.96 205.137 378.72 205.137ZM378.563 198.506C378.053 198.506 377.624 198.693 377.278 199.066C376.932 199.436 376.717 199.955 376.635 200.625H380.341V200.529C380.304 199.887 380.131 199.39 379.821 199.039C379.511 198.684 379.092 198.506 378.563 198.506ZM384.119 197.604L384.16 198.533C384.725 197.822 385.463 197.467 386.375 197.467C387.938 197.467 388.726 198.349 388.74 200.112V205H387.475V200.105C387.471 199.572 387.348 199.178 387.106 198.923C386.869 198.668 386.498 198.54 385.992 198.54C385.582 198.54 385.222 198.649 384.912 198.868C384.602 199.087 384.36 199.374 384.187 199.729V205H382.923V197.604H384.119ZM397.391 198.738C397.199 198.706 396.992 198.69 396.769 198.69C395.939 198.69 395.376 199.044 395.08 199.75V205H393.816V197.604H395.046L395.066 198.458C395.481 197.797 396.069 197.467 396.83 197.467C397.076 197.467 397.263 197.499 397.391 197.562V198.738ZM401.34 205.137C400.337 205.137 399.522 204.809 398.893 204.152C398.264 203.492 397.949 202.61 397.949 201.507V201.274C397.949 200.541 398.088 199.887 398.366 199.312C398.649 198.734 399.041 198.283 399.542 197.959C400.048 197.631 400.595 197.467 401.183 197.467C402.144 197.467 402.892 197.784 403.425 198.417C403.958 199.05 404.225 199.957 404.225 201.138V201.664H399.214C399.232 202.393 399.444 202.983 399.85 203.435C400.26 203.881 400.78 204.104 401.408 204.104C401.855 204.104 402.233 204.013 402.543 203.831C402.853 203.649 403.124 203.407 403.357 203.106L404.129 203.708C403.509 204.66 402.58 205.137 401.34 205.137ZM401.183 198.506C400.672 198.506 400.244 198.693 399.898 199.066C399.551 199.436 399.337 199.955 399.255 200.625H402.96V200.529C402.924 199.887 402.751 199.39 402.441 199.039C402.131 198.684 401.711 198.506 401.183 198.506ZM405.235 201.24C405.235 200.105 405.504 199.194 406.041 198.506C406.579 197.813 407.283 197.467 408.154 197.467C409.02 197.467 409.705 197.763 410.211 198.355V194.5H411.476V205H410.314L410.252 204.207C409.746 204.827 409.042 205.137 408.14 205.137C407.283 205.137 406.584 204.786 406.041 204.084C405.504 203.382 405.235 202.466 405.235 201.336V201.24ZM406.499 201.384C406.499 202.222 406.673 202.879 407.019 203.353C407.365 203.826 407.844 204.063 408.454 204.063C409.257 204.063 409.842 203.703 410.211 202.983V199.586C409.833 198.889 409.252 198.54 408.468 198.54C407.848 198.54 407.365 198.779 407.019 199.258C406.673 199.736 406.499 200.445 406.499 201.384ZM416.362 205.137C415.359 205.137 414.543 204.809 413.915 204.152C413.286 203.492 412.971 202.61 412.971 201.507V201.274C412.971 200.541 413.11 199.887 413.388 199.312C413.671 198.734 414.063 198.283 414.564 197.959C415.07 197.631 415.617 197.467 416.205 197.467C417.166 197.467 417.914 197.784 418.447 198.417C418.98 199.05 419.247 199.957 419.247 201.138V201.664H414.236C414.254 202.393 414.466 202.983 414.872 203.435C415.282 203.881 415.801 204.104 416.43 204.104C416.877 204.104 417.255 204.013 417.565 203.831C417.875 203.649 418.146 203.407 418.378 203.106L419.151 203.708C418.531 204.66 417.601 205.137 416.362 205.137ZM416.205 198.506C415.694 198.506 415.266 198.693 414.919 199.066C414.573 199.436 414.359 199.955 414.277 200.625H417.982V200.529C417.945 199.887 417.772 199.39 417.462 199.039C417.152 198.684 416.733 198.506 416.205 198.506ZM424.871 203.038C424.871 202.696 424.741 202.432 424.481 202.245C424.226 202.054 423.777 201.89 423.134 201.753C422.496 201.616 421.988 201.452 421.61 201.261C421.236 201.069 420.958 200.841 420.776 200.577C420.598 200.313 420.509 199.998 420.509 199.634C420.509 199.028 420.765 198.515 421.275 198.096C421.79 197.676 422.446 197.467 423.244 197.467C424.082 197.467 424.761 197.683 425.281 198.116C425.805 198.549 426.067 199.103 426.067 199.777H424.796C424.796 199.431 424.647 199.132 424.351 198.882C424.06 198.631 423.69 198.506 423.244 198.506C422.783 198.506 422.423 198.606 422.164 198.807C421.904 199.007 421.774 199.269 421.774 199.593C421.774 199.898 421.895 200.128 422.136 200.283C422.378 200.438 422.813 200.586 423.442 200.728C424.075 200.869 424.588 201.037 424.98 201.233C425.372 201.429 425.661 201.666 425.848 201.944C426.04 202.218 426.135 202.553 426.135 202.949C426.135 203.61 425.871 204.141 425.342 204.542C424.814 204.938 424.128 205.137 423.285 205.137C422.692 205.137 422.168 205.032 421.713 204.822C421.257 204.613 420.899 204.321 420.639 203.947C420.384 203.569 420.256 203.161 420.256 202.724H421.521C421.544 203.147 421.713 203.485 422.027 203.735C422.346 203.981 422.765 204.104 423.285 204.104C423.763 204.104 424.146 204.009 424.433 203.817C424.725 203.621 424.871 203.362 424.871 203.038ZM430.643 201.24C430.643 200.105 430.912 199.194 431.45 198.506C431.988 197.813 432.692 197.467 433.562 197.467C434.428 197.467 435.114 197.763 435.62 198.355V194.5H436.885V205H435.723L435.661 204.207C435.155 204.827 434.451 205.137 433.549 205.137C432.692 205.137 431.992 204.786 431.45 204.084C430.912 203.382 430.643 202.466 430.643 201.336V201.24ZM431.908 201.384C431.908 202.222 432.081 202.879 432.428 203.353C432.774 203.826 433.252 204.063 433.863 204.063C434.665 204.063 435.251 203.703 435.62 202.983V199.586C435.242 198.889 434.661 198.54 433.877 198.54C433.257 198.54 432.774 198.779 432.428 199.258C432.081 199.736 431.908 200.445 431.908 201.384ZM441.771 205.137C440.768 205.137 439.952 204.809 439.323 204.152C438.694 203.492 438.38 202.61 438.38 201.507V201.274C438.38 200.541 438.519 199.887 438.797 199.312C439.079 198.734 439.471 198.283 439.973 197.959C440.479 197.631 441.025 197.467 441.613 197.467C442.575 197.467 443.322 197.784 443.855 198.417C444.389 199.05 444.655 199.957 444.655 201.138V201.664H439.645C439.663 202.393 439.875 202.983 440.28 203.435C440.69 203.881 441.21 204.104 441.839 204.104C442.285 204.104 442.664 204.013 442.974 203.831C443.284 203.649 443.555 203.407 443.787 203.106L444.56 203.708C443.94 204.66 443.01 205.137 441.771 205.137ZM441.613 198.506C441.103 198.506 440.674 198.693 440.328 199.066C439.982 199.436 439.768 199.955 439.686 200.625H443.391V200.529C443.354 199.887 443.181 199.39 442.871 199.039C442.561 198.684 442.142 198.506 441.613 198.506ZM453.86 205C453.787 204.854 453.728 204.594 453.682 204.221C453.094 204.831 452.392 205.137 451.576 205.137C450.847 205.137 450.248 204.932 449.779 204.521C449.314 204.107 449.081 203.583 449.081 202.949C449.081 202.179 449.373 201.582 449.956 201.158C450.544 200.73 451.369 200.516 452.431 200.516H453.661V199.935C453.661 199.493 453.529 199.142 453.265 198.882C453.001 198.618 452.611 198.485 452.096 198.485C451.645 198.485 451.267 198.599 450.961 198.827C450.656 199.055 450.503 199.331 450.503 199.654H449.232C449.232 199.285 449.362 198.93 449.621 198.588C449.886 198.242 450.241 197.968 450.688 197.768C451.139 197.567 451.633 197.467 452.171 197.467C453.023 197.467 453.691 197.681 454.174 198.109C454.657 198.533 454.908 199.119 454.926 199.866V203.271C454.926 203.95 455.013 204.49 455.186 204.891V205H453.86ZM451.761 204.036C452.158 204.036 452.533 203.934 452.889 203.729C453.244 203.523 453.502 203.257 453.661 202.929V201.411H452.67C451.121 201.411 450.346 201.865 450.346 202.771C450.346 203.168 450.478 203.478 450.742 203.701C451.007 203.924 451.346 204.036 451.761 204.036ZM463.004 201.384C463.004 202.509 462.747 203.416 462.232 204.104C461.717 204.793 461.02 205.137 460.14 205.137C459.242 205.137 458.536 204.852 458.021 204.282V207.844H456.756V197.604H457.912L457.973 198.424C458.488 197.786 459.204 197.467 460.12 197.467C461.008 197.467 461.71 197.802 462.225 198.472C462.745 199.142 463.004 200.074 463.004 201.268V201.384ZM461.74 201.24C461.74 200.406 461.562 199.748 461.206 199.265C460.851 198.782 460.363 198.54 459.744 198.54C458.978 198.54 458.404 198.88 458.021 199.559V203.093C458.399 203.767 458.978 204.104 459.757 204.104C460.363 204.104 460.844 203.865 461.2 203.387C461.56 202.904 461.74 202.188 461.74 201.24ZM464.13 201.233C464.13 200.509 464.272 199.857 464.554 199.278C464.841 198.7 465.238 198.253 465.744 197.938C466.254 197.624 466.835 197.467 467.487 197.467C468.494 197.467 469.308 197.815 469.927 198.513C470.552 199.21 470.864 200.137 470.864 201.295V201.384C470.864 202.104 470.725 202.751 470.447 203.325C470.173 203.895 469.779 204.339 469.264 204.658C468.754 204.977 468.166 205.137 467.501 205.137C466.498 205.137 465.684 204.788 465.06 204.091C464.44 203.394 464.13 202.471 464.13 201.322V201.233ZM465.402 201.384C465.402 202.204 465.591 202.863 465.969 203.359C466.352 203.856 466.863 204.104 467.501 204.104C468.143 204.104 468.654 203.854 469.032 203.353C469.41 202.847 469.599 202.14 469.599 201.233C469.599 200.422 469.405 199.766 469.018 199.265C468.635 198.759 468.125 198.506 467.487 198.506C466.863 198.506 466.359 198.754 465.976 199.251C465.593 199.748 465.402 200.459 465.402 201.384ZM474.608 203.147L476.331 197.604H477.684L474.711 206.142C474.25 207.372 473.519 207.987 472.516 207.987L472.277 207.967L471.805 207.878V206.853L472.147 206.88C472.576 206.88 472.908 206.793 473.145 206.62C473.387 206.447 473.585 206.13 473.74 205.67L474.02 204.918L471.382 197.604H472.762L474.608 203.147ZM478.222 201.233C478.222 200.509 478.364 199.857 478.646 199.278C478.933 198.7 479.33 198.253 479.836 197.938C480.346 197.624 480.927 197.467 481.579 197.467C482.586 197.467 483.4 197.815 484.019 198.513C484.644 199.21 484.956 200.137 484.956 201.295V201.384C484.956 202.104 484.817 202.751 484.539 203.325C484.265 203.895 483.871 204.339 483.356 204.658C482.846 204.977 482.258 205.137 481.593 205.137C480.59 205.137 479.777 204.788 479.152 204.091C478.532 203.394 478.222 202.471 478.222 201.322V201.233ZM479.494 201.384C479.494 202.204 479.683 202.863 480.061 203.359C480.444 203.856 480.955 204.104 481.593 204.104C482.235 204.104 482.746 203.854 483.124 203.353C483.502 202.847 483.691 202.14 483.691 201.233C483.691 200.422 483.498 199.766 483.11 199.265C482.727 198.759 482.217 198.506 481.579 198.506C480.955 198.506 480.451 198.754 480.068 199.251C479.685 199.748 479.494 200.459 479.494 201.384ZM262.026 225.137C261.024 225.137 260.208 224.809 259.579 224.152C258.95 223.492 258.636 222.61 258.636 221.507V221.274C258.636 220.541 258.775 219.887 259.053 219.312C259.335 218.734 259.727 218.283 260.229 217.959C260.734 217.631 261.281 217.467 261.869 217.467C262.831 217.467 263.578 217.784 264.111 218.417C264.645 219.05 264.911 219.957 264.911 221.138V221.664H259.9C259.919 222.393 260.131 222.983 260.536 223.435C260.946 223.881 261.466 224.104 262.095 224.104C262.541 224.104 262.92 224.013 263.229 223.831C263.539 223.649 263.811 223.407 264.043 223.106L264.815 223.708C264.196 224.66 263.266 225.137 262.026 225.137ZM261.869 218.506C261.359 218.506 260.93 218.693 260.584 219.066C260.238 219.436 260.023 219.955 259.941 220.625H263.646V220.529C263.61 219.887 263.437 219.39 263.127 219.039C262.817 218.684 262.398 218.506 261.869 218.506ZM267.425 217.604L267.466 218.533C268.031 217.822 268.769 217.467 269.681 217.467C271.244 217.467 272.032 218.349 272.046 220.112V225H270.781V220.105C270.777 219.572 270.654 219.178 270.412 218.923C270.175 218.668 269.804 218.54 269.298 218.54C268.888 218.54 268.528 218.649 268.218 218.868C267.908 219.087 267.666 219.374 267.493 219.729V225H266.229V217.604H267.425ZM275.517 215.812V217.604H276.898V218.581H275.517V223.168C275.517 223.464 275.578 223.688 275.701 223.838C275.824 223.984 276.034 224.057 276.33 224.057C276.476 224.057 276.677 224.029 276.932 223.975V225C276.599 225.091 276.276 225.137 275.961 225.137C275.396 225.137 274.97 224.966 274.683 224.624C274.396 224.282 274.252 223.797 274.252 223.168V218.581H272.906V217.604H274.252V215.812H275.517ZM281.804 218.738C281.613 218.706 281.405 218.69 281.182 218.69C280.353 218.69 279.79 219.044 279.494 219.75V225H278.229V217.604H279.459L279.48 218.458C279.895 217.797 280.482 217.467 281.244 217.467C281.49 217.467 281.676 217.499 281.804 217.562V218.738ZM285.753 225.137C284.751 225.137 283.935 224.809 283.306 224.152C282.677 223.492 282.363 222.61 282.363 221.507V221.274C282.363 220.541 282.502 219.887 282.78 219.312C283.062 218.734 283.454 218.283 283.956 217.959C284.461 217.631 285.008 217.467 285.596 217.467C286.558 217.467 287.305 217.784 287.838 218.417C288.372 219.05 288.638 219.957 288.638 221.138V221.664H283.627C283.646 222.393 283.858 222.983 284.263 223.435C284.673 223.881 285.193 224.104 285.822 224.104C286.268 224.104 286.647 224.013 286.957 223.831C287.266 223.649 287.538 223.407 287.77 223.106L288.543 223.708C287.923 224.66 286.993 225.137 285.753 225.137ZM285.596 218.506C285.086 218.506 284.657 218.693 284.311 219.066C283.965 219.436 283.751 219.955 283.668 220.625H287.374V220.529C287.337 219.887 287.164 219.39 286.854 219.039C286.544 218.684 286.125 218.506 285.596 218.506ZM294.65 225H293.386V214.5H294.65V225ZM296.193 221.233C296.193 220.509 296.335 219.857 296.617 219.278C296.904 218.7 297.301 218.253 297.807 217.938C298.317 217.624 298.898 217.467 299.55 217.467C300.557 217.467 301.37 217.815 301.99 218.513C302.615 219.21 302.927 220.137 302.927 221.295V221.384C302.927 222.104 302.788 222.751 302.51 223.325C302.236 223.895 301.842 224.339 301.327 224.658C300.817 224.977 300.229 225.137 299.563 225.137C298.561 225.137 297.747 224.788 297.123 224.091C296.503 223.394 296.193 222.471 296.193 221.322V221.233ZM297.465 221.384C297.465 222.204 297.654 222.863 298.032 223.359C298.415 223.856 298.925 224.104 299.563 224.104C300.206 224.104 300.716 223.854 301.095 223.353C301.473 222.847 301.662 222.14 301.662 221.233C301.662 220.422 301.468 219.766 301.081 219.265C300.698 218.759 300.188 218.506 299.55 218.506C298.925 218.506 298.422 218.754 298.039 219.251C297.656 219.748 297.465 220.459 297.465 221.384ZM308.667 223.038C308.667 222.696 308.537 222.432 308.277 222.245C308.022 222.054 307.573 221.89 306.931 221.753C306.293 221.616 305.785 221.452 305.406 221.261C305.033 221.069 304.755 220.841 304.572 220.577C304.395 220.313 304.306 219.998 304.306 219.634C304.306 219.028 304.561 218.515 305.071 218.096C305.586 217.676 306.243 217.467 307.04 217.467C307.879 217.467 308.558 217.683 309.077 218.116C309.601 218.549 309.863 219.103 309.863 219.777H308.592C308.592 219.431 308.444 219.132 308.148 218.882C307.856 218.631 307.487 218.506 307.04 218.506C306.58 218.506 306.22 218.606 305.96 218.807C305.7 219.007 305.57 219.269 305.57 219.593C305.57 219.898 305.691 220.128 305.933 220.283C306.174 220.438 306.609 220.586 307.238 220.728C307.872 220.869 308.385 221.037 308.776 221.233C309.168 221.429 309.458 221.666 309.645 221.944C309.836 222.218 309.932 222.553 309.932 222.949C309.932 223.61 309.667 224.141 309.139 224.542C308.61 224.938 307.924 225.137 307.081 225.137C306.489 225.137 305.965 225.032 305.509 224.822C305.053 224.613 304.695 224.321 304.436 223.947C304.18 223.569 304.053 223.161 304.053 222.724H305.317C305.34 223.147 305.509 223.485 305.823 223.735C306.142 223.981 306.562 224.104 307.081 224.104C307.56 224.104 307.942 224.009 308.23 223.817C308.521 223.621 308.667 223.362 308.667 223.038ZM320.995 221.384C320.995 222.509 320.738 223.416 320.223 224.104C319.708 224.793 319.011 225.137 318.131 225.137C317.233 225.137 316.527 224.852 316.012 224.282V227.844H314.747V217.604H315.903L315.964 218.424C316.479 217.786 317.195 217.467 318.111 217.467C318.999 217.467 319.701 217.802 320.216 218.472C320.736 219.142 320.995 220.074 320.995 221.268V221.384ZM319.731 221.24C319.731 220.406 319.553 219.748 319.198 219.265C318.842 218.782 318.354 218.54 317.735 218.54C316.969 218.54 316.395 218.88 316.012 219.559V223.093C316.39 223.767 316.969 224.104 317.748 224.104C318.354 224.104 318.835 223.865 319.191 223.387C319.551 222.904 319.731 222.188 319.731 221.24ZM327.023 225C326.95 224.854 326.891 224.594 326.845 224.221C326.257 224.831 325.555 225.137 324.74 225.137C324.011 225.137 323.411 224.932 322.942 224.521C322.477 224.107 322.245 223.583 322.245 222.949C322.245 222.179 322.536 221.582 323.12 221.158C323.707 220.73 324.532 220.516 325.594 220.516H326.825V219.935C326.825 219.493 326.693 219.142 326.428 218.882C326.164 218.618 325.774 218.485 325.259 218.485C324.808 218.485 324.43 218.599 324.124 218.827C323.819 219.055 323.666 219.331 323.666 219.654H322.395C322.395 219.285 322.525 218.93 322.785 218.588C323.049 218.242 323.404 217.968 323.851 217.768C324.302 217.567 324.797 217.467 325.334 217.467C326.187 217.467 326.854 217.681 327.337 218.109C327.82 218.533 328.071 219.119 328.089 219.866V223.271C328.089 223.95 328.176 224.49 328.349 224.891V225H327.023ZM324.924 224.036C325.321 224.036 325.697 223.934 326.052 223.729C326.408 223.523 326.665 223.257 326.825 222.929V221.411H325.833C324.284 221.411 323.509 221.865 323.509 222.771C323.509 223.168 323.641 223.478 323.906 223.701C324.17 223.924 324.51 224.036 324.924 224.036ZM333.495 218.738C333.303 218.706 333.096 218.69 332.873 218.69C332.043 218.69 331.48 219.044 331.184 219.75V225H329.92V217.604H331.15L331.171 218.458C331.585 217.797 332.173 217.467 332.934 217.467C333.18 217.467 333.367 217.499 333.495 217.562V218.738ZM336.569 215.812V217.604H337.95V218.581H336.569V223.168C336.569 223.464 336.631 223.688 336.754 223.838C336.877 223.984 337.086 224.057 337.383 224.057C337.528 224.057 337.729 224.029 337.984 223.975V225C337.651 225.091 337.328 225.137 337.013 225.137C336.448 225.137 336.022 224.966 335.735 224.624C335.448 224.282 335.304 223.797 335.304 223.168V218.581H333.958V217.604H335.304V215.812H336.569ZM340.655 225H339.391V217.604H340.655V225ZM339.288 215.642C339.288 215.437 339.349 215.263 339.473 215.122C339.6 214.981 339.787 214.91 340.033 214.91C340.279 214.91 340.466 214.981 340.594 215.122C340.721 215.263 340.785 215.437 340.785 215.642C340.785 215.847 340.721 216.018 340.594 216.154C340.466 216.291 340.279 216.359 340.033 216.359C339.787 216.359 339.6 216.291 339.473 216.154C339.349 216.018 339.288 215.847 339.288 215.642ZM345.5 224.104C345.951 224.104 346.345 223.968 346.683 223.694C347.02 223.421 347.207 223.079 347.243 222.669H348.439C348.417 223.093 348.271 223.496 348.002 223.879C347.733 224.262 347.373 224.567 346.922 224.795C346.475 225.023 346.001 225.137 345.5 225.137C344.493 225.137 343.691 224.802 343.094 224.132C342.501 223.457 342.205 222.537 342.205 221.37V221.158C342.205 220.438 342.337 219.798 342.602 219.237C342.866 218.677 343.244 218.242 343.736 217.932C344.233 217.622 344.819 217.467 345.493 217.467C346.323 217.467 347.011 217.715 347.558 218.212C348.109 218.709 348.403 219.354 348.439 220.146H347.243C347.207 219.668 347.024 219.276 346.696 218.971C346.373 218.661 345.972 218.506 345.493 218.506C344.851 218.506 344.352 218.738 343.996 219.203C343.645 219.663 343.47 220.331 343.47 221.206V221.445C343.47 222.298 343.645 222.954 343.996 223.414C344.347 223.874 344.848 224.104 345.5 224.104ZM351.083 225H349.819V217.604H351.083V225ZM349.716 215.642C349.716 215.437 349.777 215.263 349.901 215.122C350.028 214.981 350.215 214.91 350.461 214.91C350.707 214.91 350.894 214.981 351.022 215.122C351.149 215.263 351.213 215.437 351.213 215.642C351.213 215.847 351.149 216.018 351.022 216.154C350.894 216.291 350.707 216.359 350.461 216.359C350.215 216.359 350.028 216.291 349.901 216.154C349.777 216.018 349.716 215.847 349.716 215.642ZM359.209 221.384C359.209 222.509 358.952 223.416 358.437 224.104C357.922 224.793 357.225 225.137 356.345 225.137C355.447 225.137 354.741 224.852 354.226 224.282V227.844H352.961V217.604H354.116L354.178 218.424C354.693 217.786 355.408 217.467 356.324 217.467C357.213 217.467 357.915 217.802 358.43 218.472C358.949 219.142 359.209 220.074 359.209 221.268V221.384ZM357.945 221.24C357.945 220.406 357.767 219.748 357.411 219.265C357.056 218.782 356.568 218.54 355.949 218.54C355.183 218.54 354.609 218.88 354.226 219.559V223.093C354.604 223.767 355.183 224.104 355.962 224.104C356.568 224.104 357.049 223.865 357.405 223.387C357.765 222.904 357.945 222.188 357.945 221.24ZM365.237 225C365.164 224.854 365.105 224.594 365.059 224.221C364.471 224.831 363.769 225.137 362.954 225.137C362.224 225.137 361.625 224.932 361.156 224.521C360.691 224.107 360.458 223.583 360.458 222.949C360.458 222.179 360.75 221.582 361.333 221.158C361.921 220.73 362.746 220.516 363.808 220.516H365.038V219.935C365.038 219.493 364.906 219.142 364.642 218.882C364.378 218.618 363.988 218.485 363.473 218.485C363.022 218.485 362.644 218.599 362.338 218.827C362.033 219.055 361.88 219.331 361.88 219.654H360.609C360.609 219.285 360.739 218.93 360.998 218.588C361.263 218.242 361.618 217.968 362.065 217.768C362.516 217.567 363.01 217.467 363.548 217.467C364.4 217.467 365.068 217.681 365.551 218.109C366.034 218.533 366.285 219.119 366.303 219.866V223.271C366.303 223.95 366.39 224.49 366.563 224.891V225H365.237ZM363.138 224.036C363.535 224.036 363.911 223.934 364.266 223.729C364.621 223.523 364.879 223.257 365.038 222.929V221.411H364.047C362.498 221.411 361.723 221.865 361.723 222.771C361.723 223.168 361.855 223.478 362.12 223.701C362.384 223.924 362.723 224.036 363.138 224.036ZM369.33 217.604L369.371 218.533C369.936 217.822 370.674 217.467 371.585 217.467C373.149 217.467 373.937 218.349 373.951 220.112V225H372.686V220.105C372.682 219.572 372.558 219.178 372.317 218.923C372.08 218.668 371.709 218.54 371.203 218.54C370.793 218.54 370.433 218.649 370.123 218.868C369.813 219.087 369.571 219.374 369.398 219.729V225H368.133V217.604H369.33ZM377.422 215.812V217.604H378.802V218.581H377.422V223.168C377.422 223.464 377.483 223.688 377.606 223.838C377.729 223.984 377.939 224.057 378.235 224.057C378.381 224.057 378.581 224.029 378.837 223.975V225C378.504 225.091 378.18 225.137 377.866 225.137C377.301 225.137 376.875 224.966 376.588 224.624C376.3 224.282 376.157 223.797 376.157 223.168V218.581H374.81V217.604H376.157V215.812H377.422ZM383.203 225.137C382.2 225.137 381.385 224.809 380.756 224.152C380.127 223.492 379.812 222.61 379.812 221.507V221.274C379.812 220.541 379.951 219.887 380.229 219.312C380.512 218.734 380.904 218.283 381.405 217.959C381.911 217.631 382.458 217.467 383.046 217.467C384.007 217.467 384.755 217.784 385.288 218.417C385.821 219.05 386.088 219.957 386.088 221.138V221.664H381.077C381.095 222.393 381.307 222.983 381.713 223.435C382.123 223.881 382.642 224.104 383.271 224.104C383.718 224.104 384.096 224.013 384.406 223.831C384.716 223.649 384.987 223.407 385.22 223.106L385.992 223.708C385.372 224.66 384.443 225.137 383.203 225.137ZM383.046 218.506C382.535 218.506 382.107 218.693 381.761 219.066C381.414 219.436 381.2 219.955 381.118 220.625H384.823V220.529C384.787 219.887 384.613 219.39 384.304 219.039C383.994 218.684 383.574 218.506 383.046 218.506ZM391.712 223.038C391.712 222.696 391.582 222.432 391.322 222.245C391.067 222.054 390.618 221.89 389.976 221.753C389.338 221.616 388.829 221.452 388.451 221.261C388.077 221.069 387.799 220.841 387.617 220.577C387.439 220.313 387.351 219.998 387.351 219.634C387.351 219.028 387.606 218.515 388.116 218.096C388.631 217.676 389.287 217.467 390.085 217.467C390.923 217.467 391.602 217.683 392.122 218.116C392.646 218.549 392.908 219.103 392.908 219.777H391.637C391.637 219.431 391.489 219.132 391.192 218.882C390.901 218.631 390.532 218.506 390.085 218.506C389.625 218.506 389.265 218.606 389.005 218.807C388.745 219.007 388.615 219.269 388.615 219.593C388.615 219.898 388.736 220.128 388.977 220.283C389.219 220.438 389.654 220.586 390.283 220.728C390.917 220.869 391.429 221.037 391.821 221.233C392.213 221.429 392.503 221.666 392.689 221.944C392.881 222.218 392.977 222.553 392.977 222.949C392.977 223.61 392.712 224.141 392.184 224.542C391.655 224.938 390.969 225.137 390.126 225.137C389.533 225.137 389.009 225.032 388.554 224.822C388.098 224.613 387.74 224.321 387.48 223.947C387.225 223.569 387.098 223.161 387.098 222.724H388.362C388.385 223.147 388.554 223.485 388.868 223.735C389.187 223.981 389.606 224.104 390.126 224.104C390.604 224.104 390.987 224.009 391.274 223.817C391.566 223.621 391.712 223.362 391.712 223.038ZM394.499 224.337C394.499 224.118 394.563 223.936 394.691 223.79C394.823 223.644 395.019 223.571 395.278 223.571C395.538 223.571 395.734 223.644 395.866 223.79C396.003 223.936 396.071 224.118 396.071 224.337C396.071 224.547 396.003 224.722 395.866 224.863C395.734 225.005 395.538 225.075 395.278 225.075C395.019 225.075 394.823 225.005 394.691 224.863C394.563 224.722 394.499 224.547 394.499 224.337Z" fill="#858585"/>
<path d="M269.065 110.834C268.937 112.199 268.433 113.266 267.554 114.033C266.675 114.795 265.506 115.176 264.047 115.176C263.027 115.176 262.128 114.936 261.349 114.455C260.575 113.969 259.978 113.28 259.556 112.39C259.134 111.499 258.914 110.465 258.896 109.287V108.092C258.896 106.885 259.11 105.821 259.538 104.901C259.966 103.981 260.578 103.272 261.375 102.774C262.178 102.276 263.104 102.027 264.152 102.027C265.564 102.027 266.701 102.411 267.562 103.179C268.424 103.946 268.925 105.03 269.065 106.431H266.851C266.745 105.511 266.476 104.849 266.042 104.444C265.614 104.034 264.984 103.829 264.152 103.829C263.186 103.829 262.441 104.184 261.92 104.893C261.404 105.596 261.141 106.63 261.129 107.995V109.129C261.129 110.512 261.375 111.566 261.867 112.293C262.365 113.02 263.092 113.383 264.047 113.383C264.92 113.383 265.576 113.187 266.016 112.794C266.455 112.401 266.733 111.748 266.851 110.834H269.065ZM278.071 112.021H273.114L272.077 115H269.766L274.6 102.203H276.595L281.438 115H279.117L278.071 112.021ZM273.738 110.228H277.447L275.593 104.919L273.738 110.228ZM285.627 102.203L289.319 112.012L293.001 102.203H295.875V115H293.66V110.781L293.88 105.139L290.101 115H288.51L284.74 105.147L284.959 110.781V115H282.744V102.203H285.627ZM300.583 110.245V115H298.36V102.203H303.255C304.685 102.203 305.819 102.575 306.657 103.319C307.5 104.063 307.922 105.048 307.922 106.272C307.922 107.526 307.509 108.502 306.683 109.199C305.863 109.896 304.711 110.245 303.229 110.245H300.583ZM300.583 108.461H303.255C304.046 108.461 304.65 108.276 305.066 107.907C305.482 107.532 305.69 106.993 305.69 106.29C305.69 105.599 305.479 105.048 305.057 104.638C304.635 104.222 304.055 104.008 303.317 103.996H300.583V108.461ZM315.32 112.021H310.363L309.326 115H307.014L311.848 102.203H313.843L318.686 115H316.366L315.32 112.021ZM310.987 110.228H314.696L312.841 104.919L310.987 110.228ZM330.144 115H327.921L322.216 105.921V115H319.993V102.203H322.216L327.938 111.317V102.203H330.144V115ZM328.299 98.9688C328.299 99.6133 328.111 100.149 327.736 100.577C327.367 101.005 326.901 101.219 326.339 101.219C326.11 101.219 325.911 101.195 325.741 101.148C325.577 101.096 325.34 100.981 325.029 100.806C324.724 100.63 324.507 100.524 324.379 100.489C324.256 100.454 324.118 100.437 323.965 100.437C323.743 100.437 323.552 100.521 323.394 100.691C323.242 100.855 323.166 101.072 323.166 101.342L321.856 101.271C321.856 100.627 322.041 100.085 322.41 99.6455C322.785 99.2061 323.251 98.9863 323.807 98.9863C324.141 98.9863 324.543 99.1182 325.011 99.3818C325.486 99.6455 325.876 99.7773 326.18 99.7773C326.403 99.7773 326.593 99.6953 326.752 99.5312C326.91 99.3613 326.989 99.1387 326.989 98.8633L328.299 98.9688ZM339.941 112.021H334.984L333.947 115H331.636L336.47 102.203H338.465L343.307 115H340.987L339.941 112.021ZM335.608 110.228H339.317L337.463 104.919L335.608 110.228ZM261.647 136H259.433V123.203H261.647V136ZM274.38 136H272.156L266.452 126.921V136H264.229V123.203H266.452L272.174 132.317V123.203H274.38V136ZM284.23 130.577H279.079V136H276.856V123.203H284.986V124.996H279.079V128.802H284.23V130.577ZM296.813 129.936C296.813 131.189 296.596 132.291 296.163 133.24C295.729 134.184 295.108 134.91 294.299 135.42C293.496 135.924 292.571 136.176 291.522 136.176C290.485 136.176 289.559 135.924 288.745 135.42C287.936 134.91 287.309 134.187 286.864 133.249C286.424 132.312 286.202 131.23 286.196 130.006V129.285C286.196 128.037 286.415 126.936 286.855 125.98C287.3 125.025 287.924 124.296 288.727 123.792C289.536 123.282 290.461 123.027 291.504 123.027C292.547 123.027 293.47 123.279 294.273 123.783C295.081 124.281 295.705 125.002 296.145 125.945C296.584 126.883 296.807 127.976 296.813 129.224V129.936ZM294.589 129.268C294.589 127.85 294.32 126.763 293.781 126.007C293.247 125.251 292.489 124.873 291.504 124.873C290.543 124.873 289.79 125.251 289.246 126.007C288.706 126.757 288.431 127.82 288.419 129.197V129.936C288.419 131.342 288.692 132.429 289.237 133.196C289.788 133.964 290.549 134.348 291.522 134.348C292.506 134.348 293.262 133.973 293.789 133.223C294.323 132.473 294.589 131.377 294.589 129.936V129.268ZM302.813 131.421H298.199V129.698H302.813V131.421ZM311.318 132.704C311.318 132.142 311.119 131.708 310.72 131.403C310.328 131.099 309.616 130.791 308.585 130.48C307.553 130.17 306.733 129.824 306.124 129.443C304.958 128.711 304.375 127.756 304.375 126.578C304.375 125.547 304.794 124.697 305.632 124.029C306.475 123.361 307.568 123.027 308.91 123.027C309.8 123.027 310.594 123.191 311.292 123.52C311.989 123.848 312.537 124.316 312.935 124.926C313.334 125.529 313.533 126.2 313.533 126.938H311.318C311.318 126.271 311.107 125.749 310.685 125.374C310.269 124.993 309.672 124.803 308.892 124.803C308.166 124.803 307.6 124.958 307.196 125.269C306.798 125.579 306.598 126.013 306.598 126.569C306.598 127.038 306.815 127.431 307.249 127.747C307.682 128.058 308.397 128.362 309.393 128.661C310.389 128.954 311.189 129.291 311.793 129.672C312.396 130.047 312.839 130.48 313.12 130.973C313.401 131.459 313.542 132.03 313.542 132.687C313.542 133.753 313.132 134.603 312.311 135.235C311.497 135.862 310.389 136.176 308.989 136.176C308.063 136.176 307.211 136.006 306.431 135.666C305.658 135.32 305.054 134.846 304.621 134.242C304.193 133.639 303.979 132.936 303.979 132.133H306.203C306.203 132.859 306.443 133.422 306.924 133.82C307.404 134.219 308.092 134.418 308.989 134.418C309.762 134.418 310.342 134.263 310.729 133.952C311.122 133.636 311.318 133.22 311.318 132.704ZM322.82 130.287H317.564V134.225H323.708V136H315.341V123.203H323.646V124.996H317.564V128.529H322.82V130.287ZM335.518 136H333.294L327.59 126.921V136H325.366V123.203H327.59L333.311 132.317V123.203H335.518V136ZM344.682 132.704C344.682 132.142 344.482 131.708 344.084 131.403C343.691 131.099 342.98 130.791 341.948 130.48C340.917 130.17 340.097 129.824 339.487 129.443C338.321 128.711 337.738 127.756 337.738 126.578C337.738 125.547 338.157 124.697 338.995 124.029C339.839 123.361 340.932 123.027 342.274 123.027C343.164 123.027 343.958 123.191 344.655 123.52C345.353 123.848 345.9 124.316 346.299 124.926C346.697 125.529 346.897 126.2 346.897 126.938H344.682C344.682 126.271 344.471 125.749 344.049 125.374C343.633 124.993 343.035 124.803 342.256 124.803C341.529 124.803 340.964 124.958 340.56 125.269C340.161 125.579 339.962 126.013 339.962 126.569C339.962 127.038 340.179 127.431 340.612 127.747C341.046 128.058 341.761 128.362 342.757 128.661C343.753 128.954 344.553 129.291 345.156 129.672C345.76 130.047 346.202 130.48 346.483 130.973C346.765 131.459 346.905 132.03 346.905 132.687C346.905 133.753 346.495 134.603 345.675 135.235C344.86 135.862 343.753 136.176 342.353 136.176C341.427 136.176 340.574 136.006 339.795 135.666C339.022 135.32 338.418 134.846 337.984 134.242C337.557 133.639 337.343 132.936 337.343 132.133H339.566C339.566 132.859 339.807 133.422 340.287 133.82C340.768 134.219 341.456 134.418 342.353 134.418C343.126 134.418 343.706 134.263 344.093 133.952C344.485 133.636 344.682 133.22 344.682 132.704ZM351.051 136H348.836V123.203H351.051V136ZM353.632 136V123.203H358.018C359.465 123.203 360.567 123.493 361.323 124.073C362.078 124.653 362.456 125.518 362.456 126.666C362.456 127.252 362.298 127.779 361.982 128.248C361.665 128.717 361.202 129.08 360.593 129.338C361.285 129.525 361.818 129.88 362.193 130.401C362.574 130.917 362.764 131.538 362.764 132.265C362.764 133.466 362.377 134.389 361.604 135.033C360.836 135.678 359.735 136 358.299 136H353.632ZM355.856 130.226V134.225H358.326C359.023 134.225 359.568 134.052 359.96 133.706C360.353 133.36 360.549 132.88 360.549 132.265C360.549 130.935 359.869 130.255 358.51 130.226H355.856ZM355.856 128.591H358.035C358.727 128.591 359.266 128.436 359.653 128.125C360.045 127.809 360.242 127.363 360.242 126.789C360.242 126.156 360.06 125.699 359.697 125.418C359.339 125.137 358.78 124.996 358.018 124.996H355.856V128.591ZM367.182 136H364.967V123.203H367.182V136ZM371.987 134.225H377.796V136H369.763V123.203H371.987V134.225ZM381.696 136H379.481V123.203H381.696V136ZM386.369 134.225H393.207V136H383.68V134.559L390.298 124.996H383.724V123.203H392.996V124.609L386.369 134.225ZM402.257 133.021H397.3L396.263 136H393.951L398.785 123.203H400.78L405.623 136H403.303L402.257 133.021ZM397.924 131.228H401.633L399.778 125.919L397.924 131.228ZM406.93 136V123.203H410.709C411.84 123.203 412.842 123.455 413.715 123.959C414.594 124.463 415.274 125.178 415.754 126.104C416.235 127.029 416.475 128.09 416.475 129.285V129.927C416.475 131.14 416.232 132.206 415.745 133.126C415.265 134.046 414.576 134.755 413.68 135.253C412.789 135.751 411.767 136 410.612 136H406.93ZM409.153 124.996V134.225H410.604C411.77 134.225 412.663 133.861 413.284 133.135C413.911 132.402 414.231 131.354 414.242 129.988V129.276C414.242 127.888 413.941 126.827 413.337 126.095C412.734 125.362 411.858 124.996 410.709 124.996H409.153ZM428.75 129.936C428.75 131.189 428.533 132.291 428.1 133.24C427.666 134.184 427.045 134.91 426.237 135.42C425.434 135.924 424.508 136.176 423.459 136.176C422.422 136.176 421.496 135.924 420.682 135.42C419.873 134.91 419.246 134.187 418.801 133.249C418.362 132.312 418.139 131.23 418.133 130.006V129.285C418.133 128.037 418.353 126.936 418.792 125.98C419.238 125.025 419.862 124.296 420.664 123.792C421.473 123.282 422.399 123.027 423.442 123.027C424.485 123.027 425.408 123.279 426.21 123.783C427.019 124.281 427.643 125.002 428.082 125.945C428.522 126.883 428.744 127.976 428.75 129.224V129.936ZM426.527 129.268C426.527 127.85 426.257 126.763 425.718 126.007C425.185 125.251 424.426 124.873 423.442 124.873C422.481 124.873 421.728 125.251 421.183 126.007C420.644 126.757 420.368 127.82 420.357 129.197V129.936C420.357 131.342 420.629 132.429 421.174 133.196C421.725 133.964 422.487 134.348 423.459 134.348C424.444 134.348 425.199 133.973 425.727 133.223C426.26 132.473 426.527 131.377 426.527 129.936V129.268ZM435.515 131.069H433.037V136H430.813V123.203H435.313C436.789 123.203 437.929 123.534 438.732 124.196C439.535 124.858 439.936 125.816 439.936 127.07C439.936 127.926 439.728 128.644 439.312 129.224C438.902 129.798 438.328 130.24 437.589 130.551L440.463 135.886V136H438.081L435.515 131.069ZM433.037 129.285H435.322C436.072 129.285 436.658 129.098 437.079 128.723C437.501 128.342 437.712 127.823 437.712 127.167C437.712 126.481 437.516 125.951 437.123 125.576C436.737 125.201 436.157 125.008 435.383 124.996H433.037V129.285ZM449.056 133.021H444.099L443.062 136H440.751L445.585 123.203H447.58L452.422 136H450.102L449.056 133.021ZM444.723 131.228H448.432L446.578 125.919L444.723 131.228Z" fill="#8BD0E4"/>
<defs>
<filter id="filter0_d" x="25" y="29" width="538" height="264" filterUnits="userSpaceOnUse" color-interpolation-filters="sRGB">
<feFlood flood-opacity="0" result="BackgroundImageFix"/>
<feColorMatrix in="SourceAlpha" type="matrix" values="0 0 0 0 0 0 0 0 0 0 0 0 0 0 0 0 0 0 127 0"/>
<feOffset dx="-4" dy="4"/>
<feGaussianBlur stdDeviation="2"/>
<feColorMatrix type="matrix" values="0 0 0 0 0 0 0 0 0 0 0 0 0 0 0 0 0 0 0.03 0"/>
<feBlend mode="normal" in2="BackgroundImageFix" result="effect1_dropShadow"/>
<feBlend mode="normal" in="SourceGraphic" in2="effect1_dropShadow" result="shape"/>
</filter>
<filter id="filter1_d" x="0" y="0" width="64.2048" height="64.2048" filterUnits="userSpaceOnUse" color-interpolation-filters="sRGB">
<feFlood flood-opacity="0" result="BackgroundImageFix"/>
<feColorMatrix in="SourceAlpha" type="matrix" values="0 0 0 0 0 0 0 0 0 0 0 0 0 0 0 0 0 0 127 0"/>
<feOffset dx="-2" dy="4"/>
<feGaussianBlur stdDeviation="2"/>
<feColorMatrix type="matrix" values="0 0 0 0 0 0 0 0 0 0 0 0 0 0 0 0 0 0 0.05 0"/>
<feBlend mode="normal" in2="BackgroundImageFix" result="effect1_dropShadow"/>
<feBlend mode="normal" in="SourceGraphic" in2="effect1_dropShadow" result="shape"/>
</filter>
</defs>
</svg>
