<svg width="190" height="147" viewBox="0 0 190 147" fill="none" xmlns="http://www.w3.org/2000/svg">
<path opacity="0.3" d="M156.228 18.6091C156.228 18.6091 142.288 -0.332185 122.965 0.00443414C103.643 0.341053 103.993 19.6449 84.3073 19.7225C64.6088 19.8132 30.2565 11.8508 10.0911 33.8994C-10.0742 55.9479 3.47742 114.597 48.3858 136.348C93.2942 158.099 173.424 143.262 180.88 113.484C188.311 83.706 169.248 33.8994 156.228 18.6091Z" fill="#C5DBD9"/>
<path d="M131.989 107.277H121.6C129.853 95.7539 135.011 81.4975 137.884 65.2466H139.8C138.989 80.611 136.853 94.9414 131.989 107.277Z" fill="#39766D"/>
<path d="M130.263 104.307C153.042 100.37 168.325 78.6665 164.398 55.8304C160.471 32.9943 138.821 17.6735 116.042 21.6104C93.2621 25.5474 77.9794 47.2512 81.9066 70.0873C85.8337 92.9234 107.484 108.244 130.263 104.307Z" fill="#39766D"/>
<path d="M128.379 107.499H122.853L121.379 123.898H122.926L128.379 107.499Z" fill="#50968E"/>
<path d="M140.611 124.858C139.579 121.681 131.547 119.17 121.747 119.17C111.947 119.17 103.842 121.681 102.884 124.858H140.611Z" fill="#50968E"/>
<path d="M126.389 113.482L128.379 107.499H122.853L122.189 114.738L126.389 113.482Z" fill="#50968E"/>
<path d="M130.663 106.021H119.537C118.874 106.021 118.284 106.539 118.284 107.277V107.573C118.284 108.238 118.8 108.828 119.537 108.828H130.663C131.326 108.828 131.916 108.311 131.916 107.573V107.277C131.916 106.539 131.326 106.021 130.663 106.021Z" fill="#50968E"/>
<path d="M128.821 80.9803C129.042 81.2758 129.116 81.6451 129.263 81.9406C129.337 82.1622 129.411 82.3099 129.484 82.5315C129.558 82.6792 129.632 82.7531 129.779 82.9009C129.926 83.0486 130 83.1963 130.147 83.3441C130.589 83.935 130.811 84.6737 130.958 85.634C131.326 88.2193 130.663 90.7308 130.074 93.1684L129.779 94.2765C129.558 95.3106 129.263 96.5664 129.337 97.7482C129.411 98.9301 129.779 99.8904 130.368 100.481C130.737 100.777 131.474 101.146 131.695 101.072C131.695 100.998 131.695 100.186 131.695 99.7427C131.695 99.1517 131.695 98.5608 131.842 98.0437C132.137 97.0096 132.653 96.0493 133.168 95.2367C134.053 93.7594 135.379 91.8388 137.295 90.8785C138.179 90.4353 139.063 90.2137 139.947 89.9921C140.242 89.9183 140.537 89.8444 140.832 89.7705C142.526 89.3273 144.074 88.5887 145.474 87.5545C145.547 87.5545 145.621 87.4068 145.695 87.4068C145.695 87.4068 145.695 87.1852 145.621 87.1113C145.179 84.0089 145.695 80.7587 146.947 77.9517C147.021 77.8779 147.095 77.6562 147.095 77.5824C146.947 77.5085 146.874 77.3608 146.8 77.0653C146.505 76.2528 146.874 75.3664 147.832 74.7754C147.979 74.7015 148.053 74.6277 148.126 74.5538C148.126 74.5538 148.053 74.5538 148.053 74.4799C147.463 73.889 146.726 73.5197 145.916 73.0765C145.326 72.781 144.737 72.4116 144.221 72.0423C143.705 71.673 143.263 71.3036 142.821 70.8604C142.453 70.4911 142.011 70.1956 141.642 69.8263C140.832 69.2353 139.947 68.7921 138.989 68.3489L136.189 67.0193C135.379 66.65 134.568 66.2068 133.684 66.059C132.284 65.7636 130.737 65.9852 129.263 66.2068C128.674 66.2806 128.158 66.3545 127.789 66.5761C127.642 66.65 127.421 66.7977 127.274 66.8716C127.053 67.0193 126.832 67.1671 126.537 67.3148C126.168 67.5364 125.726 67.6103 125.284 67.6841C125.358 67.758 125.358 67.9057 125.432 67.9796L126.537 70.0479L126.242 70.565C125.505 71.7468 124.842 73.0026 125.211 74.0367C125.358 74.4799 125.726 74.7754 126.095 75.1448C126.463 75.5141 126.905 75.9573 127.274 76.5482C127.421 76.8437 127.568 77.1392 127.642 77.4346C127.789 77.804 127.937 78.1733 128.084 78.3211C128.379 78.4688 128.674 78.6904 128.895 78.9859C129.337 79.4291 129.337 80.1677 128.821 80.9803Z" fill="#569AB7"/>
<path d="M96.3263 42.3476C96.6947 42.3476 97.0632 42.3476 97.4316 42.4953C98.0947 42.7169 98.5368 43.234 98.9053 43.6772L99.1263 43.8988C99.5684 44.4159 100.158 44.7852 100.674 45.3023C101.853 46.2625 103.032 47.2228 103.695 48.774C103.768 48.9956 103.842 49.2911 103.989 49.5127C104.063 49.7343 104.137 49.9559 104.211 50.1037C104.432 50.6207 104.726 51.0639 105.095 51.581L109.589 58.1552C109.958 58.7462 110.4 59.3371 110.916 59.6326C110.989 59.7064 111.063 59.7064 111.211 59.7803C111.505 59.928 111.947 60.0758 112.316 60.519C112.684 60.8883 112.832 61.3315 112.905 61.7009C112.979 61.9225 113.053 62.1441 113.126 62.2179C113.347 62.5873 113.937 62.5873 114.821 62.5134C117.179 62.4395 119.389 63.0305 121.453 64.1385L121.747 64.3601C122.042 64.7294 122.484 65.0988 122.853 65.3942C123 65.0988 123.221 64.8772 123.442 64.6556C123.516 64.5817 123.589 64.5817 123.589 64.5078L122.263 61.9225C120.789 61.8486 119.684 60.4451 119.168 59.8542C118.874 59.4848 118.432 58.8939 118.358 58.1552C118.284 57.4165 118.505 56.6779 119.095 56.1608C119.684 55.496 120.642 55.2005 121.526 55.2005C122.116 55.2744 122.632 55.4221 123.074 55.5699C123.147 55.3483 123.221 55.0528 123.368 54.9051C123.737 54.1664 124.4 53.6493 124.989 53.28C125.874 52.689 126.832 52.1719 127.789 51.7287C127.863 51.7287 128.011 51.6549 128.011 51.581C128.011 51.4333 128.011 51.2855 128.011 51.1378C128.232 49.9559 129.411 49.2911 130.368 49.1434C130.737 49.0695 131.032 49.0695 131.4 49.1434C131.695 49.1434 131.989 49.1434 132.284 49.0695C133.095 48.9218 133.832 48.1092 134.421 47.5183L136.411 45.45L133.905 41.8305C132.579 39.9099 131.253 38.1371 129.558 37.6939C128.6 37.3984 127.495 37.62 126.684 38.211L126.611 39.9099C126.611 40.1315 126.611 40.5009 126.316 40.9441C125.947 41.4611 125.432 41.6089 125.137 41.6827C123.663 42.0521 122.411 41.9044 121.526 41.2395C120.863 40.7225 120.421 39.8361 120.421 38.9496C120.421 38.6542 120.495 38.4326 120.568 38.1371C120.2 37.6939 120.053 36.9552 120.2 36.3643C120.347 35.7733 120.716 35.2563 121.011 34.8869L121.232 34.5915C121.305 34.5176 121.305 34.5176 121.305 34.4437C119.684 34.4437 117.989 34.5176 116.442 34.8131C115.558 35.0347 114.6 35.3301 113.642 35.6256C111.505 36.2904 109.295 37.0291 106.937 36.6598C106.716 36.5859 106.495 36.5859 106.274 36.512C105.095 36.2904 104.358 36.1427 103.916 36.5859L103.621 36.9552H103.179C100.305 36.9552 97.4316 37.3246 94.5579 37.9894C92.9368 39.7622 91.4632 41.6827 90.0632 43.8249C90.2105 43.9726 90.3579 44.1204 90.5053 44.1942C90.7263 44.2681 91.021 44.2681 91.4632 44.1942C92.2737 44.0465 93.0842 43.751 93.8211 43.3078L94.1158 43.1601C94.5579 42.8646 95.4421 42.4214 96.3263 42.3476Z" fill="#569AB7"/>
<path d="M126.242 30.0117C126.758 30.1594 127.347 30.3072 127.863 30.381C129.705 30.8243 131.621 31.2675 133.316 32.3016L133.537 32.4493C133.905 32.6709 134.2 32.8187 134.495 32.8925C134.642 32.8925 134.789 32.8925 134.937 32.8925C135.305 32.8925 135.747 32.8925 136.189 33.1142C137.221 33.6312 137.516 34.6654 137.811 35.4779C137.884 35.6995 137.958 35.995 138.032 36.1427C138.4 37.0291 139.137 37.4723 140.095 37.7678C141.274 38.211 142.379 37.5462 144 36.4382C144.442 36.1427 144.884 35.8473 145.326 35.5518C145.768 35.2563 146.284 35.0347 146.8 34.8131C147.537 34.4438 148.274 34.0744 148.863 33.6312C145.842 31.1936 142.379 29.1253 138.695 27.6479C134.126 28.2389 129.189 29.0514 126.021 29.7162C126.021 30.0117 126.168 30.0117 126.242 30.0117Z" fill="#569AB7"/>
<path d="M122.632 66.5023C122.411 66.5023 122.189 66.4285 122.042 66.4285C122.779 66.5023 123.516 66.9455 124.032 67.6104C124.253 67.832 124.4 68.1274 124.547 68.4229C124.842 68.94 125.063 69.3832 125.358 69.9003C124.547 71.156 123.663 72.7811 124.253 74.2584C124.695 75.3665 125.8 75.8835 126.389 76.9177C126.758 77.6563 126.905 78.5428 127.495 78.986C127.716 79.1337 127.937 79.2076 128.084 79.4292C128.453 79.9462 127.937 80.7588 127.495 81.202C128.232 81.202 128.305 82.3839 128.674 83.0487C128.895 83.418 129.189 83.6396 129.411 83.9351C129.779 84.4522 130 85.117 130.074 85.7818C130.442 88.5888 129.632 91.3219 128.968 94.055C128.674 95.2368 128.453 96.4926 128.526 97.7483C128.6 99.0041 128.968 100.26 129.853 101.146C130.368 101.663 131.989 102.476 132.579 101.663C133.095 100.999 132.726 99.078 132.947 98.1915C133.168 97.2313 133.611 96.4187 134.126 95.6062C135.084 93.9811 136.263 92.4299 137.884 91.6173C138.916 91.1003 140.095 90.9525 141.2 90.5832C142.968 90.14 144.663 89.2536 146.211 88.1456C146.432 87.9978 146.653 87.8501 146.726 87.5546C146.8 87.2591 146.8 87.0375 146.726 86.7421C146.358 83.7874 146.8 80.7588 147.979 78.0996C148.126 77.8041 148.274 77.4347 148.126 77.1393C148.053 76.9177 147.832 76.7699 147.758 76.5483C147.611 76.1051 147.979 75.6619 148.347 75.3665C148.716 75.1449 149.158 74.7755 149.158 74.2584C149.158 73.963 148.937 73.7414 148.716 73.5198C147.537 72.4118 146.063 71.8947 144.811 71.0083C143.926 70.3435 143.116 69.457 142.158 68.7922C141.274 68.1274 140.316 67.6842 139.358 67.1672C138.4 66.7239 137.516 66.2807 136.558 65.8375C135.674 65.3943 134.789 65.025 133.832 64.8034C132.211 64.4341 130.589 64.7295 128.968 64.9511C128.379 65.025 127.716 65.1727 127.2 65.3943C126.758 65.6159 126.389 65.9114 125.947 66.133C125.063 66.5762 124.179 66.5762 123.221 66.4285C123.221 66.5023 123.221 66.5762 123.221 66.5762C123 66.7239 122.779 66.6501 122.632 66.5023Z" fill="#CEEAEB"/>
<path d="M89.9158 45.0807C90.3579 45.3023 90.9474 45.2284 91.4632 45.1546C92.3474 45.0068 93.2316 44.6375 94.1158 44.1943C95.0737 43.6772 96.0316 43.0124 96.9895 43.3817C97.5053 43.6034 97.8737 44.1204 98.3158 44.4898C99.7895 46.041 101.853 47.0013 102.737 49.0696C102.884 49.5128 103.032 49.956 103.253 50.3992C103.474 50.9901 103.842 51.5072 104.211 52.0243C105.684 54.1664 107.232 56.3824 108.705 58.5985C109.147 59.2633 109.663 60.002 110.4 60.3713C110.768 60.5929 111.211 60.6668 111.505 61.0361C111.874 61.4793 111.874 62.1441 112.242 62.6612C112.758 63.5476 113.937 63.4737 114.895 63.3999C116.958 63.326 119.021 63.8431 120.863 64.8772C121.379 65.542 122.042 66.0591 122.779 66.4284C123 66.5023 123.147 66.65 123.368 66.7239C123.368 66.65 123.368 66.5762 123.368 66.5762C123.442 65.7636 124.179 64.9511 124.916 65.025C124.179 63.6215 123.516 62.218 122.779 60.8145C121.674 61.1838 120.642 60.1497 119.905 59.1894C119.611 58.8201 119.316 58.4507 119.242 57.9337C119.095 56.8257 120.274 56.0131 121.305 56.087C122.337 56.1608 123.221 56.7518 124.179 57.0473C123.811 56.604 123.811 55.7915 124.105 55.2744C124.4 54.6835 124.916 54.3142 125.358 54.0187C126.168 53.4277 127.053 52.9845 127.937 52.6152C128.232 52.4675 128.526 52.3936 128.674 52.0981C128.747 51.8765 128.747 51.581 128.821 51.3594C128.968 50.6208 129.705 50.2514 130.368 50.1776C131.032 50.1037 131.695 50.2514 132.358 50.1037C133.389 49.8821 134.274 49.0696 135.011 48.257C135.674 47.5183 136.337 46.8535 137 46.1887C137.147 46.041 137.295 45.8932 137.295 45.6716C137.295 45.45 137.221 45.2284 137.074 45.0807C136.263 43.8988 135.379 42.6431 134.568 41.4612C133.242 39.5406 131.768 37.5462 129.705 36.9553C128.305 36.5859 126.758 36.9553 125.579 37.9155C125.505 38.6542 125.505 39.319 125.432 40.0577C125.432 40.2793 125.432 40.427 125.284 40.5748C125.137 40.7964 124.916 40.8702 124.695 40.8702C123.737 41.0919 122.705 41.1657 121.895 40.5748C121.084 39.9838 120.863 38.5065 121.674 37.9155C121.158 38.0633 120.789 37.3246 120.937 36.7337C121.084 36.1427 121.526 35.7734 121.821 35.2563C122.189 34.8131 122.411 34.1483 122.116 33.6312C120.126 33.6312 118.063 33.6312 116.074 34.0744C113.053 34.7392 110.032 36.4382 106.937 35.8473C105.537 35.6257 103.916 35.0347 102.958 36.1427C99.8632 36.1427 96.8421 36.5859 93.8211 37.3246C91.8316 39.4668 90.0632 41.8305 88.5158 44.2682C88.6632 44.342 88.8105 44.4159 88.9579 44.4898C89.3263 44.6375 89.5474 44.933 89.9158 45.0807Z" fill="#CEEAEB"/>
<path d="M125.947 30.972C128.232 31.563 130.663 31.9323 132.8 33.188C133.316 33.4835 133.758 33.779 134.274 33.9267C134.789 34.0006 135.305 33.9267 135.747 34.1483C136.632 34.5915 136.779 35.8473 137.147 36.7337C137.663 37.9156 138.621 38.5065 139.726 38.8759C142.011 39.7623 143.926 37.694 145.768 36.586C147.316 35.6995 149.158 35.1825 150.189 33.779C146.8 30.8982 142.968 28.6083 138.695 26.9093C133.537 27.648 124.695 28.9776 122.484 29.7901C123.663 30.3072 124.842 30.6765 125.947 30.972Z" fill="#CEEAEB"/>
<path d="M89.9158 45.0807C90.3579 45.3023 90.9474 45.2285 91.4632 45.1546C92.3474 45.0069 93.2316 44.6375 94.1158 44.1943C95.0737 43.6773 96.0316 43.0125 96.9895 43.3818C97.5053 43.6034 97.8737 44.1205 98.3158 44.4898C99.1263 45.3023 100.084 45.9672 100.895 46.7797C104.284 48.6264 111.137 50.6208 116.589 48.0354C121.821 45.524 131.4 44.4159 137.295 45.3024C137.295 45.1546 137.221 45.0069 137.074 44.8591C136.263 43.6773 135.379 42.4215 134.568 41.2396C133.242 39.3191 131.768 37.3246 129.705 36.7337C128.305 36.3644 126.758 36.7337 125.579 37.694C125.505 38.4327 125.505 39.0975 125.432 39.8361C125.432 40.0578 125.432 40.2055 125.284 40.3532C125.137 40.5748 124.916 40.6487 124.695 40.6487C123.737 40.8703 122.705 40.9442 121.895 40.3532C121.084 39.7623 120.863 38.2849 121.674 37.694C121.158 37.8417 120.789 37.103 120.937 36.5121C121.084 35.9212 121.526 35.5518 121.821 35.0348C122.189 34.5915 122.411 33.9267 122.116 33.4097C120.126 33.4097 118.063 33.4097 116.074 33.8529C113.053 34.5177 110.032 36.2166 106.937 35.6257C105.537 35.4041 103.916 34.8132 102.958 35.9212C99.8632 35.9212 96.8421 36.3644 93.8211 37.103C91.8316 39.2452 90.0632 41.609 88.5158 44.0466C88.6632 44.1205 88.8105 44.1943 88.9579 44.2682C89.3263 44.6375 89.5474 44.933 89.9158 45.0807Z" fill="#CEEAEB"/>
<path d="M119.611 107.277H129.779C121.674 95.7539 116.663 81.4975 113.863 65.2466H111.947C112.758 80.611 114.821 94.9414 119.611 107.277Z" fill="#50968E"/>
<path d="M128.158 104.84C121.011 93.7595 116.442 80.3894 113.863 65.2466H111.947C112.095 67.7581 112.242 70.2696 112.463 72.7072C116.442 84.7476 121.6 95.6062 128.158 104.84Z" fill="#39766D"/>
<path d="M126.463 119.392C124.916 119.244 123.368 119.17 121.674 119.17C111.874 119.17 103.768 121.681 102.811 124.858H112.316C113.2 122.199 118.874 120.056 126.463 119.392Z" fill="#50968E"/>
<path d="M126.979 107.425C126.979 106.612 127.568 106.021 128.305 106.021H119.611C118.874 106.021 118.284 106.612 118.284 107.351V107.425C118.284 108.164 118.874 108.755 119.611 108.755H128.305C127.568 108.755 126.979 108.164 126.979 107.425Z" fill="#50968E"/>
<path d="M114.011 65.9853C113.937 65.7637 113.937 65.5421 113.863 65.2466H111.947C112.758 80.611 114.821 94.9414 119.611 107.277H126.095C119.684 95.163 115.705 81.0542 112.832 65.9853H114.011Z" fill="#50968E"/>
<path d="M112.537 67.3888C114.979 67.3888 116.958 65.4045 116.958 62.9567C116.958 60.509 114.979 58.5247 112.537 58.5247C110.095 58.5247 108.116 60.509 108.116 62.9567C108.116 65.4045 110.095 67.3888 112.537 67.3888Z" fill="#39766D"/>
<path d="M115.779 62.9567C115.705 60.5929 114.011 58.6724 111.874 58.6724C109.737 58.6724 108.042 60.5929 108.116 62.9567C108.189 65.3204 109.884 67.241 112.021 67.241C114.158 67.241 115.853 65.3204 115.779 62.9567Z" fill="#50968E"/>
<path d="M112.168 64.8034C113.226 64.8034 114.084 63.9435 114.084 62.8828C114.084 61.8221 113.226 60.9623 112.168 60.9623C111.11 60.9623 110.253 61.8221 110.253 62.8828C110.253 63.9435 111.11 64.8034 112.168 64.8034Z" fill="#39766D"/>
<path d="M113.642 62.809C113.642 62.0703 113.2 61.4794 112.684 61.4794C112.168 61.4794 111.726 62.0703 111.726 62.809C111.726 63.5477 112.168 64.1386 112.684 64.1386C113.2 64.0647 113.642 63.4738 113.642 62.809Z" fill="#50968E"/>
<path d="M101.411 59.3373H25L39.9579 125.079L118.653 122.125L101.411 59.3373Z" fill="white"/>
<path d="M27.3579 59.3373H25L37.7474 127L42.7579 126.557L27.3579 59.3373Z" fill="#F8F8F8"/>
<path d="M118.505 121.164H36.6421L89.9895 125.744L156.821 124.858L118.505 121.164Z" fill="white"/>
<path d="M156.821 124.858H88.4421V127H156.821V124.858Z" fill="#F8F8F8"/>
<path d="M89.7684 124.784L36.7158 120.869L37.7474 127H89.7684V124.784Z" fill="#F8F8F8"/>
<path d="M100.379 63.2522H30.4526L42.8316 119.539H115.558L100.379 63.2522Z" fill="#CEEAEB"/>
<path d="M99.1263 64.4341L114.011 119.539H115.558L100.379 63.2522H30.4526L30.6737 64.4341H99.1263Z" fill="#50968E"/>
<path d="M67.1474 60.3713H59.6316L60 62.4396H67.5158L67.1474 60.3713Z" fill="#CEEAEB"/>
</svg>
