<svg width="195" height="191" viewBox="0 0 195 191" fill="none" xmlns="http://www.w3.org/2000/svg">
<path opacity="0.3" d="M97.5 190.999C151.233 190.999 194.792 188.997 194.792 186.526C194.792 184.056 151.233 182.054 97.5 182.054C43.7668 182.054 0.20752 184.056 0.20752 186.526C0.20752 188.997 43.7668 190.999 97.5 190.999Z" fill="#39766D"/>
<path d="M24.2687 0.000848775C24.2687 0.000848775 7.03778 -0.854772 16.1965 51.766C16.1965 51.766 22.3283 69.6174 14.5666 81.1294H128.78V0.000848775H24.2687Z" fill="#C1DBDB"/>
<path d="M150.784 31.1533H31.5258V186.993H150.784V31.1533Z" fill="#39766D"/>
<path d="M152.647 31.1533H35.4067V186.993H152.647V31.1533Z" fill="white"/>
<path d="M152.647 31.1532H35.4067C36.0664 22.2859 35.0962 15.8298 33.5051 11.1628C30.5168 2.25652 25.3553 0.000793457 25.3553 0.000793457H135.92C145.351 0.000793457 152.647 5.7179 154.665 13.2629C154.742 13.5352 154.82 13.8463 154.859 14.1186C156.76 22.7526 152.724 30.9587 152.647 31.1532Z" fill="white"/>
<path d="M152.647 31.1533H35.4067C36.0664 22.2859 35.0962 15.8299 33.5051 11.1628C45.4968 13.3797 75.1464 18.0467 106.93 17.2689C127.46 16.7633 143.721 15.3632 154.859 14.1186C156.76 22.7526 152.724 30.9588 152.647 31.1533Z" fill="#CEEAEB"/>
<path d="M121.678 67.0894H59.5066C58.8857 67.0894 58.3424 66.5838 58.3424 65.9226V65.3392C58.3424 64.717 58.8469 64.1725 59.5066 64.1725H121.678C122.299 64.1725 122.842 64.6781 122.842 65.3392V65.9226C122.842 66.5449 122.337 67.0894 121.678 67.0894Z" fill="#CEEAEB"/>
<path d="M97.6164 71.9898H59.2738C58.7693 71.9898 58.3424 71.562 58.3424 71.0564V69.9675C58.3424 69.4619 58.7693 69.0341 59.2738 69.0341H97.6164C98.1209 69.0341 98.5478 69.4619 98.5478 69.9675V71.0564C98.5478 71.562 98.1209 71.9898 97.6164 71.9898Z" fill="#CEEAEB"/>
<path d="M52.3659 71.5231V65.5726H51.5897C51.124 65.5726 50.8912 65.3781 50.8912 64.9892C50.8912 64.717 51.0852 64.4836 51.4345 64.3669C51.6285 64.2892 51.939 64.2503 52.3271 64.2114C52.754 64.1725 53.0645 64.1725 53.3361 64.1725C53.569 64.1725 53.7242 64.2114 53.8018 64.3281C53.8794 64.4447 53.8794 64.6781 53.8794 65.067V71.5231H54.6944C55.2377 71.5231 55.4706 71.7564 55.4706 72.2231C55.4706 72.6898 55.1989 72.9232 54.6944 72.9232H51.4345C51.2017 72.9232 51.0076 72.8454 50.8524 72.7287C50.6971 72.612 50.6195 72.4176 50.6195 72.2231C50.6195 71.7564 50.8912 71.5231 51.4345 71.5231H52.3659Z" fill="#CEEAEB"/>
<path d="M121.678 97.8529H59.5066C58.8857 97.8529 58.3424 97.3473 58.3424 96.6862V96.1028C58.3424 95.4805 58.8469 94.936 59.5066 94.936H121.678C122.299 94.936 122.842 95.4416 122.842 96.1028V96.6862C122.842 97.3473 122.337 97.8529 121.678 97.8529Z" fill="#CEEAEB"/>
<path d="M97.6164 102.753H59.2738C58.7693 102.753 58.3424 102.325 58.3424 101.82V100.731C58.3424 100.225 58.7693 99.7975 59.2738 99.7975H97.6164C98.1209 99.7975 98.5478 100.225 98.5478 100.731V101.82C98.5478 102.364 98.1209 102.753 97.6164 102.753Z" fill="#CEEAEB"/>
<path d="M55.6258 102.171C55.6258 102.56 55.3541 102.754 54.8108 102.754H51.3569C50.8524 102.754 50.6195 102.56 50.6195 102.171C50.6195 102.054 50.6971 101.898 50.8136 101.743C51.0076 101.51 51.2793 101.198 51.6674 100.732C52.2495 99.9928 52.7152 99.3705 53.1033 98.8649C53.2197 98.6704 53.4137 98.4371 53.6854 98.0482C53.8794 97.6981 53.9959 97.387 53.9959 97.1537C53.9959 96.8814 53.9182 96.6481 53.7242 96.4925C53.5302 96.298 53.3361 96.2202 53.0645 96.2202C52.7928 96.2202 52.5599 96.298 52.3659 96.4925C52.2495 96.6092 52.1331 96.8036 52.0554 97.1148C51.939 97.5037 51.9002 97.737 51.8614 97.8148C51.745 98.0482 51.5897 98.1648 51.3569 98.1648C51.1629 98.1648 50.9688 98.0871 50.8524 97.9315C50.736 97.8148 50.6972 97.6204 50.6972 97.387C50.6972 97.1536 50.736 96.8814 50.8136 96.6481C50.9688 96.1036 51.2793 95.6758 51.7062 95.4035C52.0942 95.1313 52.5988 94.9757 53.1809 94.9757C53.8018 94.9757 54.3451 95.1702 54.772 95.5591C55.1989 95.9869 55.4318 96.4925 55.4318 97.1148C55.4318 97.5815 55.2765 98.0871 54.9661 98.5926C54.772 98.8649 54.4228 99.3705 53.8794 100.071C53.6078 100.421 53.1421 100.965 52.5599 101.626H54.8496C55.3542 101.548 55.6258 101.743 55.6258 102.171Z" fill="#CEEAEB"/>
<path d="M121.678 123.522H59.5066C58.8857 123.522 58.3424 123.016 58.3424 122.355V121.771C58.3424 121.149 58.8469 120.605 59.5066 120.605H121.678C122.299 120.605 122.842 121.11 122.842 121.771V122.355C122.842 123.016 122.337 123.522 121.678 123.522Z" fill="#CEEAEB"/>
<path d="M97.6164 128.461H59.2738C58.7693 128.461 58.3424 128.033 58.3424 127.527V126.439C58.3424 125.933 58.7693 125.505 59.2738 125.505H97.6164C98.1209 125.505 98.5478 125.933 98.5478 126.439V127.527C98.5478 128.033 98.1209 128.461 97.6164 128.461Z" fill="#CEEAEB"/>
<path d="M55.6258 126.011C55.6258 126.75 55.3541 127.372 54.8496 127.8C54.3451 128.227 53.7242 128.461 52.948 128.461C52.3659 128.461 51.8614 128.305 51.4345 128.033C50.7748 127.605 50.4255 127.061 50.4255 126.438C50.4255 126.244 50.4643 126.088 50.5807 125.972C50.6972 125.855 50.8524 125.777 51.0076 125.777C51.2017 125.777 51.3569 125.894 51.5509 126.166C51.8226 126.594 51.9778 126.827 52.0166 126.866C52.2495 127.1 52.5599 127.255 52.948 127.255C53.4525 127.255 53.8018 127.061 54.0347 126.711C54.1511 126.516 54.1899 126.283 54.1899 126.011C54.1899 125.311 53.763 124.922 52.948 124.844C52.4823 124.805 52.2495 124.611 52.2495 124.261C52.2495 123.988 52.3659 123.833 52.6376 123.716C53.1421 123.522 53.4137 123.444 53.4137 123.444C53.6854 123.249 53.8018 122.938 53.8018 122.51C53.8018 122.238 53.7242 122.044 53.569 121.888C53.4137 121.733 53.2197 121.655 52.948 121.655C52.6376 121.655 52.3659 121.733 52.1719 121.888C52.0166 122.044 51.9002 122.277 51.7838 122.588C51.7062 122.822 51.5509 122.977 51.2793 122.977C51.124 122.977 50.9688 122.899 50.8524 122.744C50.736 122.588 50.6972 122.433 50.6972 122.238C50.6972 122.005 50.7748 121.81 50.8912 121.577C51.0852 121.188 51.3957 120.916 51.8226 120.721C52.2107 120.527 52.6376 120.449 53.0645 120.449C53.6854 120.449 54.1899 120.644 54.578 120.994C54.9661 121.383 55.1989 121.849 55.1989 122.471C55.1989 123.21 54.8884 123.755 54.3063 124.183C55.1989 124.377 55.6258 125.038 55.6258 126.011Z" fill="#CEEAEB"/>
<path d="M114.459 41.4985H75.7285C75.0688 41.4985 74.5255 40.9541 74.5255 40.2929V39.2817C74.5255 38.6205 75.0688 38.076 75.7285 38.076H114.459C115.119 38.076 115.662 38.6205 115.662 39.2817V40.254C115.662 40.9541 115.119 41.4985 114.459 41.4985Z" fill="#CEEAEB"/>
<path d="M124.549 46.71H65.5995C64.7846 46.71 64.1248 46.0488 64.1248 45.2321V44.8043C64.1248 43.9876 64.7846 43.3264 65.5995 43.3264H124.549C125.364 43.3264 126.024 43.9876 126.024 44.8043V45.2321C126.024 46.0488 125.364 46.71 124.549 46.71Z" fill="#CEEAEB"/>
<path d="M168.092 113.723C168.092 113.723 167.665 117.807 167.2 118.584C166.734 119.362 164.755 121.851 163.94 122.318C163.086 122.785 164.444 119.051 164.289 118.312C164.134 117.573 163.591 119.634 163.241 119.673C162.853 119.712 162.97 117.884 162.97 117.184C162.97 116.523 164.755 114.851 165.415 113.412C166.036 112.05 168.092 113.723 168.092 113.723Z" fill="#FFB9B0"/>
<path d="M117.874 75.9589L116.943 74.1699C116.943 74.1699 117.409 71.0197 113.45 68.9973C113.45 68.9973 112.014 68.4139 111.199 69.5807C110.462 70.6696 112.635 70.4752 112.519 72.342C112.402 74.2088 113.295 75.2978 114.498 75.92L115.507 77.0868L117.874 75.9589Z" fill="#EDA7A2"/>
<path d="M155.286 71.6808C155.286 71.6808 151.87 88.4044 133.165 93.8492C127.344 95.5605 114.071 76.2701 114.071 76.2701C114.071 76.2701 114.537 74.4811 117.447 74.9089C117.447 74.9089 130.371 83.4651 132.001 84.3985C133.437 85.2152 142.945 73.781 147.252 71.9142C151.599 70.1252 155.286 71.6808 155.286 71.6808Z" fill="#39766D"/>
<path d="M105.485 68.4062L104.955 71.8658L122.331 74.5403L122.861 71.0806L105.485 68.4062Z" fill="#755DAF"/>
<path d="M101.187 69.5044L104.951 71.8768L105.495 68.4154L101.187 69.5044Z" fill="#4C3D7A"/>
<path d="M124.705 72.5364L124.549 73.6254C124.433 74.2865 123.812 74.7532 123.152 74.6755L122.337 74.5588L122.881 71.0974L123.773 71.2141C124.355 71.3308 124.821 71.9141 124.705 72.5364Z" fill="#4C3D7A"/>
<path d="M177.6 176.806C177.6 176.806 179.929 178.945 179.463 180.423C178.998 181.939 176.902 182.951 176.63 184.778C176.359 186.606 175.233 187.618 174.185 187.618C173.176 187.618 169.334 187.618 169.334 187.618C169.334 187.618 168.597 186.334 170.382 185.945C172.206 185.556 172.866 183.378 172.749 181.395C172.633 179.372 172.905 176.689 172.905 176.689L176.747 175.794L177.6 176.806Z" fill="#4D3D6C"/>
<path d="M149.154 182.29C149.154 182.29 149.581 187.112 148.533 187.618L135.493 187.579C135.493 187.579 135.493 186.062 137.589 185.751C139.685 185.401 143.371 184.195 143.992 181.434C144.613 178.711 149.154 182.29 149.154 182.29Z" fill="#4D3D6C"/>
<path d="M138.132 114.073C138.132 114.073 138.831 122.551 139.646 132.702C140.732 146.548 142.052 163.505 142.207 166.733C142.44 172.333 143.333 181.239 143.333 181.239C143.333 181.239 145.467 183.378 149.775 182.484C149.775 182.484 153.617 169.727 154.703 156.232C154.703 155.998 154.742 155.804 154.742 155.571C155.751 141.842 157.342 112.906 157.342 112.906L138.132 114.073Z" fill="#755DAF"/>
<path d="M138.132 114.073C138.132 114.073 138.831 122.551 139.646 132.702L154.703 156.232C154.703 155.998 154.742 155.804 154.742 155.571C155.751 141.842 157.342 112.906 157.342 112.906L138.132 114.073Z" fill="#4C3D7A"/>
<path d="M141.276 115.084C141.276 115.084 153.656 145.731 161.805 160.16C169.955 174.589 172.517 178.595 172.517 178.595C172.517 178.595 177.174 176.767 177.6 175.483C177.6 175.483 174.496 147.676 169.024 140.87C165.958 137.019 162.31 125.546 162.155 121.501C161.999 117.496 161.068 109.523 161.068 109.523L141.276 115.084Z" fill="#755DAF"/>
<path d="M157.575 67.8304C157.575 67.8304 149.193 71.8752 144.342 70.3973C144.342 70.3973 145.545 68.8805 147.602 67.7915C147.446 66.8192 147.291 65.9636 147.213 65.2636C147.019 63.6301 147.019 62.6578 147.019 62.6578L150.241 60.0909L153.306 57.6407C153.112 64.4857 157.575 67.8304 157.575 67.8304Z" fill="#FFB9B0"/>
<path d="M161.999 111.117C161.999 111.623 160.913 112.206 160.447 112.44C156.877 114.034 153.5 115.123 149.697 115.473C145.234 115.94 139.917 114.929 138.093 114.968C137.899 114.968 137.744 114.89 137.589 114.773C137.473 114.695 137.356 109.25 137.473 102.444C137.473 102.172 137.473 101.9 137.473 101.628V101.55C137.511 98.9052 137.589 96.105 137.744 93.3048C138.016 87.1599 138.482 81.2483 139.297 77.9814C140.267 74.1311 142.518 71.5642 144.536 69.7363L146.204 68.2584C147.873 68.5695 149.658 68.4918 151.405 67.6361C153.345 66.7027 155.441 65.6915 155.751 65.9638C158.274 67.8306 159.981 71.992 160.913 77.3202C161.417 80.3927 161.689 83.8152 161.689 87.4321C161.689 88.7544 161.65 90.1157 161.573 91.438C161.146 98.7108 161.573 105.011 161.844 108.667C161.922 109.717 161.999 110.534 161.999 111.117Z" fill="#50968E"/>
<path d="M161.844 110.767C132.466 110.689 156.411 78.8369 156.411 78.8369L161.184 77.2812C161.573 80.5482 161.767 84.204 161.728 88.0543C161.728 89.4544 161.689 90.9323 161.65 92.3324C161.34 100.15 161.65 106.878 161.844 110.767Z" fill="#39766D"/>
<path d="M153.423 60.2465C153.423 60.2465 151.288 64.1357 147.252 65.1858C147.058 63.5524 147.058 62.5801 147.058 62.5801L150.279 60.0132L153.423 60.2465Z" fill="#EDA7A2"/>
<path d="M145.584 62.5023C145.584 62.5023 153.578 63.8246 154.354 58.8854C155.092 53.9461 156.644 50.7958 151.56 49.7458C146.476 48.6957 145.195 50.4458 144.536 52.0015C143.876 53.635 143.527 62.0356 145.584 62.5023Z" fill="#FFB9B0"/>
<path d="M157.226 49.1624C157.304 49.0846 157.459 49.0068 157.847 49.0068C157.847 49.0068 157.536 48.8124 157.148 48.8124C157.071 48.3068 156.799 47.3734 155.907 47.14C155.907 47.14 156.372 47.4123 156.45 47.9567C155.402 46.9067 153.19 46.1288 147.058 46.5955C138.986 47.2178 141.625 52.4293 142.673 53.0516C143.721 53.6739 146.36 51.9626 148.3 52.1182C150.241 52.2737 150.629 55.1129 151.288 55.5018C151.948 55.8907 151.676 55.1906 152.569 54.8017C153.462 54.4128 153.539 55.8907 153.306 56.863C153.035 57.8353 154.277 59.1187 154.277 59.1187C154.277 59.1187 154.277 59.1187 155.518 57.7964C156.76 56.4741 157.925 50.757 157.381 49.5513C157.342 49.3957 157.304 49.2791 157.226 49.1624Z" fill="#4D3D6C"/>
<path d="M155.79 65.9248C155.79 65.9248 160.835 68.3361 163.28 72.0308C167.045 77.7479 171.391 98.6329 171.507 100.577C171.585 102.522 168.325 116.173 168.325 116.173C168.325 116.173 165.026 115.94 164.173 114.267C164.173 114.267 164.832 100.227 164.406 99.333C163.979 98.4384 150.59 80.5093 152.103 76.6979C153.578 72.8476 155.79 65.9248 155.79 65.9248Z" fill="#50968E"/>
<path d="M116.904 74.0921C116.904 74.0921 117.176 73.0032 116.438 72.4976C115.701 71.992 115.003 70.6696 114.653 70.8641C113.994 71.253 115.003 72.4198 114.809 73.8588C114.77 74.3644 115.934 75.6867 116.904 74.0921Z" fill="#FFB9B0"/>
<path d="M126.063 153.079H53.9959C53.5302 153.079 53.1033 152.691 53.1033 152.185C53.1033 151.718 53.4914 151.29 53.9959 151.29H126.102C126.567 151.29 126.994 151.679 126.994 152.185C126.956 152.691 126.567 153.079 126.063 153.079Z" fill="#CEEAEB"/>
<path d="M126.063 156.619H53.9959C53.5302 156.619 53.1033 156.23 53.1033 155.724C53.1033 155.257 53.4914 154.83 53.9959 154.83H126.102C126.567 154.83 126.994 155.219 126.994 155.724C126.956 156.23 126.567 156.619 126.063 156.619Z" fill="#CEEAEB"/>
<path d="M126.063 160.508H53.9959C53.5302 160.508 53.1033 160.119 53.1033 159.613C53.1033 159.147 53.4914 158.719 53.9959 158.719H126.102C126.567 158.719 126.994 159.108 126.994 159.613C126.956 160.119 126.567 160.508 126.063 160.508Z" fill="#CEEAEB"/>
<path d="M116.632 164.397H53.9182C53.4525 164.397 53.1033 164.047 53.1033 163.58V163.464C53.1033 162.997 53.4525 162.647 53.9182 162.647H116.632C117.098 162.647 117.447 162.997 117.447 163.464V163.58C117.447 164.047 117.059 164.397 116.632 164.397Z" fill="#CEEAEB"/>
</svg>
