<svg width="308" height="228" viewBox="0 0 308 228" fill="none" xmlns="http://www.w3.org/2000/svg">
<g filter="url(#filter0_d)">
<rect x="8.5" y="0.5" width="299" height="219" rx="9.5" fill="white" stroke="#EDEEED"/>
<path d="M108.699 100.781H117.124V102H107.245V84.9375H108.699V100.781ZM120.968 102H119.562V89.3203H120.968V102ZM121.695 84.1406H123.394L120.687 87.4219H119.457L121.695 84.1406ZM125.949 89.3203L125.996 91.4883C126.472 90.707 127.066 90.1133 127.777 89.707C128.488 89.293 129.273 89.0859 130.132 89.0859C131.492 89.0859 132.504 89.4688 133.168 90.2344C133.832 91 134.168 92.1484 134.175 93.6797V102H132.781V93.668C132.773 92.5352 132.531 91.6914 132.054 91.1367C131.586 90.582 130.832 90.3047 129.793 90.3047C128.925 90.3047 128.156 90.5781 127.484 91.125C126.82 91.6641 126.328 92.3945 126.007 93.3164V102H124.613V89.3203H125.949ZM142.566 102.234C141.488 102.234 140.511 101.969 139.636 101.438C138.769 100.906 138.093 100.168 137.609 99.2227C137.125 98.2695 136.883 97.2031 136.883 96.0234V95.5195C136.883 94.3008 137.117 93.2031 137.586 92.2266C138.062 91.25 138.722 90.4844 139.566 89.9297C140.41 89.3672 141.324 89.0859 142.308 89.0859C143.847 89.0859 145.066 89.6133 145.965 90.668C146.871 91.7148 147.324 93.1484 147.324 94.9688V95.7539H138.277V96.0234C138.277 97.4609 138.687 98.6602 139.508 99.6211C140.336 100.574 141.375 101.051 142.625 101.051C143.375 101.051 144.035 100.914 144.605 100.641C145.183 100.367 145.707 99.9297 146.176 99.3281L147.054 99.9961C146.023 101.488 144.527 102.234 142.566 102.234ZM142.308 90.2812C141.254 90.2812 140.363 90.668 139.636 91.4414C138.918 92.2148 138.48 93.2539 138.324 94.5586H145.929V94.4062C145.89 93.1875 145.543 92.1953 144.886 91.4297C144.23 90.6641 143.371 90.2812 142.308 90.2812ZM157.906 102C157.765 101.602 157.676 101.012 157.637 100.23C157.144 100.871 156.515 101.367 155.75 101.719C154.992 102.062 154.187 102.234 153.336 102.234C152.117 102.234 151.129 101.895 150.371 101.215C149.621 100.535 149.246 99.6758 149.246 98.6367C149.246 97.4023 149.758 96.4258 150.781 95.707C151.812 94.9883 153.246 94.6289 155.082 94.6289H157.625V93.1875C157.625 92.2812 157.344 91.5703 156.781 91.0547C156.226 90.5312 155.414 90.2695 154.344 90.2695C153.367 90.2695 152.558 90.5195 151.918 91.0195C151.277 91.5195 150.957 92.1211 150.957 92.8242L149.551 92.8125C149.551 91.8047 150.019 90.9336 150.957 90.1992C151.894 89.457 153.047 89.0859 154.414 89.0859C155.828 89.0859 156.941 89.4414 157.754 90.1523C158.574 90.8555 158.996 91.8398 159.019 93.1055V99.1055C159.019 100.332 159.148 101.25 159.406 101.859V102H157.906ZM153.5 100.992C154.437 100.992 155.273 100.766 156.008 100.312C156.75 99.8594 157.289 99.2539 157.625 98.4961V95.707H155.117C153.719 95.7227 152.625 95.9805 151.836 96.4805C151.047 96.9727 150.652 97.6523 150.652 98.5195C150.652 99.2305 150.914 99.8203 151.437 100.289C151.969 100.758 152.656 100.992 153.5 100.992ZM179.738 86.168H173.891V102H172.449V86.168H166.613V84.9375H179.738V86.168ZM186.992 90.5156C186.696 90.4609 186.379 90.4336 186.043 90.4336C185.168 90.4336 184.426 90.6797 183.817 91.1719C183.215 91.6562 182.785 92.3633 182.528 93.293V102H181.133V89.3203H182.504L182.528 91.3359C183.27 89.8359 184.461 89.0859 186.102 89.0859C186.492 89.0859 186.801 89.1367 187.028 89.2383L186.992 90.5156ZM190.637 102H189.231V89.3203H190.637V102ZM188.985 85.6523C188.985 85.3867 189.071 85.1641 189.243 84.9844C189.414 84.7969 189.649 84.7031 189.946 84.7031C190.243 84.7031 190.477 84.7969 190.649 84.9844C190.829 85.1641 190.918 85.3867 190.918 85.6523C190.918 85.918 190.829 86.1406 190.649 86.3203C190.477 86.5 190.243 86.5898 189.946 86.5898C189.649 86.5898 189.414 86.5 189.243 86.3203C189.071 86.1406 188.985 85.918 188.985 85.6523ZM195.641 89.3203L195.688 91.4883C196.165 90.707 196.758 90.1133 197.469 89.707C198.18 89.293 198.965 89.0859 199.825 89.0859C201.184 89.0859 202.196 89.4688 202.86 90.2344C203.524 91 203.86 92.1484 203.868 93.6797V102H202.473V93.668C202.465 92.5352 202.223 91.6914 201.747 91.1367C201.278 90.582 200.524 90.3047 199.485 90.3047C198.618 90.3047 197.848 90.5781 197.176 91.125C196.512 91.6641 196.02 92.3945 195.7 93.3164V102H194.305V89.3203H195.641ZM208.919 102H207.512V89.3203H208.919V102ZM207.266 85.6523C207.266 85.3867 207.352 85.1641 207.524 84.9844C207.696 84.7969 207.93 84.7031 208.227 84.7031C208.524 84.7031 208.758 84.7969 208.93 84.9844C209.11 85.1641 209.2 85.3867 209.2 85.6523C209.2 85.918 209.11 86.1406 208.93 86.3203C208.758 86.5 208.524 86.5898 208.227 86.5898C207.93 86.5898 207.696 86.5 207.524 86.3203C207.352 86.1406 207.266 85.918 207.266 85.6523Z" fill="#4D3D6C"/>
<path d="M98.3031 126.293C98.1976 127.195 97.8637 127.893 97.3012 128.385C96.7426 128.873 95.9984 129.117 95.0687 129.117C94.0609 129.117 93.2523 128.756 92.643 128.033C92.0375 127.311 91.7348 126.344 91.7348 125.133V124.312C91.7348 123.52 91.8754 122.822 92.1566 122.221C92.4418 121.619 92.8441 121.158 93.3637 120.838C93.8832 120.514 94.4848 120.352 95.1684 120.352C96.0746 120.352 96.8012 120.605 97.348 121.113C97.8949 121.617 98.2133 122.316 98.3031 123.211H97.1723C97.0746 122.531 96.8617 122.039 96.5336 121.734C96.2094 121.43 95.7543 121.277 95.1684 121.277C94.4496 121.277 93.8851 121.543 93.475 122.074C93.0687 122.605 92.8656 123.361 92.8656 124.342V125.168C92.8656 126.094 93.059 126.83 93.4457 127.377C93.8324 127.924 94.3734 128.197 95.0687 128.197C95.6937 128.197 96.1723 128.057 96.5043 127.775C96.8402 127.49 97.0629 126.996 97.1723 126.293H98.3031ZM103.436 128.373C103.014 128.869 102.395 129.117 101.579 129.117C100.903 129.117 100.387 128.922 100.032 128.531C99.6802 128.137 99.5025 127.555 99.4986 126.785V122.66H100.583V126.756C100.583 127.717 100.973 128.197 101.754 128.197C102.583 128.197 103.133 127.889 103.407 127.271V122.66H104.491V129H103.459L103.436 128.373ZM108.622 129.117C107.762 129.117 107.063 128.836 106.524 128.273C105.985 127.707 105.715 126.951 105.715 126.006V125.807C105.715 125.178 105.835 124.617 106.073 124.125C106.315 123.629 106.651 123.242 107.081 122.965C107.514 122.684 107.983 122.543 108.487 122.543C109.311 122.543 109.952 122.814 110.409 123.357C110.866 123.9 111.094 124.678 111.094 125.689V126.141H106.799C106.815 126.766 106.997 127.271 107.344 127.658C107.696 128.041 108.141 128.232 108.68 128.232C109.063 128.232 109.387 128.154 109.653 127.998C109.919 127.842 110.151 127.635 110.35 127.377L111.012 127.893C110.481 128.709 109.684 129.117 108.622 129.117ZM108.487 123.434C108.049 123.434 107.682 123.594 107.385 123.914C107.089 124.23 106.905 124.676 106.835 125.25H110.01V125.168C109.979 124.617 109.831 124.191 109.565 123.891C109.299 123.586 108.94 123.434 108.487 123.434ZM113.227 122.66L113.262 123.457C113.747 122.848 114.38 122.543 115.161 122.543C116.501 122.543 117.177 123.299 117.188 124.811V129H116.104V124.805C116.1 124.348 115.995 124.01 115.788 123.791C115.585 123.572 115.266 123.463 114.833 123.463C114.481 123.463 114.173 123.557 113.907 123.744C113.641 123.932 113.434 124.178 113.286 124.482V129H112.202V122.66H113.227ZM120.142 121.125V122.66H121.325V123.498H120.142V127.43C120.142 127.684 120.194 127.875 120.3 128.004C120.405 128.129 120.585 128.191 120.839 128.191C120.964 128.191 121.136 128.168 121.354 128.121V129C121.069 129.078 120.792 129.117 120.522 129.117C120.038 129.117 119.673 128.971 119.427 128.678C119.181 128.385 119.058 127.969 119.058 127.43V123.498H117.903V122.66H119.058V121.125H120.142ZM126.358 129C126.296 128.875 126.245 128.652 126.206 128.332C125.702 128.855 125.101 129.117 124.401 129.117C123.776 129.117 123.263 128.941 122.86 128.59C122.462 128.234 122.263 127.785 122.263 127.242C122.263 126.582 122.513 126.07 123.013 125.707C123.517 125.34 124.224 125.156 125.134 125.156H126.189V124.658C126.189 124.279 126.075 123.979 125.849 123.756C125.622 123.529 125.288 123.416 124.847 123.416C124.46 123.416 124.136 123.514 123.874 123.709C123.612 123.904 123.482 124.141 123.482 124.418H122.392C122.392 124.102 122.503 123.797 122.726 123.504C122.952 123.207 123.257 122.973 123.64 122.801C124.026 122.629 124.45 122.543 124.911 122.543C125.642 122.543 126.214 122.727 126.628 123.094C127.042 123.457 127.257 123.959 127.273 124.6V127.518C127.273 128.1 127.347 128.562 127.495 128.906V129H126.358ZM124.56 128.174C124.899 128.174 125.222 128.086 125.526 127.91C125.831 127.734 126.052 127.506 126.189 127.225V125.924H125.339C124.011 125.924 123.347 126.312 123.347 127.09C123.347 127.43 123.46 127.695 123.687 127.887C123.913 128.078 124.204 128.174 124.56 128.174ZM134.187 128.232C134.574 128.232 134.911 128.115 135.201 127.881C135.49 127.646 135.65 127.354 135.681 127.002H136.706C136.687 127.365 136.562 127.711 136.331 128.039C136.101 128.367 135.792 128.629 135.406 128.824C135.023 129.02 134.617 129.117 134.187 129.117C133.324 129.117 132.636 128.83 132.124 128.256C131.617 127.678 131.363 126.889 131.363 125.889V125.707C131.363 125.09 131.476 124.541 131.702 124.061C131.929 123.58 132.253 123.207 132.675 122.941C133.101 122.676 133.603 122.543 134.181 122.543C134.892 122.543 135.482 122.756 135.951 123.182C136.423 123.607 136.675 124.16 136.706 124.84H135.681C135.65 124.43 135.493 124.094 135.212 123.832C134.935 123.566 134.591 123.434 134.181 123.434C133.63 123.434 133.202 123.633 132.898 124.031C132.597 124.426 132.447 124.998 132.447 125.748V125.953C132.447 126.684 132.597 127.246 132.898 127.641C133.199 128.035 133.628 128.232 134.187 128.232ZM137.486 125.771C137.486 125.15 137.607 124.592 137.849 124.096C138.095 123.6 138.435 123.217 138.869 122.947C139.306 122.678 139.804 122.543 140.363 122.543C141.226 122.543 141.923 122.842 142.455 123.439C142.99 124.037 143.257 124.832 143.257 125.824V125.9C143.257 126.518 143.138 127.072 142.9 127.564C142.665 128.053 142.328 128.434 141.886 128.707C141.449 128.98 140.945 129.117 140.374 129.117C139.515 129.117 138.818 128.818 138.283 128.221C137.751 127.623 137.486 126.832 137.486 125.848V125.771ZM138.576 125.9C138.576 126.604 138.738 127.168 139.062 127.594C139.39 128.02 139.828 128.232 140.374 128.232C140.925 128.232 141.363 128.018 141.687 127.588C142.011 127.154 142.173 126.549 142.173 125.771C142.173 125.076 142.007 124.514 141.675 124.084C141.347 123.65 140.91 123.434 140.363 123.434C139.828 123.434 139.396 123.646 139.068 124.072C138.74 124.498 138.576 125.107 138.576 125.9ZM145.49 122.66L145.525 123.457C146.009 122.848 146.642 122.543 147.423 122.543C148.763 122.543 149.439 123.299 149.451 124.811V129H148.367V124.805C148.363 124.348 148.257 124.01 148.05 123.791C147.847 123.572 147.529 123.463 147.095 123.463C146.744 123.463 146.435 123.557 146.17 123.744C145.904 123.932 145.697 124.178 145.548 124.482V129H144.464V122.66H145.49ZM154.783 122.66L154.818 123.457C155.303 122.848 155.935 122.543 156.717 122.543C158.057 122.543 158.732 123.299 158.744 124.811V129H157.66V124.805C157.656 124.348 157.551 124.01 157.344 123.791C157.14 123.572 156.822 123.463 156.389 123.463C156.037 123.463 155.728 123.557 155.463 123.744C155.197 123.932 154.99 124.178 154.842 124.482V129H153.758V122.66H154.783ZM159.939 125.771C159.939 125.15 160.061 124.592 160.303 124.096C160.549 123.6 160.889 123.217 161.322 122.947C161.76 122.678 162.258 122.543 162.816 122.543C163.68 122.543 164.377 122.842 164.908 123.439C165.443 124.037 165.711 124.832 165.711 125.824V125.9C165.711 126.518 165.592 127.072 165.354 127.564C165.119 128.053 164.781 128.434 164.34 128.707C163.902 128.98 163.398 129.117 162.828 129.117C161.969 129.117 161.271 128.818 160.736 128.221C160.205 127.623 159.939 126.832 159.939 125.848V125.771ZM161.029 125.9C161.029 126.604 161.191 127.168 161.516 127.594C161.844 128.02 162.281 128.232 162.828 128.232C163.379 128.232 163.816 128.018 164.141 127.588C164.465 127.154 164.627 126.549 164.627 125.771C164.627 125.076 164.461 124.514 164.129 124.084C163.801 123.65 163.363 123.434 162.816 123.434C162.281 123.434 161.85 123.646 161.521 124.072C161.193 124.498 161.029 125.107 161.029 125.9ZM170.61 127.318C170.61 127.025 170.498 126.799 170.276 126.639C170.057 126.475 169.672 126.334 169.121 126.217C168.574 126.1 168.139 125.959 167.815 125.795C167.494 125.631 167.256 125.436 167.1 125.209C166.947 124.982 166.871 124.713 166.871 124.4C166.871 123.881 167.09 123.441 167.527 123.082C167.969 122.723 168.531 122.543 169.215 122.543C169.934 122.543 170.516 122.729 170.961 123.1C171.41 123.471 171.635 123.945 171.635 124.523H170.545C170.545 124.227 170.418 123.971 170.164 123.756C169.914 123.541 169.598 123.434 169.215 123.434C168.82 123.434 168.512 123.52 168.289 123.691C168.067 123.863 167.955 124.088 167.955 124.365C167.955 124.627 168.059 124.824 168.266 124.957C168.473 125.09 168.846 125.217 169.385 125.338C169.928 125.459 170.367 125.604 170.703 125.771C171.039 125.939 171.287 126.143 171.447 126.381C171.611 126.615 171.693 126.902 171.693 127.242C171.693 127.809 171.467 128.264 171.014 128.607C170.561 128.947 169.973 129.117 169.25 129.117C168.742 129.117 168.293 129.027 167.902 128.848C167.512 128.668 167.205 128.418 166.983 128.098C166.764 127.773 166.654 127.424 166.654 127.049H167.738C167.758 127.412 167.902 127.701 168.172 127.916C168.445 128.127 168.805 128.232 169.25 128.232C169.66 128.232 169.988 128.15 170.235 127.986C170.485 127.818 170.61 127.596 170.61 127.318ZM172.666 125.771C172.666 125.15 172.787 124.592 173.03 124.096C173.276 123.6 173.615 123.217 174.049 122.947C174.487 122.678 174.985 122.543 175.543 122.543C176.407 122.543 177.104 122.842 177.635 123.439C178.17 124.037 178.438 124.832 178.438 125.824V125.9C178.438 126.518 178.319 127.072 178.08 127.564C177.846 128.053 177.508 128.434 177.067 128.707C176.629 128.98 176.125 129.117 175.555 129.117C174.696 129.117 173.998 128.818 173.463 128.221C172.932 127.623 172.666 126.832 172.666 125.848V125.771ZM173.756 125.9C173.756 126.604 173.918 127.168 174.242 127.594C174.571 128.02 175.008 128.232 175.555 128.232C176.106 128.232 176.543 128.018 176.867 127.588C177.192 127.154 177.354 126.549 177.354 125.771C177.354 125.076 177.188 124.514 176.856 124.084C176.528 123.65 176.09 123.434 175.543 123.434C175.008 123.434 174.576 123.646 174.248 124.072C173.92 124.498 173.756 125.107 173.756 125.9ZM181.116 121.125V122.66H182.299V123.498H181.116V127.43C181.116 127.684 181.168 127.875 181.274 128.004C181.379 128.129 181.559 128.191 181.813 128.191C181.938 128.191 182.11 128.168 182.329 128.121V129C182.043 129.078 181.766 129.117 181.496 129.117C181.012 129.117 180.647 128.971 180.401 128.678C180.155 128.385 180.032 127.969 180.032 127.43V123.498H178.877V122.66H180.032V121.125H181.116ZM186.483 123.633C186.319 123.605 186.141 123.592 185.95 123.592C185.239 123.592 184.756 123.895 184.502 124.5V129H183.418V122.66H184.473L184.491 123.393C184.846 122.826 185.35 122.543 186.002 122.543C186.213 122.543 186.374 122.57 186.483 122.625V123.633ZM186.928 125.771C186.928 125.15 187.049 124.592 187.292 124.096C187.538 123.6 187.878 123.217 188.311 122.947C188.749 122.678 189.247 122.543 189.805 122.543C190.669 122.543 191.366 122.842 191.897 123.439C192.432 124.037 192.7 124.832 192.7 125.824V125.9C192.7 126.518 192.581 127.072 192.342 127.564C192.108 128.053 191.77 128.434 191.329 128.707C190.891 128.98 190.387 129.117 189.817 129.117C188.958 129.117 188.26 128.818 187.725 128.221C187.194 127.623 186.928 126.832 186.928 125.848V125.771ZM188.018 125.9C188.018 126.604 188.18 127.168 188.505 127.594C188.833 128.02 189.27 128.232 189.817 128.232C190.368 128.232 190.805 128.018 191.13 127.588C191.454 127.154 191.616 126.549 191.616 125.771C191.616 125.076 191.45 124.514 191.118 124.084C190.79 123.65 190.352 123.434 189.805 123.434C189.27 123.434 188.839 123.646 188.51 124.072C188.182 124.498 188.018 125.107 188.018 125.9ZM197.598 127.318C197.598 127.025 197.487 126.799 197.264 126.639C197.046 126.475 196.661 126.334 196.11 126.217C195.563 126.1 195.128 125.959 194.804 125.795C194.483 125.631 194.245 125.436 194.089 125.209C193.936 124.982 193.86 124.713 193.86 124.4C193.86 123.881 194.079 123.441 194.516 123.082C194.958 122.723 195.52 122.543 196.204 122.543C196.923 122.543 197.505 122.729 197.95 123.1C198.399 123.471 198.624 123.945 198.624 124.523H197.534C197.534 124.227 197.407 123.971 197.153 123.756C196.903 123.541 196.587 123.434 196.204 123.434C195.809 123.434 195.501 123.52 195.278 123.691C195.055 123.863 194.944 124.088 194.944 124.365C194.944 124.627 195.048 124.824 195.255 124.957C195.462 125.09 195.835 125.217 196.374 125.338C196.917 125.459 197.356 125.604 197.692 125.771C198.028 125.939 198.276 126.143 198.436 126.381C198.6 126.615 198.682 126.902 198.682 127.242C198.682 127.809 198.456 128.264 198.003 128.607C197.55 128.947 196.962 129.117 196.239 129.117C195.731 129.117 195.282 129.027 194.891 128.848C194.501 128.668 194.194 128.418 193.971 128.098C193.753 127.773 193.643 127.424 193.643 127.049H194.727C194.747 127.412 194.891 127.701 195.161 127.916C195.434 128.127 195.794 128.232 196.239 128.232C196.649 128.232 196.977 128.15 197.223 127.986C197.473 127.818 197.598 127.596 197.598 127.318ZM208.122 125.9C208.122 126.865 207.901 127.643 207.46 128.232C207.019 128.822 206.421 129.117 205.667 129.117C204.898 129.117 204.292 128.873 203.851 128.385V131.438H202.767V122.66H203.757L203.81 123.363C204.251 122.816 204.864 122.543 205.649 122.543C206.411 122.543 207.013 122.83 207.454 123.404C207.899 123.979 208.122 124.777 208.122 125.801V125.9ZM207.038 125.777C207.038 125.062 206.886 124.498 206.581 124.084C206.276 123.67 205.858 123.463 205.327 123.463C204.671 123.463 204.179 123.754 203.851 124.336V127.365C204.175 127.943 204.671 128.232 205.339 128.232C205.858 128.232 206.271 128.027 206.575 127.617C206.884 127.203 207.038 126.59 207.038 125.777ZM213.267 129C213.204 128.875 213.154 128.652 213.114 128.332C212.611 128.855 212.009 129.117 211.31 129.117C210.685 129.117 210.171 128.941 209.769 128.59C209.37 128.234 209.171 127.785 209.171 127.242C209.171 126.582 209.421 126.07 209.921 125.707C210.425 125.34 211.132 125.156 212.042 125.156H213.097V124.658C213.097 124.279 212.984 123.979 212.757 123.756C212.53 123.529 212.196 123.416 211.755 123.416C211.368 123.416 211.044 123.514 210.782 123.709C210.521 123.904 210.39 124.141 210.39 124.418H209.3C209.3 124.102 209.411 123.797 209.634 123.504C209.861 123.207 210.165 122.973 210.548 122.801C210.935 122.629 211.359 122.543 211.82 122.543C212.55 122.543 213.122 122.727 213.536 123.094C213.95 123.457 214.165 123.959 214.181 124.6V127.518C214.181 128.1 214.255 128.562 214.404 128.906V129H213.267ZM211.468 128.174C211.808 128.174 212.13 128.086 212.435 127.91C212.739 127.734 212.96 127.506 213.097 127.225V125.924H212.247C210.919 125.924 210.255 126.312 210.255 127.09C210.255 127.43 210.368 127.695 210.595 127.887C210.821 128.078 211.113 128.174 211.468 128.174ZM218.792 123.633C218.628 123.605 218.451 123.592 218.259 123.592C217.548 123.592 217.066 123.895 216.812 124.5V129H215.728V122.66H216.783L216.8 123.393C217.156 122.826 217.66 122.543 218.312 122.543C218.523 122.543 218.683 122.57 218.792 122.625V123.633ZM223.322 129C223.259 128.875 223.208 128.652 223.169 128.332C222.665 128.855 222.064 129.117 221.365 129.117C220.74 129.117 220.226 128.941 219.824 128.59C219.425 128.234 219.226 127.785 219.226 127.242C219.226 126.582 219.476 126.07 219.976 125.707C220.48 125.34 221.187 125.156 222.097 125.156H223.152V124.658C223.152 124.279 223.039 123.979 222.812 123.756C222.585 123.529 222.251 123.416 221.81 123.416C221.423 123.416 221.099 123.514 220.837 123.709C220.576 123.904 220.445 124.141 220.445 124.418H219.355C219.355 124.102 219.466 123.797 219.689 123.504C219.915 123.207 220.22 122.973 220.603 122.801C220.99 122.629 221.414 122.543 221.874 122.543C222.605 122.543 223.177 122.727 223.591 123.094C224.005 123.457 224.22 123.959 224.236 124.6V127.518C224.236 128.1 224.31 128.562 224.458 128.906V129H223.322ZM221.523 128.174C221.863 128.174 222.185 128.086 222.49 127.91C222.794 127.734 223.015 127.506 223.152 127.225V125.924H222.302C220.974 125.924 220.31 126.312 220.31 127.09C220.31 127.43 220.423 127.695 220.65 127.887C220.876 128.078 221.167 128.174 221.523 128.174ZM138.371 143C138.308 142.875 138.257 142.652 138.218 142.332C137.714 142.855 137.113 143.117 136.414 143.117C135.789 143.117 135.275 142.941 134.873 142.59C134.474 142.234 134.275 141.785 134.275 141.242C134.275 140.582 134.525 140.07 135.025 139.707C135.529 139.34 136.236 139.156 137.146 139.156H138.201V138.658C138.201 138.279 138.087 137.979 137.861 137.756C137.634 137.529 137.3 137.416 136.859 137.416C136.472 137.416 136.148 137.514 135.886 137.709C135.624 137.904 135.494 138.141 135.494 138.418H134.404C134.404 138.102 134.515 137.797 134.738 137.504C134.964 137.207 135.269 136.973 135.652 136.801C136.039 136.629 136.462 136.543 136.923 136.543C137.654 136.543 138.226 136.727 138.64 137.094C139.054 137.457 139.269 137.959 139.285 138.6V141.518C139.285 142.1 139.359 142.562 139.507 142.906V143H138.371ZM136.572 142.174C136.912 142.174 137.234 142.086 137.539 141.91C137.843 141.734 138.064 141.506 138.201 141.225V139.924H137.351C136.023 139.924 135.359 140.312 135.359 141.09C135.359 141.43 135.472 141.695 135.699 141.887C135.925 142.078 136.216 142.174 136.572 142.174ZM146.187 139.9C146.187 140.865 145.966 141.643 145.525 142.232C145.084 142.822 144.486 143.117 143.732 143.117C142.962 143.117 142.357 142.873 141.916 142.385V145.438H140.832V136.66H141.822L141.875 137.363C142.316 136.816 142.929 136.543 143.714 136.543C144.476 136.543 145.078 136.83 145.519 137.404C145.964 137.979 146.187 138.777 146.187 139.801V139.9ZM145.103 139.777C145.103 139.062 144.951 138.498 144.646 138.084C144.341 137.67 143.923 137.463 143.392 137.463C142.736 137.463 142.244 137.754 141.916 138.336V141.365C142.24 141.943 142.736 142.232 143.404 142.232C143.923 142.232 144.336 142.027 144.64 141.617C144.949 141.203 145.103 140.59 145.103 139.777ZM147.131 139.771C147.131 139.15 147.252 138.592 147.494 138.096C147.74 137.6 148.08 137.217 148.513 136.947C148.951 136.678 149.449 136.543 150.008 136.543C150.871 136.543 151.568 136.842 152.099 137.439C152.634 138.037 152.902 138.832 152.902 139.824V139.9C152.902 140.518 152.783 141.072 152.545 141.564C152.31 142.053 151.972 142.434 151.531 142.707C151.093 142.98 150.59 143.117 150.019 143.117C149.16 143.117 148.463 142.818 147.927 142.221C147.396 141.623 147.131 140.832 147.131 139.848V139.771ZM148.22 139.9C148.22 140.604 148.383 141.168 148.707 141.594C149.035 142.02 149.472 142.232 150.019 142.232C150.57 142.232 151.008 142.018 151.332 141.588C151.656 141.154 151.818 140.549 151.818 139.771C151.818 139.076 151.652 138.514 151.32 138.084C150.992 137.65 150.554 137.434 150.008 137.434C149.472 137.434 149.041 137.646 148.713 138.072C148.384 138.498 148.22 139.107 148.22 139.9ZM156.09 141.412L157.566 136.66H158.726L156.178 143.979C155.783 145.033 155.156 145.561 154.297 145.561L154.092 145.543L153.687 145.467V144.588L153.98 144.611C154.348 144.611 154.633 144.537 154.836 144.389C155.043 144.24 155.213 143.969 155.346 143.574L155.586 142.93L153.324 136.66H154.508L156.09 141.412ZM163.367 143C163.305 142.875 163.254 142.652 163.215 142.332C162.711 142.855 162.109 143.117 161.41 143.117C160.785 143.117 160.271 142.941 159.869 142.59C159.471 142.234 159.271 141.785 159.271 141.242C159.271 140.582 159.521 140.07 160.021 139.707C160.525 139.34 161.232 139.156 162.143 139.156H163.197V138.658C163.197 138.279 163.084 137.979 162.857 137.756C162.631 137.529 162.297 137.416 161.855 137.416C161.469 137.416 161.145 137.514 160.883 137.709C160.621 137.904 160.49 138.141 160.49 138.418H159.4C159.4 138.102 159.512 137.797 159.734 137.504C159.961 137.207 160.266 136.973 160.648 136.801C161.035 136.629 161.459 136.543 161.92 136.543C162.65 136.543 163.223 136.727 163.637 137.094C164.051 137.457 164.266 137.959 164.281 138.6V141.518C164.281 142.1 164.355 142.562 164.504 142.906V143H163.367ZM161.568 142.174C161.908 142.174 162.23 142.086 162.535 141.91C162.84 141.734 163.061 141.506 163.197 141.225V139.924H162.348C161.02 139.924 160.355 140.312 160.355 141.09C160.355 141.43 160.469 141.695 160.695 141.887C160.922 142.078 161.213 142.174 161.568 142.174ZM168.893 137.633C168.729 137.605 168.551 137.592 168.36 137.592C167.649 137.592 167.166 137.895 166.912 138.5V143H165.828V136.66H166.883L166.901 137.393C167.256 136.826 167.76 136.543 168.412 136.543C168.623 136.543 168.783 136.57 168.893 136.625V137.633ZM171.506 135.125V136.66H172.69V137.498H171.506V141.43C171.506 141.684 171.559 141.875 171.664 142.004C171.77 142.129 171.949 142.191 172.203 142.191C172.328 142.191 172.5 142.168 172.719 142.121V143C172.434 143.078 172.157 143.117 171.887 143.117C171.403 143.117 171.037 142.971 170.791 142.678C170.545 142.385 170.422 141.969 170.422 141.43V137.498H169.268V136.66H170.422V135.125H171.506ZM176.44 143.117C175.58 143.117 174.881 142.836 174.342 142.273C173.803 141.707 173.534 140.951 173.534 140.006V139.807C173.534 139.178 173.653 138.617 173.891 138.125C174.133 137.629 174.469 137.242 174.899 136.965C175.332 136.684 175.801 136.543 176.305 136.543C177.129 136.543 177.77 136.814 178.227 137.357C178.684 137.9 178.912 138.678 178.912 139.689V140.141H174.618C174.633 140.766 174.815 141.271 175.162 141.658C175.514 142.041 175.959 142.232 176.498 142.232C176.881 142.232 177.205 142.154 177.471 141.998C177.737 141.842 177.969 141.635 178.168 141.377L178.83 141.893C178.299 142.709 177.502 143.117 176.44 143.117ZM176.305 137.434C175.868 137.434 175.5 137.594 175.204 137.914C174.907 138.23 174.723 138.676 174.653 139.25H177.829V139.168C177.797 138.617 177.649 138.191 177.383 137.891C177.118 137.586 176.758 137.434 176.305 137.434ZM180.043 142.432C180.043 142.244 180.098 142.088 180.208 141.963C180.321 141.838 180.489 141.775 180.711 141.775C180.934 141.775 181.102 141.838 181.215 141.963C181.333 142.088 181.391 142.244 181.391 142.432C181.391 142.611 181.333 142.762 181.215 142.883C181.102 143.004 180.934 143.064 180.711 143.064C180.489 143.064 180.321 143.004 180.208 142.883C180.098 142.762 180.043 142.611 180.043 142.432Z" fill="#858585"/>
<rect x="97" y="163" width="121" height="30" rx="15" fill="#4D3D6C"/>
<path d="M119.801 177.8H118.4V180.923H116.643V172.392H119.812C120.82 172.392 121.598 172.616 122.145 173.066C122.691 173.515 122.965 174.15 122.965 174.97C122.965 175.552 122.838 176.038 122.584 176.429C122.334 176.816 121.953 177.124 121.441 177.355L123.287 180.841V180.923H121.4L119.801 177.8ZM118.4 176.376H119.818C120.26 176.376 120.602 176.265 120.844 176.042C121.086 175.816 121.207 175.505 121.207 175.111C121.207 174.708 121.092 174.392 120.861 174.161C120.635 173.931 120.285 173.816 119.812 173.816H118.4V176.376ZM129.439 177.226H126.064V179.511H130.025V180.923H124.307V172.392H130.014V173.816H126.064V175.849H129.439V177.226ZM132.814 177.917V180.923H131.057V172.392H134.385C135.025 172.392 135.588 172.509 136.072 172.743C136.561 172.978 136.936 173.312 137.197 173.745C137.459 174.175 137.59 174.665 137.59 175.216C137.59 176.052 137.303 176.712 136.729 177.197C136.158 177.677 135.367 177.917 134.355 177.917H132.814ZM132.814 176.493H134.385C134.85 176.493 135.203 176.384 135.445 176.165C135.691 175.947 135.814 175.634 135.814 175.228C135.814 174.81 135.691 174.472 135.445 174.214C135.199 173.956 134.859 173.823 134.426 173.816H132.814V176.493ZM145.811 176.851C145.811 177.691 145.662 178.427 145.365 179.06C145.068 179.693 144.643 180.181 144.088 180.525C143.537 180.868 142.904 181.04 142.189 181.04C141.482 181.04 140.852 180.87 140.297 180.531C139.742 180.191 139.312 179.706 139.008 179.077C138.703 178.445 138.549 177.718 138.545 176.898V176.476C138.545 175.636 138.695 174.898 138.996 174.261C139.301 173.62 139.729 173.13 140.279 172.79C140.834 172.447 141.467 172.275 142.178 172.275C142.889 172.275 143.52 172.447 144.07 172.79C144.625 173.13 145.053 173.62 145.354 174.261C145.658 174.898 145.811 175.634 145.811 176.47V176.851ZM144.029 176.464C144.029 175.57 143.869 174.89 143.549 174.425C143.229 173.96 142.771 173.728 142.178 173.728C141.588 173.728 141.133 173.958 140.812 174.419C140.492 174.876 140.33 175.548 140.326 176.435V176.851C140.326 177.722 140.486 178.398 140.807 178.878C141.127 179.359 141.588 179.599 142.189 179.599C142.779 179.599 143.232 179.368 143.549 178.907C143.865 178.443 144.025 177.767 144.029 176.88V176.464ZM150.246 177.8H148.846V180.923H147.088V172.392H150.258C151.266 172.392 152.043 172.616 152.59 173.066C153.137 173.515 153.41 174.15 153.41 174.97C153.41 175.552 153.283 176.038 153.029 176.429C152.779 176.816 152.398 177.124 151.887 177.355L153.732 180.841V180.923H151.846L150.246 177.8ZM148.846 176.376H150.264C150.705 176.376 151.047 176.265 151.289 176.042C151.531 175.816 151.652 175.505 151.652 175.111C151.652 174.708 151.537 174.392 151.307 174.161C151.08 173.931 150.73 173.816 150.258 173.816H148.846V176.376ZM160.881 173.816H158.268V180.923H156.51V173.816H153.932V172.392H160.881V173.816ZM166.002 179.165H162.92L162.334 180.923H160.465L163.641 172.392H165.27L168.463 180.923H166.594L166.002 179.165ZM163.395 177.741H165.527L164.455 174.548L163.395 177.741ZM177.064 179.165H173.982L173.396 180.923H171.527L174.703 172.392H176.332L179.525 180.923H177.656L177.064 179.165ZM174.457 177.741H176.59L175.518 174.548L174.457 177.741ZM187.189 176.851C187.189 177.648 187.061 178.341 186.803 178.931C186.545 179.517 186.188 179.988 185.73 180.343L187.148 181.456L186.029 182.447L184.213 180.988C184.006 181.023 183.791 181.04 183.568 181.04C182.861 181.04 182.23 180.87 181.676 180.531C181.121 180.191 180.691 179.706 180.387 179.077C180.082 178.445 179.928 177.718 179.924 176.898V176.476C179.924 175.636 180.074 174.898 180.375 174.261C180.68 173.62 181.107 173.13 181.658 172.79C182.213 172.447 182.846 172.275 183.557 172.275C184.268 172.275 184.898 172.447 185.449 172.79C186.004 173.13 186.432 173.62 186.732 174.261C187.037 174.898 187.189 175.634 187.189 176.47V176.851ZM185.408 176.464C185.408 175.57 185.248 174.89 184.928 174.425C184.607 173.96 184.15 173.728 183.557 173.728C182.967 173.728 182.512 173.958 182.191 174.419C181.871 174.876 181.709 175.548 181.705 176.435V176.851C181.705 177.722 181.865 178.398 182.186 178.878C182.506 179.359 182.967 179.599 183.568 179.599C184.158 179.599 184.611 179.368 184.928 178.907C185.244 178.443 185.404 177.767 185.408 176.88V176.464ZM194.936 172.392V178.011C194.936 178.945 194.643 179.683 194.057 180.226C193.475 180.769 192.678 181.04 191.666 181.04C190.67 181.04 189.879 180.777 189.293 180.249C188.707 179.722 188.408 178.997 188.396 178.075V172.392H190.154V178.023C190.154 178.581 190.287 178.989 190.553 179.247C190.822 179.501 191.193 179.628 191.666 179.628C192.654 179.628 193.156 179.109 193.172 178.07V172.392H194.936ZM198.246 180.923H196.488V172.392H198.246V180.923ZM197.701 170.089H199.547L197.924 171.906H196.547L197.701 170.089Z" fill="white"/>
<path d="M125.75 30C126.701 31.6881 127.796 33.2335 129.128 34.565C131.649 37.109 134.67 38.6782 138.119 39.4628C140.379 39.9858 142.663 40.4138 144.922 40.9606C147.325 41.5313 149.609 42.4347 151.559 44.0277C153.486 45.5969 154.651 47.5703 154.865 50.0668C154.961 51.1367 154.889 52.2066 154.889 53.2289C154.414 53.0387 153.962 52.7534 153.462 52.6345C152.439 52.3968 151.511 52.7296 150.584 53.1338C149.704 53.4905 148.8 53.8233 147.896 54.1324C147.706 54.2037 147.491 54.18 147.277 54.1324C149.038 52.373 151.178 51.4458 153.676 51.208C153.843 50.3521 153.7 49.4961 153.462 48.6878C152.701 46.0011 150.941 44.2179 148.3 43.4095C145.612 42.5774 142.877 41.8166 140.141 41.0557C137.763 40.39 135.384 39.7243 133.005 39.0586C132.886 39.0348 132.767 39.011 132.648 38.9872C132.624 39.0348 132.601 39.1061 132.577 39.1537C133.481 39.5816 134.361 40.1523 135.312 40.4376C138.452 41.4124 141.616 42.2921 144.78 43.1956C144.922 43.2431 145.065 43.2669 145.184 43.3858C144.589 43.362 143.971 43.3144 143.376 43.2907C142.758 43.2431 142.139 43.2431 141.521 43.1718C139.713 42.9578 137.929 42.6012 136.193 42.0305C132.506 40.7704 129.485 38.6306 127.415 35.2782C126.511 33.8041 125.988 32.1874 125.75 30.4755C125.75 30.3091 125.75 30.1664 125.75 30Z" fill="#4D3D6C"/>
<path d="M127.82 40.5088C129.413 41.1746 130.936 41.8641 132.506 42.4347C135.336 43.4808 138.262 44.1703 141.259 44.4794C142.235 44.5745 143.21 44.6458 144.185 44.7647C144.899 44.8598 145.708 45.4304 145.589 46.1912C144.923 46.2388 144.28 46.2864 143.614 46.2864C140.784 46.3577 137.977 46.2864 135.217 45.5018C132.315 44.6696 129.794 43.2193 127.986 40.7228C127.915 40.6753 127.867 40.6039 127.82 40.5088Z" fill="#4D3D6C"/>
<path d="M129.937 46.2151C131.364 46.548 132.696 46.9046 134.028 47.1424C136.478 47.5941 138.928 47.7605 141.426 47.6417C142.924 47.5703 144.447 47.3801 145.945 47.8081C146.04 47.8319 146.136 47.8556 146.231 47.9032C146.278 47.927 146.302 47.9507 146.373 48.0221C146.302 48.3787 146.017 48.4263 145.731 48.4976C142.758 49.1633 139.737 49.3297 136.692 49.1158C135.265 48.9969 133.838 48.8542 132.506 48.3074C131.435 47.8556 130.507 47.285 129.937 46.2151Z" fill="#4D3D6C"/>
<path d="M133.909 50.0193C135.098 50.1619 136.216 50.3759 137.358 50.3997C139 50.4472 140.641 50.4235 142.282 50.3046C143.828 50.2095 145.374 49.9479 146.921 49.8053C147.254 49.7815 147.61 49.9242 147.967 49.9955C147.967 50.043 147.991 50.0906 147.991 50.1382C147.515 50.3046 147.04 50.5423 146.54 50.6612C144.994 50.9941 143.448 51.3032 141.902 51.5409C140.736 51.7074 139.547 51.8262 138.357 51.8262C136.859 51.8262 135.455 51.4696 134.29 50.4472C134.195 50.3759 134.123 50.2808 134.052 50.2095C134.004 50.1382 133.957 50.0906 133.909 50.0193Z" fill="#4D3D6C"/>
<path d="M139.642 52.7295C140.236 52.6582 140.855 52.5393 141.45 52.5393C143.234 52.5631 144.946 52.3729 146.635 51.826C147.277 51.612 147.896 51.3267 148.538 51.089C148.966 50.9463 149.394 50.7799 149.87 51.1365C149.799 51.2316 149.751 51.303 149.68 51.3505C148.015 52.3491 146.326 53.2763 144.375 53.633C142.71 53.9421 141.117 53.7756 139.642 52.9435C139.666 52.8722 139.666 52.8008 139.642 52.7295Z" fill="#4D3D6C"/>
<path d="M189.26 30C188.308 31.6881 187.214 33.2335 185.882 34.565C183.361 37.109 180.34 38.6782 176.89 39.4628C174.631 39.9858 172.347 40.4138 170.087 40.9606C167.685 41.5313 165.401 42.4347 163.451 44.0277C161.524 45.5969 160.358 47.5703 160.144 50.0668C160.049 51.1367 160.121 52.2066 160.121 53.2289C160.596 53.0387 161.048 52.7534 161.548 52.6345C162.571 52.3968 163.498 52.7296 164.426 53.1338C165.306 53.4905 166.21 53.8233 167.114 54.1324C167.304 54.2037 167.518 54.18 167.732 54.1324C165.972 52.373 163.831 51.4458 161.334 51.208C161.167 50.3521 161.31 49.4961 161.548 48.6878C162.309 46.0011 164.069 44.2179 166.71 43.4095C169.397 42.5774 172.133 41.8166 174.869 41.0557C177.247 40.39 179.626 39.7243 182.005 39.0586C182.124 39.0348 182.243 39.011 182.361 38.9872C182.385 39.0348 182.409 39.1061 182.433 39.1537C181.529 39.5816 180.649 40.1523 179.697 40.4376C176.557 41.4124 173.394 42.2921 170.23 43.1956C170.087 43.2431 169.945 43.2669 169.826 43.3858C170.42 43.362 171.039 43.3144 171.633 43.2907C172.252 43.2431 172.87 43.2431 173.489 43.1718C175.297 42.9578 177.081 42.6012 178.817 42.0305C182.504 40.7704 185.525 38.6306 187.595 35.2782C188.499 33.8041 189.022 32.1874 189.26 30.4755C189.26 30.3091 189.26 30.1664 189.26 30Z" fill="#4D3D6C"/>
<path d="M187.19 40.5088C185.596 41.1746 184.074 41.8641 182.504 42.4347C179.673 43.4808 176.748 44.1703 173.75 44.4794C172.775 44.5745 171.8 44.6458 170.825 44.7647C170.111 44.8598 169.302 45.4304 169.421 46.1912C170.087 46.2388 170.729 46.2864 171.395 46.2864C174.226 46.3577 177.033 46.2864 179.792 45.5018C182.694 44.6696 185.216 43.2193 187.024 40.7228C187.095 40.6753 187.142 40.6039 187.19 40.5088Z" fill="#4D3D6C"/>
<path d="M185.073 46.2151C183.646 46.548 182.314 46.9046 180.982 47.1424C178.532 47.5941 176.081 47.7605 173.584 47.6417C172.085 47.5703 170.563 47.3801 169.064 47.8081C168.969 47.8319 168.874 47.8556 168.779 47.9032C168.731 47.927 168.707 47.9507 168.636 48.0221C168.707 48.3787 168.993 48.4263 169.278 48.4976C172.252 49.1633 175.273 49.3297 178.317 49.1158C179.745 48.9969 181.172 48.8542 182.504 48.3074C183.574 47.8556 184.502 47.285 185.073 46.2151Z" fill="#4D3D6C"/>
<path d="M181.101 50.0193C179.911 50.1619 178.793 50.3759 177.651 50.3997C176.01 50.4472 174.369 50.4235 172.728 50.3046C171.181 50.2095 169.635 49.9479 168.089 49.8053C167.756 49.7815 167.399 49.9242 167.042 49.9955C167.042 50.043 167.019 50.0906 167.019 50.1382C167.494 50.3046 167.97 50.5423 168.47 50.6612C170.016 50.9941 171.562 51.3032 173.108 51.5409C174.274 51.7074 175.463 51.8262 176.652 51.8262C178.151 51.8262 179.554 51.4696 180.72 50.4472C180.815 50.3759 180.887 50.2808 180.958 50.2095C181.005 50.1382 181.053 50.0906 181.101 50.0193Z" fill="#4D3D6C"/>
<path d="M175.368 52.7295C174.773 52.6582 174.155 52.5393 173.56 52.5393C171.776 52.5631 170.063 52.3729 168.374 51.826C167.732 51.612 167.114 51.3267 166.472 51.089C166.043 50.9463 165.615 50.7799 165.139 51.1365C165.211 51.2316 165.258 51.303 165.33 51.3505C166.995 52.3491 168.684 53.2763 170.634 53.633C172.299 53.9421 173.893 53.7756 175.368 52.9435C175.344 52.8722 175.344 52.8008 175.368 52.7295Z" fill="#4D3D6C"/>
<path d="M141.684 66.5956C141.684 68.004 141.684 69.1521 141.761 69.7644C141.807 70.1931 141.899 70.5146 142.327 70.5758C142.526 70.6064 142.848 70.637 142.986 70.637C143.078 70.637 143.108 70.683 143.108 70.7289C143.108 70.8054 143.032 70.8513 142.879 70.8513C142.067 70.8513 141.148 70.8054 141.087 70.8054C141.01 70.8054 140.091 70.8513 139.647 70.8513C139.479 70.8513 139.417 70.8207 139.417 70.7289C139.417 70.683 139.448 70.637 139.54 70.637C139.678 70.637 139.846 70.6064 139.984 70.5758C140.275 70.5146 140.352 70.1931 140.413 69.7644C140.489 69.1521 140.489 67.9887 140.489 66.5956V60.411L138.33 60.4416C137.426 60.4569 137.074 60.5641 136.844 60.9162C136.676 61.1611 136.645 61.2683 136.599 61.3754C136.553 61.4979 136.507 61.5285 136.446 61.5285C136.4 61.5285 136.37 61.4826 136.37 61.3907C136.37 61.2376 136.661 59.9823 136.691 59.8752C136.722 59.7833 136.783 59.5996 136.844 59.5996C136.952 59.5996 137.089 59.7527 137.488 59.768C137.916 59.814 138.468 59.8446 138.636 59.8446H144.089C144.563 59.8446 144.9 59.814 145.13 59.768C145.345 59.7374 145.482 59.6915 145.544 59.6915C145.62 59.6915 145.62 59.7833 145.62 59.8599C145.62 60.3038 145.574 61.3142 145.574 61.4673C145.574 61.605 145.528 61.651 145.467 61.651C145.39 61.651 145.36 61.605 145.345 61.406L145.329 61.2376C145.283 60.7937 144.931 60.4569 143.537 60.4263L141.699 60.3957V66.5956H141.684Z" fill="#4D3D6C"/>
<path d="M148.515 64.9577C148.515 62.9829 148.515 62.6308 148.484 62.2328C148.454 61.8041 148.362 61.6051 147.933 61.5133C147.826 61.4827 147.611 61.4827 147.504 61.4827C147.458 61.4827 147.397 61.452 147.397 61.4061C147.397 61.3296 147.458 61.299 147.596 61.299C148.163 61.299 148.959 61.3296 149.02 61.3296C149.158 61.3296 150.123 61.299 150.506 61.299C151.302 61.299 152.145 61.3755 152.819 61.8501C153.14 62.0797 153.692 62.692 153.692 63.5646C153.692 64.4984 153.293 65.4322 152.16 66.4885C153.202 67.8204 154.059 68.9379 154.794 69.7186C155.484 70.4381 156.02 70.5759 156.341 70.6218C156.586 70.6524 156.755 70.6524 156.831 70.6524C156.893 70.6524 156.939 70.683 156.939 70.729C156.939 70.8055 156.862 70.8361 156.632 70.8361H155.729C155.024 70.8361 154.702 70.7749 154.381 70.5912C153.829 70.3003 153.401 69.688 152.681 68.7389C152.145 68.05 151.563 67.1927 151.302 66.8712C151.256 66.8253 151.21 66.7947 151.134 66.7947L149.572 66.7641C149.51 66.7641 149.48 66.7947 149.48 66.8712V67.1774C149.48 68.3868 149.48 69.3971 149.541 69.9176C149.572 70.285 149.648 70.5606 150.031 70.6065C150.215 70.6371 150.491 70.6524 150.598 70.6524C150.674 70.6524 150.705 70.683 150.705 70.729C150.705 70.7902 150.644 70.8361 150.506 70.8361C149.817 70.8361 149.02 70.8055 148.944 70.8055C148.928 70.8055 148.132 70.8361 147.749 70.8361C147.611 70.8361 147.55 70.8055 147.55 70.729C147.55 70.6984 147.581 70.6524 147.657 70.6524C147.764 70.6524 147.918 70.6218 148.04 70.6065C148.3 70.5606 148.362 70.285 148.408 69.9176C148.469 69.3818 148.469 68.3868 148.469 67.1774V64.9577H148.515ZM149.526 66.0599C149.526 66.1211 149.556 66.1671 149.618 66.213C149.801 66.3201 150.383 66.412 150.95 66.412C151.256 66.412 151.609 66.3814 151.9 66.1671C152.344 65.8609 152.665 65.1873 152.665 64.2229C152.665 62.6461 151.838 61.697 150.475 61.697C150.092 61.697 149.755 61.7276 149.633 61.7735C149.572 61.8041 149.526 61.8501 149.526 61.9266V66.0599Z" fill="#4D3D6C"/>
<path d="M159.113 67.1774C159.113 68.3868 159.113 69.3971 159.175 69.9176C159.205 70.285 159.282 70.5606 159.665 70.6065C159.849 70.6371 160.124 70.6524 160.232 70.6524C160.308 70.6524 160.339 70.683 160.339 70.729C160.339 70.7902 160.277 70.8361 160.14 70.8361C159.45 70.8361 158.654 70.8055 158.577 70.8055C158.516 70.8055 157.72 70.8361 157.337 70.8361C157.199 70.8361 157.138 70.8055 157.138 70.729C157.138 70.6984 157.168 70.6524 157.245 70.6524C157.352 70.6524 157.505 70.6218 157.628 70.6065C157.888 70.5606 157.949 70.285 157.995 69.9176C158.057 69.3818 158.057 68.3868 158.057 67.1774V64.9577C158.057 62.9829 158.057 62.6308 158.026 62.2328C157.995 61.8041 157.873 61.5898 157.597 61.5286C157.459 61.498 157.291 61.4827 157.199 61.4827C157.153 61.4827 157.092 61.452 157.092 61.4061C157.092 61.3296 157.153 61.299 157.291 61.299C157.704 61.299 158.501 61.3296 158.562 61.3296C158.623 61.3296 159.42 61.299 159.803 61.299C159.941 61.299 160.002 61.3296 160.002 61.4061C160.002 61.452 159.956 61.4827 159.895 61.4827C159.803 61.4827 159.726 61.498 159.573 61.5133C159.236 61.5745 159.129 61.7888 159.098 62.2328C159.068 62.6308 159.068 62.9982 159.068 64.9577V67.1774H159.113Z" fill="#4D3D6C"/>
<path d="M163.953 69.1368C163.984 70.1778 164.106 70.4993 164.443 70.6064C164.688 70.6676 164.964 70.683 165.071 70.683C165.133 70.683 165.179 70.7136 165.179 70.7595C165.179 70.836 165.102 70.8667 164.949 70.8667C164.229 70.8667 163.724 70.836 163.601 70.836C163.494 70.836 162.958 70.8667 162.391 70.8667C162.269 70.8667 162.192 70.8513 162.192 70.7595C162.192 70.7136 162.223 70.683 162.299 70.683C162.406 70.683 162.621 70.6676 162.82 70.6064C163.142 70.5146 163.203 70.1472 163.203 68.999L163.218 61.7581C163.218 61.2683 163.249 61.1305 163.356 61.1305C163.463 61.1305 163.678 61.406 163.8 61.5285C163.984 61.7428 165.868 63.7788 167.828 65.8608C169.084 67.2079 170.463 68.7388 170.861 69.1674L170.723 62.7532C170.708 61.9265 170.616 61.651 170.233 61.5591C170.003 61.5132 169.712 61.4979 169.62 61.4979C169.528 61.4979 169.513 61.4673 169.513 61.406C169.513 61.3295 169.62 61.3142 169.773 61.3142C170.34 61.3142 170.953 61.3448 171.09 61.3448C171.228 61.3448 171.642 61.3142 172.163 61.3142C172.3 61.3142 172.392 61.3295 172.392 61.406C172.392 61.452 172.346 61.4979 172.254 61.4979C172.193 61.4979 172.101 61.4979 171.948 61.5285C171.535 61.6203 171.473 61.8959 171.473 62.6613L171.443 70.0706C171.443 70.9126 171.412 70.9738 171.336 70.9738C171.228 70.9738 171.075 70.836 170.417 70.1625C170.279 70.04 168.456 68.1724 167.108 66.7334C165.638 65.1566 164.214 63.5645 163.8 63.1053L163.953 69.1368Z" fill="#4D3D6C"/>
<path d="M176.65 67.1774C176.65 68.3868 176.65 69.3971 176.711 69.9176C176.742 70.285 176.818 70.5606 177.201 70.6065C177.385 70.6371 177.661 70.6524 177.768 70.6524C177.845 70.6524 177.875 70.683 177.875 70.729C177.875 70.7902 177.814 70.8361 177.676 70.8361C176.987 70.8361 176.191 70.8055 176.114 70.8055C176.053 70.8055 175.256 70.8361 174.873 70.8361C174.736 70.8361 174.674 70.8055 174.674 70.729C174.674 70.6984 174.705 70.6524 174.781 70.6524C174.889 70.6524 175.042 70.6218 175.164 70.6065C175.425 70.5606 175.486 70.285 175.532 69.9176C175.593 69.3818 175.593 68.3868 175.593 67.1774V64.9577C175.593 62.9829 175.593 62.6308 175.563 62.2328C175.532 61.8041 175.409 61.5898 175.134 61.5286C174.996 61.498 174.827 61.4827 174.736 61.4827C174.69 61.4827 174.628 61.452 174.628 61.4061C174.628 61.3296 174.69 61.299 174.827 61.299C175.241 61.299 176.037 61.3296 176.099 61.3296C176.16 61.3296 176.956 61.299 177.339 61.299C177.477 61.299 177.538 61.3296 177.538 61.4061C177.538 61.452 177.492 61.4827 177.431 61.4827C177.339 61.4827 177.263 61.498 177.109 61.5133C176.772 61.5745 176.665 61.7888 176.635 62.2328C176.604 62.6308 176.604 62.9982 176.604 64.9577V67.1774H176.65Z" fill="#4D3D6C"/>
</g>
<defs>
<filter id="filter0_d" x="0" y="0" width="308" height="228" filterUnits="userSpaceOnUse" color-interpolation-filters="sRGB">
<feFlood flood-opacity="0" result="BackgroundImageFix"/>
<feColorMatrix in="SourceAlpha" type="matrix" values="0 0 0 0 0 0 0 0 0 0 0 0 0 0 0 0 0 0 127 0"/>
<feOffset dx="-4" dy="4"/>
<feGaussianBlur stdDeviation="2"/>
<feColorMatrix type="matrix" values="0 0 0 0 0 0 0 0 0 0 0 0 0 0 0 0 0 0 0.05 0"/>
<feBlend mode="normal" in2="BackgroundImageFix" result="effect1_dropShadow"/>
<feBlend mode="normal" in="SourceGraphic" in2="effect1_dropShadow" result="shape"/>
</filter>
</defs>
</svg>
