<svg width="308" height="228" viewBox="0 0 308 228" fill="none" xmlns="http://www.w3.org/2000/svg">
<g filter="url(#filter0_d)">
<rect x="8.5" y="0.5" width="299" height="219" rx="9.5" fill="white" stroke="#EDEEED"/>
<path d="M125.716 97.6797C125.521 99.4766 124.876 100.852 123.783 101.805C122.697 102.758 121.248 103.234 119.435 103.234C118.169 103.234 117.048 102.918 116.072 102.285C115.103 101.652 114.353 100.758 113.822 99.6016C113.291 98.4375 113.021 97.1094 113.013 95.6172V93.4023C113.013 91.8867 113.279 90.543 113.81 89.3711C114.341 88.1992 115.103 87.2969 116.095 86.6641C117.095 86.0234 118.244 85.7031 119.541 85.7031C121.369 85.7031 122.81 86.1992 123.865 87.1914C124.927 88.1758 125.544 89.5391 125.716 91.2812H124.263C123.904 88.3828 122.33 86.9336 119.541 86.9336C117.994 86.9336 116.759 87.5117 115.837 88.668C114.923 89.8242 114.466 91.4219 114.466 93.4609V95.5469C114.466 97.5156 114.912 99.0859 115.802 100.258C116.701 101.43 117.912 102.016 119.435 102.016C120.943 102.016 122.08 101.656 122.845 100.938C123.611 100.211 124.084 99.125 124.263 97.6797H125.716ZM130.134 92.4648C130.595 91.707 131.185 91.1211 131.904 90.707C132.623 90.293 133.408 90.0859 134.259 90.0859C135.619 90.0859 136.631 90.4688 137.295 91.2344C137.959 92 138.295 93.1484 138.302 94.6797V103H136.908V94.668C136.9 93.5352 136.658 92.6914 136.181 92.1367C135.713 91.582 134.959 91.3047 133.92 91.3047C133.052 91.3047 132.283 91.5781 131.611 92.125C130.947 92.6641 130.455 93.3945 130.134 94.3164V103H128.74V85H130.134V92.4648ZM149.763 103C149.623 102.602 149.533 102.012 149.494 101.23C149.002 101.871 148.373 102.367 147.607 102.719C146.849 103.062 146.045 103.234 145.193 103.234C143.974 103.234 142.986 102.895 142.228 102.215C141.478 101.535 141.103 100.676 141.103 99.6367C141.103 98.4023 141.615 97.4258 142.638 96.707C143.67 95.9883 145.103 95.6289 146.939 95.6289H149.482V94.1875C149.482 93.2812 149.201 92.5703 148.638 92.0547C148.084 91.5312 147.271 91.2695 146.201 91.2695C145.224 91.2695 144.416 91.5195 143.775 92.0195C143.135 92.5195 142.814 93.1211 142.814 93.8242L141.408 93.8125C141.408 92.8047 141.877 91.9336 142.814 91.1992C143.752 90.457 144.904 90.0859 146.271 90.0859C147.685 90.0859 148.799 90.4414 149.611 91.1523C150.431 91.8555 150.853 92.8398 150.877 94.1055V100.105C150.877 101.332 151.006 102.25 151.263 102.859V103H149.763ZM145.357 101.992C146.295 101.992 147.131 101.766 147.865 101.312C148.607 100.859 149.146 100.254 149.482 99.4961V96.707H146.974C145.576 96.7227 144.482 96.9805 143.693 97.4805C142.904 97.9727 142.51 98.6523 142.51 99.5195C142.51 100.23 142.771 100.82 143.295 101.289C143.826 101.758 144.513 101.992 145.357 101.992ZM156.654 87.0742V90.3203H159.279V91.4688H156.654V99.918C156.654 100.621 156.779 101.145 157.029 101.488C157.287 101.832 157.713 102.004 158.307 102.004C158.541 102.004 158.92 101.965 159.443 101.887L159.502 103.035C159.135 103.168 158.635 103.234 158.002 103.234C157.041 103.234 156.342 102.957 155.904 102.402C155.467 101.84 155.248 101.016 155.248 99.9297V91.4688H152.916V90.3203H155.248V87.0742H156.654ZM174.022 103H172.615V87.625L167.975 89.3477V88.0352L173.787 85.8789H174.022V103ZM190.944 95.8867C190.944 98.293 190.502 100.121 189.619 101.371C188.737 102.613 187.436 103.234 185.717 103.234C184.03 103.234 182.737 102.625 181.838 101.406C180.94 100.18 180.479 98.3984 180.455 96.0625V93.0039C180.455 90.6055 180.901 88.7891 181.791 87.5547C182.682 86.3203 183.983 85.7031 185.694 85.7031C187.381 85.7031 188.67 86.3008 189.561 87.4961C190.451 88.6836 190.912 90.4375 190.944 92.7578V95.8867ZM189.537 92.8281C189.537 90.875 189.217 89.3984 188.576 88.3984C187.944 87.3984 186.983 86.8984 185.694 86.8984C184.428 86.8984 183.475 87.3867 182.834 88.3633C182.194 89.3398 181.866 90.7812 181.85 92.6875V96.0391C181.85 97.9844 182.178 99.4727 182.834 100.504C183.498 101.535 184.459 102.051 185.717 102.051C186.967 102.051 187.912 101.547 188.553 100.539C189.201 99.5312 189.53 98.0547 189.537 96.1094V92.8281ZM204.104 95.8867C204.104 98.293 203.663 100.121 202.78 101.371C201.897 102.613 200.596 103.234 198.877 103.234C197.19 103.234 195.897 102.625 194.999 101.406C194.1 100.18 193.639 98.3984 193.616 96.0625V93.0039C193.616 90.6055 194.061 88.7891 194.952 87.5547C195.842 86.3203 197.143 85.7031 198.854 85.7031C200.541 85.7031 201.831 86.3008 202.721 87.4961C203.612 88.6836 204.073 90.4375 204.104 92.7578V95.8867ZM202.698 92.8281C202.698 90.875 202.377 89.3984 201.737 88.3984C201.104 87.3984 200.143 86.8984 198.854 86.8984C197.588 86.8984 196.635 87.3867 195.995 88.3633C195.354 89.3398 195.026 90.7812 195.01 92.6875V96.0391C195.01 97.9844 195.338 99.4727 195.995 100.504C196.659 101.535 197.62 102.051 198.877 102.051C200.127 102.051 201.073 101.547 201.713 100.539C202.362 99.5312 202.69 98.0547 202.698 96.1094V92.8281Z" fill="#4D3D6C"/>
<path d="M86.7676 126.293C86.6622 127.195 86.3282 127.893 85.7657 128.385C85.2071 128.873 84.4629 129.117 83.5333 129.117C82.5254 129.117 81.7169 128.756 81.1075 128.033C80.502 127.311 80.1993 126.344 80.1993 125.133V124.312C80.1993 123.52 80.3399 122.822 80.6211 122.221C80.9063 121.619 81.3086 121.158 81.8282 120.838C82.3477 120.514 82.9493 120.352 83.6329 120.352C84.5391 120.352 85.2657 120.605 85.8126 121.113C86.3594 121.617 86.6778 122.316 86.7676 123.211H85.6368C85.5391 122.531 85.3262 122.039 84.9981 121.734C84.6739 121.43 84.2188 121.277 83.6329 121.277C82.9141 121.277 82.3497 121.543 81.9395 122.074C81.5333 122.605 81.3301 123.361 81.3301 124.342V125.168C81.3301 126.094 81.5235 126.83 81.9102 127.377C82.2969 127.924 82.8379 128.197 83.5333 128.197C84.1583 128.197 84.6368 128.057 84.9688 127.775C85.3047 127.49 85.5274 126.996 85.6368 126.293H86.7676ZM89.0705 123.428C89.551 122.838 90.176 122.543 90.9455 122.543C92.2853 122.543 92.9611 123.299 92.9728 124.811V129H91.8889V124.805C91.885 124.348 91.7795 124.01 91.5725 123.791C91.3693 123.572 91.051 123.463 90.6174 123.463C90.2658 123.463 89.9572 123.557 89.6916 123.744C89.426 123.932 89.2189 124.178 89.0705 124.482V129H87.9865V120H89.0705V123.428ZM98.3577 129C98.2952 128.875 98.2445 128.652 98.2054 128.332C97.7015 128.855 97.0999 129.117 96.4007 129.117C95.7757 129.117 95.262 128.941 94.8597 128.59C94.4613 128.234 94.262 127.785 94.262 127.242C94.262 126.582 94.512 126.07 95.012 125.707C95.5159 125.34 96.223 125.156 97.1331 125.156H98.1878V124.658C98.1878 124.279 98.0745 123.979 97.848 123.756C97.6214 123.529 97.2874 123.416 96.846 123.416C96.4593 123.416 96.1351 123.514 95.8734 123.709C95.6116 123.904 95.4808 124.141 95.4808 124.418H94.3909C94.3909 124.102 94.5023 123.797 94.7249 123.504C94.9515 123.207 95.2562 122.973 95.639 122.801C96.0257 122.629 96.4495 122.543 96.9105 122.543C97.6409 122.543 98.2132 122.727 98.6273 123.094C99.0413 123.457 99.2562 123.959 99.2718 124.6V127.518C99.2718 128.1 99.346 128.562 99.4945 128.906V129H98.3577ZM96.5589 128.174C96.8988 128.174 97.221 128.086 97.5257 127.91C97.8304 127.734 98.0511 127.506 98.1878 127.225V125.924H97.3382C96.0101 125.924 95.346 126.312 95.346 127.09C95.346 127.43 95.4593 127.695 95.6859 127.887C95.9124 128.078 96.2034 128.174 96.5589 128.174ZM102.29 121.125V122.66H103.473V123.498H102.29V127.43C102.29 127.684 102.342 127.875 102.448 128.004C102.553 128.129 102.733 128.191 102.987 128.191C103.112 128.191 103.284 128.168 103.502 128.121V129C103.217 129.078 102.94 129.117 102.67 129.117C102.186 129.117 101.821 128.971 101.575 128.678C101.329 128.385 101.206 127.969 101.206 127.43V123.498H100.051V122.66H101.206V121.125H102.29ZM107.223 129.117C106.364 129.117 105.665 128.836 105.126 128.273C104.587 127.707 104.317 126.951 104.317 126.006V125.807C104.317 125.178 104.436 124.617 104.674 124.125C104.917 123.629 105.253 123.242 105.682 122.965C106.116 122.684 106.585 122.543 107.088 122.543C107.913 122.543 108.553 122.814 109.01 123.357C109.467 123.9 109.696 124.678 109.696 125.689V126.141H105.401C105.417 126.766 105.598 127.271 105.946 127.658C106.297 128.041 106.743 128.232 107.282 128.232C107.665 128.232 107.989 128.154 108.254 127.998C108.52 127.842 108.753 127.635 108.952 127.377L109.614 127.893C109.083 128.709 108.286 129.117 107.223 129.117ZM107.088 123.434C106.651 123.434 106.284 123.594 105.987 123.914C105.69 124.23 105.506 124.676 105.436 125.25H108.612V125.168C108.581 124.617 108.432 124.191 108.167 123.891C107.901 123.586 107.542 123.434 107.088 123.434ZM114.718 129C114.655 128.875 114.604 128.652 114.565 128.332C114.061 128.855 113.46 129.117 112.76 129.117C112.135 129.117 111.622 128.941 111.219 128.59C110.821 128.234 110.622 127.785 110.622 127.242C110.622 126.582 110.872 126.07 111.372 125.707C111.876 125.34 112.583 125.156 113.493 125.156H114.548V124.658C114.548 124.279 114.434 123.979 114.208 123.756C113.981 123.529 113.647 123.416 113.206 123.416C112.819 123.416 112.495 123.514 112.233 123.709C111.971 123.904 111.841 124.141 111.841 124.418H110.751C110.751 124.102 110.862 123.797 111.085 123.504C111.311 123.207 111.616 122.973 111.999 122.801C112.385 122.629 112.809 122.543 113.27 122.543C114.001 122.543 114.573 122.727 114.987 123.094C115.401 123.457 115.616 123.959 115.632 124.6V127.518C115.632 128.1 115.706 128.562 115.854 128.906V129H114.718ZM112.919 128.174C113.259 128.174 113.581 128.086 113.885 127.91C114.19 127.734 114.411 127.506 114.548 127.225V125.924H113.698C112.37 125.924 111.706 126.312 111.706 127.09C111.706 127.43 111.819 127.695 112.046 127.887C112.272 128.078 112.563 128.174 112.919 128.174ZM122.546 128.232C122.933 128.232 123.271 128.115 123.56 127.881C123.849 127.646 124.009 127.354 124.04 127.002H125.065C125.046 127.365 124.921 127.711 124.69 128.039C124.46 128.367 124.151 128.629 123.765 128.824C123.382 129.02 122.976 129.117 122.546 129.117C121.683 129.117 120.995 128.83 120.483 128.256C119.976 127.678 119.722 126.889 119.722 125.889V125.707C119.722 125.09 119.835 124.541 120.062 124.061C120.288 123.58 120.612 123.207 121.034 122.941C121.46 122.676 121.962 122.543 122.54 122.543C123.251 122.543 123.841 122.756 124.31 123.182C124.782 123.607 125.034 124.16 125.065 124.84H124.04C124.009 124.43 123.853 124.094 123.571 123.832C123.294 123.566 122.95 123.434 122.54 123.434C121.989 123.434 121.562 123.633 121.257 124.031C120.956 124.426 120.806 124.998 120.806 125.748V125.953C120.806 126.684 120.956 127.246 121.257 127.641C121.558 128.035 121.987 128.232 122.546 128.232ZM125.845 125.771C125.845 125.15 125.966 124.592 126.208 124.096C126.454 123.6 126.794 123.217 127.228 122.947C127.665 122.678 128.163 122.543 128.722 122.543C129.585 122.543 130.282 122.842 130.814 123.439C131.349 124.037 131.616 124.832 131.616 125.824V125.9C131.616 126.518 131.497 127.072 131.259 127.564C131.025 128.053 130.687 128.434 130.245 128.707C129.808 128.98 129.304 129.117 128.734 129.117C127.874 129.117 127.177 128.818 126.642 128.221C126.11 127.623 125.845 126.832 125.845 125.848V125.771ZM126.935 125.9C126.935 126.604 127.097 127.168 127.421 127.594C127.749 128.02 128.187 128.232 128.734 128.232C129.284 128.232 129.722 128.018 130.046 127.588C130.37 127.154 130.532 126.549 130.532 125.771C130.532 125.076 130.366 124.514 130.034 124.084C129.706 123.65 129.269 123.434 128.722 123.434C128.187 123.434 127.755 123.646 127.427 124.072C127.099 124.498 126.935 125.107 126.935 125.9ZM133.849 122.66L133.884 123.457C134.368 122.848 135.001 122.543 135.782 122.543C137.122 122.543 137.798 123.299 137.81 124.811V129H136.726V124.805C136.722 124.348 136.616 124.01 136.409 123.791C136.206 123.572 135.888 123.463 135.454 123.463C135.103 123.463 134.794 123.557 134.529 123.744C134.263 123.932 134.056 124.178 133.907 124.482V129H132.823V122.66H133.849ZM146.031 128.373C145.609 128.869 144.99 129.117 144.173 129.117C143.498 129.117 142.982 128.922 142.626 128.531C142.275 128.137 142.097 127.555 142.093 126.785V122.66H143.177V126.756C143.177 127.717 143.568 128.197 144.349 128.197C145.177 128.197 145.728 127.889 146.001 127.271V122.66H147.085V129H146.054L146.031 128.373ZM149.611 122.66L149.646 123.457C150.131 122.848 150.763 122.543 151.545 122.543C152.884 122.543 153.56 123.299 153.572 124.811V129H152.488V124.805C152.484 124.348 152.379 124.01 152.172 123.791C151.968 123.572 151.65 123.463 151.216 123.463C150.865 123.463 150.556 123.557 150.291 123.744C150.025 123.932 149.818 124.178 149.67 124.482V129H148.586V122.66H149.611ZM163.234 125.9C163.234 126.865 163.014 127.643 162.572 128.232C162.131 128.822 161.533 129.117 160.779 129.117C160.01 129.117 159.404 128.873 158.963 128.385V131.438H157.879V122.66H158.869L158.922 123.363C159.363 122.816 159.976 122.543 160.762 122.543C161.523 122.543 162.125 122.83 162.566 123.404C163.012 123.979 163.234 124.777 163.234 125.801V125.9ZM162.15 125.777C162.15 125.062 161.998 124.498 161.693 124.084C161.389 123.67 160.971 123.463 160.439 123.463C159.783 123.463 159.291 123.754 158.963 124.336V127.365C159.287 127.943 159.783 128.232 160.451 128.232C160.971 128.232 161.383 128.027 161.687 127.617C161.996 127.203 162.15 126.59 162.15 125.777ZM167.529 123.633C167.365 123.605 167.188 123.592 166.996 123.592C166.285 123.592 165.803 123.895 165.549 124.5V129H164.465V122.66H165.52L165.537 123.393C165.893 122.826 166.397 122.543 167.049 122.543C167.26 122.543 167.42 122.57 167.529 122.625V123.633ZM167.975 125.771C167.975 125.15 168.096 124.592 168.338 124.096C168.584 123.6 168.924 123.217 169.358 122.947C169.795 122.678 170.293 122.543 170.852 122.543C171.715 122.543 172.412 122.842 172.944 123.439C173.479 124.037 173.746 124.832 173.746 125.824V125.9C173.746 126.518 173.627 127.072 173.389 127.564C173.154 128.053 172.817 128.434 172.375 128.707C171.938 128.98 171.434 129.117 170.863 129.117C170.004 129.117 169.307 128.818 168.772 128.221C168.24 127.623 167.975 126.832 167.975 125.848V125.771ZM169.065 125.9C169.065 126.604 169.227 127.168 169.551 127.594C169.879 128.02 170.317 128.232 170.863 128.232C171.414 128.232 171.852 128.018 172.176 127.588C172.5 127.154 172.662 126.549 172.662 125.771C172.662 125.076 172.496 124.514 172.164 124.084C171.836 123.65 171.399 123.434 170.852 123.434C170.317 123.434 169.885 123.646 169.557 124.072C169.229 124.498 169.065 125.107 169.065 125.9ZM175.487 129V123.498H174.485V122.66H175.487V122.01C175.487 121.33 175.668 120.805 176.032 120.434C176.395 120.062 176.909 119.877 177.573 119.877C177.823 119.877 178.071 119.91 178.317 119.977L178.258 120.855C178.075 120.82 177.879 120.803 177.672 120.803C177.321 120.803 177.049 120.906 176.858 121.113C176.666 121.316 176.571 121.609 176.571 121.992V122.66H177.924V123.498H176.571V129H175.487ZM181.463 129.117C180.604 129.117 179.905 128.836 179.366 128.273C178.827 127.707 178.557 126.951 178.557 126.006V125.807C178.557 125.178 178.676 124.617 178.915 124.125C179.157 123.629 179.493 123.242 179.922 122.965C180.356 122.684 180.825 122.543 181.329 122.543C182.153 122.543 182.793 122.814 183.25 123.357C183.707 123.9 183.936 124.678 183.936 125.689V126.141H179.641C179.657 126.766 179.838 127.271 180.186 127.658C180.538 128.041 180.983 128.232 181.522 128.232C181.905 128.232 182.229 128.154 182.495 127.998C182.76 127.842 182.993 127.635 183.192 127.377L183.854 127.893C183.323 128.709 182.526 129.117 181.463 129.117ZM181.329 123.434C180.891 123.434 180.524 123.594 180.227 123.914C179.93 124.23 179.747 124.676 179.676 125.25H182.852V125.168C182.821 124.617 182.672 124.191 182.407 123.891C182.141 123.586 181.782 123.434 181.329 123.434ZM188.735 127.318C188.735 127.025 188.624 126.799 188.401 126.639C188.182 126.475 187.797 126.334 187.247 126.217C186.7 126.1 186.264 125.959 185.94 125.795C185.62 125.631 185.381 125.436 185.225 125.209C185.073 124.982 184.997 124.713 184.997 124.4C184.997 123.881 185.215 123.441 185.653 123.082C186.094 122.723 186.657 122.543 187.34 122.543C188.059 122.543 188.641 122.729 189.087 123.1C189.536 123.471 189.76 123.945 189.76 124.523H188.671C188.671 124.227 188.544 123.971 188.29 123.756C188.04 123.541 187.723 123.434 187.34 123.434C186.946 123.434 186.637 123.52 186.415 123.691C186.192 123.863 186.081 124.088 186.081 124.365C186.081 124.627 186.184 124.824 186.391 124.957C186.598 125.09 186.971 125.217 187.51 125.338C188.053 125.459 188.493 125.604 188.829 125.771C189.165 125.939 189.413 126.143 189.573 126.381C189.737 126.615 189.819 126.902 189.819 127.242C189.819 127.809 189.592 128.264 189.139 128.607C188.686 128.947 188.098 129.117 187.376 129.117C186.868 129.117 186.419 129.027 186.028 128.848C185.637 128.668 185.331 128.418 185.108 128.098C184.889 127.773 184.78 127.424 184.78 127.049H185.864C185.883 127.412 186.028 127.701 186.297 127.916C186.571 128.127 186.93 128.232 187.376 128.232C187.786 128.232 188.114 128.15 188.36 127.986C188.61 127.818 188.735 127.596 188.735 127.318ZM192.257 129H191.173V122.66H192.257V129ZM191.085 120.979C191.085 120.803 191.137 120.654 191.243 120.533C191.352 120.412 191.512 120.352 191.723 120.352C191.934 120.352 192.094 120.412 192.204 120.533C192.313 120.654 192.368 120.803 192.368 120.979C192.368 121.154 192.313 121.301 192.204 121.418C192.094 121.535 191.934 121.594 191.723 121.594C191.512 121.594 191.352 121.535 191.243 121.418C191.137 121.301 191.085 121.154 191.085 120.979ZM193.557 125.771C193.557 125.15 193.679 124.592 193.921 124.096C194.167 123.6 194.507 123.217 194.94 122.947C195.378 122.678 195.876 122.543 196.434 122.543C197.298 122.543 197.995 122.842 198.526 123.439C199.061 124.037 199.329 124.832 199.329 125.824V125.9C199.329 126.518 199.21 127.072 198.972 127.564C198.737 128.053 198.399 128.434 197.958 128.707C197.52 128.98 197.016 129.117 196.446 129.117C195.587 129.117 194.89 128.818 194.354 128.221C193.823 127.623 193.557 126.832 193.557 125.848V125.771ZM194.647 125.9C194.647 126.604 194.809 127.168 195.134 127.594C195.462 128.02 195.899 128.232 196.446 128.232C196.997 128.232 197.434 128.018 197.759 127.588C198.083 127.154 198.245 126.549 198.245 125.771C198.245 125.076 198.079 124.514 197.747 124.084C197.419 123.65 196.981 123.434 196.434 123.434C195.899 123.434 195.468 123.646 195.14 124.072C194.811 124.498 194.647 125.107 194.647 125.9ZM201.562 122.66L201.597 123.457C202.081 122.848 202.714 122.543 203.495 122.543C204.835 122.543 205.511 123.299 205.522 124.811V129H204.438V124.805C204.435 124.348 204.329 124.01 204.122 123.791C203.919 123.572 203.601 123.463 203.167 123.463C202.815 123.463 202.507 123.557 202.241 123.744C201.976 123.932 201.769 124.178 201.62 124.482V129H200.536V122.66H201.562ZM210.919 129C210.857 128.875 210.806 128.652 210.767 128.332C210.263 128.855 209.661 129.117 208.962 129.117C208.337 129.117 207.823 128.941 207.421 128.59C207.023 128.234 206.823 127.785 206.823 127.242C206.823 126.582 207.073 126.07 207.573 125.707C208.077 125.34 208.784 125.156 209.694 125.156H210.749V124.658C210.749 124.279 210.636 123.979 210.409 123.756C210.183 123.529 209.849 123.416 209.407 123.416C209.021 123.416 208.696 123.514 208.435 123.709C208.173 123.904 208.042 124.141 208.042 124.418H206.952C206.952 124.102 207.064 123.797 207.286 123.504C207.513 123.207 207.818 122.973 208.2 122.801C208.587 122.629 209.011 122.543 209.472 122.543C210.202 122.543 210.775 122.727 211.189 123.094C211.603 123.457 211.818 123.959 211.833 124.6V127.518C211.833 128.1 211.907 128.562 212.056 128.906V129H210.919ZM209.12 128.174C209.46 128.174 209.782 128.086 210.087 127.91C210.392 127.734 210.612 127.506 210.749 127.225V125.924H209.9C208.571 125.924 207.907 126.312 207.907 127.09C207.907 127.43 208.021 127.695 208.247 127.887C208.474 128.078 208.765 128.174 209.12 128.174ZM214.558 129H213.474V120H214.558V129ZM218.707 125.777C218.707 124.781 218.935 123.994 219.392 123.416C219.849 122.834 220.462 122.543 221.232 122.543C221.982 122.543 222.574 122.795 223.007 123.299L223.054 122.66H224.05V131.438H222.966V128.414C222.529 128.883 221.947 129.117 221.22 129.117C220.455 129.117 219.843 128.82 219.386 128.227C218.933 127.629 218.707 126.838 218.707 125.854V125.777ZM219.791 125.9C219.791 126.627 219.943 127.197 220.248 127.611C220.556 128.025 220.97 128.232 221.49 128.232C222.134 128.232 222.626 127.947 222.966 127.377V124.271C222.623 123.713 222.134 123.434 221.501 123.434C220.978 123.434 220.562 123.643 220.253 124.061C219.945 124.475 219.791 125.088 219.791 125.9ZM229.552 128.373C229.131 128.869 228.511 129.117 227.695 129.117C227.019 129.117 226.504 128.922 226.148 128.531C225.797 128.137 225.619 127.555 225.615 126.785V122.66H226.699V126.756C226.699 127.717 227.09 128.197 227.871 128.197C228.699 128.197 229.25 127.889 229.523 127.271V122.66H230.607V129H229.576L229.552 128.373ZM234.738 129.117C233.879 129.117 233.18 128.836 232.64 128.273C232.101 127.707 231.832 126.951 231.832 126.006V125.807C231.832 125.178 231.951 124.617 232.189 124.125C232.431 123.629 232.767 123.242 233.197 122.965C233.631 122.684 234.099 122.543 234.603 122.543C235.428 122.543 236.068 122.814 236.525 123.357C236.982 123.9 237.211 124.678 237.211 125.689V126.141H232.916C232.931 126.766 233.113 127.271 233.461 127.658C233.812 128.041 234.258 128.232 234.797 128.232C235.18 128.232 235.504 128.154 235.769 127.998C236.035 127.842 236.267 127.635 236.467 127.377L237.129 127.893C236.597 128.709 235.801 129.117 234.738 129.117ZM234.603 123.434C234.166 123.434 233.799 123.594 233.502 123.914C233.205 124.23 233.021 124.676 232.951 125.25H236.127V125.168C236.096 124.617 235.947 124.191 235.681 123.891C235.416 123.586 235.056 123.434 234.603 123.434ZM122.898 139.9C122.898 140.865 122.677 141.643 122.235 142.232C121.794 142.822 121.196 143.117 120.442 143.117C119.673 143.117 119.067 142.873 118.626 142.385V145.438H117.542V136.66H118.532L118.585 137.363C119.026 136.816 119.64 136.543 120.425 136.543C121.187 136.543 121.788 136.83 122.23 137.404C122.675 137.979 122.898 138.777 122.898 139.801V139.9ZM121.814 139.777C121.814 139.062 121.661 138.498 121.357 138.084C121.052 137.67 120.634 137.463 120.103 137.463C119.446 137.463 118.954 137.754 118.626 138.336V141.365C118.95 141.943 119.446 142.232 120.114 142.232C120.634 142.232 121.046 142.027 121.351 141.617C121.659 141.203 121.814 140.59 121.814 139.777ZM128.042 142.373C127.62 142.869 127.001 143.117 126.185 143.117C125.509 143.117 124.993 142.922 124.638 142.531C124.286 142.137 124.109 141.555 124.105 140.785V136.66H125.189V140.756C125.189 141.717 125.579 142.197 126.361 142.197C127.189 142.197 127.739 141.889 128.013 141.271V136.66H129.097V143H128.066L128.042 142.373ZM133.228 143.117C132.368 143.117 131.669 142.836 131.13 142.273C130.591 141.707 130.322 140.951 130.322 140.006V139.807C130.322 139.178 130.441 138.617 130.679 138.125C130.921 137.629 131.257 137.242 131.687 136.965C132.12 136.684 132.589 136.543 133.093 136.543C133.917 136.543 134.558 136.814 135.015 137.357C135.472 137.9 135.701 138.678 135.701 139.689V140.141H131.406C131.421 140.766 131.603 141.271 131.951 141.658C132.302 142.041 132.747 142.232 133.286 142.232C133.669 142.232 133.993 142.154 134.259 141.998C134.525 141.842 134.757 141.635 134.956 141.377L135.618 141.893C135.087 142.709 134.29 143.117 133.228 143.117ZM133.093 137.434C132.656 137.434 132.288 137.594 131.992 137.914C131.695 138.23 131.511 138.676 131.441 139.25H134.617V139.168C134.585 138.617 134.437 138.191 134.171 137.891C133.906 137.586 133.546 137.434 133.093 137.434ZM136.544 139.777C136.544 138.805 136.775 138.023 137.236 137.434C137.697 136.84 138.3 136.543 139.046 136.543C139.789 136.543 140.376 136.797 140.81 137.305V134H141.894V143H140.898L140.845 142.32C140.412 142.852 139.808 143.117 139.035 143.117C138.3 143.117 137.701 142.816 137.236 142.215C136.775 141.613 136.544 140.828 136.544 139.859V139.777ZM137.628 139.9C137.628 140.619 137.777 141.182 138.074 141.588C138.371 141.994 138.781 142.197 139.304 142.197C139.992 142.197 140.494 141.889 140.81 141.271V138.359C140.486 137.762 139.988 137.463 139.316 137.463C138.785 137.463 138.371 137.668 138.074 138.078C137.777 138.488 137.628 139.096 137.628 139.9ZM146.06 143.117C145.201 143.117 144.502 142.836 143.963 142.273C143.423 141.707 143.154 140.951 143.154 140.006V139.807C143.154 139.178 143.273 138.617 143.511 138.125C143.754 137.629 144.089 137.242 144.519 136.965C144.953 136.684 145.421 136.543 145.925 136.543C146.75 136.543 147.39 136.814 147.847 137.357C148.304 137.9 148.533 138.678 148.533 139.689V140.141H144.238C144.254 140.766 144.435 141.271 144.783 141.658C145.134 142.041 145.58 142.232 146.119 142.232C146.502 142.232 146.826 142.154 147.091 141.998C147.357 141.842 147.589 141.635 147.789 141.377L148.451 141.893C147.92 142.709 147.123 143.117 146.06 143.117ZM145.925 137.434C145.488 137.434 145.121 137.594 144.824 137.914C144.527 138.23 144.343 138.676 144.273 139.25H147.449V139.168C147.418 138.617 147.269 138.191 147.004 137.891C146.738 137.586 146.379 137.434 145.925 137.434ZM156.379 143C156.316 142.875 156.265 142.652 156.226 142.332C155.723 142.855 155.121 143.117 154.422 143.117C153.797 143.117 153.283 142.941 152.881 142.59C152.482 142.234 152.283 141.785 152.283 141.242C152.283 140.582 152.533 140.07 153.033 139.707C153.537 139.34 154.244 139.156 155.154 139.156H156.209V138.658C156.209 138.279 156.096 137.979 155.869 137.756C155.642 137.529 155.308 137.416 154.867 137.416C154.48 137.416 154.156 137.514 153.894 137.709C153.633 137.904 153.502 138.141 153.502 138.418H152.412C152.412 138.102 152.523 137.797 152.746 137.504C152.973 137.207 153.277 136.973 153.66 136.801C154.047 136.629 154.471 136.543 154.932 136.543C155.662 136.543 156.234 136.727 156.648 137.094C157.062 137.457 157.277 137.959 157.293 138.6V141.518C157.293 142.1 157.367 142.562 157.515 142.906V143H156.379ZM154.58 142.174C154.92 142.174 155.242 142.086 155.547 141.91C155.851 141.734 156.072 141.506 156.209 141.225V139.924H155.359C154.031 139.924 153.367 140.312 153.367 141.09C153.367 141.43 153.48 141.695 153.707 141.887C153.933 142.078 154.224 142.174 154.58 142.174ZM160.82 141.412L162.297 136.66H163.457L160.908 143.979C160.514 145.033 159.887 145.561 159.027 145.561L158.822 145.543L158.418 145.467V144.588L158.711 144.611C159.078 144.611 159.363 144.537 159.566 144.389C159.773 144.24 159.943 143.969 160.076 143.574L160.316 142.93L158.055 136.66H159.238L160.82 141.412ZM168.192 142.373C167.77 142.869 167.151 143.117 166.334 143.117C165.658 143.117 165.143 142.922 164.787 142.531C164.436 142.137 164.258 141.555 164.254 140.785V136.66H165.338V140.756C165.338 141.717 165.729 142.197 166.51 142.197C167.338 142.197 167.889 141.889 168.162 141.271V136.66H169.246V143H168.215L168.192 142.373ZM170.483 139.777C170.483 138.805 170.713 138.023 171.174 137.434C171.635 136.84 172.239 136.543 172.985 136.543C173.727 136.543 174.315 136.797 174.748 137.305V134H175.832V143H174.836L174.783 142.32C174.35 142.852 173.746 143.117 172.973 143.117C172.239 143.117 171.639 142.816 171.174 142.215C170.713 141.613 170.483 140.828 170.483 139.859V139.777ZM171.567 139.9C171.567 140.619 171.715 141.182 172.012 141.588C172.309 141.994 172.719 142.197 173.242 142.197C173.93 142.197 174.432 141.889 174.748 141.271V138.359C174.424 137.762 173.926 137.463 173.254 137.463C172.723 137.463 172.309 137.668 172.012 138.078C171.715 138.488 171.567 139.096 171.567 139.9ZM181.282 143C181.219 142.875 181.168 142.652 181.129 142.332C180.625 142.855 180.024 143.117 179.325 143.117C178.7 143.117 178.186 142.941 177.784 142.59C177.385 142.234 177.186 141.785 177.186 141.242C177.186 140.582 177.436 140.07 177.936 139.707C178.44 139.34 179.147 139.156 180.057 139.156H181.112V138.658C181.112 138.279 180.998 137.979 180.772 137.756C180.545 137.529 180.211 137.416 179.77 137.416C179.383 137.416 179.059 137.514 178.797 137.709C178.536 137.904 178.405 138.141 178.405 138.418H177.315C177.315 138.102 177.426 137.797 177.649 137.504C177.875 137.207 178.18 136.973 178.563 136.801C178.95 136.629 179.373 136.543 179.834 136.543C180.565 136.543 181.137 136.727 181.551 137.094C181.965 137.457 182.18 137.959 182.196 138.6V141.518C182.196 142.1 182.27 142.562 182.418 142.906V143H181.282ZM179.483 142.174C179.823 142.174 180.145 142.086 180.45 141.91C180.754 141.734 180.975 141.506 181.112 141.225V139.924H180.262C178.934 139.924 178.27 140.312 178.27 141.09C178.27 141.43 178.383 141.695 178.61 141.887C178.836 142.078 179.127 142.174 179.483 142.174ZM186.807 137.633C186.643 137.605 186.465 137.592 186.274 137.592C185.563 137.592 185.081 137.895 184.827 138.5V143H183.743V136.66H184.797L184.815 137.393C185.17 136.826 185.674 136.543 186.327 136.543C186.538 136.543 186.698 136.57 186.807 136.625V137.633ZM189.421 135.125V136.66H190.604V137.498H189.421V141.43C189.421 141.684 189.473 141.875 189.579 142.004C189.684 142.129 189.864 142.191 190.118 142.191C190.243 142.191 190.415 142.168 190.633 142.121V143C190.348 143.078 190.071 143.117 189.801 143.117C189.317 143.117 188.952 142.971 188.706 142.678C188.46 142.385 188.337 141.969 188.337 141.43V137.498H187.182V136.66H188.337V135.125H189.421ZM194.354 143.117C193.495 143.117 192.796 142.836 192.257 142.273C191.718 141.707 191.448 140.951 191.448 140.006V139.807C191.448 139.178 191.567 138.617 191.805 138.125C192.048 137.629 192.384 137.242 192.813 136.965C193.247 136.684 193.716 136.543 194.22 136.543C195.044 136.543 195.684 136.814 196.141 137.357C196.598 137.9 196.827 138.678 196.827 139.689V140.141H192.532C192.548 140.766 192.729 141.271 193.077 141.658C193.429 142.041 193.874 142.232 194.413 142.232C194.796 142.232 195.12 142.154 195.386 141.998C195.651 141.842 195.884 141.635 196.083 141.377L196.745 141.893C196.214 142.709 195.417 143.117 194.354 143.117ZM194.22 137.434C193.782 137.434 193.415 137.594 193.118 137.914C192.821 138.23 192.638 138.676 192.567 139.25H195.743V139.168C195.712 138.617 195.563 138.191 195.298 137.891C195.032 137.586 194.673 137.434 194.22 137.434ZM197.958 142.432C197.958 142.244 198.013 142.088 198.122 141.963C198.235 141.838 198.403 141.775 198.626 141.775C198.849 141.775 199.017 141.838 199.13 141.963C199.247 142.088 199.306 142.244 199.306 142.432C199.306 142.611 199.247 142.762 199.13 142.883C199.017 143.004 198.849 143.064 198.626 143.064C198.403 143.064 198.235 143.004 198.122 142.883C198.013 142.762 197.958 142.611 197.958 142.432Z" fill="#858585"/>
<path fill-rule="evenodd" clip-rule="evenodd" d="M152.5 64.5234L162.137 58.5H174.667C176.416 58.5 177.833 57.0822 177.833 55.3333V36.3333C177.833 34.5844 176.416 33.1667 174.667 33.1667H149.333C147.584 33.1667 146.167 34.5844 146.167 36.3333V55.3333C146.167 57.0822 147.584 58.5 149.333 58.5H152.5V64.5234ZM161.229 55.3333L155.667 58.8099V55.3333H149.333V36.3333H174.667V55.3333H161.229Z" fill="#4D3D6C"/>
<rect x="97" y="163" width="121" height="30" rx="15" fill="#4D3D6C"/>
<path d="M149.338 178.081C149.271 178.999 148.932 179.722 148.318 180.249C147.709 180.777 146.904 181.04 145.904 181.04C144.811 181.04 143.949 180.673 143.32 179.939C142.695 179.2 142.383 178.189 142.383 176.904V176.382C142.383 175.562 142.527 174.839 142.816 174.214C143.105 173.589 143.518 173.111 144.053 172.779C144.592 172.443 145.217 172.275 145.928 172.275C146.912 172.275 147.705 172.538 148.307 173.066C148.908 173.593 149.256 174.333 149.35 175.286H147.592C147.549 174.736 147.395 174.337 147.129 174.091C146.867 173.841 146.467 173.716 145.928 173.716C145.342 173.716 144.902 173.927 144.609 174.349C144.32 174.767 144.172 175.417 144.164 176.3V176.945C144.164 177.866 144.303 178.54 144.58 178.966C144.861 179.392 145.303 179.605 145.904 179.605C146.447 179.605 146.852 179.482 147.117 179.236C147.387 178.986 147.541 178.601 147.58 178.081H149.338ZM157.436 180.923H155.678V177.267H152.25V180.923H150.492V172.392H152.25V175.849H155.678V172.392H157.436V180.923ZM163.898 179.165H160.816L160.23 180.923H158.361L161.537 172.392H163.166L166.359 180.923H164.49L163.898 179.165ZM161.291 177.741H163.424L162.352 174.548L161.291 177.741ZM172.875 173.816H170.262V180.923H168.504V173.816H165.926V172.392H172.875V173.816Z" fill="white"/>
</g>
<defs>
<filter id="filter0_d" x="0" y="0" width="308" height="228" filterUnits="userSpaceOnUse" color-interpolation-filters="sRGB">
<feFlood flood-opacity="0" result="BackgroundImageFix"/>
<feColorMatrix in="SourceAlpha" type="matrix" values="0 0 0 0 0 0 0 0 0 0 0 0 0 0 0 0 0 0 127 0"/>
<feOffset dx="-4" dy="4"/>
<feGaussianBlur stdDeviation="2"/>
<feColorMatrix type="matrix" values="0 0 0 0 0 0 0 0 0 0 0 0 0 0 0 0 0 0 0.05 0"/>
<feBlend mode="normal" in2="BackgroundImageFix" result="effect1_dropShadow"/>
<feBlend mode="normal" in="SourceGraphic" in2="effect1_dropShadow" result="shape"/>
</filter>
</defs>
</svg>
