<svg width="308" height="228" viewBox="0 0 308 228" fill="none" xmlns="http://www.w3.org/2000/svg">
<g filter="url(#filter0_d)">
<rect x="8.5" y="0.5" width="299" height="219" rx="9.5" fill="white" stroke="#EDEEED"/>
<path d="M110.601 108.781H119.027V110H109.148V92.9375H110.601V108.781ZM122.871 110H121.464V97.3203H122.871V110ZM123.597 92.1406H125.296L122.589 95.4219H121.359L123.597 92.1406ZM127.851 97.3203L127.898 99.4883C128.375 98.707 128.968 98.1133 129.679 97.707C130.39 97.293 131.176 97.0859 132.035 97.0859C133.394 97.0859 134.406 97.4688 135.07 98.2344C135.734 99 136.07 100.148 136.078 101.68V110H134.683V101.668C134.676 100.535 134.433 99.6914 133.957 99.1367C133.488 98.582 132.734 98.3047 131.695 98.3047C130.828 98.3047 130.058 98.5781 129.386 99.125C128.722 99.6641 128.23 100.395 127.91 101.316V110H126.515V97.3203H127.851ZM144.469 110.234C143.39 110.234 142.414 109.969 141.539 109.438C140.672 108.906 139.996 108.168 139.512 107.223C139.027 106.27 138.785 105.203 138.785 104.023V103.52C138.785 102.301 139.019 101.203 139.488 100.227C139.965 99.25 140.625 98.4844 141.469 97.9297C142.312 97.3672 143.226 97.0859 144.211 97.0859C145.75 97.0859 146.969 97.6133 147.867 98.668C148.773 99.7148 149.226 101.148 149.226 102.969V103.754H140.18V104.023C140.18 105.461 140.59 106.66 141.41 107.621C142.238 108.574 143.277 109.051 144.527 109.051C145.277 109.051 145.937 108.914 146.508 108.641C147.086 108.367 147.609 107.93 148.078 107.328L148.957 107.996C147.926 109.488 146.43 110.234 144.469 110.234ZM144.211 98.2812C143.156 98.2812 142.265 98.668 141.539 99.4414C140.82 100.215 140.383 101.254 140.226 102.559H147.832V102.406C147.793 101.188 147.445 100.195 146.789 99.4297C146.133 98.6641 145.273 98.2812 144.211 98.2812ZM159.809 110C159.668 109.602 159.578 109.012 159.539 108.23C159.047 108.871 158.418 109.367 157.652 109.719C156.895 110.062 156.09 110.234 155.238 110.234C154.02 110.234 153.031 109.895 152.273 109.215C151.523 108.535 151.148 107.676 151.148 106.637C151.148 105.402 151.66 104.426 152.684 103.707C153.715 102.988 155.148 102.629 156.984 102.629H159.527V101.188C159.527 100.281 159.246 99.5703 158.684 99.0547C158.129 98.5312 157.316 98.2695 156.246 98.2695C155.27 98.2695 154.461 98.5195 153.82 99.0195C153.18 99.5195 152.859 100.121 152.859 100.824L151.453 100.812C151.453 99.8047 151.922 98.9336 152.859 98.1992C153.797 97.457 154.949 97.0859 156.316 97.0859C157.73 97.0859 158.844 97.4414 159.656 98.1523C160.477 98.8555 160.898 99.8398 160.922 101.105V107.105C160.922 108.332 161.051 109.25 161.309 109.859V110H159.809ZM155.402 108.992C156.34 108.992 157.176 108.766 157.91 108.312C158.652 107.859 159.191 107.254 159.527 106.496V103.707H157.02C155.621 103.723 154.527 103.98 153.738 104.48C152.949 104.973 152.555 105.652 152.555 106.52C152.555 107.23 152.816 107.82 153.34 108.289C153.871 108.758 154.559 108.992 155.402 108.992ZM176.508 110H175.102V94.625L170.461 96.3477V95.0352L176.274 92.8789H176.508V110ZM193.43 102.887C193.43 105.293 192.989 107.121 192.106 108.371C191.223 109.613 189.922 110.234 188.204 110.234C186.516 110.234 185.223 109.625 184.325 108.406C183.426 107.18 182.965 105.398 182.942 103.062V100.004C182.942 97.6055 183.387 95.7891 184.278 94.5547C185.168 93.3203 186.469 92.7031 188.18 92.7031C189.868 92.7031 191.157 93.3008 192.047 94.4961C192.938 95.6836 193.399 97.4375 193.43 99.7578V102.887ZM192.024 99.8281C192.024 97.875 191.704 96.3984 191.063 95.3984C190.43 94.3984 189.469 93.8984 188.18 93.8984C186.914 93.8984 185.961 94.3867 185.321 95.3633C184.68 96.3398 184.352 97.7812 184.336 99.6875V103.039C184.336 104.984 184.664 106.473 185.321 107.504C185.985 108.535 186.946 109.051 188.204 109.051C189.454 109.051 190.399 108.547 191.039 107.539C191.688 106.531 192.016 105.055 192.024 103.109V99.8281ZM206.59 102.887C206.59 105.293 206.149 107.121 205.266 108.371C204.383 109.613 203.083 110.234 201.364 110.234C199.676 110.234 198.383 109.625 197.485 108.406C196.586 107.18 196.126 105.398 196.102 103.062V100.004C196.102 97.6055 196.547 95.7891 197.438 94.5547C198.329 93.3203 199.629 92.7031 201.34 92.7031C203.028 92.7031 204.317 93.3008 205.208 94.4961C206.098 95.6836 206.559 97.4375 206.59 99.7578V102.887ZM205.184 99.8281C205.184 97.875 204.864 96.3984 204.223 95.3984C203.59 94.3984 202.629 93.8984 201.34 93.8984C200.075 93.8984 199.122 94.3867 198.481 95.3633C197.84 96.3398 197.512 97.7812 197.497 99.6875V103.039C197.497 104.984 197.825 106.473 198.481 107.504C199.145 108.535 200.106 109.051 201.364 109.051C202.614 109.051 203.559 108.547 204.2 107.539C204.848 106.531 205.176 105.055 205.184 103.109V99.8281Z" fill="#4D3D6C"/>
<path fill-rule="evenodd" clip-rule="evenodd" d="M156.19 47.2018C157.01 46.0963 157.304 44.9312 156.376 43.9028C154.294 40.9895 152.894 39.1879 152.016 38.3203C150.346 36.6709 147.599 36.894 146.153 38.3189C145.377 39.0842 145.114 39.347 144.316 40.1571C139.874 44.6017 142.583 53.9976 149.785 61.2065C156.985 68.4138 166.38 71.1244 170.832 66.6704C171.568 65.9609 172.191 65.3375 172.682 64.8181C174.099 63.3202 174.314 60.6946 172.673 58.9889C171.831 58.1144 170.113 56.7818 167.077 54.6103C166.147 53.7788 165.045 53.959 164.034 54.6221C163.548 54.9411 163.194 55.2638 162.526 55.9325L161.313 57.1464C161.153 57.3063 158.983 56.2197 156.877 54.1113C154.77 52.0019 153.684 49.8319 153.843 49.6729C154.171 49.345 154.575 48.9401 155.057 48.4582C155.269 48.246 155.37 48.1433 155.5 48.0067C155.771 47.7221 155.995 47.4639 156.19 47.2018ZM163.551 59.3856L164.764 58.1715C165.132 57.8034 165.37 57.5771 165.564 57.4211C168.224 59.3309 169.764 60.5318 170.393 61.1854C170.771 61.5779 170.712 62.294 170.384 62.6411C169.929 63.1214 169.339 63.7121 168.614 64.4109C165.736 67.2906 158.152 65.1026 152.023 58.9678C145.893 52.8312 143.706 45.2462 146.562 42.3878C147.357 41.5811 147.608 41.3295 148.374 40.5751C148.661 40.2923 149.443 40.2288 149.792 40.5737C150.468 41.2417 151.723 42.8477 153.568 45.418C153.472 45.5366 153.353 45.6706 153.208 45.8232C153.101 45.9352 153.013 46.0252 152.818 46.2195C152.337 46.701 151.933 47.1055 151.606 47.433C149.542 49.4962 151.299 53.0076 154.639 56.35C157.976 59.6902 161.488 61.4493 163.551 59.3856Z" fill="#4D3D6C"/>
<path d="M65.3725 136H64.2417V132.057H59.9409V136H58.8159V127.469H59.9409V131.137H64.2417V127.469H65.3725V136ZM70.9625 136C70.9 135.875 70.8492 135.652 70.8101 135.332C70.3062 135.855 69.7047 136.117 69.0055 136.117C68.3805 136.117 67.8668 135.941 67.4644 135.59C67.066 135.234 66.8668 134.785 66.8668 134.242C66.8668 133.582 67.1168 133.07 67.6168 132.707C68.1207 132.34 68.8277 132.156 69.7379 132.156H70.7926V131.658C70.7926 131.279 70.6793 130.979 70.4527 130.756C70.2262 130.529 69.8922 130.416 69.4508 130.416C69.064 130.416 68.7398 130.514 68.4781 130.709C68.2164 130.904 68.0855 131.141 68.0855 131.418H66.9957C66.9957 131.102 67.107 130.797 67.3297 130.504C67.5562 130.207 67.8609 129.973 68.2437 129.801C68.6305 129.629 69.0543 129.543 69.5152 129.543C70.2457 129.543 70.818 129.727 71.232 130.094C71.6461 130.457 71.8609 130.959 71.8765 131.6V134.518C71.8765 135.1 71.9508 135.562 72.0992 135.906V136H70.9625ZM69.1637 135.174C69.5035 135.174 69.8258 135.086 70.1305 134.91C70.4351 134.734 70.6558 134.506 70.7926 134.225V132.924H69.943C68.6148 132.924 67.9508 133.312 67.9508 134.09C67.9508 134.43 68.064 134.695 68.2906 134.887C68.5172 135.078 68.8082 135.174 69.1637 135.174ZM78.7907 132.9C78.7907 133.869 78.5681 134.648 78.1228 135.238C77.6775 135.824 77.0798 136.117 76.3298 136.117C75.529 136.117 74.9099 135.834 74.4724 135.268L74.4197 136H73.4236V127H74.5075V130.357C74.945 129.814 75.5486 129.543 76.3181 129.543C77.0876 129.543 77.6911 129.834 78.1286 130.416C78.57 130.998 78.7907 131.795 78.7907 132.807V132.9ZM77.7068 132.777C77.7068 132.039 77.5642 131.469 77.279 131.066C76.9939 130.664 76.5837 130.463 76.0486 130.463C75.3337 130.463 74.82 130.795 74.5075 131.459V134.201C74.8396 134.865 75.3572 135.197 76.0603 135.197C76.5798 135.197 76.9841 134.996 77.2732 134.594C77.5622 134.191 77.7068 133.586 77.7068 132.777ZM81.1874 136H80.1034V127H81.1874V136ZM86.6894 136C86.6269 135.875 86.5762 135.652 86.5371 135.332C86.0332 135.855 85.4316 136.117 84.7324 136.117C84.1074 136.117 83.5937 135.941 83.1914 135.59C82.793 135.234 82.5937 134.785 82.5937 134.242C82.5937 133.582 82.8437 133.07 83.3437 132.707C83.8476 132.34 84.5547 132.156 85.4648 132.156H86.5195V131.658C86.5195 131.279 86.4062 130.979 86.1797 130.756C85.9531 130.529 85.6191 130.416 85.1777 130.416C84.791 130.416 84.4668 130.514 84.2051 130.709C83.9433 130.904 83.8125 131.141 83.8125 131.418H82.7226C82.7226 131.102 82.834 130.797 83.0566 130.504C83.2832 130.207 83.5879 129.973 83.9707 129.801C84.3574 129.629 84.7812 129.543 85.2422 129.543C85.9726 129.543 86.5449 129.727 86.959 130.094C87.373 130.457 87.5879 130.959 87.6035 131.6V134.518C87.6035 135.1 87.6777 135.562 87.8262 135.906V136H86.6894ZM84.8906 135.174C85.2305 135.174 85.5527 135.086 85.8574 134.91C86.1621 134.734 86.3828 134.506 86.5195 134.225V132.924H85.6699C84.3418 132.924 83.6777 133.312 83.6777 134.09C83.6777 134.43 83.791 134.695 84.0176 134.887C84.2441 135.078 84.5351 135.174 84.8906 135.174ZM91.717 132.777C91.717 131.789 91.9456 131.004 92.4026 130.422C92.8596 129.836 93.4651 129.543 94.219 129.543C94.9924 129.543 95.596 129.816 96.0295 130.363L96.0823 129.66H97.0725V135.848C97.0725 136.668 96.8284 137.314 96.3401 137.787C95.8557 138.26 95.2034 138.496 94.3831 138.496C93.926 138.496 93.4788 138.398 93.0413 138.203C92.6038 138.008 92.2698 137.74 92.0393 137.4L92.6018 136.75C93.0667 137.324 93.635 137.611 94.3069 137.611C94.8342 137.611 95.2444 137.463 95.5374 137.166C95.8342 136.869 95.9827 136.451 95.9827 135.912V135.367C95.5491 135.867 94.9573 136.117 94.2073 136.117C93.4651 136.117 92.8635 135.818 92.4026 135.221C91.9456 134.623 91.717 133.809 91.717 132.777ZM92.8069 132.9C92.8069 133.615 92.9534 134.178 93.2463 134.588C93.5393 134.994 93.9495 135.197 94.4768 135.197C95.1604 135.197 95.6624 134.887 95.9827 134.266V131.371C95.6506 130.766 95.1526 130.463 94.4885 130.463C93.9612 130.463 93.5491 130.668 93.2522 131.078C92.9553 131.488 92.8069 132.096 92.8069 132.9ZM101.625 130.633C101.461 130.605 101.284 130.592 101.092 130.592C100.381 130.592 99.8988 130.895 99.6449 131.5V136H98.5609V129.66H99.6156L99.6332 130.393C99.9887 129.826 100.493 129.543 101.145 129.543C101.356 129.543 101.516 129.57 101.625 129.625V130.633ZM106.155 136C106.092 135.875 106.042 135.652 106.002 135.332C105.499 135.855 104.897 136.117 104.198 136.117C103.573 136.117 103.059 135.941 102.657 135.59C102.258 135.234 102.059 134.785 102.059 134.242C102.059 133.582 102.309 133.07 102.809 132.707C103.313 132.34 104.02 132.156 104.93 132.156H105.985V131.658C105.985 131.279 105.872 130.979 105.645 130.756C105.418 130.529 105.084 130.416 104.643 130.416C104.256 130.416 103.932 130.514 103.67 130.709C103.409 130.904 103.278 131.141 103.278 131.418H102.188C102.188 131.102 102.299 130.797 102.522 130.504C102.749 130.207 103.053 129.973 103.436 129.801C103.823 129.629 104.247 129.543 104.708 129.543C105.438 129.543 106.01 129.727 106.424 130.094C106.838 130.457 107.053 130.959 107.069 131.6V134.518C107.069 135.1 107.143 135.562 107.292 135.906V136H106.155ZM104.356 135.174C104.696 135.174 105.018 135.086 105.323 134.91C105.627 134.734 105.848 134.506 105.985 134.225V132.924H105.135C103.807 132.924 103.143 133.312 103.143 134.09C103.143 134.43 103.256 134.695 103.483 134.887C103.709 135.078 104.001 135.174 104.356 135.174ZM110.087 128.125V129.66H111.27V130.498H110.087V134.43C110.087 134.684 110.139 134.875 110.245 135.004C110.35 135.129 110.53 135.191 110.784 135.191C110.909 135.191 111.081 135.168 111.299 135.121V136C111.014 136.078 110.737 136.117 110.467 136.117C109.983 136.117 109.618 135.971 109.372 135.678C109.126 135.385 109.003 134.969 109.003 134.43V130.498H107.848V129.66H109.003V128.125H110.087ZM113.567 136H112.483V129.66H113.567V136ZM112.395 127.979C112.395 127.803 112.448 127.654 112.554 127.533C112.663 127.412 112.823 127.352 113.034 127.352C113.245 127.352 113.405 127.412 113.514 127.533C113.624 127.654 113.679 127.803 113.679 127.979C113.679 128.154 113.624 128.301 113.514 128.418C113.405 128.535 113.245 128.594 113.034 128.594C112.823 128.594 112.663 128.535 112.554 128.418C112.448 128.301 112.395 128.154 112.395 127.979ZM118.847 134.318C118.847 134.025 118.735 133.799 118.513 133.639C118.294 133.475 117.909 133.334 117.358 133.217C116.811 133.1 116.376 132.959 116.052 132.795C115.731 132.631 115.493 132.436 115.337 132.209C115.185 131.982 115.108 131.713 115.108 131.4C115.108 130.881 115.327 130.441 115.765 130.082C116.206 129.723 116.768 129.543 117.452 129.543C118.171 129.543 118.753 129.729 119.198 130.1C119.647 130.471 119.872 130.945 119.872 131.523H118.782C118.782 131.227 118.655 130.971 118.401 130.756C118.151 130.541 117.835 130.434 117.452 130.434C117.058 130.434 116.749 130.52 116.526 130.691C116.304 130.863 116.192 131.088 116.192 131.365C116.192 131.627 116.296 131.824 116.503 131.957C116.71 132.09 117.083 132.217 117.622 132.338C118.165 132.459 118.604 132.604 118.94 132.771C119.276 132.939 119.524 133.143 119.685 133.381C119.849 133.615 119.931 133.902 119.931 134.242C119.931 134.809 119.704 135.264 119.251 135.607C118.798 135.947 118.21 136.117 117.487 136.117C116.979 136.117 116.53 136.027 116.14 135.848C115.749 135.668 115.442 135.418 115.22 135.098C115.001 134.773 114.892 134.424 114.892 134.049H115.976C115.995 134.412 116.14 134.701 116.409 134.916C116.683 135.127 117.042 135.232 117.487 135.232C117.897 135.232 118.226 135.15 118.472 134.986C118.722 134.818 118.847 134.596 118.847 134.318ZM126.558 135.232C126.945 135.232 127.282 135.115 127.571 134.881C127.861 134.646 128.021 134.354 128.052 134.002H129.077C129.058 134.365 128.933 134.711 128.702 135.039C128.472 135.367 128.163 135.629 127.777 135.824C127.394 136.02 126.987 136.117 126.558 136.117C125.695 136.117 125.007 135.83 124.495 135.256C123.987 134.678 123.734 133.889 123.734 132.889V132.707C123.734 132.09 123.847 131.541 124.073 131.061C124.3 130.58 124.624 130.207 125.046 129.941C125.472 129.676 125.974 129.543 126.552 129.543C127.263 129.543 127.853 129.756 128.321 130.182C128.794 130.607 129.046 131.16 129.077 131.84H128.052C128.021 131.43 127.864 131.094 127.583 130.832C127.306 130.566 126.962 130.434 126.552 130.434C126.001 130.434 125.573 130.633 125.269 131.031C124.968 131.426 124.818 131.998 124.818 132.748V132.953C124.818 133.684 124.968 134.246 125.269 134.641C125.57 135.035 125.999 135.232 126.558 135.232ZM129.857 132.771C129.857 132.15 129.978 131.592 130.22 131.096C130.466 130.6 130.806 130.217 131.24 129.947C131.677 129.678 132.175 129.543 132.734 129.543C133.597 129.543 134.294 129.842 134.826 130.439C135.361 131.037 135.628 131.832 135.628 132.824V132.9C135.628 133.518 135.509 134.072 135.271 134.564C135.036 135.053 134.699 135.434 134.257 135.707C133.82 135.98 133.316 136.117 132.745 136.117C131.886 136.117 131.189 135.818 130.654 135.221C130.122 134.623 129.857 133.832 129.857 132.848V132.771ZM130.947 132.9C130.947 133.604 131.109 134.168 131.433 134.594C131.761 135.02 132.199 135.232 132.745 135.232C133.296 135.232 133.734 135.018 134.058 134.588C134.382 134.154 134.544 133.549 134.544 132.771C134.544 132.076 134.378 131.514 134.046 131.084C133.718 130.65 133.281 130.434 132.734 130.434C132.199 130.434 131.767 130.646 131.439 131.072C131.111 131.498 130.947 132.107 130.947 132.9ZM137.861 129.66L137.896 130.457C138.38 129.848 139.013 129.543 139.794 129.543C141.134 129.543 141.81 130.299 141.822 131.811V136H140.738V131.805C140.734 131.348 140.628 131.01 140.421 130.791C140.218 130.572 139.9 130.463 139.466 130.463C139.115 130.463 138.806 130.557 138.54 130.744C138.275 130.932 138.068 131.178 137.919 131.482V136H136.835V129.66H137.861ZM150.043 135.373C149.621 135.869 149.002 136.117 148.185 136.117C147.51 136.117 146.994 135.922 146.638 135.531C146.287 135.137 146.109 134.555 146.105 133.785V129.66H147.189V133.756C147.189 134.717 147.58 135.197 148.361 135.197C149.189 135.197 149.74 134.889 150.013 134.271V129.66H151.097V136H150.066L150.043 135.373ZM153.623 129.66L153.658 130.457C154.142 129.848 154.775 129.543 155.557 129.543C156.896 129.543 157.572 130.299 157.584 131.811V136H156.5V131.805C156.496 131.348 156.39 131.01 156.183 130.791C155.98 130.572 155.662 130.463 155.228 130.463C154.877 130.463 154.568 130.557 154.303 130.744C154.037 130.932 153.83 131.178 153.682 131.482V136H152.598V129.66H153.623ZM167.246 132.9C167.246 133.865 167.026 134.643 166.584 135.232C166.143 135.822 165.545 136.117 164.791 136.117C164.022 136.117 163.416 135.873 162.975 135.385V138.438H161.891V129.66H162.881L162.934 130.363C163.375 129.816 163.988 129.543 164.774 129.543C165.535 129.543 166.137 129.83 166.578 130.404C167.024 130.979 167.246 131.777 167.246 132.801V132.9ZM166.162 132.777C166.162 132.062 166.01 131.498 165.705 131.084C165.401 130.67 164.983 130.463 164.451 130.463C163.795 130.463 163.303 130.754 162.975 131.336V134.365C163.299 134.943 163.795 135.232 164.463 135.232C164.983 135.232 165.395 135.027 165.699 134.617C166.008 134.203 166.162 133.59 166.162 132.777ZM171.541 130.633C171.377 130.605 171.199 130.592 171.008 130.592C170.297 130.592 169.815 130.895 169.561 131.5V136H168.477V129.66H169.532L169.549 130.393C169.905 129.826 170.408 129.543 171.061 129.543C171.272 129.543 171.432 129.57 171.541 129.625V130.633ZM171.987 132.771C171.987 132.15 172.108 131.592 172.35 131.096C172.596 130.6 172.936 130.217 173.37 129.947C173.807 129.678 174.305 129.543 174.864 129.543C175.727 129.543 176.424 129.842 176.955 130.439C177.491 131.037 177.758 131.832 177.758 132.824V132.9C177.758 133.518 177.639 134.072 177.401 134.564C177.166 135.053 176.829 135.434 176.387 135.707C175.95 135.98 175.446 136.117 174.875 136.117C174.016 136.117 173.319 135.818 172.784 135.221C172.252 134.623 171.987 133.832 171.987 132.848V132.771ZM173.077 132.9C173.077 133.604 173.239 134.168 173.563 134.594C173.891 135.02 174.329 135.232 174.875 135.232C175.426 135.232 175.864 135.018 176.188 134.588C176.512 134.154 176.674 133.549 176.674 132.771C176.674 132.076 176.508 131.514 176.176 131.084C175.848 130.65 175.411 130.434 174.864 130.434C174.329 130.434 173.897 130.646 173.569 131.072C173.241 131.498 173.077 132.107 173.077 132.9ZM179.499 136V130.498H178.497V129.66H179.499V129.01C179.499 128.33 179.68 127.805 180.043 127.434C180.407 127.062 180.92 126.877 181.585 126.877C181.835 126.877 182.083 126.91 182.329 126.977L182.27 127.855C182.086 127.82 181.891 127.803 181.684 127.803C181.333 127.803 181.061 127.906 180.87 128.113C180.678 128.316 180.583 128.609 180.583 128.992V129.66H181.936V130.498H180.583V136H179.499ZM185.475 136.117C184.616 136.117 183.917 135.836 183.378 135.273C182.839 134.707 182.569 133.951 182.569 133.006V132.807C182.569 132.178 182.688 131.617 182.926 131.125C183.169 130.629 183.505 130.242 183.934 129.965C184.368 129.684 184.837 129.543 185.34 129.543C186.165 129.543 186.805 129.814 187.262 130.357C187.719 130.9 187.948 131.678 187.948 132.689V133.141H183.653C183.669 133.766 183.85 134.271 184.198 134.658C184.549 135.041 184.995 135.232 185.534 135.232C185.917 135.232 186.241 135.154 186.507 134.998C186.772 134.842 187.005 134.635 187.204 134.377L187.866 134.893C187.335 135.709 186.538 136.117 185.475 136.117ZM185.34 130.434C184.903 130.434 184.536 130.594 184.239 130.914C183.942 131.23 183.758 131.676 183.688 132.25H186.864V132.168C186.833 131.617 186.684 131.191 186.419 130.891C186.153 130.586 185.794 130.434 185.34 130.434ZM192.747 134.318C192.747 134.025 192.636 133.799 192.413 133.639C192.194 133.475 191.809 133.334 191.259 133.217C190.712 133.1 190.276 132.959 189.952 132.795C189.632 132.631 189.393 132.436 189.237 132.209C189.085 131.982 189.009 131.713 189.009 131.4C189.009 130.881 189.227 130.441 189.665 130.082C190.106 129.723 190.669 129.543 191.352 129.543C192.071 129.543 192.653 129.729 193.098 130.1C193.548 130.471 193.772 130.945 193.772 131.523H192.682C192.682 131.227 192.555 130.971 192.302 130.756C192.052 130.541 191.735 130.434 191.352 130.434C190.958 130.434 190.649 130.52 190.427 130.691C190.204 130.863 190.093 131.088 190.093 131.365C190.093 131.627 190.196 131.824 190.403 131.957C190.61 132.09 190.983 132.217 191.522 132.338C192.065 132.459 192.505 132.604 192.841 132.771C193.177 132.939 193.425 133.143 193.585 133.381C193.749 133.615 193.831 133.902 193.831 134.242C193.831 134.809 193.604 135.264 193.151 135.607C192.698 135.947 192.11 136.117 191.388 136.117C190.88 136.117 190.43 136.027 190.04 135.848C189.649 135.668 189.343 135.418 189.12 135.098C188.901 134.773 188.792 134.424 188.792 134.049H189.876C189.895 134.412 190.04 134.701 190.309 134.916C190.583 135.127 190.942 135.232 191.388 135.232C191.798 135.232 192.126 135.15 192.372 134.986C192.622 134.818 192.747 134.596 192.747 134.318ZM196.268 136H195.185V129.66H196.268V136ZM195.097 127.979C195.097 127.803 195.149 127.654 195.255 127.533C195.364 127.412 195.524 127.352 195.735 127.352C195.946 127.352 196.106 127.412 196.216 127.533C196.325 127.654 196.38 127.803 196.38 127.979C196.38 128.154 196.325 128.301 196.216 128.418C196.106 128.535 195.946 128.594 195.735 128.594C195.524 128.594 195.364 128.535 195.255 128.418C195.149 128.301 195.097 128.154 195.097 127.979ZM197.569 132.771C197.569 132.15 197.691 131.592 197.933 131.096C198.179 130.6 198.519 130.217 198.952 129.947C199.39 129.678 199.888 129.543 200.446 129.543C201.31 129.543 202.007 129.842 202.538 130.439C203.073 131.037 203.341 131.832 203.341 132.824V132.9C203.341 133.518 203.222 134.072 202.983 134.564C202.749 135.053 202.411 135.434 201.97 135.707C201.532 135.98 201.028 136.117 200.458 136.117C199.599 136.117 198.901 135.818 198.366 135.221C197.835 134.623 197.569 133.832 197.569 132.848V132.771ZM198.659 132.9C198.659 133.604 198.821 134.168 199.146 134.594C199.474 135.02 199.911 135.232 200.458 135.232C201.009 135.232 201.446 135.018 201.771 134.588C202.095 134.154 202.257 133.549 202.257 132.771C202.257 132.076 202.091 131.514 201.759 131.084C201.431 130.65 200.993 130.434 200.446 130.434C199.911 130.434 199.48 130.646 199.151 131.072C198.823 131.498 198.659 132.107 198.659 132.9ZM205.573 129.66L205.609 130.457C206.093 129.848 206.726 129.543 207.507 129.543C208.847 129.543 209.523 130.299 209.534 131.811V136H208.45V131.805C208.446 131.348 208.341 131.01 208.134 130.791C207.931 130.572 207.613 130.463 207.179 130.463C206.827 130.463 206.519 130.557 206.253 130.744C205.988 130.932 205.78 131.178 205.632 131.482V136H204.548V129.66H205.573ZM214.931 136C214.868 135.875 214.818 135.652 214.779 135.332C214.275 135.855 213.673 136.117 212.974 136.117C212.349 136.117 211.835 135.941 211.433 135.59C211.035 135.234 210.835 134.785 210.835 134.242C210.835 133.582 211.085 133.07 211.585 132.707C212.089 132.34 212.796 132.156 213.706 132.156H214.761V131.658C214.761 131.279 214.648 130.979 214.421 130.756C214.195 130.529 213.861 130.416 213.419 130.416C213.033 130.416 212.708 130.514 212.447 130.709C212.185 130.904 212.054 131.141 212.054 131.418H210.964C210.964 131.102 211.076 130.797 211.298 130.504C211.525 130.207 211.829 129.973 212.212 129.801C212.599 129.629 213.023 129.543 213.484 129.543C214.214 129.543 214.786 129.727 215.201 130.094C215.615 130.457 215.829 130.959 215.845 131.6V134.518C215.845 135.1 215.919 135.562 216.068 135.906V136H214.931ZM213.132 135.174C213.472 135.174 213.794 135.086 214.099 134.91C214.404 134.734 214.624 134.506 214.761 134.225V132.924H213.911C212.583 132.924 211.919 133.312 211.919 134.09C211.919 134.43 212.033 134.695 212.259 134.887C212.486 135.078 212.777 135.174 213.132 135.174ZM218.57 136H217.486V127H218.57V136ZM220.181 135.432C220.181 135.244 220.236 135.088 220.345 134.963C220.459 134.838 220.627 134.775 220.849 134.775C221.072 134.775 221.24 134.838 221.353 134.963C221.47 135.088 221.529 135.244 221.529 135.432C221.529 135.611 221.47 135.762 221.353 135.883C221.24 136.004 221.072 136.064 220.849 136.064C220.627 136.064 220.459 136.004 220.345 135.883C220.236 135.762 220.181 135.611 220.181 135.432ZM227.617 127.469L230.406 134.43L233.195 127.469H234.654V136H233.529V132.678L233.635 129.092L230.834 136H229.973L227.178 129.109L227.289 132.678V136H226.164V127.469H227.617ZM240.232 136C240.17 135.875 240.119 135.652 240.08 135.332C239.576 135.855 238.975 136.117 238.275 136.117C237.65 136.117 237.137 135.941 236.734 135.59C236.336 135.234 236.137 134.785 236.137 134.242C236.137 133.582 236.387 133.07 236.887 132.707C237.391 132.34 238.098 132.156 239.008 132.156H240.063V131.658C240.063 131.279 239.949 130.979 239.723 130.756C239.496 130.529 239.162 130.416 238.721 130.416C238.334 130.416 238.01 130.514 237.748 130.709C237.486 130.904 237.355 131.141 237.355 131.418H236.266C236.266 131.102 236.377 130.797 236.6 130.504C236.826 130.207 237.131 129.973 237.514 129.801C237.9 129.629 238.324 129.543 238.785 129.543C239.516 129.543 240.088 129.727 240.502 130.094C240.916 130.457 241.131 130.959 241.146 131.6V134.518C241.146 135.1 241.221 135.562 241.369 135.906V136H240.232ZM238.434 135.174C238.773 135.174 239.096 135.086 239.4 134.91C239.705 134.734 239.926 134.506 240.063 134.225V132.924H239.213C237.885 132.924 237.221 133.312 237.221 134.09C237.221 134.43 237.334 134.695 237.561 134.887C237.787 135.078 238.078 135.174 238.434 135.174ZM245.758 130.633C245.594 130.605 245.416 130.592 245.225 130.592C244.514 130.592 244.031 130.895 243.777 131.5V136H242.693V129.66H243.748L243.766 130.393C244.121 129.826 244.625 129.543 245.277 129.543C245.488 129.543 245.649 129.57 245.758 129.625V130.633ZM249.033 135.232C249.42 135.232 249.758 135.115 250.047 134.881C250.336 134.646 250.496 134.354 250.528 134.002H251.553C251.533 134.365 251.408 134.711 251.178 135.039C250.948 135.367 250.639 135.629 250.252 135.824C249.869 136.02 249.463 136.117 249.033 136.117C248.17 136.117 247.483 135.83 246.971 135.256C246.463 134.678 246.209 133.889 246.209 132.889V132.707C246.209 132.09 246.323 131.541 246.549 131.061C246.776 130.58 247.1 130.207 247.522 129.941C247.948 129.676 248.449 129.543 249.028 129.543C249.739 129.543 250.328 129.756 250.797 130.182C251.27 130.607 251.522 131.16 251.553 131.84H250.528C250.496 131.43 250.34 131.094 250.059 130.832C249.782 130.566 249.438 130.434 249.028 130.434C248.477 130.434 248.049 130.633 247.744 131.031C247.444 131.426 247.293 131.998 247.293 132.748V132.953C247.293 133.684 247.444 134.246 247.744 134.641C248.045 135.035 248.475 135.232 249.033 135.232ZM256.534 136C256.471 135.875 256.42 135.652 256.381 135.332C255.877 135.855 255.276 136.117 254.577 136.117C253.952 136.117 253.438 135.941 253.036 135.59C252.637 135.234 252.438 134.785 252.438 134.242C252.438 133.582 252.688 133.07 253.188 132.707C253.692 132.34 254.399 132.156 255.309 132.156H256.364V131.658C256.364 131.279 256.25 130.979 256.024 130.756C255.797 130.529 255.463 130.416 255.022 130.416C254.635 130.416 254.311 130.514 254.049 130.709C253.788 130.904 253.657 131.141 253.657 131.418H252.567C252.567 131.102 252.678 130.797 252.901 130.504C253.127 130.207 253.432 129.973 253.815 129.801C254.202 129.629 254.625 129.543 255.086 129.543C255.817 129.543 256.389 129.727 256.803 130.094C257.217 130.457 257.432 130.959 257.448 131.6V134.518C257.448 135.1 257.522 135.562 257.67 135.906V136H256.534ZM254.735 135.174C255.075 135.174 255.397 135.086 255.702 134.91C256.006 134.734 256.227 134.506 256.364 134.225V132.924H255.514C254.186 132.924 253.522 133.312 253.522 134.09C253.522 134.43 253.635 134.695 253.862 134.887C254.088 135.078 254.379 135.174 254.735 135.174ZM81.2813 150.117C80.4219 150.117 79.7227 149.836 79.1836 149.273C78.6446 148.707 78.3751 147.951 78.3751 147.006V146.807C78.3751 146.178 78.4942 145.617 78.7325 145.125C78.9747 144.629 79.3106 144.242 79.7403 143.965C80.1739 143.684 80.6426 143.543 81.1465 143.543C81.9708 143.543 82.6114 143.814 83.0684 144.357C83.5254 144.9 83.754 145.678 83.754 146.689V147.141H79.459C79.4747 147.766 79.6563 148.271 80.004 148.658C80.3555 149.041 80.8008 149.232 81.3399 149.232C81.7227 149.232 82.0469 149.154 82.3126 148.998C82.5782 148.842 82.8106 148.635 83.0098 148.377L83.6719 148.893C83.1407 149.709 82.3438 150.117 81.2813 150.117ZM81.1465 144.434C80.709 144.434 80.3419 144.594 80.045 144.914C79.7481 145.23 79.5645 145.676 79.4942 146.25H82.67V146.168C82.6387 145.617 82.4903 145.191 82.2247 144.891C81.959 144.586 81.5997 144.434 81.1465 144.434ZM86.0392 150H84.9553V141H86.0392V150ZM91.8403 143.66L91.893 144.393C92.3461 143.826 92.9536 143.543 93.7153 143.543C94.3872 143.543 94.8872 143.74 95.2153 144.135C95.5434 144.529 95.7114 145.119 95.7192 145.904V150H94.0258V145.945C94.0258 145.586 93.9477 145.326 93.7915 145.166C93.6352 145.002 93.3754 144.92 93.0122 144.92C92.5356 144.92 92.1782 145.123 91.9399 145.529V150H90.2465V143.66H91.8403ZM100.653 149.355C100.235 149.863 99.6568 150.117 98.9185 150.117C98.2389 150.117 97.7193 149.922 97.36 149.531C97.0045 149.141 96.8228 148.568 96.815 147.814V143.66H98.5084V147.756C98.5084 148.416 98.8092 148.746 99.4107 148.746C99.985 148.746 100.379 148.547 100.594 148.148V143.66H102.294V150H100.7L100.653 149.355ZM99.8971 141H101.743L100.12 142.816H98.7428L99.8971 141ZM105.007 143.66L105.059 144.369C105.509 143.818 106.116 143.543 106.882 143.543C107.698 143.543 108.259 143.865 108.563 144.51C109.009 143.865 109.643 143.543 110.468 143.543C111.155 143.543 111.667 143.744 112.003 144.146C112.339 144.545 112.507 145.146 112.507 145.951V150H110.807V145.957C110.807 145.598 110.737 145.336 110.596 145.172C110.456 145.004 110.208 144.92 109.852 144.92C109.344 144.92 108.993 145.162 108.798 145.646L108.803 150H107.11V145.963C107.11 145.596 107.038 145.33 106.893 145.166C106.749 145.002 106.503 144.92 106.155 144.92C105.675 144.92 105.327 145.119 105.112 145.518V150H103.419V143.66H105.007ZM116.579 150.117C115.649 150.117 114.891 149.832 114.306 149.262C113.723 148.691 113.432 147.932 113.432 146.982V146.818C113.432 146.182 113.556 145.613 113.802 145.113C114.048 144.609 114.395 144.223 114.845 143.953C115.298 143.68 115.813 143.543 116.391 143.543C117.259 143.543 117.94 143.816 118.436 144.363C118.936 144.91 119.186 145.686 119.186 146.689V147.381H115.149C115.204 147.795 115.368 148.127 115.641 148.377C115.919 148.627 116.268 148.752 116.69 148.752C117.343 148.752 117.852 148.516 118.22 148.043L119.052 148.975C118.798 149.334 118.454 149.615 118.02 149.818C117.587 150.018 117.106 150.117 116.579 150.117ZM116.386 144.914C116.05 144.914 115.776 145.027 115.565 145.254C115.358 145.48 115.225 145.805 115.167 146.227H117.522V146.092C117.515 145.717 117.413 145.428 117.218 145.225C117.022 145.018 116.745 144.914 116.386 144.914ZM123.563 145.248C123.333 145.217 123.13 145.201 122.954 145.201C122.313 145.201 121.894 145.418 121.694 145.852V150H120.001V143.66H121.601L121.647 144.416C121.987 143.834 122.458 143.543 123.06 143.543C123.247 143.543 123.423 143.568 123.587 143.619L123.563 145.248ZM123.757 146.771C123.757 146.143 123.878 145.582 124.12 145.09C124.362 144.598 124.71 144.217 125.163 143.947C125.62 143.678 126.15 143.543 126.751 143.543C127.607 143.543 128.304 143.805 128.843 144.328C129.386 144.852 129.689 145.562 129.751 146.461L129.763 146.895C129.763 147.867 129.491 148.648 128.948 149.238C128.405 149.824 127.677 150.117 126.763 150.117C125.849 150.117 125.118 149.824 124.571 149.238C124.028 148.652 123.757 147.855 123.757 146.848V146.771ZM125.45 146.895C125.45 147.496 125.564 147.957 125.79 148.277C126.017 148.594 126.341 148.752 126.763 148.752C127.173 148.752 127.493 148.596 127.724 148.283C127.954 147.967 128.069 147.463 128.069 146.771C128.069 146.182 127.954 145.725 127.724 145.4C127.493 145.076 127.169 144.914 126.751 144.914C126.337 144.914 126.017 145.076 125.79 145.4C125.564 145.721 125.45 146.219 125.45 146.895ZM137.533 150H135.839V143.473L133.818 144.1V142.723L137.351 141.457H137.533V150ZM145.9 146.473C145.9 147.652 145.656 148.555 145.168 149.18C144.679 149.805 143.964 150.117 143.023 150.117C142.093 150.117 141.382 149.811 140.89 149.197C140.398 148.584 140.146 147.705 140.134 146.561V144.99C140.134 143.799 140.38 142.895 140.873 142.277C141.369 141.66 142.082 141.352 143.011 141.352C143.941 141.352 144.652 141.658 145.144 142.271C145.636 142.881 145.888 143.758 145.9 144.902V146.473ZM144.207 144.75C144.207 144.043 144.109 143.529 143.914 143.209C143.722 142.885 143.421 142.723 143.011 142.723C142.613 142.723 142.318 142.877 142.126 143.186C141.939 143.49 141.839 143.969 141.828 144.621V146.695C141.828 147.391 141.921 147.908 142.109 148.248C142.3 148.584 142.605 148.752 143.023 148.752C143.437 148.752 143.736 148.59 143.919 148.266C144.103 147.941 144.199 147.445 144.207 146.777V144.75ZM152.638 146.473C152.638 147.652 152.394 148.555 151.906 149.18C151.418 149.805 150.703 150.117 149.761 150.117C148.832 150.117 148.121 149.811 147.629 149.197C147.136 148.584 146.884 147.705 146.873 146.561V144.99C146.873 143.799 147.119 142.895 147.611 142.277C148.107 141.66 148.82 141.352 149.75 141.352C150.679 141.352 151.39 141.658 151.882 142.271C152.375 142.881 152.627 143.758 152.638 144.902V146.473ZM150.945 144.75C150.945 144.043 150.847 143.529 150.652 143.209C150.461 142.885 150.16 142.723 149.75 142.723C149.351 142.723 149.056 142.877 148.865 143.186C148.677 143.49 148.578 143.969 148.566 144.621V146.695C148.566 147.391 148.66 147.908 148.847 148.248C149.039 148.584 149.343 148.752 149.761 148.752C150.175 148.752 150.474 148.59 150.658 148.266C150.841 147.941 150.937 147.445 150.945 146.777V144.75ZM156.435 146.777C156.435 145.805 156.666 145.023 157.127 144.434C157.588 143.84 158.191 143.543 158.937 143.543C159.68 143.543 160.268 143.797 160.701 144.305V141H161.785V150H160.789L160.736 149.32C160.303 149.852 159.699 150.117 158.926 150.117C158.191 150.117 157.592 149.816 157.127 149.215C156.666 148.613 156.435 147.828 156.435 146.859V146.777ZM157.519 146.9C157.519 147.619 157.668 148.182 157.965 148.588C158.262 148.994 158.672 149.197 159.195 149.197C159.883 149.197 160.385 148.889 160.701 148.271V145.359C160.377 144.762 159.879 144.463 159.207 144.463C158.676 144.463 158.262 144.668 157.965 145.078C157.668 145.488 157.519 146.096 157.519 146.9ZM165.951 150.117C165.092 150.117 164.393 149.836 163.854 149.273C163.315 148.707 163.045 147.951 163.045 147.006V146.807C163.045 146.178 163.164 145.617 163.402 145.125C163.645 144.629 163.981 144.242 164.41 143.965C164.844 143.684 165.313 143.543 165.816 143.543C166.641 143.543 167.281 143.814 167.738 144.357C168.195 144.9 168.424 145.678 168.424 146.689V147.141H164.129C164.145 147.766 164.326 148.271 164.674 148.658C165.025 149.041 165.471 149.232 166.01 149.232C166.393 149.232 166.717 149.154 166.982 148.998C167.248 148.842 167.481 148.635 167.68 148.377L168.342 148.893C167.811 149.709 167.014 150.117 165.951 150.117ZM165.816 144.434C165.379 144.434 165.012 144.594 164.715 144.914C164.418 145.23 164.234 145.676 164.164 146.25H167.34V146.168C167.309 145.617 167.16 145.191 166.895 144.891C166.629 144.586 166.27 144.434 165.816 144.434ZM173.223 148.318C173.223 148.025 173.112 147.799 172.889 147.639C172.67 147.475 172.285 147.334 171.735 147.217C171.188 147.1 170.752 146.959 170.428 146.795C170.108 146.631 169.869 146.436 169.713 146.209C169.561 145.982 169.485 145.713 169.485 145.4C169.485 144.881 169.703 144.441 170.141 144.082C170.582 143.723 171.145 143.543 171.828 143.543C172.547 143.543 173.129 143.729 173.574 144.1C174.024 144.471 174.248 144.945 174.248 145.523H173.158C173.158 145.227 173.031 144.971 172.778 144.756C172.528 144.541 172.211 144.434 171.828 144.434C171.434 144.434 171.125 144.52 170.903 144.691C170.68 144.863 170.569 145.088 170.569 145.365C170.569 145.627 170.672 145.824 170.879 145.957C171.086 146.09 171.459 146.217 171.998 146.338C172.541 146.459 172.981 146.604 173.317 146.771C173.653 146.939 173.901 147.143 174.061 147.381C174.225 147.615 174.307 147.902 174.307 148.242C174.307 148.809 174.08 149.264 173.627 149.607C173.174 149.947 172.586 150.117 171.863 150.117C171.356 150.117 170.906 150.027 170.516 149.848C170.125 149.668 169.819 149.418 169.596 149.098C169.377 148.773 169.268 148.424 169.268 148.049H170.352C170.371 148.412 170.516 148.701 170.785 148.916C171.059 149.127 171.418 149.232 171.863 149.232C172.274 149.232 172.602 149.15 172.848 148.986C173.098 148.818 173.223 148.596 173.223 148.318ZM175.303 146.777C175.303 145.805 175.534 145.023 175.994 144.434C176.455 143.84 177.059 143.543 177.805 143.543C178.547 143.543 179.135 143.797 179.569 144.305V141H180.653V150H179.657L179.604 149.32C179.17 149.852 178.567 150.117 177.793 150.117C177.059 150.117 176.459 149.816 175.994 149.215C175.534 148.613 175.303 147.828 175.303 146.859V146.777ZM176.387 146.9C176.387 147.619 176.535 148.182 176.832 148.588C177.129 148.994 177.539 149.197 178.063 149.197C178.75 149.197 179.252 148.889 179.569 148.271V145.359C179.244 144.762 178.746 144.463 178.075 144.463C177.543 144.463 177.129 144.668 176.832 145.078C176.535 145.488 176.387 146.096 176.387 146.9ZM184.819 150.117C183.959 150.117 183.26 149.836 182.721 149.273C182.182 148.707 181.913 147.951 181.913 147.006V146.807C181.913 146.178 182.032 145.617 182.27 145.125C182.512 144.629 182.848 144.242 183.278 143.965C183.711 143.684 184.18 143.543 184.684 143.543C185.508 143.543 186.149 143.814 186.606 144.357C187.063 144.9 187.291 145.678 187.291 146.689V147.141H182.997C183.012 147.766 183.194 148.271 183.541 148.658C183.893 149.041 184.338 149.232 184.877 149.232C185.26 149.232 185.584 149.154 185.85 148.998C186.116 148.842 186.348 148.635 186.547 148.377L187.209 148.893C186.678 149.709 185.881 150.117 184.819 150.117ZM184.684 144.434C184.247 144.434 183.879 144.594 183.582 144.914C183.286 145.23 183.102 145.676 183.032 146.25H186.207V146.168C186.176 145.617 186.028 145.191 185.762 144.891C185.497 144.586 185.137 144.434 184.684 144.434ZM193.766 149.232C194.153 149.232 194.491 149.115 194.78 148.881C195.069 148.646 195.229 148.354 195.26 148.002H196.286C196.266 148.365 196.141 148.711 195.911 149.039C195.68 149.367 195.372 149.629 194.985 149.824C194.602 150.02 194.196 150.117 193.766 150.117C192.903 150.117 192.216 149.83 191.704 149.256C191.196 148.678 190.942 147.889 190.942 146.889V146.707C190.942 146.09 191.055 145.541 191.282 145.061C191.509 144.58 191.833 144.207 192.255 143.941C192.68 143.676 193.182 143.543 193.76 143.543C194.471 143.543 195.061 143.756 195.53 144.182C196.003 144.607 196.255 145.16 196.286 145.84H195.26C195.229 145.43 195.073 145.094 194.792 144.832C194.514 144.566 194.171 144.434 193.76 144.434C193.21 144.434 192.782 144.633 192.477 145.031C192.176 145.426 192.026 145.998 192.026 146.748V146.953C192.026 147.684 192.176 148.246 192.477 148.641C192.778 149.035 193.208 149.232 193.766 149.232ZM201.266 149.373C200.845 149.869 200.225 150.117 199.409 150.117C198.733 150.117 198.218 149.922 197.862 149.531C197.511 149.137 197.333 148.555 197.329 147.785V143.66H198.413V147.756C198.413 148.717 198.804 149.197 199.585 149.197C200.413 149.197 200.964 148.889 201.237 148.271V143.66H202.321V150H201.29L201.266 149.373ZM207.735 150C207.673 149.875 207.622 149.652 207.583 149.332C207.079 149.855 206.478 150.117 205.778 150.117C205.153 150.117 204.64 149.941 204.237 149.59C203.839 149.234 203.64 148.785 203.64 148.242C203.64 147.582 203.89 147.07 204.39 146.707C204.894 146.34 205.601 146.156 206.511 146.156H207.565V145.658C207.565 145.279 207.452 144.979 207.226 144.756C206.999 144.529 206.665 144.416 206.224 144.416C205.837 144.416 205.513 144.514 205.251 144.709C204.989 144.904 204.858 145.141 204.858 145.418H203.769C203.769 145.102 203.88 144.797 204.103 144.504C204.329 144.207 204.634 143.973 205.017 143.801C205.403 143.629 205.827 143.543 206.288 143.543C207.019 143.543 207.591 143.727 208.005 144.094C208.419 144.457 208.634 144.959 208.649 145.6V148.518C208.649 149.1 208.724 149.562 208.872 149.906V150H207.735ZM205.937 149.174C206.276 149.174 206.599 149.086 206.903 148.91C207.208 148.734 207.429 148.506 207.565 148.225V146.924H206.716C205.388 146.924 204.724 147.312 204.724 148.09C204.724 148.43 204.837 148.695 205.063 148.887C205.29 149.078 205.581 149.174 205.937 149.174ZM211.374 150H210.29V141H211.374V150ZM212.699 146.777C212.699 145.781 212.927 144.994 213.384 144.416C213.841 143.834 214.454 143.543 215.224 143.543C215.974 143.543 216.566 143.795 216.999 144.299L217.046 143.66H218.042V152.438H216.958V149.414C216.521 149.883 215.939 150.117 215.212 150.117C214.447 150.117 213.835 149.82 213.378 149.227C212.925 148.629 212.699 147.838 212.699 146.854V146.777ZM213.783 146.9C213.783 147.627 213.935 148.197 214.24 148.611C214.548 149.025 214.962 149.232 215.482 149.232C216.126 149.232 216.618 148.947 216.958 148.377V145.271C216.615 144.713 216.126 144.434 215.493 144.434C214.97 144.434 214.554 144.643 214.245 145.061C213.937 145.475 213.783 146.088 213.783 146.9ZM223.544 149.373C223.122 149.869 222.503 150.117 221.687 150.117C221.011 150.117 220.496 149.922 220.14 149.531C219.788 149.137 219.611 148.555 219.607 147.785V143.66H220.691V147.756C220.691 148.717 221.081 149.197 221.863 149.197C222.691 149.197 223.242 148.889 223.515 148.271V143.66H224.599V150H223.568L223.544 149.373ZM227.277 150H226.193V143.66H227.277V150ZM226.105 141.979C226.105 141.803 226.158 141.654 226.263 141.533C226.373 141.412 226.533 141.352 226.744 141.352C226.955 141.352 227.115 141.412 227.224 141.533C227.334 141.654 227.388 141.803 227.388 141.979C227.388 142.154 227.334 142.301 227.224 142.418C227.115 142.535 226.955 142.594 226.744 142.594C226.533 142.594 226.373 142.535 226.263 142.418C226.158 142.301 226.105 142.154 226.105 141.979ZM231.496 150.117C230.636 150.117 229.937 149.836 229.398 149.273C228.859 148.707 228.59 147.951 228.59 147.006V146.807C228.59 146.178 228.709 145.617 228.947 145.125C229.189 144.629 229.525 144.242 229.955 143.965C230.388 143.684 230.857 143.543 231.361 143.543C232.185 143.543 232.826 143.814 233.283 144.357C233.74 144.9 233.968 145.678 233.968 146.689V147.141H229.674C229.689 147.766 229.871 148.271 230.218 148.658C230.57 149.041 231.015 149.232 231.554 149.232C231.937 149.232 232.261 149.154 232.527 148.998C232.793 148.842 233.025 148.635 233.224 148.377L233.886 148.893C233.355 149.709 232.558 150.117 231.496 150.117ZM231.361 144.434C230.924 144.434 230.556 144.594 230.259 144.914C229.963 145.23 229.779 145.676 229.709 146.25H232.884V146.168C232.853 145.617 232.705 145.191 232.439 144.891C232.174 144.586 231.814 144.434 231.361 144.434ZM238.14 144.633C237.976 144.605 237.799 144.592 237.607 144.592C236.896 144.592 236.414 144.895 236.16 145.5V150H235.076V143.66H236.131L236.148 144.393C236.504 143.826 237.008 143.543 237.66 143.543C237.871 143.543 238.031 143.57 238.14 143.625V144.633ZM116.884 156.125V157.66H118.067V158.498H116.884V162.43C116.884 162.684 116.936 162.875 117.042 163.004C117.147 163.129 117.327 163.191 117.581 163.191C117.706 163.191 117.878 163.168 118.097 163.121V164C117.811 164.078 117.534 164.117 117.265 164.117C116.78 164.117 116.415 163.971 116.169 163.678C115.923 163.385 115.8 162.969 115.8 162.43V158.498H114.645V157.66H115.8V156.125H116.884ZM121.817 164.117C120.958 164.117 120.259 163.836 119.72 163.273C119.181 162.707 118.911 161.951 118.911 161.006V160.807C118.911 160.178 119.03 159.617 119.269 159.125C119.511 158.629 119.847 158.242 120.276 157.965C120.71 157.684 121.179 157.543 121.683 157.543C122.507 157.543 123.148 157.814 123.605 158.357C124.062 158.9 124.29 159.678 124.29 160.689V161.141H119.995C120.011 161.766 120.192 162.271 120.54 162.658C120.892 163.041 121.337 163.232 121.876 163.232C122.259 163.232 122.583 163.154 122.849 162.998C123.114 162.842 123.347 162.635 123.546 162.377L124.208 162.893C123.677 163.709 122.88 164.117 121.817 164.117ZM121.683 158.434C121.245 158.434 120.878 158.594 120.581 158.914C120.284 159.23 120.101 159.676 120.03 160.25H123.206V160.168C123.175 159.617 123.026 159.191 122.761 158.891C122.495 158.586 122.136 158.434 121.683 158.434ZM126.575 164H125.491V155H126.575V164ZM130.794 164.117C129.935 164.117 129.236 163.836 128.697 163.273C128.158 162.707 127.888 161.951 127.888 161.006V160.807C127.888 160.178 128.007 159.617 128.245 159.125C128.488 158.629 128.824 158.242 129.253 157.965C129.687 157.684 130.156 157.543 130.66 157.543C131.484 157.543 132.124 157.814 132.581 158.357C133.038 158.9 133.267 159.678 133.267 160.689V161.141H128.972C128.988 161.766 129.169 162.271 129.517 162.658C129.868 163.041 130.314 163.232 130.853 163.232C131.236 163.232 131.56 163.154 131.826 162.998C132.091 162.842 132.324 162.635 132.523 162.377L133.185 162.893C132.654 163.709 131.857 164.117 130.794 164.117ZM130.66 158.434C130.222 158.434 129.855 158.594 129.558 158.914C129.261 159.23 129.077 159.676 129.007 160.25H132.183V160.168C132.152 159.617 132.003 159.191 131.738 158.891C131.472 158.586 131.113 158.434 130.66 158.434ZM131.187 155H132.499L130.929 156.723H130.056L131.187 155ZM134.908 164V158.498H133.906V157.66H134.908V157.01C134.908 156.33 135.089 155.805 135.453 155.434C135.816 155.062 136.33 154.877 136.994 154.877C137.244 154.877 137.492 154.91 137.738 154.977L137.679 155.855C137.496 155.82 137.3 155.803 137.093 155.803C136.742 155.803 136.47 155.906 136.279 156.113C136.087 156.316 135.992 156.609 135.992 156.992V157.66H137.345V158.498H135.992V164H134.908ZM138.107 160.771C138.107 160.15 138.228 159.592 138.47 159.096C138.716 158.6 139.056 158.217 139.49 157.947C139.927 157.678 140.425 157.543 140.984 157.543C141.847 157.543 142.545 157.842 143.076 158.439C143.611 159.037 143.879 159.832 143.879 160.824V160.9C143.879 161.518 143.759 162.072 143.521 162.564C143.287 163.053 142.949 163.434 142.507 163.707C142.07 163.98 141.566 164.117 140.996 164.117C140.136 164.117 139.439 163.818 138.904 163.221C138.373 162.623 138.107 161.832 138.107 160.848V160.771ZM139.197 160.9C139.197 161.604 139.359 162.168 139.683 162.594C140.011 163.02 140.449 163.232 140.996 163.232C141.546 163.232 141.984 163.018 142.308 162.588C142.632 162.154 142.795 161.549 142.795 160.771C142.795 160.076 142.629 159.514 142.296 159.084C141.968 158.65 141.531 158.434 140.984 158.434C140.449 158.434 140.017 158.646 139.689 159.072C139.361 159.498 139.197 160.107 139.197 160.9ZM146.111 157.66L146.146 158.457C146.631 157.848 147.263 157.543 148.045 157.543C149.385 157.543 150.06 158.299 150.072 159.811V164H148.988V159.805C148.984 159.348 148.879 159.01 148.672 158.791C148.468 158.572 148.15 158.463 147.717 158.463C147.365 158.463 147.056 158.557 146.791 158.744C146.525 158.932 146.318 159.178 146.17 159.482V164H145.086V157.66H146.111ZM151.267 160.771C151.267 160.15 151.389 159.592 151.631 159.096C151.877 158.6 152.217 158.217 152.65 157.947C153.088 157.678 153.586 157.543 154.144 157.543C155.008 157.543 155.705 157.842 156.236 158.439C156.771 159.037 157.039 159.832 157.039 160.824V160.9C157.039 161.518 156.92 162.072 156.682 162.564C156.447 163.053 156.109 163.434 155.668 163.707C155.23 163.98 154.726 164.117 154.156 164.117C153.297 164.117 152.599 163.818 152.064 163.221C151.533 162.623 151.267 161.832 151.267 160.848V160.771ZM152.357 160.9C152.357 161.604 152.519 162.168 152.844 162.594C153.172 163.02 153.609 163.232 154.156 163.232C154.707 163.232 155.144 163.018 155.469 162.588C155.793 162.154 155.955 161.549 155.955 160.771C155.955 160.076 155.789 159.514 155.457 159.084C155.129 158.65 154.691 158.434 154.144 158.434C153.609 158.434 153.178 158.646 152.849 159.072C152.521 159.498 152.357 160.107 152.357 160.9ZM166.426 160.9C166.426 161.865 166.205 162.643 165.764 163.232C165.322 163.822 164.725 164.117 163.971 164.117C163.201 164.117 162.596 163.873 162.154 163.385V166.438H161.07V157.66H162.061L162.113 158.363C162.555 157.816 163.168 157.543 163.953 157.543C164.715 157.543 165.317 157.83 165.758 158.404C166.203 158.979 166.426 159.777 166.426 160.801V160.9ZM165.342 160.777C165.342 160.062 165.19 159.498 164.885 159.084C164.58 158.67 164.162 158.463 163.631 158.463C162.975 158.463 162.483 158.754 162.154 159.336V162.365C162.479 162.943 162.975 163.232 163.643 163.232C164.162 163.232 164.574 163.027 164.879 162.617C165.188 162.203 165.342 161.59 165.342 160.777ZM171.571 163.373C171.149 163.869 170.53 164.117 169.713 164.117C169.037 164.117 168.522 163.922 168.166 163.531C167.815 163.137 167.637 162.555 167.633 161.785V157.66H168.717V161.756C168.717 162.717 169.108 163.197 169.889 163.197C170.717 163.197 171.268 162.889 171.541 162.271V157.66H172.625V164H171.594L171.571 163.373ZM170.692 155H172.004L170.434 156.723H169.561L170.692 155ZM179.493 160.9C179.493 161.869 179.27 162.648 178.825 163.238C178.379 163.824 177.782 164.117 177.032 164.117C176.231 164.117 175.612 163.834 175.174 163.268L175.121 164H174.125V155H175.209V158.357C175.647 157.814 176.25 157.543 177.02 157.543C177.789 157.543 178.393 157.834 178.83 158.416C179.272 158.998 179.493 159.795 179.493 160.807V160.9ZM178.409 160.777C178.409 160.039 178.266 159.469 177.981 159.066C177.696 158.664 177.286 158.463 176.75 158.463C176.036 158.463 175.522 158.795 175.209 159.459V162.201C175.541 162.865 176.059 163.197 176.762 163.197C177.282 163.197 177.686 162.996 177.975 162.594C178.264 162.191 178.409 161.586 178.409 160.777ZM181.889 164H180.805V155H181.889V164ZM184.655 164H183.571V157.66H184.655V164ZM183.483 155.979C183.483 155.803 183.536 155.654 183.641 155.533C183.751 155.412 183.911 155.352 184.122 155.352C184.333 155.352 184.493 155.412 184.602 155.533C184.712 155.654 184.766 155.803 184.766 155.979C184.766 156.154 184.712 156.301 184.602 156.418C184.493 156.535 184.333 156.594 184.122 156.594C183.911 156.594 183.751 156.535 183.641 156.418C183.536 156.301 183.483 156.154 183.483 155.979ZM188.786 163.232C189.173 163.232 189.511 163.115 189.8 162.881C190.089 162.646 190.249 162.354 190.28 162.002H191.305C191.286 162.365 191.161 162.711 190.93 163.039C190.7 163.367 190.391 163.629 190.005 163.824C189.622 164.02 189.216 164.117 188.786 164.117C187.923 164.117 187.235 163.83 186.723 163.256C186.216 162.678 185.962 161.889 185.962 160.889V160.707C185.962 160.09 186.075 159.541 186.302 159.061C186.528 158.58 186.852 158.207 187.274 157.941C187.7 157.676 188.202 157.543 188.78 157.543C189.491 157.543 190.081 157.756 190.55 158.182C191.022 158.607 191.274 159.16 191.305 159.84H190.28C190.249 159.43 190.093 159.094 189.811 158.832C189.534 158.566 189.19 158.434 188.78 158.434C188.229 158.434 187.802 158.633 187.497 159.031C187.196 159.426 187.046 159.998 187.046 160.748V160.953C187.046 161.684 187.196 162.246 187.497 162.641C187.798 163.035 188.227 163.232 188.786 163.232ZM192.085 160.771C192.085 160.15 192.206 159.592 192.448 159.096C192.694 158.6 193.034 158.217 193.468 157.947C193.905 157.678 194.403 157.543 194.962 157.543C195.825 157.543 196.522 157.842 197.054 158.439C197.589 159.037 197.856 159.832 197.856 160.824V160.9C197.856 161.518 197.737 162.072 197.499 162.564C197.265 163.053 196.927 163.434 196.485 163.707C196.048 163.98 195.544 164.117 194.974 164.117C194.114 164.117 193.417 163.818 192.882 163.221C192.351 162.623 192.085 161.832 192.085 160.848V160.771ZM193.175 160.9C193.175 161.604 193.337 162.168 193.661 162.594C193.989 163.02 194.427 163.232 194.974 163.232C195.524 163.232 195.962 163.018 196.286 162.588C196.61 162.154 196.772 161.549 196.772 160.771C196.772 160.076 196.606 159.514 196.274 159.084C195.946 158.65 195.509 158.434 194.962 158.434C194.427 158.434 193.995 158.646 193.667 159.072C193.339 159.498 193.175 160.107 193.175 160.9ZM199.087 163.432C199.087 163.244 199.142 163.088 199.251 162.963C199.364 162.838 199.532 162.775 199.755 162.775C199.978 162.775 200.146 162.838 200.259 162.963C200.376 163.088 200.435 163.244 200.435 163.432C200.435 163.611 200.376 163.762 200.259 163.883C200.146 164.004 199.978 164.064 199.755 164.064C199.532 164.064 199.364 164.004 199.251 163.883C199.142 163.762 199.087 163.611 199.087 163.432Z" fill="#858585"/>
</g>
<defs>
<filter id="filter0_d" x="0" y="0" width="308" height="228" filterUnits="userSpaceOnUse" color-interpolation-filters="sRGB">
<feFlood flood-opacity="0" result="BackgroundImageFix"/>
<feColorMatrix in="SourceAlpha" type="matrix" values="0 0 0 0 0 0 0 0 0 0 0 0 0 0 0 0 0 0 127 0"/>
<feOffset dx="-4" dy="4"/>
<feGaussianBlur stdDeviation="2"/>
<feColorMatrix type="matrix" values="0 0 0 0 0 0 0 0 0 0 0 0 0 0 0 0 0 0 0.05 0"/>
<feBlend mode="normal" in2="BackgroundImageFix" result="effect1_dropShadow"/>
<feBlend mode="normal" in="SourceGraphic" in2="effect1_dropShadow" result="shape"/>
</filter>
</defs>
</svg>
