<svg width="308" height="228" viewBox="0 0 308 228" fill="none" xmlns="http://www.w3.org/2000/svg">
<g filter="url(#filter0_d)">
<rect x="8.5" y="0.5" width="299" height="219" rx="9.5" fill="white" stroke="#EDEEED"/>
<path d="M51.0454 104.68C50.8501 106.477 50.2056 107.852 49.1118 108.805C48.0259 109.758 46.5767 110.234 44.7642 110.234C43.4986 110.234 42.3775 109.918 41.4009 109.285C40.4322 108.652 39.6822 107.758 39.1509 106.602C38.6197 105.438 38.3501 104.109 38.3423 102.617V100.402C38.3423 98.8867 38.6079 97.543 39.1392 96.3711C39.6704 95.1992 40.4322 94.2969 41.4243 93.6641C42.4243 93.0234 43.5728 92.7031 44.8697 92.7031C46.6978 92.7031 48.1392 93.1992 49.1939 94.1914C50.2564 95.1758 50.8736 96.5391 51.0454 98.2812H49.5923C49.2329 95.3828 47.6587 93.9336 44.8697 93.9336C43.3228 93.9336 42.0884 94.5117 41.1665 95.668C40.2525 96.8242 39.7954 98.4219 39.7954 100.461V102.547C39.7954 104.516 40.2407 106.086 41.1314 107.258C42.0298 108.43 43.2407 109.016 44.7642 109.016C46.272 109.016 47.4087 108.656 48.1743 107.938C48.94 107.211 49.4126 106.125 49.5923 104.68H51.0454ZM55.6393 110H54.2331V92H55.6393V110ZM60.8543 110H59.448V97.3203H60.8543V110ZM61.5809 92.1406H63.2801L60.573 95.4219H59.3426L61.5809 92.1406ZM65.8349 97.3203L65.8818 99.4883C66.3583 98.707 66.9521 98.1133 67.663 97.707C68.374 97.293 69.1591 97.0859 70.0185 97.0859C71.3779 97.0859 72.3896 97.4688 73.0536 98.2344C73.7177 99 74.0536 100.148 74.0615 101.68V110H72.6669V101.668C72.6591 100.535 72.4169 99.6914 71.9404 99.1367C71.4716 98.582 70.7177 98.3047 69.6786 98.3047C68.8115 98.3047 68.0419 98.5781 67.37 99.125C66.706 99.6641 66.2138 100.395 65.8935 101.316V110H64.499V97.3203H65.8349ZM79.1124 110H77.7061V97.3203H79.1124V110ZM77.46 93.6523C77.46 93.3867 77.546 93.1641 77.7178 92.9844C77.8897 92.7969 78.1241 92.7031 78.421 92.7031C78.7178 92.7031 78.9522 92.7969 79.1241 92.9844C79.3038 93.1641 79.3936 93.3867 79.3936 93.6523C79.3936 93.918 79.3038 94.1406 79.1241 94.3203C78.9522 94.5 78.7178 94.5898 78.421 94.5898C78.1241 94.5898 77.8897 94.5 77.7178 94.3203C77.546 94.1406 77.46 93.918 77.46 93.6523ZM87.468 109.051C88.4445 109.051 89.2609 108.777 89.9172 108.23C90.5812 107.676 90.9406 106.961 90.9953 106.086H92.343C92.3039 106.859 92.0617 107.566 91.6164 108.207C91.1711 108.84 90.5773 109.336 89.8352 109.695C89.1008 110.055 88.3117 110.234 87.468 110.234C85.8039 110.234 84.4836 109.656 83.507 108.5C82.5383 107.344 82.0539 105.789 82.0539 103.836V103.414C82.0539 102.164 82.2727 101.059 82.7102 100.098C83.1477 99.1367 83.7727 98.3945 84.5852 97.8711C85.4055 97.3477 86.3625 97.0859 87.4562 97.0859C88.8469 97.0859 89.9914 97.5 90.8898 98.3281C91.7961 99.1562 92.2805 100.246 92.343 101.598H90.9953C90.9328 100.605 90.5734 99.8047 89.9172 99.1953C89.2687 98.5859 88.4484 98.2812 87.4562 98.2812C86.1906 98.2812 85.2062 98.7383 84.5031 99.6523C83.8078 100.566 83.4602 101.848 83.4602 103.496V103.906C83.4602 105.523 83.8078 106.785 84.5031 107.691C85.2062 108.598 86.1945 109.051 87.468 109.051ZM103.007 110C102.867 109.602 102.777 109.012 102.738 108.23C102.245 108.871 101.617 109.367 100.851 109.719C100.093 110.062 99.2884 110.234 98.4368 110.234C97.2181 110.234 96.2298 109.895 95.472 109.215C94.722 108.535 94.347 107.676 94.347 106.637C94.347 105.402 94.8587 104.426 95.8822 103.707C96.9134 102.988 98.347 102.629 100.183 102.629H102.726V101.188C102.726 100.281 102.445 99.5703 101.882 99.0547C101.327 98.5312 100.515 98.2695 99.4447 98.2695C98.4681 98.2695 97.6595 98.5195 97.0189 99.0195C96.3783 99.5195 96.0579 100.121 96.0579 100.824L94.6517 100.812C94.6517 99.8047 95.1204 98.9336 96.0579 98.1992C96.9954 97.457 98.1478 97.0859 99.515 97.0859C100.929 97.0859 102.042 97.4414 102.855 98.1523C103.675 98.8555 104.097 99.8398 104.12 101.105V107.105C104.12 108.332 104.249 109.25 104.507 109.859V110H103.007ZM98.6009 108.992C99.5384 108.992 100.374 108.766 101.109 108.312C101.851 107.859 102.39 107.254 102.726 106.496V103.707H100.218C98.8197 103.723 97.7259 103.98 96.9368 104.48C96.1478 104.973 95.7533 105.652 95.7533 106.52C95.7533 107.23 96.015 107.82 96.5384 108.289C97.0697 108.758 97.7572 108.992 98.6009 108.992ZM112.839 103.543C112.839 101.574 113.277 100.008 114.152 98.8438C115.035 97.6719 116.23 97.0859 117.738 97.0859C119.449 97.0859 120.754 97.7617 121.652 99.1133V92H123.046V110H121.734L121.675 108.312C120.777 109.594 119.457 110.234 117.714 110.234C116.254 110.234 115.074 109.648 114.175 108.477C113.285 107.297 112.839 105.707 112.839 103.707V103.543ZM114.257 103.789C114.257 105.406 114.582 106.684 115.23 107.621C115.879 108.551 116.793 109.016 117.972 109.016C119.699 109.016 120.925 108.254 121.652 106.73V100.777C120.925 99.1289 119.707 98.3047 117.996 98.3047C116.816 98.3047 115.898 98.7695 115.242 99.6992C114.586 100.621 114.257 101.984 114.257 103.789ZM131.496 110.234C130.418 110.234 129.441 109.969 128.566 109.438C127.699 108.906 127.023 108.168 126.539 107.223C126.054 106.27 125.812 105.203 125.812 104.023V103.52C125.812 102.301 126.047 101.203 126.515 100.227C126.992 99.25 127.652 98.4844 128.496 97.9297C129.34 97.3672 130.254 97.0859 131.238 97.0859C132.777 97.0859 133.996 97.6133 134.894 98.668C135.801 99.7148 136.254 101.148 136.254 102.969V103.754H127.207V104.023C127.207 105.461 127.617 106.66 128.437 107.621C129.265 108.574 130.304 109.051 131.554 109.051C132.304 109.051 132.965 108.914 133.535 108.641C134.113 108.367 134.636 107.93 135.105 107.328L135.984 107.996C134.953 109.488 133.457 110.234 131.496 110.234ZM131.238 98.2812C130.183 98.2812 129.293 98.668 128.566 99.4414C127.847 100.215 127.41 101.254 127.254 102.559H134.859V102.406C134.82 101.188 134.472 100.195 133.816 99.4297C133.16 98.6641 132.301 98.2812 131.238 98.2812ZM154.5 105.805C154.5 104.859 154.168 104.113 153.504 103.566C152.84 103.012 151.625 102.488 149.859 101.996C148.094 101.496 146.805 100.953 145.992 100.367C144.836 99.5391 144.258 98.4531 144.258 97.1094C144.258 95.8047 144.793 94.7461 145.863 93.9336C146.941 93.1133 148.316 92.7031 149.988 92.7031C151.121 92.7031 152.133 92.9219 153.023 93.3594C153.922 93.7969 154.617 94.4062 155.109 95.1875C155.602 95.9688 155.848 96.8398 155.848 97.8008H154.395C154.395 96.6367 153.996 95.7031 153.199 95C152.402 94.2891 151.332 93.9336 149.988 93.9336C148.684 93.9336 147.645 94.2266 146.871 94.8125C146.098 95.3906 145.711 96.1484 145.711 97.0859C145.711 97.9531 146.059 98.6602 146.754 99.207C147.449 99.7539 148.562 100.238 150.094 100.66C151.625 101.074 152.785 101.508 153.574 101.961C154.363 102.406 154.957 102.941 155.355 103.566C155.754 104.191 155.953 104.93 155.953 105.781C155.953 107.125 155.414 108.203 154.336 109.016C153.266 109.828 151.852 110.234 150.094 110.234C148.891 110.234 147.785 110.02 146.777 109.59C145.777 109.16 145.016 108.559 144.492 107.785C143.977 107.012 143.719 106.125 143.719 105.125H145.16C145.16 106.328 145.609 107.277 146.508 107.973C147.406 108.668 148.602 109.016 150.094 109.016C151.422 109.016 152.488 108.723 153.293 108.137C154.098 107.551 154.5 106.773 154.5 105.805ZM166.594 110C166.453 109.602 166.363 109.012 166.324 108.23C165.832 108.871 165.203 109.367 164.438 109.719C163.68 110.062 162.875 110.234 162.024 110.234C160.805 110.234 159.817 109.895 159.059 109.215C158.309 108.535 157.934 107.676 157.934 106.637C157.934 105.402 158.445 104.426 159.469 103.707C160.5 102.988 161.934 102.629 163.77 102.629H166.313V101.188C166.313 100.281 166.031 99.5703 165.469 99.0547C164.914 98.5312 164.102 98.2695 163.031 98.2695C162.055 98.2695 161.246 98.5195 160.606 99.0195C159.965 99.5195 159.645 100.121 159.645 100.824L158.238 100.812C158.238 99.8047 158.707 98.9336 159.645 98.1992C160.582 97.457 161.734 97.0859 163.102 97.0859C164.516 97.0859 165.629 97.4414 166.442 98.1523C167.262 98.8555 167.684 99.8398 167.707 101.105V107.105C167.707 108.332 167.836 109.25 168.094 109.859V110H166.594ZM162.188 108.992C163.125 108.992 163.961 108.766 164.695 108.312C165.438 107.859 165.977 107.254 166.313 106.496V103.707H163.805C162.406 103.723 161.313 103.98 160.524 104.48C159.734 104.973 159.34 105.652 159.34 106.52C159.34 107.23 159.602 107.82 160.125 108.289C160.656 108.758 161.344 108.992 162.188 108.992ZM172.875 110H171.469V92H172.875V110ZM184.7 108.395C183.856 109.621 182.508 110.234 180.657 110.234C179.305 110.234 178.278 109.844 177.575 109.062C176.871 108.273 176.512 107.109 176.496 105.57V97.3203H177.891V105.395C177.891 107.809 178.868 109.016 180.821 109.016C182.852 109.016 184.137 108.176 184.676 106.496V97.3203H186.082V110H184.723L184.7 108.395ZM189.024 103.543C189.024 101.574 189.461 100.008 190.336 98.8438C191.219 97.6719 192.415 97.0859 193.922 97.0859C195.633 97.0859 196.938 97.7617 197.836 99.1133V92H199.231V110H197.918L197.86 108.312C196.961 109.594 195.641 110.234 193.899 110.234C192.438 110.234 191.258 109.648 190.36 108.477C189.469 107.297 189.024 105.707 189.024 103.707V103.543ZM190.442 103.789C190.442 105.406 190.766 106.684 191.415 107.621C192.063 108.551 192.977 109.016 194.157 109.016C195.883 109.016 197.11 108.254 197.836 106.73V100.777C197.11 99.1289 195.891 98.3047 194.18 98.3047C193.001 98.3047 192.083 98.7695 191.426 99.6992C190.77 100.621 190.442 101.984 190.442 103.789ZM210.692 92.9375L216.985 107.996L223.302 92.9375H225.223V110H223.782V102.57L223.899 94.9531L217.548 110H216.434L210.106 95.0117L210.223 102.523V110H208.782V92.9375H210.692ZM233.977 110.234C232.899 110.234 231.923 109.969 231.048 109.438C230.181 108.906 229.505 108.168 229.02 107.223C228.536 106.27 228.294 105.203 228.294 104.023V103.52C228.294 102.301 228.528 101.203 228.997 100.227C229.474 99.25 230.134 98.4844 230.977 97.9297C231.821 97.3672 232.735 97.0859 233.72 97.0859C235.259 97.0859 236.477 97.6133 237.376 98.668C238.282 99.7148 238.735 101.148 238.735 102.969V103.754H229.688V104.023C229.688 105.461 230.099 106.66 230.919 107.621C231.747 108.574 232.786 109.051 234.036 109.051C234.786 109.051 235.446 108.914 236.017 108.641C236.595 108.367 237.118 107.93 237.587 107.328L238.466 107.996C237.435 109.488 235.938 110.234 233.977 110.234ZM233.72 98.2812C232.665 98.2812 231.774 98.668 231.048 99.4414C230.329 100.215 229.892 101.254 229.735 102.559H237.341V102.406C237.302 101.188 236.954 100.195 236.298 99.4297C235.642 98.6641 234.782 98.2812 233.72 98.2812ZM242.649 97.3203L242.696 99.4883C243.173 98.707 243.767 98.1133 244.478 97.707C245.189 97.293 245.974 97.0859 246.833 97.0859C248.192 97.0859 249.204 97.4688 249.868 98.2344C250.532 99 250.868 100.148 250.876 101.68V110H249.482V101.668C249.474 100.535 249.232 99.6914 248.755 99.1367C248.286 98.582 247.532 98.3047 246.493 98.3047C245.626 98.3047 244.857 98.5781 244.185 99.125C243.521 99.6641 243.028 100.395 242.708 101.316V110H241.314V97.3203H242.649ZM256.536 94.0742V97.3203H259.161V98.4688H256.536V106.918C256.536 107.621 256.661 108.145 256.911 108.488C257.169 108.832 257.595 109.004 258.189 109.004C258.423 109.004 258.802 108.965 259.325 108.887L259.384 110.035C259.017 110.168 258.517 110.234 257.884 110.234C256.923 110.234 256.224 109.957 255.786 109.402C255.349 108.84 255.13 108.016 255.13 106.93V98.4688H252.798V97.3203H255.13V94.0742H256.536ZM269.919 110C269.779 109.602 269.689 109.012 269.65 108.23C269.158 108.871 268.529 109.367 267.763 109.719C267.005 110.062 266.201 110.234 265.349 110.234C264.13 110.234 263.142 109.895 262.384 109.215C261.634 108.535 261.259 107.676 261.259 106.637C261.259 105.402 261.771 104.426 262.794 103.707C263.826 102.988 265.259 102.629 267.095 102.629H269.638V101.188C269.638 100.281 269.357 99.5703 268.794 99.0547C268.24 98.5312 267.427 98.2695 266.357 98.2695C265.38 98.2695 264.572 98.5195 263.931 99.0195C263.29 99.5195 262.97 100.121 262.97 100.824L261.564 100.812C261.564 99.8047 262.033 98.9336 262.97 98.1992C263.908 97.457 265.06 97.0859 266.427 97.0859C267.841 97.0859 268.954 97.4414 269.767 98.1523C270.587 98.8555 271.009 99.8398 271.033 101.105V107.105C271.033 108.332 271.161 109.25 271.419 109.859V110H269.919ZM265.513 108.992C266.451 108.992 267.286 108.766 268.021 108.312C268.763 107.859 269.302 107.254 269.638 106.496V103.707H267.13C265.732 103.723 264.638 103.98 263.849 104.48C263.06 104.973 262.665 105.652 262.665 106.52C262.665 107.23 262.927 107.82 263.451 108.289C263.982 108.758 264.669 108.992 265.513 108.992ZM276.201 110H274.794V92H276.201V110Z" fill="#4D3D6C"/>
<path d="M79.3475 132.197C78.3826 131.92 77.6795 131.58 77.2381 131.178C76.8006 130.771 76.5818 130.271 76.5818 129.678C76.5818 129.006 76.8494 128.451 77.3846 128.014C77.9236 127.572 78.6228 127.352 79.4822 127.352C80.0682 127.352 80.5896 127.465 81.0467 127.691C81.5076 127.918 81.8631 128.23 82.1131 128.629C82.367 129.027 82.4939 129.463 82.4939 129.936H81.3631C81.3631 129.42 81.199 129.016 80.8709 128.723C80.5428 128.426 80.0799 128.277 79.4822 128.277C78.9275 128.277 78.4939 128.4 78.1814 128.646C77.8728 128.889 77.7185 129.227 77.7185 129.66C77.7185 130.008 77.865 130.303 78.158 130.545C78.4549 130.783 78.9568 131.002 79.6639 131.201C80.3748 131.4 80.9295 131.621 81.3279 131.863C81.7303 132.102 82.0271 132.381 82.2185 132.701C82.4139 133.021 82.5115 133.398 82.5115 133.832C82.5115 134.523 82.242 135.078 81.7029 135.496C81.1639 135.91 80.4432 136.117 79.5408 136.117C78.9549 136.117 78.408 136.006 77.9002 135.783C77.3924 135.557 76.9998 135.248 76.7225 134.857C76.449 134.467 76.3123 134.023 76.3123 133.527H77.4432C77.4432 134.043 77.6326 134.451 78.0115 134.752C78.3943 135.049 78.9041 135.197 79.5408 135.197C80.1346 135.197 80.5896 135.076 80.906 134.834C81.2225 134.592 81.3807 134.262 81.3807 133.844C81.3807 133.426 81.2342 133.104 80.9412 132.877C80.6482 132.646 80.117 132.42 79.3475 132.197ZM86.2675 136.117C85.4081 136.117 84.7089 135.836 84.1698 135.273C83.6308 134.707 83.3613 133.951 83.3613 133.006V132.807C83.3613 132.178 83.4804 131.617 83.7187 131.125C83.9609 130.629 84.2968 130.242 84.7265 129.965C85.1601 129.684 85.6288 129.543 86.1327 129.543C86.957 129.543 87.5976 129.814 88.0546 130.357C88.5116 130.9 88.7402 131.678 88.7402 132.689V133.141H84.4452C84.4609 133.766 84.6425 134.271 84.9902 134.658C85.3417 135.041 85.787 135.232 86.3261 135.232C86.7089 135.232 87.0331 135.154 87.2988 134.998C87.5644 134.842 87.7968 134.635 87.996 134.377L88.6581 134.893C88.1269 135.709 87.33 136.117 86.2675 136.117ZM86.1327 130.434C85.6952 130.434 85.3281 130.594 85.0312 130.914C84.7343 131.23 84.5507 131.676 84.4804 132.25H87.6562V132.168C87.6249 131.617 87.4765 131.191 87.2109 130.891C86.9452 130.586 86.5859 130.434 86.1327 130.434ZM92.9122 130.633C92.7481 130.605 92.5704 130.592 92.379 130.592C91.668 130.592 91.1856 130.895 90.9317 131.5V136H89.8477V129.66H90.9024L90.92 130.393C91.2754 129.826 91.7794 129.543 92.4317 129.543C92.6426 129.543 92.8028 129.57 92.9122 129.625V130.633ZM95.9592 134.529L97.5295 129.66H98.6369L96.3635 136H95.5373L93.2404 129.66H94.3478L95.9592 134.529ZM100.705 136H99.6214V129.66H100.705V136ZM99.5335 127.979C99.5335 127.803 99.5863 127.654 99.6917 127.533C99.8011 127.412 99.9613 127.352 100.172 127.352C100.383 127.352 100.543 127.412 100.653 127.533C100.762 127.654 100.817 127.803 100.817 127.979C100.817 128.154 100.762 128.301 100.653 128.418C100.543 128.535 100.383 128.594 100.172 128.594C99.9613 128.594 99.8011 128.535 99.6917 128.418C99.5863 128.301 99.5335 128.154 99.5335 127.979ZM104.836 135.232C105.223 135.232 105.561 135.115 105.85 134.881C106.139 134.646 106.299 134.354 106.331 134.002H107.356C107.336 134.365 107.211 134.711 106.981 135.039C106.75 135.367 106.442 135.629 106.055 135.824C105.672 136.02 105.266 136.117 104.836 136.117C103.973 136.117 103.286 135.83 102.774 135.256C102.266 134.678 102.012 133.889 102.012 132.889V132.707C102.012 132.09 102.125 131.541 102.352 131.061C102.579 130.58 102.903 130.207 103.325 129.941C103.75 129.676 104.252 129.543 104.831 129.543C105.541 129.543 106.131 129.756 106.6 130.182C107.073 130.607 107.325 131.16 107.356 131.84H106.331C106.299 131.43 106.143 131.094 105.862 130.832C105.584 130.566 105.241 130.434 104.831 130.434C104.28 130.434 103.852 130.633 103.547 131.031C103.247 131.426 103.096 131.998 103.096 132.748V132.953C103.096 133.684 103.247 134.246 103.547 134.641C103.848 135.035 104.278 135.232 104.836 135.232ZM109.6 136H108.516V129.66H109.6V136ZM108.428 127.979C108.428 127.803 108.481 127.654 108.587 127.533C108.696 127.412 108.856 127.352 109.067 127.352C109.278 127.352 109.438 127.412 109.547 127.533C109.657 127.654 109.712 127.803 109.712 127.979C109.712 128.154 109.657 128.301 109.547 128.418C109.438 128.535 109.278 128.594 109.067 128.594C108.856 128.594 108.696 128.535 108.587 128.418C108.481 128.301 108.428 128.154 108.428 127.979ZM110.901 132.771C110.901 132.15 111.022 131.592 111.264 131.096C111.51 130.6 111.85 130.217 112.284 129.947C112.721 129.678 113.219 129.543 113.778 129.543C114.641 129.543 115.339 129.842 115.87 130.439C116.405 131.037 116.673 131.832 116.673 132.824V132.9C116.673 133.518 116.553 134.072 116.315 134.564C116.081 135.053 115.743 135.434 115.301 135.707C114.864 135.98 114.36 136.117 113.79 136.117C112.93 136.117 112.233 135.818 111.698 135.221C111.167 134.623 110.901 133.832 110.901 132.848V132.771ZM111.991 132.9C111.991 133.604 112.153 134.168 112.477 134.594C112.805 135.02 113.243 135.232 113.79 135.232C114.341 135.232 114.778 135.018 115.102 134.588C115.426 134.154 115.589 133.549 115.589 132.771C115.589 132.076 115.423 131.514 115.091 131.084C114.762 130.65 114.325 130.434 113.778 130.434C113.243 130.434 112.811 130.646 112.483 131.072C112.155 131.498 111.991 132.107 111.991 132.9ZM120.446 132.777C120.446 131.789 120.675 131.004 121.132 130.422C121.589 129.836 122.194 129.543 122.948 129.543C123.722 129.543 124.325 129.816 124.759 130.363L124.812 129.66H125.802V135.848C125.802 136.668 125.558 137.314 125.069 137.787C124.585 138.26 123.933 138.496 123.112 138.496C122.655 138.496 122.208 138.398 121.771 138.203C121.333 138.008 120.999 137.74 120.769 137.4L121.331 136.75C121.796 137.324 122.364 137.611 123.036 137.611C123.563 137.611 123.974 137.463 124.267 137.166C124.563 136.869 124.712 136.451 124.712 135.912V135.367C124.278 135.867 123.687 136.117 122.937 136.117C122.194 136.117 121.593 135.818 121.132 135.221C120.675 134.623 120.446 133.809 120.446 132.777ZM121.536 132.9C121.536 133.615 121.683 134.178 121.976 134.588C122.269 134.994 122.679 135.197 123.206 135.197C123.89 135.197 124.392 134.887 124.712 134.266V131.371C124.38 130.766 123.882 130.463 123.218 130.463C122.69 130.463 122.278 130.668 121.981 131.078C121.685 131.488 121.536 132.096 121.536 132.9ZM130.355 130.633C130.191 130.605 130.013 130.592 129.821 130.592C129.11 130.592 128.628 130.895 128.374 131.5V136H127.29V129.66H128.345L128.362 130.393C128.718 129.826 129.222 129.543 129.874 129.543C130.085 129.543 130.245 129.57 130.355 129.625V130.633ZM134.884 136C134.822 135.875 134.771 135.652 134.732 135.332C134.228 135.855 133.626 136.117 132.927 136.117C132.302 136.117 131.788 135.941 131.386 135.59C130.988 135.234 130.788 134.785 130.788 134.242C130.788 133.582 131.038 133.07 131.538 132.707C132.042 132.34 132.749 132.156 133.659 132.156H134.714V131.658C134.714 131.279 134.601 130.979 134.374 130.756C134.148 130.529 133.814 130.416 133.372 130.416C132.986 130.416 132.661 130.514 132.4 130.709C132.138 130.904 132.007 131.141 132.007 131.418H130.917C130.917 131.102 131.029 130.797 131.251 130.504C131.478 130.207 131.782 129.973 132.165 129.801C132.552 129.629 132.976 129.543 133.437 129.543C134.167 129.543 134.74 129.727 135.154 130.094C135.568 130.457 135.782 130.959 135.798 131.6V134.518C135.798 135.1 135.872 135.562 136.021 135.906V136H134.884ZM133.085 135.174C133.425 135.174 133.747 135.086 134.052 134.91C134.357 134.734 134.577 134.506 134.714 134.225V132.924H133.865C132.536 132.924 131.872 133.312 131.872 134.09C131.872 134.43 131.986 134.695 132.212 134.887C132.439 135.078 132.73 135.174 133.085 135.174ZM138.816 128.125V129.66H139.999V130.498H138.816V134.43C138.816 134.684 138.869 134.875 138.974 135.004C139.079 135.129 139.259 135.191 139.513 135.191C139.638 135.191 139.81 135.168 140.029 135.121V136C139.744 136.078 139.466 136.117 139.197 136.117C138.712 136.117 138.347 135.971 138.101 135.678C137.855 135.385 137.732 134.969 137.732 134.43V130.498H136.578V129.66H137.732V128.125H138.816ZM145.033 135.373C144.611 135.869 143.992 136.117 143.175 136.117C142.5 136.117 141.984 135.922 141.628 135.531C141.277 135.137 141.099 134.555 141.095 133.785V129.66H142.179V133.756C142.179 134.717 142.57 135.197 143.351 135.197C144.179 135.197 144.73 134.889 145.003 134.271V129.66H146.087V136H145.056L145.033 135.373ZM148.765 136H147.681V129.66H148.765V136ZM147.593 127.979C147.593 127.803 147.646 127.654 147.752 127.533C147.861 127.412 148.021 127.352 148.232 127.352C148.443 127.352 148.603 127.412 148.713 127.533C148.822 127.654 148.877 127.803 148.877 127.979C148.877 128.154 148.822 128.301 148.713 128.418C148.603 128.535 148.443 128.594 148.232 128.594C148.021 128.594 147.861 128.535 147.752 128.418C147.646 128.301 147.593 128.154 147.593 127.979ZM151.824 128.125V129.66H153.008V130.498H151.824V134.43C151.824 134.684 151.877 134.875 151.982 135.004C152.088 135.129 152.267 135.191 152.521 135.191C152.646 135.191 152.818 135.168 153.037 135.121V136C152.752 136.078 152.474 136.117 152.205 136.117C151.721 136.117 151.355 135.971 151.109 135.678C150.863 135.385 150.74 134.969 150.74 134.43V130.498H149.586V129.66H150.74V128.125H151.824ZM153.723 132.771C153.723 132.15 153.844 131.592 154.086 131.096C154.332 130.6 154.672 130.217 155.105 129.947C155.543 129.678 156.041 129.543 156.6 129.543C157.463 129.543 158.16 129.842 158.691 130.439C159.227 131.037 159.494 131.832 159.494 132.824V132.9C159.494 133.518 159.375 134.072 159.137 134.564C158.902 135.053 158.564 135.434 158.123 135.707C157.685 135.98 157.182 136.117 156.611 136.117C155.752 136.117 155.055 135.818 154.519 135.221C153.988 134.623 153.723 133.832 153.723 132.848V132.771ZM154.812 132.9C154.812 133.604 154.975 134.168 155.299 134.594C155.627 135.02 156.064 135.232 156.611 135.232C157.162 135.232 157.6 135.018 157.924 134.588C158.248 134.154 158.41 133.549 158.41 132.771C158.41 132.076 158.244 131.514 157.912 131.084C157.584 130.65 157.146 130.434 156.6 130.434C156.064 130.434 155.633 130.646 155.305 131.072C154.977 131.498 154.812 132.107 154.812 132.9ZM163.262 132.777C163.262 131.805 163.492 131.023 163.953 130.434C164.414 129.84 165.018 129.543 165.764 129.543C166.506 129.543 167.094 129.797 167.528 130.305V127H168.612V136H167.615L167.563 135.32C167.129 135.852 166.526 136.117 165.752 136.117C165.018 136.117 164.418 135.816 163.953 135.215C163.492 134.613 163.262 133.828 163.262 132.859V132.777ZM164.346 132.9C164.346 133.619 164.494 134.182 164.791 134.588C165.088 134.994 165.498 135.197 166.022 135.197C166.709 135.197 167.211 134.889 167.528 134.271V131.359C167.203 130.762 166.705 130.463 166.033 130.463C165.502 130.463 165.088 130.668 164.791 131.078C164.494 131.488 164.346 132.096 164.346 132.9ZM172.778 136.117C171.918 136.117 171.219 135.836 170.68 135.273C170.141 134.707 169.871 133.951 169.871 133.006V132.807C169.871 132.178 169.991 131.617 170.229 131.125C170.471 130.629 170.807 130.242 171.237 129.965C171.67 129.684 172.139 129.543 172.643 129.543C173.467 129.543 174.108 129.814 174.565 130.357C175.022 130.9 175.25 131.678 175.25 132.689V133.141H170.955C170.971 133.766 171.153 134.271 171.5 134.658C171.852 135.041 172.297 135.232 172.836 135.232C173.219 135.232 173.543 135.154 173.809 134.998C174.075 134.842 174.307 134.635 174.506 134.377L175.168 134.893C174.637 135.709 173.84 136.117 172.778 136.117ZM172.643 130.434C172.205 130.434 171.838 130.594 171.541 130.914C171.244 131.23 171.061 131.676 170.991 132.25H174.166V132.168C174.135 131.617 173.987 131.191 173.721 130.891C173.455 130.586 173.096 130.434 172.643 130.434ZM184.538 132.9C184.538 133.865 184.317 134.643 183.876 135.232C183.434 135.822 182.837 136.117 182.083 136.117C181.313 136.117 180.708 135.873 180.266 135.385V138.438H179.182V129.66H180.172L180.225 130.363C180.667 129.816 181.28 129.543 182.065 129.543C182.827 129.543 183.428 129.83 183.87 130.404C184.315 130.979 184.538 131.777 184.538 132.801V132.9ZM183.454 132.777C183.454 132.062 183.301 131.498 182.997 131.084C182.692 130.67 182.274 130.463 181.743 130.463C181.087 130.463 180.594 130.754 180.266 131.336V134.365C180.59 134.943 181.087 135.232 181.754 135.232C182.274 135.232 182.686 135.027 182.991 134.617C183.299 134.203 183.454 133.59 183.454 132.777ZM189.46 134.318C189.46 134.025 189.348 133.799 189.126 133.639C188.907 133.475 188.522 133.334 187.971 133.217C187.425 133.1 186.989 132.959 186.665 132.795C186.344 132.631 186.106 132.436 185.95 132.209C185.798 131.982 185.721 131.713 185.721 131.4C185.721 130.881 185.94 130.441 186.378 130.082C186.819 129.723 187.382 129.543 188.065 129.543C188.784 129.543 189.366 129.729 189.811 130.1C190.26 130.471 190.485 130.945 190.485 131.523H189.395C189.395 131.227 189.268 130.971 189.014 130.756C188.764 130.541 188.448 130.434 188.065 130.434C187.671 130.434 187.362 130.52 187.139 130.691C186.917 130.863 186.805 131.088 186.805 131.365C186.805 131.627 186.909 131.824 187.116 131.957C187.323 132.09 187.696 132.217 188.235 132.338C188.778 132.459 189.218 132.604 189.553 132.771C189.889 132.939 190.137 133.143 190.298 133.381C190.462 133.615 190.544 133.902 190.544 134.242C190.544 134.809 190.317 135.264 189.864 135.607C189.411 135.947 188.823 136.117 188.1 136.117C187.593 136.117 187.143 136.027 186.753 135.848C186.362 135.668 186.055 135.418 185.833 135.098C185.614 134.773 185.505 134.424 185.505 134.049H186.589C186.608 134.412 186.753 134.701 187.022 134.916C187.296 135.127 187.655 135.232 188.1 135.232C188.51 135.232 188.839 135.15 189.085 134.986C189.335 134.818 189.46 134.596 189.46 134.318ZM192.981 136H191.897V129.66H192.981V136ZM191.809 127.979C191.809 127.803 191.862 127.654 191.968 127.533C192.077 127.412 192.237 127.352 192.448 127.352C192.659 127.352 192.819 127.412 192.929 127.533C193.038 127.654 193.093 127.803 193.093 127.979C193.093 128.154 193.038 128.301 192.929 128.418C192.819 128.535 192.659 128.594 192.448 128.594C192.237 128.594 192.077 128.535 191.968 128.418C191.862 128.301 191.809 128.154 191.809 127.979ZM197.112 135.232C197.499 135.232 197.837 135.115 198.126 134.881C198.415 134.646 198.575 134.354 198.606 134.002H199.632C199.612 134.365 199.487 134.711 199.257 135.039C199.026 135.367 198.718 135.629 198.331 135.824C197.948 136.02 197.542 136.117 197.112 136.117C196.249 136.117 195.562 135.83 195.05 135.256C194.542 134.678 194.288 133.889 194.288 132.889V132.707C194.288 132.09 194.401 131.541 194.628 131.061C194.854 130.58 195.179 130.207 195.601 129.941C196.026 129.676 196.528 129.543 197.106 129.543C197.817 129.543 198.407 129.756 198.876 130.182C199.349 130.607 199.601 131.16 199.632 131.84H198.606C198.575 131.43 198.419 131.094 198.138 130.832C197.86 130.566 197.517 130.434 197.106 130.434C196.556 130.434 196.128 130.633 195.823 131.031C195.522 131.426 195.372 131.998 195.372 132.748V132.953C195.372 133.684 195.522 134.246 195.823 134.641C196.124 135.035 196.554 135.232 197.112 135.232ZM200.411 132.771C200.411 132.15 200.532 131.592 200.775 131.096C201.021 130.6 201.36 130.217 201.794 129.947C202.232 129.678 202.73 129.543 203.288 129.543C204.152 129.543 204.849 129.842 205.38 130.439C205.915 131.037 206.183 131.832 206.183 132.824V132.9C206.183 133.518 206.064 134.072 205.825 134.564C205.591 135.053 205.253 135.434 204.812 135.707C204.374 135.98 203.87 136.117 203.3 136.117C202.441 136.117 201.743 135.818 201.208 135.221C200.677 134.623 200.411 133.832 200.411 132.848V132.771ZM201.501 132.9C201.501 133.604 201.663 134.168 201.987 134.594C202.316 135.02 202.753 135.232 203.3 135.232C203.851 135.232 204.288 135.018 204.612 134.588C204.937 134.154 205.099 133.549 205.099 132.771C205.099 132.076 204.933 131.514 204.601 131.084C204.273 130.65 203.835 130.434 203.288 130.434C202.753 130.434 202.321 130.646 201.993 131.072C201.665 131.498 201.501 132.107 201.501 132.9ZM208.568 136H207.484V127H208.568V136ZM209.869 132.771C209.869 132.15 209.99 131.592 210.232 131.096C210.478 130.6 210.818 130.217 211.251 129.947C211.689 129.678 212.187 129.543 212.746 129.543C213.609 129.543 214.306 129.842 214.837 130.439C215.372 131.037 215.64 131.832 215.64 132.824V132.9C215.64 133.518 215.521 134.072 215.283 134.564C215.048 135.053 214.71 135.434 214.269 135.707C213.831 135.98 213.328 136.117 212.757 136.117C211.898 136.117 211.201 135.818 210.665 135.221C210.134 134.623 209.869 133.832 209.869 132.848V132.771ZM210.958 132.9C210.958 133.604 211.121 134.168 211.445 134.594C211.773 135.02 212.21 135.232 212.757 135.232C213.308 135.232 213.746 135.018 214.07 134.588C214.394 134.154 214.556 133.549 214.556 132.771C214.556 132.076 214.39 131.514 214.058 131.084C213.73 130.65 213.292 130.434 212.746 130.434C212.21 130.434 211.779 130.646 211.451 131.072C211.122 131.498 210.958 132.107 210.958 132.9ZM216.589 132.777C216.589 131.789 216.818 131.004 217.275 130.422C217.732 129.836 218.337 129.543 219.091 129.543C219.865 129.543 220.468 129.816 220.902 130.363L220.955 129.66H221.945V135.848C221.945 136.668 221.701 137.314 221.212 137.787C220.728 138.26 220.076 138.496 219.255 138.496C218.798 138.496 218.351 138.398 217.914 138.203C217.476 138.008 217.142 137.74 216.912 137.4L217.474 136.75C217.939 137.324 218.507 137.611 219.179 137.611C219.707 137.611 220.117 137.463 220.41 137.166C220.707 136.869 220.855 136.451 220.855 135.912V135.367C220.421 135.867 219.83 136.117 219.08 136.117C218.337 136.117 217.736 135.818 217.275 135.221C216.818 134.623 216.589 133.809 216.589 132.777ZM217.679 132.9C217.679 133.615 217.826 134.178 218.119 134.588C218.412 134.994 218.822 135.197 219.349 135.197C220.033 135.197 220.535 134.887 220.855 134.266V131.371C220.523 130.766 220.025 130.463 219.361 130.463C218.834 130.463 218.421 130.668 218.125 131.078C217.828 131.488 217.679 132.096 217.679 132.9ZM224.611 136H223.521V129.66H224.611V136ZM224.623 127.006H225.935L224.365 128.729H223.492L224.623 127.006ZM230.16 136C230.097 135.875 230.047 135.652 230.008 135.332C229.504 135.855 228.902 136.117 228.203 136.117C227.578 136.117 227.064 135.941 226.662 135.59C226.263 135.234 226.064 134.785 226.064 134.242C226.064 133.582 226.314 133.07 226.814 132.707C227.318 132.34 228.025 132.156 228.935 132.156H229.99V131.658C229.99 131.279 229.877 130.979 229.65 130.756C229.424 130.529 229.09 130.416 228.648 130.416C228.262 130.416 227.937 130.514 227.676 130.709C227.414 130.904 227.283 131.141 227.283 131.418H226.193C226.193 131.102 226.305 130.797 226.527 130.504C226.754 130.207 227.058 129.973 227.441 129.801C227.828 129.629 228.252 129.543 228.713 129.543C229.443 129.543 230.015 129.727 230.43 130.094C230.844 130.457 231.058 130.959 231.074 131.6V134.518C231.074 135.1 231.148 135.562 231.297 135.906V136H230.16ZM228.361 135.174C228.701 135.174 229.023 135.086 229.328 134.91C229.633 134.734 229.853 134.506 229.99 134.225V132.924H229.14C227.812 132.924 227.148 133.312 227.148 134.09C227.148 134.43 227.262 134.695 227.488 134.887C227.715 135.078 228.006 135.174 228.361 135.174ZM237.52 134.412L238.996 129.66H240.156L237.608 136.979C237.213 138.033 236.586 138.561 235.727 138.561L235.522 138.543L235.117 138.467V137.588L235.41 137.611C235.777 137.611 236.063 137.537 236.266 137.389C236.473 137.24 236.643 136.969 236.775 136.574L237.016 135.93L234.754 129.66H235.938L237.52 134.412ZM83.7305 146.9C83.7305 147.865 83.5098 148.643 83.0684 149.232C82.627 149.822 82.0294 150.117 81.2754 150.117C80.5059 150.117 79.9004 149.873 79.459 149.385V152.438H78.3751V143.66H79.3653L79.418 144.363C79.8594 143.816 80.4727 143.543 81.2579 143.543C82.0196 143.543 82.6211 143.83 83.0626 144.404C83.5079 144.979 83.7305 145.777 83.7305 146.801V146.9ZM82.6465 146.777C82.6465 146.062 82.4942 145.498 82.1895 145.084C81.8848 144.67 81.4669 144.463 80.9356 144.463C80.2794 144.463 79.7872 144.754 79.459 145.336V148.365C79.7833 148.943 80.2794 149.232 80.9473 149.232C81.4669 149.232 81.879 149.027 82.1836 148.617C82.4922 148.203 82.6465 147.59 82.6465 146.777ZM88.6525 148.318C88.6525 148.025 88.5412 147.799 88.3185 147.639C88.0998 147.475 87.715 147.334 87.1642 147.217C86.6174 147.1 86.1818 146.959 85.8576 146.795C85.5373 146.631 85.299 146.436 85.1428 146.209C84.9904 145.982 84.9142 145.713 84.9142 145.4C84.9142 144.881 85.133 144.441 85.5705 144.082C86.0119 143.723 86.5744 143.543 87.258 143.543C87.9767 143.543 88.5588 143.729 89.0041 144.1C89.4533 144.471 89.6779 144.945 89.6779 145.523H88.5881C88.5881 145.227 88.4611 144.971 88.2072 144.756C87.9572 144.541 87.6408 144.434 87.258 144.434C86.8635 144.434 86.5549 144.52 86.3322 144.691C86.1096 144.863 85.9982 145.088 85.9982 145.365C85.9982 145.627 86.1017 145.824 86.3088 145.957C86.5158 146.09 86.8889 146.217 87.4279 146.338C87.9709 146.459 88.4103 146.604 88.7463 146.771C89.0822 146.939 89.3303 147.143 89.4904 147.381C89.6545 147.615 89.7365 147.902 89.7365 148.242C89.7365 148.809 89.51 149.264 89.0568 149.607C88.6037 149.947 88.0158 150.117 87.2932 150.117C86.7853 150.117 86.3361 150.027 85.9455 149.848C85.5549 149.668 85.2482 149.418 85.0256 149.098C84.8068 148.773 84.6975 148.424 84.6975 148.049H85.7814C85.801 148.412 85.9455 148.701 86.215 148.916C86.4885 149.127 86.8478 149.232 87.2932 149.232C87.7033 149.232 88.0314 149.15 88.2775 148.986C88.5275 148.818 88.6525 148.596 88.6525 148.318ZM92.1741 150H91.0902V143.66H92.1741V150ZM91.0023 141.979C91.0023 141.803 91.055 141.654 91.1605 141.533C91.2698 141.412 91.43 141.352 91.6409 141.352C91.8519 141.352 92.012 141.412 92.1214 141.533C92.2308 141.654 92.2855 141.803 92.2855 141.979C92.2855 142.154 92.2308 142.301 92.1214 142.418C92.012 142.535 91.8519 142.594 91.6409 142.594C91.43 142.594 91.2698 142.535 91.1605 142.418C91.055 142.301 91.0023 142.154 91.0023 141.979ZM93.4985 146.777C93.4985 145.781 93.727 144.994 94.184 144.416C94.6411 143.834 95.2544 143.543 96.0239 143.543C96.7739 143.543 97.3657 143.795 97.7993 144.299L97.8461 143.66H98.8422V152.438H97.7583V149.414C97.3208 149.883 96.7387 150.117 96.0122 150.117C95.2465 150.117 94.6352 149.82 94.1782 149.227C93.7251 148.629 93.4985 147.838 93.4985 146.854V146.777ZM94.5825 146.9C94.5825 147.627 94.7348 148.197 95.0395 148.611C95.3481 149.025 95.7622 149.232 96.2817 149.232C96.9262 149.232 97.4184 148.947 97.7583 148.377V145.271C97.4145 144.713 96.9262 144.434 96.2934 144.434C95.77 144.434 95.354 144.643 95.0454 145.061C94.7368 145.475 94.5825 146.088 94.5825 146.9ZM104.344 149.373C103.922 149.869 103.303 150.117 102.487 150.117C101.811 150.117 101.296 149.922 100.94 149.531C100.588 149.137 100.411 148.555 100.407 147.785V143.66H101.491V147.756C101.491 148.717 101.881 149.197 102.663 149.197C103.491 149.197 104.042 148.889 104.315 148.271V143.66H105.399V150H104.368L104.344 149.373ZM108.077 150H106.993V143.66H108.077V150ZM106.905 141.979C106.905 141.803 106.958 141.654 107.063 141.533C107.173 141.412 107.333 141.352 107.544 141.352C107.755 141.352 107.915 141.412 108.024 141.533C108.134 141.654 108.188 141.803 108.188 141.979C108.188 142.154 108.134 142.301 108.024 142.418C107.915 142.535 107.755 142.594 107.544 142.594C107.333 142.594 107.173 142.535 107.063 142.418C106.958 142.301 106.905 142.154 106.905 141.979ZM113.579 150C113.516 149.875 113.466 149.652 113.427 149.332C112.923 149.855 112.321 150.117 111.622 150.117C110.997 150.117 110.483 149.941 110.081 149.59C109.682 149.234 109.483 148.785 109.483 148.242C109.483 147.582 109.733 147.07 110.233 146.707C110.737 146.34 111.444 146.156 112.354 146.156H113.409V145.658C113.409 145.279 113.296 144.979 113.069 144.756C112.843 144.529 112.509 144.416 112.067 144.416C111.681 144.416 111.356 144.514 111.095 144.709C110.833 144.904 110.702 145.141 110.702 145.418H109.612C109.612 145.102 109.723 144.797 109.946 144.504C110.173 144.207 110.477 143.973 110.86 143.801C111.247 143.629 111.671 143.543 112.132 143.543C112.862 143.543 113.434 143.727 113.848 144.094C114.263 144.457 114.477 144.959 114.493 145.6V148.518C114.493 149.1 114.567 149.562 114.716 149.906V150H113.579ZM111.78 149.174C112.12 149.174 112.442 149.086 112.747 148.91C113.052 148.734 113.272 148.506 113.409 148.225V146.924H112.559C111.231 146.924 110.567 147.312 110.567 148.09C110.567 148.43 110.681 148.695 110.907 148.887C111.134 149.078 111.425 149.174 111.78 149.174ZM117.511 142.125V143.66H118.694V144.498H117.511V148.43C117.511 148.684 117.563 148.875 117.669 149.004C117.774 149.129 117.954 149.191 118.208 149.191C118.333 149.191 118.505 149.168 118.724 149.121V150C118.438 150.078 118.161 150.117 117.892 150.117C117.407 150.117 117.042 149.971 116.796 149.678C116.55 149.385 116.427 148.969 116.427 148.43V144.498H115.272V143.66H116.427V142.125H117.511ZM122.878 144.633C122.714 144.605 122.536 144.592 122.345 144.592C121.634 144.592 121.151 144.895 120.898 145.5V150H119.814V143.66H120.868L120.886 144.393C121.241 143.826 121.745 143.543 122.398 143.543C122.609 143.543 122.769 143.57 122.878 143.625V144.633ZM124.906 150H123.816V143.66H124.906V150ZM124.917 141.006H126.23L124.659 142.729H123.786L124.917 141.006ZM130.454 150C130.392 149.875 130.341 149.652 130.302 149.332C129.798 149.855 129.197 150.117 128.497 150.117C127.872 150.117 127.359 149.941 126.956 149.59C126.558 149.234 126.359 148.785 126.359 148.242C126.359 147.582 126.609 147.07 127.109 146.707C127.613 146.34 128.32 146.156 129.23 146.156H130.285V145.658C130.285 145.279 130.171 144.979 129.945 144.756C129.718 144.529 129.384 144.416 128.943 144.416C128.556 144.416 128.232 144.514 127.97 144.709C127.708 144.904 127.578 145.141 127.578 145.418H126.488C126.488 145.102 126.599 144.797 126.822 144.504C127.048 144.207 127.353 143.973 127.736 143.801C128.122 143.629 128.546 143.543 129.007 143.543C129.738 143.543 130.31 143.727 130.724 144.094C131.138 144.457 131.353 144.959 131.369 145.6V148.518C131.369 149.1 131.443 149.562 131.591 149.906V150H130.454ZM128.656 149.174C128.995 149.174 129.318 149.086 129.622 148.91C129.927 148.734 130.148 148.506 130.285 148.225V146.924H129.435C128.107 146.924 127.443 147.312 127.443 148.09C127.443 148.43 127.556 148.695 127.783 148.887C128.009 149.078 128.3 149.174 128.656 149.174ZM141.095 146.9C141.095 147.865 140.875 148.643 140.433 149.232C139.992 149.822 139.394 150.117 138.64 150.117C137.871 150.117 137.265 149.873 136.824 149.385V152.438H135.74V143.66H136.73L136.783 144.363C137.224 143.816 137.838 143.543 138.623 143.543C139.384 143.543 139.986 143.83 140.427 144.404C140.873 144.979 141.095 145.777 141.095 146.801V146.9ZM140.011 146.777C140.011 146.062 139.859 145.498 139.554 145.084C139.25 144.67 138.832 144.463 138.3 144.463C137.644 144.463 137.152 144.754 136.824 145.336V148.365C137.148 148.943 137.644 149.232 138.312 149.232C138.832 149.232 139.244 149.027 139.549 148.617C139.857 148.203 140.011 147.59 140.011 146.777ZM146.24 150C146.178 149.875 146.127 149.652 146.088 149.332C145.584 149.855 144.982 150.117 144.283 150.117C143.658 150.117 143.144 149.941 142.742 149.59C142.344 149.234 142.144 148.785 142.144 148.242C142.144 147.582 142.394 147.07 142.894 146.707C143.398 146.34 144.105 146.156 145.015 146.156H146.07V145.658C146.07 145.279 145.957 144.979 145.73 144.756C145.504 144.529 145.17 144.416 144.728 144.416C144.342 144.416 144.017 144.514 143.756 144.709C143.494 144.904 143.363 145.141 143.363 145.418H142.273C142.273 145.102 142.385 144.797 142.607 144.504C142.834 144.207 143.138 143.973 143.521 143.801C143.908 143.629 144.332 143.543 144.793 143.543C145.523 143.543 146.096 143.727 146.51 144.094C146.924 144.457 147.138 144.959 147.154 145.6V148.518C147.154 149.1 147.228 149.562 147.377 149.906V150H146.24ZM144.441 149.174C144.781 149.174 145.103 149.086 145.408 148.91C145.713 148.734 145.933 148.506 146.07 148.225V146.924H145.221C143.892 146.924 143.228 147.312 143.228 148.09C143.228 148.43 143.342 148.695 143.568 148.887C143.795 149.078 144.086 149.174 144.441 149.174ZM151.766 144.633C151.601 144.605 151.424 144.592 151.232 144.592C150.521 144.592 150.039 144.895 149.785 145.5V150H148.701V143.66H149.756L149.773 144.393C150.129 143.826 150.633 143.543 151.285 143.543C151.496 143.543 151.656 143.57 151.766 143.625V144.633ZM156.295 150C156.232 149.875 156.182 149.652 156.143 149.332C155.639 149.855 155.037 150.117 154.338 150.117C153.713 150.117 153.199 149.941 152.797 149.59C152.398 149.234 152.199 148.785 152.199 148.242C152.199 147.582 152.449 147.07 152.949 146.707C153.453 146.34 154.16 146.156 155.07 146.156H156.125V145.658C156.125 145.279 156.012 144.979 155.785 144.756C155.559 144.529 155.225 144.416 154.783 144.416C154.397 144.416 154.072 144.514 153.811 144.709C153.549 144.904 153.418 145.141 153.418 145.418H152.328C152.328 145.102 152.44 144.797 152.662 144.504C152.889 144.207 153.193 143.973 153.576 143.801C153.963 143.629 154.387 143.543 154.848 143.543C155.578 143.543 156.15 143.727 156.565 144.094C156.979 144.457 157.193 144.959 157.209 145.6V148.518C157.209 149.1 157.283 149.562 157.432 149.906V150H156.295ZM154.496 149.174C154.836 149.174 155.158 149.086 155.463 148.91C155.768 148.734 155.988 148.506 156.125 148.225V146.924H155.275C153.947 146.924 153.283 147.312 153.283 148.09C153.283 148.43 153.397 148.695 153.623 148.887C153.85 149.078 154.141 149.174 154.496 149.174ZM165.272 148.318C165.272 148.025 165.16 147.799 164.938 147.639C164.719 147.475 164.334 147.334 163.784 147.217C163.237 147.1 162.801 146.959 162.477 146.795C162.157 146.631 161.918 146.436 161.762 146.209C161.61 145.982 161.534 145.713 161.534 145.4C161.534 144.881 161.752 144.441 162.19 144.082C162.631 143.723 163.194 143.543 163.877 143.543C164.596 143.543 165.178 143.729 165.623 144.1C166.073 144.471 166.297 144.945 166.297 145.523H165.207C165.207 145.227 165.08 144.971 164.826 144.756C164.576 144.541 164.26 144.434 163.877 144.434C163.483 144.434 163.174 144.52 162.951 144.691C162.729 144.863 162.618 145.088 162.618 145.365C162.618 145.627 162.721 145.824 162.928 145.957C163.135 146.09 163.508 146.217 164.047 146.338C164.59 146.459 165.03 146.604 165.366 146.771C165.701 146.939 165.95 147.143 166.11 147.381C166.274 147.615 166.356 147.902 166.356 148.242C166.356 148.809 166.129 149.264 165.676 149.607C165.223 149.947 164.635 150.117 163.912 150.117C163.405 150.117 162.955 150.027 162.565 149.848C162.174 149.668 161.868 149.418 161.645 149.098C161.426 148.773 161.317 148.424 161.317 148.049H162.401C162.42 148.412 162.565 148.701 162.834 148.916C163.108 149.127 163.467 149.232 163.912 149.232C164.323 149.232 164.651 149.15 164.897 148.986C165.147 148.818 165.272 148.596 165.272 148.318ZM171.53 150C171.467 149.875 171.416 149.652 171.377 149.332C170.874 149.855 170.272 150.117 169.573 150.117C168.948 150.117 168.434 149.941 168.032 149.59C167.633 149.234 167.434 148.785 167.434 148.242C167.434 147.582 167.684 147.07 168.184 146.707C168.688 146.34 169.395 146.156 170.305 146.156H171.36V145.658C171.36 145.279 171.247 144.979 171.02 144.756C170.793 144.529 170.459 144.416 170.018 144.416C169.631 144.416 169.307 144.514 169.045 144.709C168.784 144.904 168.653 145.141 168.653 145.418H167.563C167.563 145.102 167.674 144.797 167.897 144.504C168.124 144.207 168.428 143.973 168.811 143.801C169.198 143.629 169.622 143.543 170.082 143.543C170.813 143.543 171.385 143.727 171.799 144.094C172.213 144.457 172.428 144.959 172.444 145.6V148.518C172.444 149.1 172.518 149.562 172.666 149.906V150H171.53ZM169.731 149.174C170.071 149.174 170.393 149.086 170.698 148.91C171.002 148.734 171.223 148.506 171.36 148.225V146.924H170.51C169.182 146.924 168.518 147.312 168.518 148.09C168.518 148.43 168.631 148.695 168.858 148.887C169.084 149.078 169.375 149.174 169.731 149.174ZM175.016 143.66L175.051 144.457C175.536 143.848 176.169 143.543 176.95 143.543C178.29 143.543 178.965 144.299 178.977 145.811V150H177.893V145.805C177.889 145.348 177.784 145.01 177.577 144.791C177.374 144.572 177.055 144.463 176.622 144.463C176.27 144.463 175.962 144.557 175.696 144.744C175.43 144.932 175.223 145.178 175.075 145.482V150H173.991V143.66H175.016ZM181.479 143.66L181.509 144.363C181.973 143.816 182.6 143.543 183.389 143.543C184.276 143.543 184.88 143.883 185.2 144.562C185.411 144.258 185.684 144.012 186.02 143.824C186.36 143.637 186.76 143.543 187.221 143.543C188.612 143.543 189.319 144.279 189.343 145.752V150H188.259V145.816C188.259 145.363 188.155 145.025 187.948 144.803C187.741 144.576 187.393 144.463 186.905 144.463C186.503 144.463 186.169 144.584 185.903 144.826C185.637 145.064 185.483 145.387 185.44 145.793V150H184.35V145.846C184.35 144.924 183.899 144.463 182.997 144.463C182.286 144.463 181.8 144.766 181.538 145.371V150H180.454V143.66H181.479ZM194.745 150C194.682 149.875 194.632 149.652 194.593 149.332C194.089 149.855 193.487 150.117 192.788 150.117C192.163 150.117 191.649 149.941 191.247 149.59C190.849 149.234 190.649 148.785 190.649 148.242C190.649 147.582 190.899 147.07 191.399 146.707C191.903 146.34 192.61 146.156 193.52 146.156H194.575V145.658C194.575 145.279 194.462 144.979 194.235 144.756C194.009 144.529 193.675 144.416 193.233 144.416C192.847 144.416 192.522 144.514 192.261 144.709C191.999 144.904 191.868 145.141 191.868 145.418H190.778C190.778 145.102 190.89 144.797 191.112 144.504C191.339 144.207 191.643 143.973 192.026 143.801C192.413 143.629 192.837 143.543 193.298 143.543C194.028 143.543 194.6 143.727 195.015 144.094C195.429 144.457 195.643 144.959 195.659 145.6V148.518C195.659 149.1 195.733 149.562 195.882 149.906V150H194.745ZM192.946 149.174C193.286 149.174 193.608 149.086 193.913 148.91C194.218 148.734 194.438 148.506 194.575 148.225V146.924H193.725C192.397 146.924 191.733 147.312 191.733 148.09C191.733 148.43 191.847 148.695 192.073 148.887C192.3 149.078 192.591 149.174 192.946 149.174ZM200.271 144.633C200.106 144.605 199.929 144.592 199.737 144.592C199.026 144.592 198.544 144.895 198.29 145.5V150H197.206V143.66H198.261L198.278 144.393C198.634 143.826 199.138 143.543 199.79 143.543C200.001 143.543 200.161 143.57 200.271 143.625V144.633ZM200.739 146.777C200.739 145.781 200.968 144.994 201.425 144.416C201.882 143.834 202.495 143.543 203.265 143.543C204.015 143.543 204.607 143.795 205.04 144.299L205.087 143.66H206.083V152.438H204.999V149.414C204.562 149.883 203.98 150.117 203.253 150.117C202.487 150.117 201.876 149.82 201.419 149.227C200.966 148.629 200.739 147.838 200.739 146.854V146.777ZM201.823 146.9C201.823 147.627 201.976 148.197 202.28 148.611C202.589 149.025 203.003 149.232 203.523 149.232C204.167 149.232 204.659 148.947 204.999 148.377V145.271C204.655 144.713 204.167 144.434 203.534 144.434C203.011 144.434 202.595 144.643 202.286 145.061C201.978 145.475 201.823 146.088 201.823 146.9ZM211.585 149.373C211.163 149.869 210.544 150.117 209.728 150.117C209.052 150.117 208.536 149.922 208.181 149.531C207.829 149.137 207.652 148.555 207.648 147.785V143.66H208.732V147.756C208.732 148.717 209.122 149.197 209.904 149.197C210.732 149.197 211.283 148.889 211.556 148.271V143.66H212.64V150H211.609L211.585 149.373ZM215.318 150H214.234V143.66H215.318V150ZM214.146 141.979C214.146 141.803 214.199 141.654 214.304 141.533C214.413 141.412 214.574 141.352 214.785 141.352C214.996 141.352 215.156 141.412 215.265 141.533C215.374 141.654 215.429 141.803 215.429 141.979C215.429 142.154 215.374 142.301 215.265 142.418C215.156 142.535 214.996 142.594 214.785 142.594C214.574 142.594 214.413 142.535 214.304 142.418C214.199 142.301 214.146 142.154 214.146 141.979ZM217.931 143.66L217.966 144.457C218.451 143.848 219.084 143.543 219.865 143.543C221.205 143.543 221.88 144.299 221.892 145.811V150H220.808V145.805C220.804 145.348 220.699 145.01 220.492 144.791C220.289 144.572 219.97 144.463 219.537 144.463C219.185 144.463 218.876 144.557 218.611 144.744C218.345 144.932 218.138 145.178 217.99 145.482V150H216.906V143.66H217.931ZM223.088 146.771C223.088 146.15 223.209 145.592 223.451 145.096C223.697 144.6 224.037 144.217 224.47 143.947C224.908 143.678 225.406 143.543 225.965 143.543C226.828 143.543 227.525 143.842 228.056 144.439C228.591 145.037 228.859 145.832 228.859 146.824V146.9C228.859 147.518 228.74 148.072 228.502 148.564C228.267 149.053 227.929 149.434 227.488 149.707C227.05 149.98 226.547 150.117 225.976 150.117C225.117 150.117 224.42 149.818 223.884 149.221C223.353 148.623 223.088 147.832 223.088 146.848V146.771ZM224.177 146.9C224.177 147.604 224.34 148.168 224.664 148.594C224.992 149.02 225.429 149.232 225.976 149.232C226.527 149.232 226.965 149.018 227.289 148.588C227.613 148.154 227.775 147.549 227.775 146.771C227.775 146.076 227.609 145.514 227.277 145.084C226.949 144.65 226.511 144.434 225.965 144.434C225.429 144.434 224.998 144.646 224.67 145.072C224.341 145.498 224.177 146.107 224.177 146.9ZM233.758 148.318C233.758 148.025 233.646 147.799 233.424 147.639C233.205 147.475 232.82 147.334 232.269 147.217C231.722 147.1 231.287 146.959 230.963 146.795C230.642 146.631 230.404 146.436 230.248 146.209C230.096 145.982 230.019 145.713 230.019 145.4C230.019 144.881 230.238 144.441 230.676 144.082C231.117 143.723 231.68 143.543 232.363 143.543C233.082 143.543 233.664 143.729 234.109 144.1C234.558 144.471 234.783 144.945 234.783 145.523H233.693C233.693 145.227 233.566 144.971 233.312 144.756C233.062 144.541 232.746 144.434 232.363 144.434C231.969 144.434 231.66 144.52 231.437 144.691C231.215 144.863 231.103 145.088 231.103 145.365C231.103 145.627 231.207 145.824 231.414 145.957C231.621 146.09 231.994 146.217 232.533 146.338C233.076 146.459 233.515 146.604 233.851 146.771C234.187 146.939 234.435 147.143 234.596 147.381C234.76 147.615 234.842 147.902 234.842 148.242C234.842 148.809 234.615 149.264 234.162 149.607C233.709 149.947 233.121 150.117 232.398 150.117C231.89 150.117 231.441 150.027 231.051 149.848C230.66 149.668 230.353 149.418 230.131 149.098C229.912 148.773 229.803 148.424 229.803 148.049H230.887C230.906 148.412 231.051 148.701 231.32 148.916C231.594 149.127 231.953 149.232 232.398 149.232C232.808 149.232 233.137 149.15 233.383 148.986C233.633 148.818 233.758 148.596 233.758 148.318ZM236.125 149.432C236.125 149.244 236.18 149.088 236.289 148.963C236.402 148.838 236.57 148.775 236.793 148.775C237.016 148.775 237.184 148.838 237.297 148.963C237.414 149.088 237.473 149.244 237.473 149.432C237.473 149.611 237.414 149.762 237.297 149.883C237.184 150.004 237.016 150.064 236.793 150.064C236.57 150.064 236.402 150.004 236.289 149.883C236.18 149.762 236.125 149.611 236.125 149.432Z" fill="#858585"/>
<path d="M87.3633 177.232C87.75 177.232 88.0879 177.115 88.377 176.881C88.666 176.646 88.8262 176.354 88.8574 176.002H89.8828C89.8633 176.365 89.7383 176.711 89.5078 177.039C89.2773 177.367 88.9688 177.629 88.582 177.824C88.1992 178.02 87.793 178.117 87.3633 178.117C86.5 178.117 85.8125 177.83 85.3008 177.256C84.793 176.678 84.5391 175.889 84.5391 174.889V174.707C84.5391 174.09 84.6523 173.541 84.8789 173.061C85.1055 172.58 85.4297 172.207 85.8516 171.941C86.2773 171.676 86.7793 171.543 87.3574 171.543C88.0684 171.543 88.6582 171.756 89.127 172.182C89.5996 172.607 89.8516 173.16 89.8828 173.84H88.8574C88.8262 173.43 88.6699 173.094 88.3887 172.832C88.1113 172.566 87.7676 172.434 87.3574 172.434C86.8066 172.434 86.3789 172.633 86.0742 173.031C85.7734 173.426 85.623 173.998 85.623 174.748V174.953C85.623 175.684 85.7734 176.246 86.0742 176.641C86.375 177.035 86.8047 177.232 87.3633 177.232ZM94.6408 176.318C94.6408 176.025 94.5294 175.799 94.3068 175.639C94.088 175.475 93.7033 175.334 93.1525 175.217C92.6056 175.1 92.1701 174.959 91.8458 174.795C91.5255 174.631 91.2872 174.436 91.131 174.209C90.9786 173.982 90.9025 173.713 90.9025 173.4C90.9025 172.881 91.1212 172.441 91.5587 172.082C92.0001 171.723 92.5626 171.543 93.2462 171.543C93.965 171.543 94.547 171.729 94.9923 172.1C95.4415 172.471 95.6661 172.945 95.6661 173.523H94.5763C94.5763 173.227 94.4493 172.971 94.1954 172.756C93.9454 172.541 93.629 172.434 93.2462 172.434C92.8517 172.434 92.5431 172.52 92.3204 172.691C92.0978 172.863 91.9865 173.088 91.9865 173.365C91.9865 173.627 92.09 173.824 92.297 173.957C92.504 174.09 92.8771 174.217 93.4161 174.338C93.9591 174.459 94.3986 174.604 94.7345 174.771C95.0704 174.939 95.3185 175.143 95.4786 175.381C95.6427 175.615 95.7247 175.902 95.7247 176.242C95.7247 176.809 95.4982 177.264 95.0451 177.607C94.5919 177.947 94.004 178.117 93.2814 178.117C92.7736 178.117 92.3243 178.027 91.9337 177.848C91.5431 177.668 91.2365 177.418 91.0138 177.098C90.7951 176.773 90.6857 176.424 90.6857 176.049H91.7697C91.7892 176.412 91.9337 176.701 92.2033 176.916C92.4767 177.127 92.8361 177.232 93.2814 177.232C93.6915 177.232 94.0197 177.15 94.2658 176.986C94.5158 176.818 94.6408 176.596 94.6408 176.318ZM98.0042 171.66L98.0335 172.363C98.4983 171.816 99.1253 171.543 99.9143 171.543C100.801 171.543 101.405 171.883 101.725 172.562C101.936 172.258 102.209 172.012 102.545 171.824C102.885 171.637 103.285 171.543 103.746 171.543C105.137 171.543 105.844 172.279 105.867 173.752V178H104.783V173.816C104.783 173.363 104.68 173.025 104.473 172.803C104.266 172.576 103.918 172.463 103.43 172.463C103.028 172.463 102.694 172.584 102.428 172.826C102.162 173.064 102.008 173.387 101.965 173.793V178H100.875V173.846C100.875 172.924 100.424 172.463 99.5217 172.463C98.8108 172.463 98.3245 172.766 98.0628 173.371V178H96.9788V171.66H98.0042ZM109.899 177.232C110.286 177.232 110.623 177.115 110.913 176.881C111.202 176.646 111.362 176.354 111.393 176.002H112.418C112.399 176.365 112.274 176.711 112.043 177.039C111.813 177.367 111.504 177.629 111.118 177.824C110.735 178.02 110.329 178.117 109.899 178.117C109.036 178.117 108.348 177.83 107.836 177.256C107.329 176.678 107.075 175.889 107.075 174.889V174.707C107.075 174.09 107.188 173.541 107.414 173.061C107.641 172.58 107.965 172.207 108.387 171.941C108.813 171.676 109.315 171.543 109.893 171.543C110.604 171.543 111.194 171.756 111.663 172.182C112.135 172.607 112.387 173.16 112.418 173.84H111.393C111.362 173.43 111.205 173.094 110.924 172.832C110.647 172.566 110.303 172.434 109.893 172.434C109.342 172.434 108.914 172.633 108.61 173.031C108.309 173.426 108.159 173.998 108.159 174.748V174.953C108.159 175.684 108.309 176.246 108.61 176.641C108.911 177.035 109.34 177.232 109.899 177.232ZM117.399 177.373C116.977 177.869 116.358 178.117 115.542 178.117C114.866 178.117 114.35 177.922 113.995 177.531C113.643 177.137 113.465 176.555 113.461 175.785V171.66H114.545V175.756C114.545 176.717 114.936 177.197 115.717 177.197C116.545 177.197 117.096 176.889 117.37 176.271V171.66H118.454V178H117.422L117.399 177.373ZM119.977 177.432C119.977 177.244 120.032 177.088 120.141 176.963C120.255 176.838 120.423 176.775 120.645 176.775C120.868 176.775 121.036 176.838 121.149 176.963C121.266 177.088 121.325 177.244 121.325 177.432C121.325 177.611 121.266 177.762 121.149 177.883C121.036 178.004 120.868 178.064 120.645 178.064C120.423 178.064 120.255 178.004 120.141 177.883C120.032 177.762 119.977 177.611 119.977 177.432ZM126.657 176.318C126.657 176.025 126.546 175.799 126.323 175.639C126.104 175.475 125.72 175.334 125.169 175.217C124.622 175.1 124.186 174.959 123.862 174.795C123.542 174.631 123.304 174.436 123.147 174.209C122.995 173.982 122.919 173.713 122.919 173.4C122.919 172.881 123.138 172.441 123.575 172.082C124.016 171.723 124.579 171.543 125.263 171.543C125.981 171.543 126.563 171.729 127.009 172.1C127.458 172.471 127.682 172.945 127.682 173.523H126.593C126.593 173.227 126.466 172.971 126.212 172.756C125.962 172.541 125.645 172.434 125.263 172.434C124.868 172.434 124.559 172.52 124.337 172.691C124.114 172.863 124.003 173.088 124.003 173.365C124.003 173.627 124.106 173.824 124.313 173.957C124.52 174.09 124.893 174.217 125.432 174.338C125.975 174.459 126.415 174.604 126.751 174.771C127.087 174.939 127.335 175.143 127.495 175.381C127.659 175.615 127.741 175.902 127.741 176.242C127.741 176.809 127.514 177.264 127.061 177.607C126.608 177.947 126.02 178.117 125.298 178.117C124.79 178.117 124.341 178.027 123.95 177.848C123.559 177.668 123.253 177.418 123.03 177.098C122.811 176.773 122.702 176.424 122.702 176.049H123.786C123.805 176.412 123.95 176.701 124.22 176.916C124.493 177.127 124.852 177.232 125.298 177.232C125.708 177.232 126.036 177.15 126.282 176.986C126.532 176.818 126.657 176.596 126.657 176.318ZM132.915 178C132.852 177.875 132.802 177.652 132.763 177.332C132.259 177.855 131.657 178.117 130.958 178.117C130.333 178.117 129.819 177.941 129.417 177.59C129.018 177.234 128.819 176.785 128.819 176.242C128.819 175.582 129.069 175.07 129.569 174.707C130.073 174.34 130.78 174.156 131.69 174.156H132.745V173.658C132.745 173.279 132.632 172.979 132.405 172.756C132.179 172.529 131.845 172.416 131.403 172.416C131.017 172.416 130.692 172.514 130.431 172.709C130.169 172.904 130.038 173.141 130.038 173.418H128.948C128.948 173.102 129.06 172.797 129.282 172.504C129.509 172.207 129.813 171.973 130.196 171.801C130.583 171.629 131.007 171.543 131.468 171.543C132.198 171.543 132.77 171.727 133.185 172.094C133.599 172.457 133.813 172.959 133.829 173.6V176.518C133.829 177.1 133.903 177.562 134.052 177.906V178H132.915ZM131.116 177.174C131.456 177.174 131.778 177.086 132.083 176.91C132.388 176.734 132.608 176.506 132.745 176.225V174.924H131.895C130.567 174.924 129.903 175.312 129.903 176.09C129.903 176.43 130.017 176.695 130.243 176.887C130.47 177.078 130.761 177.174 131.116 177.174ZM136.401 171.66L136.437 172.457C136.921 171.848 137.554 171.543 138.335 171.543C139.675 171.543 140.351 172.299 140.362 173.811V178H139.278V173.805C139.274 173.348 139.169 173.01 138.962 172.791C138.759 172.572 138.441 172.463 138.007 172.463C137.655 172.463 137.347 172.557 137.081 172.744C136.816 172.932 136.608 173.178 136.46 173.482V178H135.376V171.66H136.401ZM142.864 171.66L142.894 172.363C143.359 171.816 143.986 171.543 144.775 171.543C145.661 171.543 146.265 171.883 146.585 172.562C146.796 172.258 147.07 172.012 147.405 171.824C147.745 171.637 148.146 171.543 148.607 171.543C149.997 171.543 150.704 172.279 150.728 173.752V178H149.644V173.816C149.644 173.363 149.54 173.025 149.333 172.803C149.126 172.576 148.779 172.463 148.29 172.463C147.888 172.463 147.554 172.584 147.288 172.826C147.023 173.064 146.868 173.387 146.825 173.793V178H145.736V173.846C145.736 172.924 145.284 172.463 144.382 172.463C143.671 172.463 143.185 172.766 142.923 173.371V178H141.839V171.66H142.864ZM156.13 178C156.068 177.875 156.017 177.652 155.978 177.332C155.474 177.855 154.872 178.117 154.173 178.117C153.548 178.117 153.035 177.941 152.632 177.59C152.234 177.234 152.035 176.785 152.035 176.242C152.035 175.582 152.285 175.07 152.785 174.707C153.288 174.34 153.995 174.156 154.906 174.156H155.96V173.658C155.96 173.279 155.847 172.979 155.62 172.756C155.394 172.529 155.06 172.416 154.618 172.416C154.232 172.416 153.908 172.514 153.646 172.709C153.384 172.904 153.253 173.141 153.253 173.418H152.163C152.163 173.102 152.275 172.797 152.497 172.504C152.724 172.207 153.029 171.973 153.411 171.801C153.798 171.629 154.222 171.543 154.683 171.543C155.413 171.543 155.986 171.727 156.4 172.094C156.814 172.457 157.029 172.959 157.044 173.6V176.518C157.044 177.1 157.118 177.562 157.267 177.906V178H156.13ZM154.331 177.174C154.671 177.174 154.993 177.086 155.298 176.91C155.603 176.734 155.824 176.506 155.96 176.225V174.924H155.111C153.783 174.924 153.118 175.312 153.118 176.09C153.118 176.43 153.232 176.695 153.458 176.887C153.685 177.078 153.976 177.174 154.331 177.174ZM161.656 172.633C161.492 172.605 161.314 172.592 161.123 172.592C160.412 172.592 159.929 172.895 159.675 173.5V178H158.591V171.66H159.646L159.664 172.393C160.019 171.826 160.523 171.543 161.175 171.543C161.386 171.543 161.546 171.57 161.656 171.625V172.633ZM164.931 177.232C165.318 177.232 165.656 177.115 165.945 176.881C166.234 176.646 166.394 176.354 166.425 176.002H167.451C167.431 176.365 167.306 176.711 167.076 177.039C166.845 177.367 166.537 177.629 166.15 177.824C165.767 178.02 165.361 178.117 164.931 178.117C164.068 178.117 163.38 177.83 162.869 177.256C162.361 176.678 162.107 175.889 162.107 174.889V174.707C162.107 174.09 162.22 173.541 162.447 173.061C162.673 172.58 162.998 172.207 163.42 171.941C163.845 171.676 164.347 171.543 164.925 171.543C165.636 171.543 166.226 171.756 166.695 172.182C167.168 172.607 167.42 173.16 167.451 173.84H166.425C166.394 173.43 166.238 173.094 165.957 172.832C165.679 172.566 165.336 172.434 164.925 172.434C164.375 172.434 163.947 172.633 163.642 173.031C163.341 173.426 163.191 173.998 163.191 174.748V174.953C163.191 175.684 163.341 176.246 163.642 176.641C163.943 177.035 164.373 177.232 164.931 177.232ZM168.23 174.771C168.23 174.15 168.351 173.592 168.593 173.096C168.84 172.6 169.179 172.217 169.613 171.947C170.051 171.678 170.549 171.543 171.107 171.543C171.97 171.543 172.668 171.842 173.199 172.439C173.734 173.037 174.002 173.832 174.002 174.824V174.9C174.002 175.518 173.883 176.072 173.644 176.564C173.41 177.053 173.072 177.434 172.631 177.707C172.193 177.98 171.689 178.117 171.119 178.117C170.26 178.117 169.562 177.818 169.027 177.221C168.496 176.623 168.23 175.832 168.23 174.848V174.771ZM169.32 174.9C169.32 175.604 169.482 176.168 169.806 176.594C170.135 177.02 170.572 177.232 171.119 177.232C171.67 177.232 172.107 177.018 172.431 176.588C172.756 176.154 172.918 175.549 172.918 174.771C172.918 174.076 172.752 173.514 172.42 173.084C172.092 172.65 171.654 172.434 171.107 172.434C170.572 172.434 170.14 172.646 169.812 173.072C169.484 173.498 169.32 174.107 169.32 174.9ZM178.9 176.318C178.9 176.025 178.789 175.799 178.566 175.639C178.348 175.475 177.963 175.334 177.412 175.217C176.865 175.1 176.43 174.959 176.105 174.795C175.785 174.631 175.547 174.436 175.391 174.209C175.238 173.982 175.162 173.713 175.162 173.4C175.162 172.881 175.381 172.441 175.818 172.082C176.26 171.723 176.822 171.543 177.506 171.543C178.224 171.543 178.807 171.729 179.252 172.1C179.701 172.471 179.926 172.945 179.926 173.523H178.836C178.836 173.227 178.709 172.971 178.455 172.756C178.205 172.541 177.889 172.434 177.506 172.434C177.111 172.434 176.803 172.52 176.58 172.691C176.357 172.863 176.246 173.088 176.246 173.365C176.246 173.627 176.349 173.824 176.557 173.957C176.764 174.09 177.137 174.217 177.676 174.338C178.219 174.459 178.658 174.604 178.994 174.771C179.33 174.939 179.578 175.143 179.738 175.381C179.902 175.615 179.984 175.902 179.984 176.242C179.984 176.809 179.758 177.264 179.305 177.607C178.851 177.947 178.264 178.117 177.541 178.117C177.033 178.117 176.584 178.027 176.193 177.848C175.803 177.668 175.496 177.418 175.273 177.098C175.055 176.773 174.945 176.424 174.945 176.049H176.029C176.049 176.412 176.193 176.701 176.463 176.916C176.736 177.127 177.096 177.232 177.541 177.232C177.951 177.232 178.279 177.15 178.525 176.986C178.775 176.818 178.9 176.596 178.9 176.318ZM190.607 175.059C190.561 176.004 190.326 176.75 189.904 177.297C189.482 177.844 188.918 178.117 188.211 178.117C187.48 178.117 187.012 177.789 186.805 177.133C186.594 177.465 186.352 177.713 186.078 177.877C185.809 178.037 185.529 178.117 185.24 178.117C184.686 178.117 184.266 177.891 183.98 177.438C183.695 176.984 183.59 176.357 183.664 175.557C183.723 174.912 183.869 174.338 184.104 173.834C184.342 173.326 184.646 172.928 185.018 172.639C185.393 172.35 185.785 172.205 186.195 172.205C186.512 172.205 186.795 172.248 187.045 172.334C187.295 172.416 187.576 172.58 187.889 172.826L187.584 176.072C187.51 176.975 187.76 177.426 188.334 177.426C188.775 177.426 189.133 177.207 189.406 176.77C189.68 176.332 189.828 175.762 189.852 175.059C189.926 173.539 189.643 172.381 189.002 171.584C188.365 170.787 187.395 170.389 186.09 170.389C185.305 170.389 184.607 170.584 183.998 170.975C183.389 171.361 182.908 171.922 182.557 172.656C182.205 173.391 182.008 174.238 181.965 175.199C181.918 176.168 182.035 177.01 182.316 177.725C182.598 178.436 183.025 178.979 183.6 179.354C184.178 179.732 184.875 179.922 185.691 179.922C186.043 179.922 186.395 179.879 186.746 179.793C187.102 179.707 187.396 179.596 187.631 179.459L187.848 180.133C187.605 180.285 187.283 180.41 186.881 180.508C186.482 180.605 186.078 180.654 185.668 180.654C184.691 180.654 183.852 180.434 183.148 179.992C182.445 179.555 181.918 178.922 181.566 178.094C181.219 177.27 181.068 176.305 181.115 175.199C181.162 174.125 181.402 173.16 181.836 172.305C182.27 171.445 182.857 170.783 183.6 170.318C184.342 169.85 185.18 169.615 186.113 169.615C187.086 169.615 187.92 169.834 188.615 170.271C189.311 170.709 189.828 171.34 190.168 172.164C190.508 172.988 190.654 173.953 190.607 175.059ZM184.596 175.557C184.541 176.111 184.592 176.537 184.748 176.834C184.908 177.131 185.16 177.279 185.504 177.279C185.738 177.279 185.963 177.18 186.178 176.98C186.396 176.781 186.576 176.496 186.717 176.125L186.723 176.072L186.992 173.125C186.773 173.012 186.539 172.955 186.289 172.955C185.832 172.955 185.453 173.188 185.152 173.652C184.855 174.117 184.67 174.752 184.596 175.557ZM191.615 174.777C191.615 173.789 191.844 173.004 192.301 172.422C192.758 171.836 193.363 171.543 194.117 171.543C194.891 171.543 195.494 171.816 195.928 172.363L195.981 171.66H196.971V177.848C196.971 178.668 196.727 179.314 196.238 179.787C195.754 180.26 195.102 180.496 194.281 180.496C193.824 180.496 193.377 180.398 192.94 180.203C192.502 180.008 192.168 179.74 191.938 179.4L192.5 178.75C192.965 179.324 193.533 179.611 194.205 179.611C194.733 179.611 195.143 179.463 195.436 179.166C195.733 178.869 195.881 178.451 195.881 177.912V177.367C195.447 177.867 194.856 178.117 194.106 178.117C193.363 178.117 192.762 177.818 192.301 177.221C191.844 176.623 191.615 175.809 191.615 174.777ZM192.705 174.9C192.705 175.615 192.852 176.178 193.145 176.588C193.438 176.994 193.848 177.197 194.375 177.197C195.059 177.197 195.561 176.887 195.881 176.266V173.371C195.549 172.766 195.051 172.463 194.387 172.463C193.86 172.463 193.447 172.668 193.151 173.078C192.854 173.488 192.705 174.096 192.705 174.9ZM199.479 171.66L199.508 172.363C199.973 171.816 200.6 171.543 201.389 171.543C202.276 171.543 202.879 171.883 203.199 172.562C203.41 172.258 203.684 172.012 204.02 171.824C204.36 171.637 204.76 171.543 205.221 171.543C206.612 171.543 207.319 172.279 207.342 173.752V178H206.258V173.816C206.258 173.363 206.155 173.025 205.948 172.803C205.741 172.576 205.393 172.463 204.905 172.463C204.502 172.463 204.168 172.584 203.903 172.826C203.637 173.064 203.483 173.387 203.44 173.793V178H202.35V173.846C202.35 172.924 201.899 172.463 200.996 172.463C200.285 172.463 199.799 172.766 199.537 173.371V178H198.453V171.66H199.479ZM212.745 178C212.682 177.875 212.631 177.652 212.592 177.332C212.088 177.855 211.487 178.117 210.788 178.117C210.163 178.117 209.649 177.941 209.246 177.59C208.848 177.234 208.649 176.785 208.649 176.242C208.649 175.582 208.899 175.07 209.399 174.707C209.903 174.34 210.61 174.156 211.52 174.156H212.575V173.658C212.575 173.279 212.461 172.979 212.235 172.756C212.008 172.529 211.674 172.416 211.233 172.416C210.846 172.416 210.522 172.514 210.26 172.709C209.998 172.904 209.868 173.141 209.868 173.418H208.778C208.778 173.102 208.889 172.797 209.112 172.504C209.338 172.207 209.643 171.973 210.026 171.801C210.413 171.629 210.836 171.543 211.297 171.543C212.028 171.543 212.6 171.727 213.014 172.094C213.428 172.457 213.643 172.959 213.659 173.6V176.518C213.659 177.1 213.733 177.562 213.881 177.906V178H212.745ZM210.946 177.174C211.286 177.174 211.608 177.086 211.913 176.91C212.217 176.734 212.438 176.506 212.575 176.225V174.924H211.725C210.397 174.924 209.733 175.312 209.733 176.09C209.733 176.43 209.846 176.695 210.073 176.887C210.299 177.078 210.59 177.174 210.946 177.174ZM216.383 178H215.299V171.66H216.383V178ZM215.211 169.979C215.211 169.803 215.264 169.654 215.37 169.533C215.479 169.412 215.639 169.352 215.85 169.352C216.061 169.352 216.221 169.412 216.331 169.533C216.44 169.654 216.495 169.803 216.495 169.979C216.495 170.154 216.44 170.301 216.331 170.418C216.221 170.535 216.061 170.594 215.85 170.594C215.639 170.594 215.479 170.535 215.37 170.418C215.264 170.301 215.211 170.154 215.211 169.979ZM219.149 178H218.065V169H219.149V178ZM220.761 177.432C220.761 177.244 220.815 177.088 220.925 176.963C221.038 176.838 221.206 176.775 221.429 176.775C221.651 176.775 221.819 176.838 221.932 176.963C222.05 177.088 222.108 177.244 222.108 177.432C222.108 177.611 222.05 177.762 221.932 177.883C221.819 178.004 221.651 178.064 221.429 178.064C221.206 178.064 221.038 178.004 220.925 177.883C220.815 177.762 220.761 177.611 220.761 177.432ZM226.292 177.232C226.679 177.232 227.017 177.115 227.306 176.881C227.595 176.646 227.755 176.354 227.786 176.002H228.811C228.792 176.365 228.667 176.711 228.436 177.039C228.206 177.367 227.897 177.629 227.511 177.824C227.128 178.02 226.722 178.117 226.292 178.117C225.429 178.117 224.741 177.83 224.229 177.256C223.722 176.678 223.468 175.889 223.468 174.889V174.707C223.468 174.09 223.581 173.541 223.808 173.061C224.034 172.58 224.358 172.207 224.78 171.941C225.206 171.676 225.708 171.543 226.286 171.543C226.997 171.543 227.587 171.756 228.056 172.182C228.528 172.607 228.78 173.16 228.811 173.84H227.786C227.755 173.43 227.599 173.094 227.317 172.832C227.04 172.566 226.696 172.434 226.286 172.434C225.735 172.434 225.308 172.633 225.003 173.031C224.702 173.426 224.552 173.998 224.552 174.748V174.953C224.552 175.684 224.702 176.246 225.003 176.641C225.304 177.035 225.733 177.232 226.292 177.232ZM229.591 174.771C229.591 174.15 229.712 173.592 229.954 173.096C230.2 172.6 230.54 172.217 230.974 171.947C231.411 171.678 231.909 171.543 232.468 171.543C233.331 171.543 234.028 171.842 234.56 172.439C235.095 173.037 235.362 173.832 235.362 174.824V174.9C235.362 175.518 235.243 176.072 235.005 176.564C234.771 177.053 234.433 177.434 233.991 177.707C233.554 177.98 233.05 178.117 232.48 178.117C231.62 178.117 230.923 177.818 230.388 177.221C229.857 176.623 229.591 175.832 229.591 174.848V174.771ZM230.681 174.9C230.681 175.604 230.843 176.168 231.167 176.594C231.495 177.02 231.933 177.232 232.48 177.232C233.03 177.232 233.468 177.018 233.792 176.588C234.116 176.154 234.278 175.549 234.278 174.771C234.278 174.076 234.112 173.514 233.78 173.084C233.452 172.65 233.015 172.434 232.468 172.434C231.933 172.434 231.501 172.646 231.173 173.072C230.845 173.498 230.681 174.107 230.681 174.9ZM237.589 171.66L237.618 172.363C238.083 171.816 238.71 171.543 239.499 171.543C240.386 171.543 240.989 171.883 241.31 172.562C241.521 172.258 241.794 172.012 242.13 171.824C242.47 171.637 242.87 171.543 243.331 171.543C244.722 171.543 245.429 172.279 245.452 173.752V178H244.368V173.816C244.368 173.363 244.265 173.025 244.058 172.803C243.851 172.576 243.503 172.463 243.015 172.463C242.613 172.463 242.279 172.584 242.013 172.826C241.747 173.064 241.593 173.387 241.55 173.793V178H240.46V173.846C240.46 172.924 240.009 172.463 239.107 172.463C238.396 172.463 237.909 172.766 237.648 173.371V178H236.564V171.66H237.589Z" fill="#858585"/>
<path d="M124.266 196.293C124.16 197.195 123.826 197.893 123.264 198.385C122.705 198.873 121.961 199.117 121.031 199.117C120.023 199.117 119.215 198.756 118.605 198.033C118 197.311 117.697 196.344 117.697 195.133V194.312C117.697 193.52 117.838 192.822 118.119 192.221C118.404 191.619 118.807 191.158 119.326 190.838C119.846 190.514 120.447 190.352 121.131 190.352C122.037 190.352 122.764 190.605 123.311 191.113C123.857 191.617 124.176 192.316 124.266 193.211H123.135C123.037 192.531 122.824 192.039 122.496 191.734C122.172 191.43 121.717 191.277 121.131 191.277C120.412 191.277 119.848 191.543 119.438 192.074C119.031 192.605 118.828 193.361 118.828 194.342V195.168C118.828 196.094 119.021 196.83 119.408 197.377C119.795 197.924 120.336 198.197 121.031 198.197C121.656 198.197 122.135 198.057 122.467 197.775C122.803 197.49 123.025 196.996 123.135 196.293H124.266ZM129.176 197.318C129.176 197.025 129.065 196.799 128.842 196.639C128.623 196.475 128.238 196.334 127.688 196.217C127.141 196.1 126.705 195.959 126.381 195.795C126.061 195.631 125.822 195.436 125.666 195.209C125.514 194.982 125.438 194.713 125.438 194.4C125.438 193.881 125.656 193.441 126.094 193.082C126.535 192.723 127.098 192.543 127.781 192.543C128.5 192.543 129.082 192.729 129.527 193.1C129.977 193.471 130.201 193.945 130.201 194.523H129.111C129.111 194.227 128.985 193.971 128.731 193.756C128.481 193.541 128.164 193.434 127.781 193.434C127.387 193.434 127.078 193.52 126.856 193.691C126.633 193.863 126.522 194.088 126.522 194.365C126.522 194.627 126.625 194.824 126.832 194.957C127.039 195.09 127.412 195.217 127.951 195.338C128.494 195.459 128.934 195.604 129.27 195.771C129.606 195.939 129.854 196.143 130.014 196.381C130.178 196.615 130.26 196.902 130.26 197.242C130.26 197.809 130.033 198.264 129.58 198.607C129.127 198.947 128.539 199.117 127.817 199.117C127.309 199.117 126.86 199.027 126.469 198.848C126.078 198.668 125.772 198.418 125.549 198.098C125.33 197.773 125.221 197.424 125.221 197.049H126.305C126.324 197.412 126.469 197.701 126.738 197.916C127.012 198.127 127.371 198.232 127.817 198.232C128.227 198.232 128.555 198.15 128.801 197.986C129.051 197.818 129.176 197.596 129.176 197.318ZM132.539 192.66L132.569 193.363C133.033 192.816 133.66 192.543 134.449 192.543C135.336 192.543 135.94 192.883 136.26 193.562C136.471 193.258 136.744 193.012 137.08 192.824C137.42 192.637 137.821 192.543 138.282 192.543C139.672 192.543 140.379 193.279 140.403 194.752V199H139.319V194.816C139.319 194.363 139.215 194.025 139.008 193.803C138.801 193.576 138.453 193.463 137.965 193.463C137.563 193.463 137.229 193.584 136.963 193.826C136.698 194.064 136.543 194.387 136.5 194.793V199H135.41V194.846C135.41 193.924 134.959 193.463 134.057 193.463C133.346 193.463 132.86 193.766 132.598 194.371V199H131.514V192.66H132.539ZM144.434 198.232C144.821 198.232 145.159 198.115 145.448 197.881C145.737 197.646 145.897 197.354 145.928 197.002H146.954C146.934 197.365 146.809 197.711 146.579 198.039C146.348 198.367 146.039 198.629 145.653 198.824C145.27 199.02 144.864 199.117 144.434 199.117C143.571 199.117 142.883 198.83 142.371 198.256C141.864 197.678 141.61 196.889 141.61 195.889V195.707C141.61 195.09 141.723 194.541 141.95 194.061C142.176 193.58 142.5 193.207 142.922 192.941C143.348 192.676 143.85 192.543 144.428 192.543C145.139 192.543 145.729 192.756 146.198 193.182C146.67 193.607 146.922 194.16 146.954 194.84H145.928C145.897 194.43 145.741 194.094 145.459 193.832C145.182 193.566 144.838 193.434 144.428 193.434C143.877 193.434 143.45 193.633 143.145 194.031C142.844 194.426 142.694 194.998 142.694 195.748V195.953C142.694 196.684 142.844 197.246 143.145 197.641C143.446 198.035 143.875 198.232 144.434 198.232ZM151.934 198.373C151.512 198.869 150.893 199.117 150.077 199.117C149.401 199.117 148.885 198.922 148.53 198.531C148.178 198.137 148.001 197.555 147.997 196.785V192.66H149.081V196.756C149.081 197.717 149.471 198.197 150.252 198.197C151.081 198.197 151.631 197.889 151.905 197.271V192.66H152.989V199H151.958L151.934 198.373ZM154.512 198.432C154.512 198.244 154.567 198.088 154.676 197.963C154.79 197.838 154.958 197.775 155.18 197.775C155.403 197.775 155.571 197.838 155.684 197.963C155.801 198.088 155.86 198.244 155.86 198.432C155.86 198.611 155.801 198.762 155.684 198.883C155.571 199.004 155.403 199.064 155.18 199.064C154.958 199.064 154.79 199.004 154.676 198.883C154.567 198.762 154.512 198.611 154.512 198.432ZM160.184 195.197C159.22 194.92 158.516 194.58 158.075 194.178C157.638 193.771 157.419 193.271 157.419 192.678C157.419 192.006 157.686 191.451 158.221 191.014C158.761 190.572 159.46 190.352 160.319 190.352C160.905 190.352 161.427 190.465 161.884 190.691C162.345 190.918 162.7 191.23 162.95 191.629C163.204 192.027 163.331 192.463 163.331 192.936H162.2C162.2 192.42 162.036 192.016 161.708 191.723C161.38 191.426 160.917 191.277 160.319 191.277C159.764 191.277 159.331 191.4 159.018 191.646C158.71 191.889 158.555 192.227 158.555 192.66C158.555 193.008 158.702 193.303 158.995 193.545C159.292 193.783 159.794 194.002 160.501 194.201C161.212 194.4 161.766 194.621 162.165 194.863C162.567 195.102 162.864 195.381 163.055 195.701C163.251 196.021 163.348 196.398 163.348 196.832C163.348 197.523 163.079 198.078 162.54 198.496C162.001 198.91 161.28 199.117 160.378 199.117C159.792 199.117 159.245 199.006 158.737 198.783C158.229 198.557 157.837 198.248 157.559 197.857C157.286 197.467 157.149 197.023 157.149 196.527H158.28C158.28 197.043 158.47 197.451 158.848 197.752C159.231 198.049 159.741 198.197 160.378 198.197C160.971 198.197 161.427 198.076 161.743 197.834C162.059 197.592 162.218 197.262 162.218 196.844C162.218 196.426 162.071 196.104 161.778 195.877C161.485 195.646 160.954 195.42 160.184 195.197ZM168.388 199C168.325 198.875 168.274 198.652 168.235 198.332C167.731 198.855 167.13 199.117 166.431 199.117C165.806 199.117 165.292 198.941 164.89 198.59C164.491 198.234 164.292 197.785 164.292 197.242C164.292 196.582 164.542 196.07 165.042 195.707C165.546 195.34 166.253 195.156 167.163 195.156H168.218V194.658C168.218 194.279 168.104 193.979 167.878 193.756C167.651 193.529 167.317 193.416 166.876 193.416C166.489 193.416 166.165 193.514 165.903 193.709C165.642 193.904 165.511 194.141 165.511 194.418H164.421C164.421 194.102 164.532 193.797 164.755 193.504C164.981 193.207 165.286 192.973 165.669 192.801C166.056 192.629 166.479 192.543 166.94 192.543C167.671 192.543 168.243 192.727 168.657 193.094C169.071 193.457 169.286 193.959 169.302 194.6V197.518C169.302 198.1 169.376 198.562 169.524 198.906V199H168.388ZM166.589 198.174C166.929 198.174 167.251 198.086 167.556 197.91C167.86 197.734 168.081 197.506 168.218 197.225V195.924H167.368C166.04 195.924 165.376 196.312 165.376 197.09C165.376 197.43 165.489 197.695 165.716 197.887C165.942 198.078 166.233 198.174 166.589 198.174ZM171.874 192.66L171.909 193.457C172.394 192.848 173.026 192.543 173.808 192.543C175.148 192.543 175.823 193.299 175.835 194.811V199H174.751V194.805C174.747 194.348 174.642 194.01 174.435 193.791C174.232 193.572 173.913 193.463 173.48 193.463C173.128 193.463 172.819 193.557 172.554 193.744C172.288 193.932 172.081 194.178 171.933 194.482V199H170.849V192.66H171.874ZM178.941 190.469L181.73 197.43L184.519 190.469H185.978V199H184.853V195.678L184.958 192.092L182.157 199H181.296L178.501 192.109L178.613 195.678V199H177.488V190.469H178.941ZM191.556 199C191.493 198.875 191.443 198.652 191.404 198.332C190.9 198.855 190.298 199.117 189.599 199.117C188.974 199.117 188.46 198.941 188.058 198.59C187.66 198.234 187.46 197.785 187.46 197.242C187.46 196.582 187.71 196.07 188.21 195.707C188.714 195.34 189.421 195.156 190.331 195.156H191.386V194.658C191.386 194.279 191.273 193.979 191.046 193.756C190.82 193.529 190.486 193.416 190.044 193.416C189.658 193.416 189.333 193.514 189.072 193.709C188.81 193.904 188.679 194.141 188.679 194.418H187.589C187.589 194.102 187.701 193.797 187.923 193.504C188.15 193.207 188.454 192.973 188.837 192.801C189.224 192.629 189.648 192.543 190.109 192.543C190.839 192.543 191.411 192.727 191.826 193.094C192.24 193.457 192.454 193.959 192.47 194.6V197.518C192.47 198.1 192.544 198.562 192.693 198.906V199H191.556ZM189.757 198.174C190.097 198.174 190.419 198.086 190.724 197.91C191.029 197.734 191.249 197.506 191.386 197.225V195.924H190.536C189.208 195.924 188.544 196.312 188.544 197.09C188.544 197.43 188.658 197.695 188.884 197.887C189.111 198.078 189.402 198.174 189.757 198.174ZM197.082 193.633C196.917 193.605 196.74 193.592 196.548 193.592C195.837 193.592 195.355 193.895 195.101 194.5V199H194.017V192.66H195.072L195.089 193.393C195.445 192.826 195.949 192.543 196.601 192.543C196.812 192.543 196.972 192.57 197.082 192.625V193.633ZM200.357 198.232C200.744 198.232 201.082 198.115 201.371 197.881C201.66 197.646 201.82 197.354 201.851 197.002H202.877C202.857 197.365 202.732 197.711 202.502 198.039C202.271 198.367 201.963 198.629 201.576 198.824C201.193 199.02 200.787 199.117 200.357 199.117C199.494 199.117 198.806 198.83 198.295 198.256C197.787 197.678 197.533 196.889 197.533 195.889V195.707C197.533 195.09 197.646 194.541 197.873 194.061C198.099 193.58 198.423 193.207 198.845 192.941C199.271 192.676 199.773 192.543 200.351 192.543C201.062 192.543 201.652 192.756 202.121 193.182C202.593 193.607 202.845 194.16 202.877 194.84H201.851C201.82 194.43 201.664 194.094 201.382 193.832C201.105 193.566 200.761 193.434 200.351 193.434C199.8 193.434 199.373 193.633 199.068 194.031C198.767 194.426 198.617 194.998 198.617 195.748V195.953C198.617 196.684 198.767 197.246 199.068 197.641C199.369 198.035 199.798 198.232 200.357 198.232ZM203.656 195.771C203.656 195.15 203.777 194.592 204.019 194.096C204.265 193.6 204.605 193.217 205.039 192.947C205.476 192.678 205.974 192.543 206.533 192.543C207.396 192.543 208.093 192.842 208.625 193.439C209.16 194.037 209.427 194.832 209.427 195.824V195.9C209.427 196.518 209.308 197.072 209.07 197.564C208.836 198.053 208.498 198.434 208.056 198.707C207.619 198.98 207.115 199.117 206.545 199.117C205.685 199.117 204.988 198.818 204.453 198.221C203.922 197.623 203.656 196.832 203.656 195.848V195.771ZM204.746 195.9C204.746 196.604 204.908 197.168 205.232 197.594C205.56 198.02 205.998 198.232 206.545 198.232C207.095 198.232 207.533 198.018 207.857 197.588C208.181 197.154 208.343 196.549 208.343 195.771C208.343 195.076 208.177 194.514 207.845 194.084C207.517 193.65 207.08 193.434 206.533 193.434C205.998 193.434 205.566 193.646 205.238 194.072C204.91 194.498 204.746 195.107 204.746 195.9ZM214.326 197.318C214.326 197.025 214.215 196.799 213.992 196.639C213.773 196.475 213.389 196.334 212.838 196.217C212.291 196.1 211.855 195.959 211.531 195.795C211.211 195.631 210.973 195.436 210.816 195.209C210.664 194.982 210.588 194.713 210.588 194.4C210.588 193.881 210.807 193.441 211.244 193.082C211.685 192.723 212.248 192.543 212.932 192.543C213.65 192.543 214.232 192.729 214.678 193.1C215.127 193.471 215.351 193.945 215.351 194.523H214.262C214.262 194.227 214.135 193.971 213.881 193.756C213.631 193.541 213.314 193.434 212.932 193.434C212.537 193.434 212.228 193.52 212.006 193.691C211.783 193.863 211.672 194.088 211.672 194.365C211.672 194.627 211.775 194.824 211.982 194.957C212.189 195.09 212.562 195.217 213.101 195.338C213.644 195.459 214.084 195.604 214.42 195.771C214.756 195.939 215.004 196.143 215.164 196.381C215.328 196.615 215.41 196.902 215.41 197.242C215.41 197.809 215.183 198.264 214.73 198.607C214.277 198.947 213.689 199.117 212.967 199.117C212.459 199.117 212.01 199.027 211.619 198.848C211.228 198.668 210.922 198.418 210.699 198.098C210.48 197.773 210.371 197.424 210.371 197.049H211.455C211.474 197.412 211.619 197.701 211.889 197.916C212.162 198.127 212.521 198.232 212.967 198.232C213.377 198.232 213.705 198.15 213.951 197.986C214.201 197.818 214.326 197.596 214.326 197.318ZM216.693 198.432C216.693 198.244 216.748 198.088 216.857 197.963C216.971 197.838 217.139 197.775 217.361 197.775C217.584 197.775 217.752 197.838 217.865 197.963C217.982 198.088 218.041 198.244 218.041 198.432C218.041 198.611 217.982 198.762 217.865 198.883C217.752 199.004 217.584 199.064 217.361 199.064C217.139 199.064 216.971 199.004 216.857 198.883C216.748 198.762 216.693 198.611 216.693 198.432Z" fill="#858585"/>
<path fill-rule="evenodd" clip-rule="evenodd" d="M66.6251 170.625H76.3751C76.9734 170.625 77.4584 171.11 77.4584 171.708V179.292C77.4584 179.89 76.9734 180.375 76.3751 180.375H66.6251C66.0268 180.375 65.5417 179.89 65.5417 179.292V171.708C65.5417 171.11 66.0268 170.625 66.6251 170.625ZM66.6251 174.21V179.292H76.3751V174.21L71.5001 176.648L66.6251 174.21ZM66.6251 172.999L71.5001 175.436L76.3751 172.999V171.708H66.6251V172.999Z" fill="#4D3D6C"/>
<path fill-rule="evenodd" clip-rule="evenodd" d="M99.3333 188.167H108.667C109.311 188.167 109.833 188.689 109.833 189.333V198.667C109.833 199.311 109.311 199.833 108.667 199.833H99.3333C98.689 199.833 98.1666 199.311 98.1666 198.667V189.333C98.1666 188.689 98.689 188.167 99.3333 188.167ZM99.3333 189.333V198.667H108.667V189.333H99.3333ZM103.494 194.003H104.583V197.5H105.75V194.003H106.906V192.836H105.75V192.25C105.75 191.928 106.011 191.667 106.333 191.667H106.917V190.5H106.333C105.367 190.5 104.583 191.283 104.583 192.25V192.836H103.494V194.003Z" fill="#4D3D6C"/>
<path d="M153.439 47.5366V49.0366H154.939V47.5366H153.439ZM141 47.5366V49.0366H141L141 47.5366ZM153.439 56.561H154.939V55.061H153.439V56.561ZM162.463 56.561V55.061H160.963V56.561H162.463ZM174 47.5366V46.0366V47.5366ZM162.463 47.5366H160.963V49.0366H162.463V47.5366ZM154.939 36C154.939 35.7239 155.163 35.5 155.439 35.5V32.5C153.506 32.5 151.939 34.067 151.939 36H154.939ZM154.939 47.5366V36H151.939V47.5366H154.939ZM141 49.0366L153.439 49.0366V46.0366L141 46.0366L141 49.0366ZM140.5 49.5366C140.5 49.2604 140.724 49.0366 141 49.0366V46.0366C139.067 46.0366 137.5 47.6036 137.5 49.5366H140.5ZM140.5 54.561V49.5366H137.5V54.561H140.5ZM141 55.061C140.724 55.061 140.5 54.8371 140.5 54.561H137.5C137.5 56.494 139.067 58.061 141 58.061V55.061ZM153.439 55.061H141V58.061H153.439V55.061ZM154.939 69V56.561H151.939V69H154.939ZM155.439 69.5C155.163 69.5 154.939 69.2761 154.939 69H151.939C151.939 70.933 153.506 72.5 155.439 72.5V69.5ZM160.463 69.5H155.439V72.5H160.463V69.5ZM160.963 69C160.963 69.2761 160.74 69.5 160.463 69.5V72.5C162.396 72.5 163.963 70.933 163.963 69H160.963ZM160.963 56.561V69H163.963V56.561H160.963ZM174 55.061H162.463V58.061H174V55.061ZM174.5 54.561C174.5 54.8371 174.276 55.061 174 55.061V58.061C175.933 58.061 177.5 56.494 177.5 54.561H174.5ZM174.5 49.5366V54.561H177.5V49.5366H174.5ZM174 49.0366C174.276 49.0366 174.5 49.2604 174.5 49.5366H177.5C177.5 47.6036 175.933 46.0366 174 46.0366V49.0366ZM162.463 49.0366L174 49.0366V46.0366L162.463 46.0366V49.0366ZM160.963 36V47.5366H163.963V36H160.963ZM160.463 35.5C160.74 35.5 160.963 35.7239 160.963 36H163.963C163.963 34.067 162.396 32.5 160.463 32.5V35.5ZM155.439 35.5H160.463V32.5H155.439V35.5Z" fill="#4D3D6C"/>
</g>
<defs>
<filter id="filter0_d" x="0" y="0" width="308" height="228" filterUnits="userSpaceOnUse" color-interpolation-filters="sRGB">
<feFlood flood-opacity="0" result="BackgroundImageFix"/>
<feColorMatrix in="SourceAlpha" type="matrix" values="0 0 0 0 0 0 0 0 0 0 0 0 0 0 0 0 0 0 127 0"/>
<feOffset dx="-4" dy="4"/>
<feGaussianBlur stdDeviation="2"/>
<feColorMatrix type="matrix" values="0 0 0 0 0 0 0 0 0 0 0 0 0 0 0 0 0 0 0.05 0"/>
<feBlend mode="normal" in2="BackgroundImageFix" result="effect1_dropShadow"/>
<feBlend mode="normal" in="SourceGraphic" in2="effect1_dropShadow" result="shape"/>
</filter>
</defs>
</svg>
