<svg width="190" height="148" viewBox="0 0 190 148" fill="none" xmlns="http://www.w3.org/2000/svg">
<path opacity="0.3" d="M156.228 19.247C156.228 19.247 142.288 0.305755 122.965 0.642374C103.643 0.978992 103.993 20.2828 84.3073 20.3605C64.6088 20.4511 30.2565 12.4888 10.0911 34.5373C-10.0742 56.5858 3.47742 115.235 48.3858 136.986C93.2942 158.737 173.424 143.9 180.88 114.122C188.311 84.344 169.248 34.5373 156.228 19.247Z" fill="#C5DBD9"/>
<path opacity="0.3" d="M19.6481 45.2576C19.6481 45.2576 -10.4119 73.0805 12.1136 116.983C34.6391 160.886 80.4034 149.117 100.076 131.704C119.748 114.303 133.974 131.95 161.117 121.476C188.272 111.002 198.037 91.8793 182.812 50.2551C158.38 -16.5249 45.5712 7.65986 19.6481 45.2576Z" fill="#C5DBD9"/>
<path d="M89.131 49.6466H154.672L154.723 49.5819C157.563 46.1768 157.563 41.2182 154.723 37.8131L154.672 37.7484H150.094H89.131L89.4552 38.098C92.5027 41.3606 92.373 46.4617 89.1829 49.5819L89.131 49.6466Z" fill="#F1F1F1"/>
<path d="M141.626 126.357H81.7781V44.8045C81.7781 40.9981 84.8645 37.9167 88.6771 37.9167H147.228C147.228 37.9167 153.31 37.5542 153.18 37.9167C148.914 37.9944 149.134 49.802 149.134 49.802V118.848C149.134 122.991 145.775 126.357 141.626 126.357Z" fill="white"/>
<path d="M141.535 126.357C138.864 126.357 75.9943 126.357 75.9943 126.357L75.9424 126.292C73.1024 122.887 73.1024 117.928 75.9424 114.523L75.9943 114.459H141.535L141.211 114.808C138.176 118.084 137.657 123.651 141.535 126.357C141.535 126.357 144.206 126.357 141.535 126.357Z" fill="#AED5D0"/>
<path d="M137.061 51.1096H96.3412V54.5276H137.061V51.1096Z" fill="#50968E"/>
<path d="M142.728 109.228H124.521V110.342H142.728V109.228Z" fill="#38635A"/>
<path d="M142.728 60.9492H90.6742V62.3345H142.728V60.9492Z" fill="#E4E4E4"/>
<path d="M142.728 67.7722H90.6742V69.1575H142.728V67.7722Z" fill="#E4E4E4"/>
<path d="M142.728 74.5952H90.6742V75.9805H142.728V74.5952Z" fill="#E4E4E4"/>
<path d="M142.728 81.4183H90.6742V82.8036H142.728V81.4183Z" fill="#E4E4E4"/>
<path d="M142.728 88.2412H90.6742V89.6266H142.728V88.2412Z" fill="#E4E4E4"/>
<path d="M142.728 101.887H90.6742V103.273H142.728V101.887Z" fill="#E4E4E4"/>
<path d="M142.728 95.0643H90.6742V96.4496H142.728V95.0643Z" fill="#E4E4E4"/>
<path d="M41.4603 96.7473V119.288C41.4603 123.392 44.7931 126.706 48.891 126.706H105.406C109.504 126.706 112.837 123.392 112.837 119.288V96.7473H41.4603Z" fill="#50968E"/>
<path d="M107.468 65.0793H46.8162C42.4719 65.0793 38.9575 68.5879 38.9575 72.9251V95.2585C38.9575 96.0741 39.6189 96.7473 40.4488 96.7473H113.861C114.678 96.7473 115.352 96.0871 115.352 95.2585V72.938C115.339 68.6008 111.812 65.0793 107.468 65.0793Z" fill="#50968E"/>
<path d="M112.837 96.7473H41.4603V99.5309H112.837V96.7473Z" fill="#38635A"/>
<path opacity="0.2" d="M51.0696 94.2615C51.0696 93.4458 51.731 92.7726 52.561 92.7726H60.5234C61.3403 92.7726 62.0147 93.4329 62.0147 94.2615V102.211C62.0147 103.027 61.3533 103.7 60.5234 103.7H52.561C51.744 103.7 51.0696 103.039 51.0696 102.211V94.2615Z" fill="black"/>
<path d="M51.0696 92.7726C51.0696 91.957 51.731 91.2838 52.561 91.2838H60.5234C61.3403 91.2838 62.0147 91.944 62.0147 92.7726V100.722C62.0147 101.538 61.3533 102.211 60.5234 102.211H52.561C51.744 102.211 51.0696 101.551 51.0696 100.722V92.7726Z" fill="#F3DFB3"/>
<path opacity="0.2" d="M92.2822 94.2615C92.2822 93.4458 92.9435 92.7726 93.7735 92.7726H101.736C102.553 92.7726 103.227 93.4329 103.227 94.2615V102.211C103.227 103.027 102.566 103.7 101.736 103.7H93.7735C92.9565 103.7 92.2822 103.039 92.2822 102.211V94.2615Z" fill="black"/>
<path d="M92.2822 92.7726C92.2822 91.957 92.9435 91.2838 93.7735 91.2838H101.736C102.553 91.2838 103.227 91.944 103.227 92.7726V100.722C103.227 101.538 102.566 102.211 101.736 102.211H93.7735C92.9565 102.211 92.2822 101.551 92.2822 100.722V92.7726Z" fill="#F3DFB3"/>
<path d="M97.7417 65.0793H91.8023V57.9585C91.8023 57.1428 91.141 56.4696 90.311 56.4696H63.9729C63.1559 56.4696 62.4815 57.1299 62.4815 57.9585V65.0793H56.5422V57.9585C56.5422 53.8673 59.875 50.5399 63.9729 50.5399H90.311C94.4089 50.5399 97.7417 53.8673 97.7417 57.9585V65.0793Z" fill="#38635A"/>
</svg>
