<svg width="181" height="151" viewBox="0 0 181 151" fill="none" xmlns="http://www.w3.org/2000/svg">
<path opacity="0.3" d="M50.5838 8.47608C50.5838 8.47608 68.8014 -4.45215 86.0965 1.62448C103.392 7.70112 97.3149 24.9962 115.016 30.9375C132.717 36.8788 166.028 39.954 177.603 65.8474C189.178 91.7531 159.459 140.612 112.531 146.836C65.5909 153.061 -2.13777 115.789 0.0517873 86.7097C2.24134 57.6304 34.2851 18.3906 50.5838 8.47608Z" fill="#C5DBD9"/>
<path opacity="0.3" d="M140.491 28.6003C140.491 28.6003 177.431 40.7413 175.413 87.5584C173.396 134.376 129.26 142.322 105.409 135.064C81.5451 127.819 76.2681 148.682 48.7141 150.379C21.1601 152.077 5.15665 139.419 1.7862 97.4484C-3.60159 30.1256 103.232 6.38491 140.491 28.6003Z" fill="#C5DBD9"/>
<path d="M57.6323 107.769L132.864 107.769C134.008 107.769 134.943 106.834 134.943 105.69L134.943 51.6767C134.943 50.5328 134.008 49.5979 132.864 49.5979L57.6323 49.5979C56.4883 49.5979 55.5534 50.5328 55.5534 51.6767L55.5534 105.69C55.5534 106.834 56.4883 107.769 57.6323 107.769Z" fill="#50968E"/>
<path opacity="0.2" d="M134.956 51.6767L57.6323 51.6767L57.6323 107.769L55.5534 107.769L55.5534 49.5856L134.956 49.6225L134.956 51.6767Z" fill="black"/>
<path opacity="0.2" d="M119.801 105.345C119.801 104.201 120.736 103.267 121.88 103.267L129.051 103.267C130.195 103.267 131.13 104.201 131.13 105.345L131.13 107.178C131.13 108.335 130.195 109.257 129.051 109.257L121.88 109.257C120.736 109.257 119.801 108.335 119.801 107.178L119.801 105.345Z" fill="black"/>
<path d="M132.877 111.926L57.6322 111.926C54.1879 111.926 51.3956 109.134 51.3956 105.69L51.3956 51.6767C51.3956 48.2325 54.1879 45.4402 57.6322 45.4402L132.864 45.4402C136.309 45.4402 139.101 48.2448 139.101 51.6767L139.101 105.69C139.113 109.134 136.309 111.926 132.877 111.926ZM57.6322 49.5856C56.4882 49.5856 55.5533 50.5205 55.5533 51.6644L55.5533 105.678C55.5533 106.822 56.4882 107.756 57.6322 107.756L132.864 107.756C134.008 107.756 134.943 106.822 134.943 105.678L134.943 51.6767C134.943 50.5327 134.008 49.5979 132.864 49.5979L57.6322 49.5979L57.6322 49.5856Z" fill="#38635A"/>
<path d="M118.288 103.82C118.288 102.676 119.223 101.741 120.367 101.741L127.538 101.741C128.682 101.741 129.617 102.676 129.617 103.82L129.617 105.665C129.617 106.822 128.682 107.744 127.538 107.744L120.367 107.744C119.223 107.744 118.288 106.822 118.288 105.665L118.288 103.82Z" fill="#68B4C3"/>
<path d="M112.297 119.024L34.9741 119.024C32.0218 119.024 29.6232 116.539 29.6232 113.476L29.6232 110.18C29.6232 107.117 32.0218 104.632 34.9741 104.632L112.31 104.632C108.767 108.642 108.706 114.768 112.162 118.852L112.297 119.024Z" fill="#50968E"/>
<path d="M111.104 106.28L68.211 106.28C65.2588 106.28 62.8601 108.765 62.8601 111.828C62.8601 114.891 65.2588 117.376 68.211 117.376L111.104 117.376C109.099 113.968 109.111 109.675 111.104 106.28Z" fill="#F3DFB3"/>
<path d="M85.1371 94.6315C85.2478 94.4224 85.0756 94.1764 84.8172 94.1764L43.8922 94.1764C40.6817 94.1764 38.0862 96.5136 38.0862 99.4043C38.0862 102.295 40.6817 104.632 43.8922 104.632L84.8172 104.632C85.0756 104.632 85.2478 104.386 85.1371 104.177C83.5257 101.151 83.5257 97.6452 85.1371 94.6315Z" fill="#38635A"/>
<path d="M84.8787 95.1481L64.5945 95.1481C60.8305 95.1481 57.7798 97.1039 57.7798 99.5272C57.7798 101.95 60.8305 103.906 64.5945 103.906L85.0017 103.906C83.6117 101.126 83.5748 97.9527 84.8787 95.1481Z" fill="#F3DFB3"/>
<path d="M79.6385 97.2269L76.9938 97.2269C76.428 97.2269 75.9606 97.4237 75.9606 97.6575L75.9606 97.6944L79.6262 97.6944L79.6262 97.2269L79.6385 97.2269Z" fill="#A15845"/>
<path d="M81.8896 98.2971C81.8896 97.7067 81.2008 97.2269 80.352 97.2269L76.957 97.2269C77.5966 97.2269 78.1256 97.5837 78.1256 98.0388L78.1133 109.491L79.983 108.015L81.8896 109.491L81.8896 98.2971Z" fill="#68B4C3"/>
<path d="M77.609 93.8073L53.8068 93.8073C51.691 93.8073 49.9812 91.7777 49.9812 89.2683C49.9812 86.7589 51.691 84.7292 53.8068 84.7292L77.609 84.7292C75.7885 87.2386 75.7147 90.9289 77.4368 93.549L77.609 93.8073Z" fill="#F3DFB3"/>
<path d="M49.9812 89.2683C49.9812 86.7589 51.7279 84.7293 53.8928 84.7293L78.0641 84.7293C78.1748 84.7293 78.2732 84.6186 78.2609 84.4956C78.2609 84.3725 78.1748 84.2618 78.0641 84.2618L39.7222 84.2618C37.3358 84.2618 35.4046 86.5006 35.4046 89.2683C35.4046 92.036 37.3358 94.2748 39.7222 94.2748L78.0641 94.2748C78.1748 94.2748 78.2609 94.1764 78.2609 94.041C78.2609 93.9057 78.1748 93.8073 78.0641 93.8073L53.8928 93.8073C51.7279 93.8073 49.9812 91.7777 49.9812 89.2683Z" fill="#50968E"/>
<path d="M73.4512 86.9557L70.8065 86.9557C70.2407 86.9557 69.7733 87.1402 69.7733 87.3739L69.7733 87.4108L73.4389 87.4108L73.4389 86.9557L73.4512 86.9557Z" fill="#2F4855"/>
<path d="M75.7023 88.0013C75.7023 87.4231 75.0135 86.9557 74.1647 86.9557L70.7697 86.9557C71.4093 86.9557 71.9382 87.3124 71.9382 87.7552L71.9259 98.986L73.7957 97.5467L75.7023 98.986L75.7023 88.0013Z" fill="#5E8E7C"/>
</svg>
