<svg width="295" height="189" viewBox="0 0 295 189" fill="none" xmlns="http://www.w3.org/2000/svg">
<path opacity="0.3" d="M7.12388 135.756C7.12508 135.78 7.12568 135.791 7.14016 135.791C7.14795 135.943 7.78465 147.541 33.8264 156.1C54.7436 162.995 83.074 164.906 105.871 165.103C139.262 165.439 177.838 162.385 211.126 158.439C223.678 156.811 244.103 156.071 264.524 141.329C288.354 123.981 296.269 94.1489 288.817 73.6782C283.371 58.9081 270.417 48.1285 253.577 40.602C244.642 36.8299 236.278 35.4368 228.618 35.3117C223.821 35.2281 218.631 35.6932 214.571 36.3825C207.655 37.4528 201.136 39.2076 196.707 40.0685C193 40.8455 188.694 41.5474 185.172 40.5645C180.038 39.2764 174.497 34.0149 168.92 29.4719C155.501 18.3989 139.526 10.4523 120.4 9.32765C39.583 4.568 43.8296 71.6994 48.1635 78.35C48.7468 79.2483 48.7537 80.2347 48.8717 81.1215C49.4652 85.3437 47.4054 88.5152 43.9135 91.2312C43.8858 91.2561 43.8719 91.2686 43.8435 91.2818C43.116 91.8241 42.3445 92.357 41.5296 92.8921C37.1119 95.679 31.2977 98.1379 25.6385 101.07L25.624 101.071C25.2987 101.241 25.0017 101.397 24.6763 101.566C24.5067 101.657 24.3515 101.747 24.1819 101.838C19.899 104.136 15.7777 106.755 12.5349 110.081C6.8614 115.858 3.80884 123.755 7.12388 135.756Z" fill="#BEDDDB"/>
<path opacity="0.03" d="M151.806 188.011C224.671 188.011 283.739 185.505 283.739 182.414C283.739 179.323 224.671 176.817 151.806 176.817C78.9421 176.817 19.874 179.323 19.874 182.414C19.874 185.505 78.9421 188.011 151.806 188.011Z" fill="black"/>
<path d="M248.166 70.5218C248.166 70.5218 244.183 74.287 243.738 74.956C243.293 75.625 237.1 100 237.1 100L248.166 106.648V70.5218Z" fill="#745DAF"/>
<path d="M261.065 46.1121C262.007 45.323 263.668 45.7518 264.122 46.8925C265.15 48.0161 265.904 49.3541 266.649 50.6749C267.094 51.4726 267.557 52.3217 267.505 53.2308C267.471 53.8226 267.231 54.3801 266.983 54.9291C266.709 55.5466 266.435 56.1556 266.161 56.7731C265.758 57.6822 265.236 58.6857 264.277 58.943C264.902 59.0202 265.107 59.9208 264.765 60.444C264.422 60.9672 263.78 61.1987 263.18 61.396C261.407 61.9707 260.559 62.4338 259.215 63.5917C257.99 64.6552 256.26 65.2985 254.641 65.2813C253.117 65.2728 251.703 64.6381 250.59 63.6003C249.245 62.348 249.434 60.5383 249.459 58.7972C249.485 56.6444 249.519 54.4916 249.545 52.3389C249.554 51.4983 249.579 50.6149 249.879 49.9116C250.41 48.6937 251.549 48.5479 252.526 48.5136C255.763 48.4192 258.992 48.3249 262.23 48.2305" fill="#4D3D6B"/>
<path d="M257.973 61.0358L261.578 68.4205L259.925 69.7413C257.844 71.4138 254.735 70.4789 253.913 67.9316L251.823 61.4389L257.973 61.0358Z" fill="#FEBAB0"/>
<path d="M254.119 67.6914L251.481 61.5333L257.896 61.0444L259.72 65.9675C258.007 67.1254 256.097 67.5885 254.119 67.6914Z" fill="#EFA69E"/>
<path d="M247.601 59.7321C247.712 60.9329 248.217 62.1165 248.834 63.0685C249.468 64.0463 250.264 64.3722 251.249 64.741C254.024 65.7788 259.215 65.3671 260.679 62.228C260.885 61.782 260.97 61.2931 261.047 60.8042C261.664 57.039 262.546 52.7248 258.889 50.2804C257.87 49.5943 256.748 49.1826 255.634 48.7795C253.733 48.1019 250.898 47.2356 249.374 49.4056C248.483 50.6578 248.74 53.1622 248.372 54.7061C247.986 56.3357 247.438 57.991 247.601 59.7321Z" fill="#FEBAB0"/>
<path d="M263.249 54.6118C263.754 54.8348 263.994 55.4351 264.045 55.9841C264.208 57.6222 263.129 59.3033 261.57 59.8265C261.099 59.9809 260.508 60.0152 260.191 59.6378C259.866 59.2518 259.985 58.6686 260.165 58.1969C260.508 57.2877 261.861 54.0114 263.249 54.6118Z" fill="#FEBAB0"/>
<path d="M264.157 47.5959C264.465 48.7966 264.148 50.006 263.703 51.121C263.369 51.9529 263.103 53.1708 262.666 53.9256C261.227 56.43 258.872 52.6734 259.052 52.5619C257.596 53.411 256.397 52.459 254.984 52.1416C253.767 51.8672 252.397 52.0044 251.172 52.1245C250.65 52.1759 249.074 52.6562 248.603 52.3646C248.038 52.0215 248.526 51.6098 249.202 51.4383C247.704 51.7557 245.228 51.1381 245.494 49.1226C245.605 48.2649 246.573 47.5701 247.37 47.8875C246.582 47.3815 246.153 46.378 246.333 45.4602C246.513 44.5425 247.292 43.7792 248.209 43.6162C249.579 43.3675 250.873 44.3624 252.26 44.5168C253.819 44.6883 255.275 43.8135 256.808 43.4876C258.949 43.033 261.27 43.8306 262.803 45.3659C263.531 46.1035 263.96 46.8411 264.157 47.5959Z" fill="#4D3D6B"/>
<path d="M263.371 182.738C261.144 184.728 255.568 186.52 254.395 183.947C253.924 182.909 254.575 181.691 255.209 180.739C257.076 177.918 258.909 175.911 258.241 172.248C260.048 172.489 261.855 172.729 263.662 172.969C263.379 172.935 263.773 176.014 263.842 176.348C264.236 178.166 265.015 179.839 264.176 181.717C264.039 182.06 263.756 182.403 263.371 182.738Z" fill="#4D3D6B"/>
<path d="M245.718 173.666C243.252 174.215 242.421 174.086 239.903 173.709L235.44 176.771C235.44 176.771 230.327 180.047 230.704 181.42C231.081 182.792 244.665 179.593 244.665 179.593C244.665 179.593 246.943 179.07 246.283 176.651C245.881 175.193 245.453 174.91 245.718 173.666Z" fill="#4D3D6B"/>
<path d="M267.79 110.72C267.79 110.72 268.081 120.866 267.705 123.577C266.831 129.803 264.107 176.925 264.253 176.384C264.253 176.384 260.476 177.362 258.172 175.895C255.868 174.429 253.281 126.681 253.281 126.681L250.781 126.433L245.873 144.744C245.873 144.744 247.346 173.691 246.395 173.828C245.453 173.974 238.978 175.115 238.559 173.494C238.139 171.873 235.715 142.531 235.715 142.531L245.967 109.828L267.79 110.72Z" fill="#1A3D75"/>
<path d="M273.681 72.1086C271.788 77.3062 268.842 79.0044 269.193 84.5279C269.604 90.9777 267.291 97.6934 267.703 104.135C267.822 106.09 268.542 108.217 268.302 110.173C268.037 112.386 265.073 112.557 263.172 113.003C257.211 114.41 250.83 114.024 245.108 111.837C244.62 111.648 245.186 103.954 245.203 103.191C245.28 99.3744 245.374 95.5577 245.494 91.741C245.699 85.3598 245.468 78.1467 245.948 73.8754C246.299 70.6677 250.196 68.2919 250.761 68.1461C253.836 67.3741 256.089 66.628 259.258 66.4478C266.932 66.019 273.629 72.2372 273.681 72.1086Z" fill="#745DAF"/>
<path d="M253.211 67.0311C251.446 67.3484 250.007 67.863 250.162 68.8236C250.264 69.4669 250.813 70.0501 251.506 70.4704C254.495 72.2458 262.889 70.8049 264.062 68.1546C265.227 65.513 260.525 66.1048 258.495 66.4221C257.365 66.5936 255.103 66.6966 253.211 67.0311Z" fill="#6B54A5"/>
<path d="M263.823 81.9719C263.403 84.1333 264.953 96.381 263.326 97.2044C258.204 99.8118 253.802 103.277 252.603 104.452C251.464 105.575 252.483 107.488 254.059 107.171C257.767 106.425 261.878 104.186 264.114 102.085C267.283 99.0913 269.021 94.7686 269.347 90.4201C269.587 87.2124 269.236 83.5672 268.062 80.5396C266.589 76.7572 264.414 78.8756 263.823 81.9719Z" fill="#6B54A5"/>
<path d="M252.877 66.5078C252.277 66.5336 251.686 66.585 251.13 66.7566C249.254 67.3312 249.691 68.5834 251.112 69.4411C253.305 70.7448 256.885 70.2817 259.223 69.6984C261.048 69.2353 266.178 67.0224 262.641 65.2728C261.947 64.9297 261.056 64.8611 260.311 65.1012C259.557 65.3414 258.992 65.8646 258.247 66.1304C257.613 66.3534 256.902 66.3792 256.2 66.4049C255.249 66.4392 254.29 66.4649 253.339 66.4993C253.185 66.4993 253.031 66.4993 252.877 66.5078Z" fill="#745DAF"/>
<path d="M201.499 174.376C199.084 175.13 198.245 175.07 195.701 174.899L191.504 178.321C191.504 178.321 186.674 182.018 187.17 183.356C187.659 184.694 200.943 180.371 200.943 180.371C200.943 180.371 203.178 179.659 202.313 177.309C201.791 175.877 201.337 175.636 201.499 174.376Z" fill="#343D63"/>
<path d="M212.865 174.744C215.34 175.276 216.171 175.13 218.689 174.736L223.186 177.763C223.186 177.763 228.333 180.997 227.965 182.378C227.596 183.75 213.97 180.671 213.97 180.671C213.97 180.671 211.683 180.165 212.325 177.746C212.719 176.271 213.139 175.988 212.865 174.744Z" fill="#343D63"/>
<path d="M208.257 35.2074C208.42 35.0445 208.574 34.8815 208.719 34.7014C208.951 34.4269 209.55 33.9295 209.55 33.5435C209.55 33.5092 209.413 32.6515 209.233 32.866C210.458 31.425 208.197 31.4765 207.366 31.6738C205.568 32.1026 203.015 33.3806 201.654 34.6843C200.48 35.8078 198.219 38.1579 199.821 39.8132C201.979 42.0432 206.099 39.2471 208.129 38.1321C207.469 37.386 206.604 37.5747 205.756 37.4546C206.193 36.8799 207.743 35.7221 208.257 35.2074Z" fill="#FEBAB0"/>
<path d="M202.27 65.3894L192.9 57.3786C192.464 57.0098 192.395 56.358 192.738 55.9034L204.206 40.5594C204.206 40.5594 200.472 35.6963 199.341 36.6998C198.399 37.5403 187.265 50.4056 183.428 54.5654C183.428 54.5654 183.436 54.5654 183.436 54.574C183.539 54.9256 183.222 57.2585 182.991 58.8453C182.854 59.7887 183.171 60.7322 183.839 61.4097L200.103 77.7144L208.985 66.736L202.27 65.3894Z" fill="#50968E"/>
<path opacity="0.32" d="M186.828 58.1077L186.622 55.8605L199.341 36.6998L183.453 54.5569C183.445 54.5654 183.436 54.5654 183.428 54.5654L182.931 58.8796C182.828 59.7887 183.145 60.7065 183.787 61.3583L199.692 77.3027L201.859 65.3809L188.601 60.4406C187.616 60.0718 186.922 59.1626 186.828 58.1077Z" fill="#38877E"/>
<path d="M197.397 104.937L194.288 175.105C194.288 175.105 202.133 176.323 202.947 174.153C203.761 171.983 209.713 108.454 209.713 108.454L197.397 104.937Z" fill="#69B78B"/>
<path d="M197.534 106.97L194.288 175.105C194.288 175.105 202.133 176.323 202.947 174.153C203.761 171.983 209.713 109.406 209.713 109.406L197.534 106.97Z" fill="#4D3D6B"/>
<path d="M223.1 108.325L221.344 175.379C221.344 175.379 212.685 176.871 211.871 175.379C211.058 173.887 208.899 119.844 208.899 119.844L205.927 115.101L198.356 105.075L223.1 108.325Z" fill="#745DAF"/>
<path d="M221.507 99.2937C221.053 102.81 220.445 106.361 220.899 109.869C215.417 111.842 209.268 111.902 203.752 110.023C201.893 109.389 200.009 108.471 198.921 106.841C197.328 104.457 197.834 101.309 198.425 98.5047C200.155 90.288 202.082 82.1143 204.206 73.992C204.66 72.2509 205.182 69.755 206.321 68.3656C208.214 66.067 211.34 66.1356 214.175 66.3586C215.991 66.5044 218.757 64.8319 220.256 66.0584C222.226 67.6794 222.175 73.2801 222.312 75.5358C222.543 79.2496 222.603 82.9634 222.5 86.6857C222.389 90.9056 222.055 95.1082 221.507 99.2937Z" fill="#343D63"/>
<path d="M229.994 72.0193L236.35 96.1375L224.042 106.97L229.994 72.0193Z" fill="#5B89C2"/>
<path d="M229.994 72.0193L236.35 96.1375L224.042 106.97L229.994 72.0193Z" fill="#50968E"/>
<path d="M224.299 51.5807C224.847 51.8294 225.095 52.4812 225.147 53.0816C225.301 54.857 224.11 56.6582 222.415 57.2071C221.909 57.3701 221.267 57.3958 220.924 56.9841C220.573 56.5638 220.719 55.9377 220.916 55.4231C221.293 54.4368 222.809 50.9031 224.299 51.5807Z" fill="#FEBAB0"/>
<path d="M205.902 51.5807C205.353 51.8294 205.105 52.4812 205.054 53.0816C204.9 54.857 206.09 56.6582 207.786 57.2071C208.291 57.3701 208.934 57.3958 209.276 56.9841C209.627 56.5638 209.482 55.9377 209.285 55.4231C208.908 54.4368 207.4 50.9031 205.902 51.5807Z" fill="#FEBAB0"/>
<path d="M211.777 60.5178L211.469 65.3894C211.383 66.7531 212.462 67.9024 213.824 67.9024H214.972C216.162 67.9024 217.173 67.0105 217.31 65.8268L218.175 58.6137L211.777 60.5178Z" fill="#FEBAB0"/>
<path d="M217.464 64.5318L218.175 58.6052L211.777 60.5092L211.477 65.1407C213.507 65.4752 215.503 65.1579 217.464 64.5318Z" fill="#EFA69E"/>
<path d="M207.897 56.744C208.06 58.425 208.831 60.0375 210.039 61.2125C212.283 63.391 215.015 63.4682 217.773 62.3018C220.068 61.3326 221.173 60.1318 221.498 57.6617C221.832 55.0972 222.552 52.5499 221.592 50.054C221.07 48.656 220.128 47.5839 219.083 46.8291C218.038 46.0744 216.882 45.6112 215.734 45.1652C213.773 44.4019 210.861 43.4327 209.251 45.757C207.392 48.433 207.64 53.5362 207.88 56.6239C207.889 56.6668 207.889 56.7011 207.897 56.744Z" fill="#FEBAB0"/>
<path d="M219.194 56.4609C220.188 55.8605 220.034 53.1245 220.89 52.7643C221.173 52.6442 221.498 52.8672 221.609 53.1502C221.721 53.4332 221.687 53.7506 221.644 54.0508C221.395 55.8176 222.423 57.8589 221.952 59.6C221.43 61.5041 218.62 63.0565 216.899 63.5968C214.689 64.283 212.222 64.1114 210.141 63.1079C209.208 62.6619 208.325 62.0358 207.777 61.161C207.169 60.209 206.613 57.6102 207.803 56.8811C207.418 56.0406 207.555 54.9857 208.171 54.2909C207.752 53.5447 207.752 52.5841 208.171 51.838C208.976 52.8414 208.642 54.6769 209.302 55.7404C210.133 57.0698 212.762 57.3014 214.167 57.2843C215.528 57.2585 217.987 57.1899 219.194 56.4609Z" fill="#343D63"/>
<path d="M219.417 48.3901C219.348 48.3987 219.289 48.4073 219.22 48.4159C214.852 48.939 210.869 48.8104 207.298 45.8256C206.681 45.311 206.082 44.6849 205.979 43.8873C205.876 43.0896 206.527 42.1805 207.315 42.3177C206.972 41.6058 207.186 40.6795 207.803 40.1906C209.499 40.1649 211.203 40.1306 212.899 40.1049C212.617 39.0842 213.285 37.9006 214.295 37.609C214.235 38.9727 215.511 40.0448 216.805 40.4994C218.098 40.954 219.511 41.0312 220.736 41.6401C222.286 42.4035 222.937 44.136 222.535 45.7742C222.089 47.5582 221.027 48.1585 219.417 48.3901Z" fill="#343D63"/>
<path d="M220.753 43.2439C222.055 43.4155 222.988 44.6334 223.434 45.8685C224.119 47.764 223.999 49.9253 223.108 51.7265C222.911 52.121 222.689 52.4984 222.457 52.8672C222.055 53.5362 221.216 55.5174 220.53 54.188C220.325 53.7849 220.625 52.5413 220.616 52.061C220.607 51.3491 220.556 50.6372 220.428 49.9339C220.111 48.1671 219.254 46.426 217.772 45.4225C216.445 44.5219 214.698 44.3075 213.182 44.8135C211.666 45.3195 210.407 46.5203 209.782 47.9869C208.771 50.3713 209.396 53.1931 208.445 55.6032C208.908 54.4453 207.383 53.0387 206.827 52.1725C206.159 51.1432 205.876 49.8739 205.91 48.6559C205.953 46.8634 206.433 44.5819 207.589 43.1753C208.634 41.8974 211.846 42.4377 212.882 43.5527" fill="#343D63"/>
<path d="M220.256 66.067L229.994 72.0279L224.856 122.691C224.856 122.691 219.04 120.521 218.501 118.626C217.961 116.722 220.256 66.067 220.256 66.067Z" fill="#50968E"/>
<path d="M208.985 66.736L199.829 113.334C199.829 113.334 198.339 117.665 195.504 118.077C192.66 118.48 201.576 67.1648 201.576 67.1648L208.985 66.736Z" fill="#50968E"/>
<path opacity="0.32" d="M212.933 102.673C213.833 102.767 214.775 102.767 215.597 102.99C216.419 103.213 217.062 103.779 216.659 104.243C216.274 104.689 215.229 104.766 214.355 104.766C213.37 104.766 212.394 104.749 211.409 104.706C209.088 104.603 206.578 104.311 205.105 103.291C204.189 102.647 203.82 101.764 204.129 100.958C204.317 100.469 204.942 99.6025 205.885 99.4395C207.229 99.1994 207.306 99.7912 207.803 100.332C208.891 101.489 210.578 102.424 212.933 102.673Z" fill="#E29EA6"/>
<path d="M214.03 52.5842C214.055 54.2138 212.762 55.5518 211.135 55.5775C209.507 55.6032 208.171 54.3081 208.146 52.6785C208.12 51.0489 209.413 49.7109 211.041 49.6852C212.659 49.6595 214.004 50.9546 214.03 52.5842Z" stroke="white" stroke-miterlimit="10"/>
<path d="M221.318 52.9443C221.344 54.5739 220.051 55.9119 218.423 55.9377C216.796 55.9634 215.46 54.6683 215.434 53.0387C215.409 51.4091 216.702 50.0711 218.329 50.0454C219.948 50.0196 221.293 51.3233 221.318 52.9443Z" stroke="white" stroke-miterlimit="10"/>
<path d="M213.593 53.3475C214.261 52.9015 215.152 52.8243 215.888 53.1416" stroke="white" stroke-miterlimit="10"/>
<path d="M108.203 174.204C110.661 174.976 111.518 174.907 114.104 174.736L118.378 178.227C118.378 178.227 123.294 181.992 122.789 183.347C122.292 184.711 108.768 180.302 108.768 180.302C108.768 180.302 106.499 179.573 107.381 177.18C107.912 175.739 108.366 175.491 108.203 174.204Z" fill="#006359"/>
<path d="M96.632 174.581C94.1139 175.122 93.266 174.976 90.7051 174.573L86.1315 177.652C86.1315 177.652 80.8899 180.945 81.2667 182.343C81.6436 183.742 95.51 180.611 95.51 180.611C95.51 180.611 97.8396 180.096 97.1801 177.635C96.7861 176.142 96.3493 175.851 96.632 174.581Z" fill="#006359"/>
<path d="M130.6 25.6013C130.66 25.3783 130.72 25.1553 130.797 24.9323C130.917 24.5893 131.028 23.8002 131.362 23.5943C131.388 23.5772 132.21 23.2427 132.116 23.5086C132.724 21.6817 133.872 23.6801 134.137 24.5121C134.711 26.3046 134.951 29.2036 134.531 31.082C134.172 32.703 133.315 35.9107 131.037 35.3875C127.962 34.6757 128.21 29.6153 128.116 27.2567C129.118 27.4368 129.401 28.2945 129.958 28.972C130.232 28.2773 130.42 26.3218 130.6 25.6013Z" fill="#FEBAB0"/>
<path d="M100.58 64.6346L107.415 63.2538L119.671 52.7729L128.073 31.9482C128.073 31.9482 134.266 32.6344 133.992 34.1525C133.717 35.6706 126.831 59.5228 126.831 59.5228L109.616 75.7931L100.58 64.6346Z" fill="#745DAF"/>
<path opacity="0.32" d="M110.036 75.39L108.725 67.6451L122.986 57.6016L134 34.161L126.84 59.5314L110.036 75.39Z" fill="#59408E"/>
<path d="M58.8182 25.6013C58.7583 25.3783 58.6983 25.1553 58.6213 24.9323C58.5013 24.5893 58.39 23.8002 58.056 23.5943C58.0303 23.5772 57.2081 23.2427 57.3023 23.5086C56.6942 21.6817 55.5465 23.6801 55.281 24.5121C54.7071 26.3046 54.4673 29.2036 54.887 31.082C55.2467 32.703 56.1032 35.9107 58.3814 35.3875C61.4562 34.6757 61.2078 29.6153 61.302 27.2567C60.3 27.4368 60.0173 28.2945 59.4606 28.972C59.1865 28.2773 58.9895 26.3218 58.8182 25.6013Z" fill="#FEBAB0"/>
<path d="M88.8294 64.6347L81.9947 63.2538L69.7298 52.7729L61.3278 31.9482C61.3278 31.9482 55.1354 32.6344 55.4095 34.1525C55.6835 35.6706 62.5697 59.5228 62.5697 59.5228L82.1659 77.1654L88.8294 64.6347Z" fill="#745DAF"/>
<path opacity="0.32" d="M81.7292 76.6165L82.5 70.6384L66.4324 57.6016L55.4095 34.161L62.5697 59.5314L81.7292 76.6165Z" fill="#59408E"/>
<path d="M112.383 103.522L115.552 174.95C115.552 174.95 107.569 176.194 106.738 173.981C105.916 171.777 99.8523 107.099 99.8523 107.099L112.383 103.522Z" fill="#5B89C2"/>
<path d="M112.383 103.522L115.552 174.95C115.552 174.95 107.569 176.194 106.738 173.981C105.916 171.777 99.8523 107.099 99.8523 107.099L112.383 103.522Z" fill="#50968E"/>
<path d="M86.2172 106.97L88.0072 175.225C88.0072 175.225 96.8204 176.743 97.6426 175.225C98.4648 173.707 100.675 118.686 100.675 118.686L103.707 113.857L111.415 103.651L86.2172 106.97Z" fill="#50968E"/>
<path d="M108.28 66.29C106.918 66.0327 105.728 65.0635 104.289 64.7976C102.559 64.4803 100.786 64.5232 99.0386 64.5746C95.784 64.5746 92.6407 64.6175 89.3518 64.3945C88.8379 64.3602 88.3155 64.3259 87.8273 64.4631C86.2685 64.892 85.7803 68.1083 84.7268 69.3262C84.1444 70.0124 82.1402 76.3421 82.1745 77.174C82.4914 87.209 81.849 97.4755 83.3479 107.39C83.4164 107.862 86.3284 108.6 86.7909 108.728C88.0585 109.08 89.3604 109.312 90.6708 109.406C93.1203 109.577 95.6726 109.432 98.1222 109.38C103.381 109.277 108.725 108.728 113.727 107.03C113.453 104.071 113.599 100.975 113.282 97.9643C113.051 95.7601 112.794 93.5473 112.485 91.3516C111.381 83.6581 110.062 75.999 108.665 68.357C108.537 67.6709 108.391 66.9504 108.28 66.29Z" fill="#745DAF"/>
<path opacity="0.32" d="M94.7733 93.4701C93.3773 93.6416 91.8956 93.6416 90.6194 94.0619C89.3347 94.4821 88.3412 95.5371 88.9664 96.4033C89.5659 97.2353 91.2018 97.3811 92.5636 97.3811C94.0967 97.3897 95.6298 97.3468 97.1629 97.2696C100.786 97.0809 104.709 96.532 107.004 94.6193C108.434 93.4272 109.017 91.7804 108.528 90.2709C108.237 89.3617 107.261 87.7407 105.788 87.4319C103.689 86.9859 103.569 88.0924 102.79 89.0958C101.094 91.2658 98.4562 93.0069 94.7733 93.4701Z" fill="#6B54A5"/>
<path d="M85.138 48.7503C84.5813 48.999 84.3329 49.668 84.2729 50.2769C84.1102 52.0867 85.335 53.9221 87.0565 54.471C87.5704 54.634 88.2299 54.6597 88.5725 54.248C88.9322 53.8192 88.7866 53.1759 88.581 52.6613C88.2042 51.6578 86.6625 48.0641 85.138 48.7503Z" fill="#FEBAB0"/>
<path d="M103.869 48.7503C104.426 48.999 104.674 49.668 104.734 50.2769C104.897 52.0867 103.672 53.9221 101.951 54.471C101.437 54.634 100.777 54.6597 100.435 54.248C100.075 53.8192 100.221 53.1759 100.426 52.6613C100.812 51.6578 102.345 48.0641 103.869 48.7503Z" fill="#FEBAB0"/>
<path d="M97.891 57.8504L98.5504 64.2144C98.6361 65.5953 97.1715 67.2077 95.784 67.2077H94.6192C93.403 67.2077 92.0583 65.4237 91.9127 64.2144L91.3817 55.912L97.891 57.8504Z" fill="#FEBAB0"/>
<path d="M92.1011 61.9415L91.3731 55.912L97.8824 57.8504L98.1821 62.5676C96.1266 62.8936 94.0967 62.5762 92.1011 61.9415Z" fill="#EFA69E"/>
<path d="M101.839 54.0079C101.677 55.7147 100.889 57.3615 99.6553 58.5536C97.3771 60.7665 94.585 60.8522 91.7843 59.6686C89.4546 58.6823 88.3241 57.4558 87.9901 54.9428C87.6475 52.3268 86.9195 49.7366 87.8958 47.1979C88.4269 45.7741 89.3861 44.6848 90.4482 43.9215C91.5102 43.1582 92.6836 42.6779 93.8569 42.2233C95.8525 41.4428 98.816 40.4565 100.452 42.8237C102.345 45.5511 102.088 50.7487 101.848 53.8878C101.848 53.9221 101.839 53.965 101.839 54.0079Z" fill="#FEBAB0"/>
<path d="M90.0627 45.8685C90.6023 45.98 91.1676 45.9629 91.7072 45.8085C91.3046 45.3796 91.8185 44.5305 92.3838 44.6849C93.5657 46.0743 95.5699 46.7005 97.3257 46.2202C96.9317 45.6884 97.4713 44.7964 98.1222 44.8993C98.4734 45.6112 98.8159 46.3145 99.1671 47.0264C101.317 46.8463 103.158 44.8393 103.167 42.6779C103.175 37.3946 95.7155 37.5061 92.1183 37.892C89.566 38.1665 86.3798 39.4702 86.8338 42.6436C87.065 44.2646 88.4782 45.5597 90.0627 45.8685Z" fill="#343D63"/>
<path d="M88.7523 40.2592C87.4247 40.4307 86.474 41.6744 86.0201 42.9352C85.3264 44.8564 85.4463 47.0692 86.3541 48.9047C86.5511 49.3078 86.7824 49.6852 87.0136 50.0711C87.4247 50.7487 88.2812 52.7643 88.975 51.4091C89.1891 50.9974 88.8808 49.7366 88.8893 49.2392C88.8979 48.5102 88.9493 47.7897 89.0777 47.0692C89.4032 45.2767 90.2682 43.5013 91.7842 42.472C93.1289 41.5629 94.9104 41.3399 96.452 41.8545C97.9937 42.3691 99.2784 43.587 99.9208 45.088C100.949 47.5152 100.315 50.3885 101.283 52.8415C100.812 51.6664 102.362 50.2255 102.936 49.3507C103.621 48.3043 103.903 47.0092 103.869 45.7741C103.826 43.9473 103.33 41.6229 102.156 40.1906C101.094 38.8869 97.8224 39.4358 96.7689 40.568" fill="#343D63"/>
<path d="M130.403 47.2836C126.198 49.7452 123.894 55.08 124.981 59.8316C125.307 61.2639 125.906 62.7992 125.333 64.1543C124.853 65.295 123.662 65.9555 122.489 66.3414C121.316 66.7274 120.065 66.9332 118.995 67.5422C117.924 68.1511 117.033 69.3433 117.273 70.5527C117.573 72.1051 119.526 72.9885 119.671 74.5666C119.774 75.5959 119.055 76.5136 118.301 77.2083C117.547 77.9116 116.674 78.5549 116.288 79.5155C115.851 80.6047 116.151 81.8827 116.811 82.8519C117.47 83.8211 118.438 84.5329 119.431 85.1676C127.705 90.4767 138.557 91.5231 147.695 87.8951C150.051 86.9602 152.32 85.708 154.102 83.9154C155.892 82.1228 157.159 79.7299 157.271 77.1911C157.382 74.6781 156.046 71.2645 153.425 70.4497C152.063 70.0295 150.976 70.0724 149.785 69.0431C148.86 68.2369 148.166 67.1476 147.901 65.9383C147.455 63.8884 148.141 61.7871 148.32 59.7029C148.603 56.4008 147.55 53.013 145.451 50.4485C141.854 46.0915 135.422 44.3504 130.403 47.2836Z" fill="#343D63"/>
<path d="M137.409 63.9656C138.274 66.127 138.514 68.6829 140.758 69.472C144.081 70.8014 148.372 72.0708 145.571 73.0485C145.229 73.1686 144.107 76.2649 143.798 76.0676C143.618 75.9561 134.771 82.4059 134.668 82.2172C134.257 81.4196 128.716 77.8687 128.467 77.011C128.305 76.4364 125.41 74.052 125.538 73.4688C125.701 72.6626 133.521 69.7979 133.606 69.1375C133.692 68.4856 132.878 67.6194 132.613 67.0619C132.159 66.0927 131.705 65.1149 131.251 64.1458C131.259 64.1372 137.409 63.9656 137.409 63.9656Z" fill="#FEBAB0"/>
<path d="M133.589 69.1203L131.259 64.1372L137.409 63.9656L139.002 67.9367C137.323 68.803 135.482 69.1032 133.589 69.1203Z" fill="#EFA69E"/>
<path d="M127.431 62.3875C127.559 63.5711 128.065 64.7376 128.681 65.6639C129.315 66.6159 130.103 66.9332 131.071 67.2849C134.137 68.3913 138.54 67.9453 139.901 63.9399C140.441 64.3001 141.152 63.8027 141.392 63.1251C141.614 62.4904 141.46 61.9158 141.469 61.2725C141.477 60.7407 141.554 60.2347 141.537 59.6944C141.503 58.3821 141.4 57.0184 140.895 55.8176C140.372 54.5568 139.447 53.6048 138.437 52.9444C137.426 52.284 136.313 51.8808 135.216 51.5035C133.332 50.8516 130.54 50.0368 129.058 52.1896C128.202 53.4333 128.476 55.9034 128.133 57.4301C127.774 59.0425 127.251 60.6807 127.431 62.3875Z" fill="#FEBAB0"/>
<path d="M143.165 59.1626C143.661 59.4714 143.815 60.1318 143.798 60.7236C143.721 62.4647 142.334 64.06 140.621 64.3687C140.107 64.4631 139.482 64.403 139.199 63.9656C138.908 63.5196 139.131 62.9192 139.387 62.4561C139.893 61.547 141.803 58.3221 143.165 59.1626Z" fill="#FEBAB0"/>
<path d="M131.345 60.0032C131.259 61.6242 129.872 62.8764 128.253 62.7907C126.634 62.7049 125.384 61.3154 125.47 59.6944C125.555 58.0734 126.943 56.8212 128.561 56.9069C130.18 56.9841 131.431 58.3736 131.345 60.0032Z" stroke="white" stroke-miterlimit="10"/>
<path d="M138.591 60.8608C138.505 62.4818 137.118 63.734 135.499 63.6483C133.88 63.5625 132.63 62.173 132.715 60.552C132.801 58.931 134.189 57.6788 135.807 57.7645C137.426 57.8503 138.677 59.2398 138.591 60.8608Z" stroke="white" stroke-miterlimit="10"/>
<path d="M130.857 60.7322C131.551 60.3377 132.45 60.3205 133.169 60.6807" stroke="white" stroke-miterlimit="10"/>
<path d="M138.454 60.5092C139.781 59.8059 141.212 59.2999 142.685 58.9911C142.942 58.9396 143.31 58.9568 143.362 59.2141" stroke="white" stroke-miterlimit="10"/>
<path d="M131.722 56.8812C133.538 56.7611 135.276 55.9978 136.946 55.2516C136.45 55.4746 140.509 59.2141 141.135 59.4114C143.259 60.0718 143.627 57.1642 143.55 55.5861C143.456 53.7421 143.173 51.9752 141.631 50.8945C139.876 49.668 137.726 48.9733 135.585 48.9304C133.452 48.8875 131.319 49.4879 129.521 50.6115C128.322 51.3577 126.061 53.1074 126.866 54.7799C127.577 56.2551 129.761 56.9069 131.251 56.9069C131.405 56.8983 131.559 56.8898 131.722 56.8812Z" fill="#343D63"/>
<path d="M117.11 89.9192C117.47 90.8284 118.172 91.5917 119.037 92.0549C120.048 92.5952 121.316 93.187 122.48 92.9126C123.645 92.6381 124.485 91.6346 125.17 90.6483C127.071 87.9123 128.484 84.8503 129.341 81.634C129.821 79.8157 130.12 77.8688 129.538 76.0848C129.092 74.7296 127.517 72.9028 125.966 72.9371C125.033 72.9542 124.408 73.709 124.502 74.5667C124.63 75.7417 124.442 76.8738 123.517 77.7058C122.943 78.2204 122.215 78.5206 121.598 78.9752C120.982 79.4297 120.451 80.1588 120.596 80.9135C120.733 81.6083 121.41 82.1486 121.418 82.8605C121.427 83.4094 121.016 83.8897 120.545 84.1727C120.074 84.4558 119.534 84.6102 119.046 84.8589C117.479 85.6565 116.562 87.5692 116.913 89.2931C116.956 89.499 117.025 89.7134 117.11 89.9192Z" fill="#69B78B"/>
<path d="M117.11 89.9192C117.47 90.8284 118.172 91.5917 119.037 92.0549C120.048 92.5952 121.316 93.187 122.48 92.9126C123.645 92.6381 124.485 91.6346 125.17 90.6483C127.071 87.9123 128.484 84.8503 129.341 81.634C129.821 79.8157 130.12 77.8688 129.538 76.0848C129.092 74.7296 127.517 72.9028 125.966 72.9371C125.033 72.9542 124.408 73.709 124.502 74.5667C124.63 75.7417 124.442 76.8738 123.517 77.7058C122.943 78.2204 122.215 78.5206 121.598 78.9752C120.982 79.4297 120.451 80.1588 120.596 80.9135C120.733 81.6083 121.41 82.1486 121.418 82.8605C121.427 83.4094 121.016 83.8897 120.545 84.1727C120.074 84.4558 119.534 84.6102 119.046 84.8589C117.479 85.6565 116.562 87.5692 116.913 89.2931C116.956 89.499 117.025 89.7134 117.11 89.9192Z" fill="#006359"/>
<path d="M136.844 182.223C137.332 183.544 137.863 184.556 138.342 184.959C139.182 185.663 140.458 185.92 141.409 185.363C142.291 184.848 142.71 183.759 142.71 182.738C142.702 181.126 141.888 180.225 141.229 178.896C140.312 177.043 139.833 174.813 139.173 172.857C138.908 172.086 138.574 171.219 137.811 170.902C134.026 169.315 135.139 177.609 136.844 182.223Z" fill="#CD4B76"/>
<path d="M136.844 182.223C137.332 183.544 137.863 184.556 138.342 184.959C139.182 185.663 140.458 185.92 141.409 185.363C142.291 184.848 142.71 183.759 142.71 182.738C142.702 181.126 141.888 180.225 141.229 178.896C140.312 177.043 139.833 174.813 139.173 172.857C138.908 172.086 138.574 171.219 137.811 170.902C134.026 169.315 135.139 177.609 136.844 182.223Z" fill="#006359"/>
<path d="M144.441 103.574C144.441 103.574 148.869 109.86 147.849 133.996C147.053 152.831 139.61 172.772 139.61 172.772C139.61 172.772 134.617 173.089 133.538 171.511C132.458 169.933 137.006 133.447 136.51 130.445C136.021 127.443 134.343 109.603 134.343 109.603L134.985 101.549L144.441 103.574Z" fill="#5E3C69"/>
<path d="M144.441 103.574C144.441 103.574 148.869 109.86 147.849 133.996C147.053 152.831 139.61 172.772 139.61 172.772C139.61 172.772 134.617 173.089 133.538 171.511C132.458 169.933 137.006 133.447 136.51 130.445C136.021 127.443 134.343 109.603 134.343 109.603L134.985 101.549L144.441 103.574Z" fill="#4D3D6B"/>
<path d="M125.889 103.265C131.439 106.018 138.771 104.011 144.578 103.282C143.19 103.454 141.469 87.5264 141.22 85.9139C141.143 85.4079 129.247 87.1233 127.825 87.3119C128.082 90.4854 127.962 93.5302 127.816 96.7293C127.782 97.467 126.917 103.771 125.889 103.265Z" fill="#E29EA6"/>
<path d="M127.088 146.218C127.088 146.218 127.722 152.204 135.139 176.666C134.959 177.721 134.831 179.453 135.645 180.362C136.458 181.28 141.734 177.575 140.304 175.971C135.799 170.893 137.409 155.721 136.698 150.155L133.752 144.442L127.088 146.218Z" fill="#FEBAB0"/>
<path d="M139.473 173.887C137.777 175.25 137.083 175.465 134.994 176.134L132.707 180.199C132.707 180.199 130 184.676 130.814 185.594C131.628 186.512 140.912 178.87 140.912 178.87C140.912 178.87 142.479 177.592 141.049 175.988C140.184 175.002 139.747 174.95 139.473 173.887Z" fill="#50968E"/>
<path d="M144.843 76.4107C145.229 77.5857 145.468 78.8036 145.837 79.9787C146.196 81.1022 146.822 81.9513 146.179 83.1521C145.828 83.8125 145.169 84.3872 145.194 85.1334C145.22 86.1797 146.539 86.7715 146.77 87.7922C147.053 89.053 145.588 90.2366 145.931 91.4802C146.171 92.3551 147.164 92.7582 148.055 92.9383C149.271 93.1956 150.547 93.2728 151.764 92.9983C152.98 92.7239 154.136 92.0635 154.864 91.0514C155.592 90.0393 155.849 88.6584 155.369 87.5006C155.044 86.7029 154.384 86.0254 154.29 85.1677C154.213 84.4729 154.513 83.7868 154.607 83.0921C154.736 82.0972 154.41 81.0765 153.896 80.2188C153.228 79.1038 151.995 78.3148 151.738 77.0025C151.609 76.3507 151.618 75.6817 151.421 75.047C151.173 74.2493 150.273 72.8684 149.58 72.4053C148.886 71.9421 148.38 72.3881 147.55 72.2938" fill="#50968E"/>
<path d="M125.778 103.282C122.506 112.039 121.744 120.676 123.311 129.887C123.483 130.917 123.697 132.846 123.894 133.85C124.133 135.085 124.253 136.354 124.45 137.598C124.853 140.077 125.307 142.555 125.812 145.017C126.746 149.571 127.825 154.091 129.015 158.577C130.232 163.174 131.962 169.307 133.478 173.827C133.478 173.827 138.051 173.424 139.096 171.82C140.141 170.216 134.711 132.915 135.131 129.905C135.944 123.995 136.201 117.974 136.69 112.03C137.443 111.816 146.488 109.277 146.488 109.269C145.683 106.601 144.869 103.925 144.064 101.258C138.317 102.733 132.236 102.887 126.42 101.695C126.189 102.21 125.975 102.742 125.778 103.282Z" fill="#745DAF"/>
<path opacity="0.32" d="M139.97 95.9316C140.741 95.7 141.52 95.3827 142.06 94.7909C142.599 94.1991 142.839 93.2556 142.419 92.5695C142.436 92.5952 135.559 94.0961 134.882 94.1562C132.399 94.3963 129.932 94.0533 127.482 94.1562C128.262 95.537 131.045 96.0774 132.484 96.3347C134.959 96.7893 137.555 96.6692 139.97 95.9316Z" fill="#E29EA6"/>
<path d="M149.34 72.4568C149.074 72.1223 147.961 71.925 145.965 71.2474L134.625 80.2274L126.6 72.5768C126.103 72.7998 124.656 73.3488 125.161 73.2973C126.909 74.4295 127.131 76.7538 126.66 78.7865C126.189 80.8192 125.281 82.8262 125.547 84.8932C125.752 86.4371 126.6 87.8265 127.011 89.3275C127.38 90.6569 126.026 92.8611 126.335 93.6416C126.84 94.9282 130.634 95.0139 131.885 95.1168C134.523 95.3227 143.678 95.3656 144.946 92.2865C145.391 91.2144 144.244 89.1988 144.252 87.998C144.269 85.4593 145.22 82.6032 146.025 80.2274C146.753 78.066 147.678 75.9904 148.774 73.992C149.066 73.4603 149.734 72.9628 149.34 72.4568Z" fill="#50968E"/>
<path d="M132.364 89.885C132.013 89.9879 131.585 90.2023 131.619 90.5625C131.653 90.8885 132.039 91.0343 132.356 91.0943C135.482 91.6775 138.968 90.5625 141.1 88.1867C139.413 86.7458 134.274 89.3275 132.364 89.885Z" fill="#006359"/>
<path d="M66.2782 79.4983C66.0298 77.8173 67.1861 76.1877 67.8199 74.5581C68.8648 71.8735 68.3595 68.6658 66.6465 66.3672C66.2439 65.8268 65.8157 65.4065 65.4902 64.8319C65.1648 64.2487 64.8993 63.7512 64.4282 63.2623C63.4604 62.2503 62.2185 61.4783 61.4477 60.2776C60.1801 58.3049 60.3 55.3287 59.846 53.073C59.375 50.7401 57.9532 48.8532 55.6921 47.9098C53.6879 47.0778 51.3069 47.215 49.4055 48.27L51.2127 49.0505C50.2192 49.1105 49.2171 49.2392 48.2321 49.3678C46.168 49.6423 43.6243 50.0969 42.271 51.8637C41.8085 52.4726 41.6201 53.2446 41.269 53.9136C40.7379 54.9256 39.7787 56.0235 38.8451 56.6753C37.5176 57.6016 35.8988 57.9533 34.6055 59.0254C33.3893 60.0374 32.019 61.9243 32.3273 63.6054C32.49 64.4974 32.8754 65.0892 32.7298 66.0498C32.5928 66.959 32.1731 67.8424 31.5736 68.5457C30.3317 69.9952 28.5588 70.8529 27.0342 72.0107C25.5097 73.16 24.1393 74.8754 24.3363 76.7795C24.6703 79.9701 29.1069 81.6168 29.2183 84.8246C29.2696 86.3084 28.3447 87.6292 27.9592 89.0615C27.2312 91.7804 28.5759 94.7394 30.7171 96.5663C32.8583 98.3932 35.6419 99.2508 38.4083 99.7654C46.7504 101.318 55.5893 100.014 63.1264 96.1117C65.4902 94.8852 67.8027 93.3414 69.2074 91.0771C70.612 88.8128 70.8946 85.6822 69.293 83.5466C68.3338 82.2772 66.775 81.3938 66.3467 79.8586C66.321 79.7471 66.2953 79.627 66.2782 79.4983Z" fill="#4D3D6B"/>
<path opacity="0.32" d="M44.2666 56.924C44.909 57.9018 44.5236 59.2655 43.7527 60.1403C42.9819 61.0152 41.9113 61.5555 40.9435 62.2074C39.9756 62.8592 39.0421 63.7341 38.828 64.8748C38.5111 66.5473 39.7872 68.1168 39.8557 69.815C39.9671 72.3624 37.4747 74.1635 36.3185 76.445C35.0081 79.018 35.5305 82.2858 37.2092 84.6273C38.8879 86.9688 41.5687 88.4612 44.3608 89.1645C47.153 89.8678 50.0821 89.8506 52.9513 89.6533C56.283 89.4303 59.7775 88.9071 62.3898 86.8144C64.9935 84.7302 66.2439 80.6047 64.2055 77.9545C63.1863 76.6251 61.3962 75.5615 61.5076 73.8891C61.6104 72.2766 63.4946 71.2903 63.803 69.7035C64.0342 68.4942 63.2719 67.3106 62.3469 66.4872C61.4305 65.6724 60.3256 65.0549 59.512 64.1372C58.39 62.8592 57.9617 61.1438 57.5164 59.5057C57.071 57.8675 56.5229 56.1521 55.2724 55.02C54.0134 53.8792 51.8208 53.6048 50.7159 54.8913" fill="#4D3D6B"/>
<path d="M43.7356 106.764C46.6648 109.003 48.8145 109.543 51.4182 109.423C54.6814 109.26 62.0472 109.432 62.4668 105.778C60.7881 100.314 61.2164 93.6673 61.1479 87.5434C58.4414 88.3067 55.7263 89.0787 53.0199 89.842C51.2726 90.3395 47.4013 90.6225 46.8532 92.3979C46.5449 93.4014 46.9046 95.0224 46.8275 96.1031C46.7333 97.3382 46.5534 98.5732 46.2879 99.7826C46.108 100.632 44.6435 106.764 43.7356 106.764Z" fill="#FEBAB0"/>
<path opacity="0.32" d="M54.7157 96.1032C56.1717 96.0689 57.6705 95.8973 58.9553 95.2112C60.24 94.525 61.2849 93.2299 61.3277 91.7719C56.9425 92.4065 52.5574 93.0327 48.1722 93.6673C45.2944 94.079 47.3243 95.1769 48.9601 95.58C50.8101 96.0346 52.8143 96.1546 54.7157 96.1032Z" fill="#E29EA6"/>
<path d="M58.9981 147.479C58.9981 147.479 61.0194 153.439 64.7108 179.925C65.3446 180.843 66.2182 182.429 65.8499 183.656C65.4816 184.882 58.8439 183.69 59.4949 181.537C61.5418 174.744 53.3625 161.047 51.5895 155.446L51.8807 148.731L58.9981 147.479Z" fill="#FEBAB0"/>
<path d="M59.2224 180.053C61.4971 180.153 62.2155 179.903 64.3842 179.176L68.8267 181.184C68.8267 181.184 73.8741 183.288 73.756 184.563C73.638 185.838 61.09 185.145 61.09 185.145C61.09 185.145 58.98 185.037 59.1916 182.798C59.3179 181.434 59.6548 181.112 59.2224 180.053Z" fill="#343D63"/>
<path d="M59.0838 145.763C59.0838 145.763 57.9789 151.964 48.4463 176.94C48.5576 178.055 48.5576 179.865 47.6497 180.765C46.7333 181.657 41.5002 177.412 43.1104 175.834C48.1808 170.876 47.6241 154.923 48.7717 149.16L52.2662 143.413L59.0838 145.763Z" fill="#FEBAB0"/>
<path d="M44.1211 173.724C45.7912 175.276 46.4935 175.542 48.6261 176.391L50.716 180.8C50.716 180.8 53.2083 185.671 52.3004 186.563C51.384 187.455 42.2625 178.801 42.2625 178.801C42.2625 178.801 40.7208 177.36 42.331 175.782C43.3074 174.839 43.7613 174.813 44.1211 173.724Z" fill="#343D63"/>
<path d="M65.5501 113.763C65.5501 113.763 65.7043 115.178 65.6872 118.523C65.6701 123.884 64.137 130.342 63.4518 132.666C62.3298 136.449 51.7009 170.207 51.7009 170.207C51.7009 170.207 45.2687 170.07 44.849 167.265C44.4293 164.461 53.9363 116.979 53.9363 116.979L65.5501 113.763Z" fill="#5E3C69"/>
<path d="M65.5501 113.763C65.5501 113.763 65.7043 115.178 65.6872 118.523C65.6701 123.884 64.137 130.342 63.4518 132.666C62.3298 136.449 51.7009 170.207 51.7009 170.207C51.7009 170.207 45.2687 170.07 44.849 167.265C44.4293 164.461 53.9363 116.979 53.9363 116.979L65.5501 113.763Z" fill="#1A3D75"/>
<path d="M49.8423 73.1857C56.4715 71.7277 62.5011 67.9967 66.7321 62.8592C70.7747 57.9446 72.7874 52.1896 73.7895 46.04C73.8923 45.4053 73.9865 44.762 73.858 44.1273C73.7981 43.8357 72.5733 39.4787 74.2092 41.4256C74.4576 41.7172 74.5946 42.0946 74.8944 42.3433C74.5175 42.0346 74.9029 38.518 74.9458 37.9262C74.9629 37.6947 74.9886 37.4545 75.1171 37.2658C75.2541 37.0771 75.5367 36.9656 75.7337 37.0943C75.8365 37.1629 75.8965 37.2658 75.9478 37.3687C76.2219 37.8919 76.4874 38.4065 76.7615 38.9297C77.2154 38.7496 77.7636 38.9212 78.1233 39.2471C78.483 39.573 78.6971 40.0276 78.8427 40.4907C80.0932 44.2989 77.3268 46.3745 76.436 49.8309C76.0763 51.229 75.3911 52.4812 75.1941 53.9135C73.3527 67.4392 63.5717 76.5135 50.733 81.2051C50.3733 81.3337 50.3476 82.2086 50.5018 81.8741" fill="#FEBAB0"/>
<path d="M55.9833 70.0381C59.3578 69.4463 62.2699 67.3364 64.4111 64.7633C66.5608 62.1903 68.0254 59.1455 69.4472 56.1264C71.0402 52.7471 72.599 49.3164 73.4812 45.697C74.6888 46.2116 75.8879 46.7348 77.0956 47.2494C76.7016 51.4949 75.7937 55.6804 74.4062 59.7116C73.3699 62.722 72.0509 65.6725 70.1923 68.2798C67.7856 71.6505 64.5395 74.3694 61.3277 77.054C58.724 79.2239 56.0861 81.4282 52.9771 82.8519" fill="#50968E"/>
<path d="M47.7782 94.8167C53.4224 94.0362 59.0666 93.2557 64.7108 92.4752C64.728 92.4752 64.5995 86.1111 64.6166 85.6566C64.6594 83.9069 64.8736 82.5775 65.2419 80.9307C65.5159 79.6956 65.0277 78.4091 64.2997 77.3713C63.3833 76.0676 62.1414 75.047 61.2078 73.7605C60.5398 72.8427 59.512 70.87 58.7069 70.0638C57.6449 68.9917 54.5187 70.9387 53.0713 70.3383C53.3025 70.0124 53.5423 69.3434 52.9685 69.6436C51.3069 70.5184 52.5745 70.4669 50.9729 69.4806C50.4247 69.1461 49.868 69.7036 48.6176 69.9952C47.2044 70.3297 42.0997 71.4018 41.3974 72.5768C39.7187 75.4072 41.7657 78.7436 42.0655 81.8484C42.4509 85.9053 43.0675 91.3516 43.453 95.4085C44.8919 95.2112 46.3307 95.0139 47.7782 94.8167Z" fill="#50968E"/>
<path d="M48.5319 64.0171C48.6261 66.3328 47.7268 68.863 49.14 70.8614C50.3305 72.5511 52.052 73.8204 53.7907 74.884C54.1932 75.1327 55.7092 76.2992 56.1974 75.9389C56.8654 75.4415 55.4865 72.8856 55.1953 72.208C54.3645 70.261 54.2018 68.7944 54.2275 66.6673C54.2532 64.9777 54.2789 63.2966 54.3046 61.607C54.3131 61.6156 48.5319 64.0171 48.5319 64.0171Z" fill="#FEBAB0"/>
<path d="M54.2275 67.2077L54.3132 61.6155L48.5319 64.0171L48.7118 68.3655C50.6303 68.477 52.4632 67.9796 54.2275 67.2077Z" fill="#EFA69E"/>
<path d="M59.058 62.1816C58.8097 63.3652 58.1759 64.4888 57.4564 65.3722C56.7198 66.2728 55.8805 66.5129 54.8698 66.7617C51.6495 67.5679 47.2386 66.6587 46.2793 62.4732C45.6969 62.782 45.0203 62.2073 44.8576 61.4955C44.7034 60.835 44.909 60.269 44.9689 59.6085C45.0117 59.0682 44.9946 58.5536 45.0631 58.0047C45.2344 56.6753 45.4828 55.3115 46.108 54.1537C46.7675 52.9357 47.8039 52.0609 48.8916 51.4948C49.9879 50.9288 51.1442 50.6371 52.3004 50.3713C54.2703 49.9081 57.1823 49.3678 58.4671 51.7007C59.2122 53.0472 58.6812 55.5174 58.8696 57.0955C59.058 58.7594 59.4178 60.4748 59.058 62.1816Z" fill="#FEBAB0"/>
<path d="M43.4616 57.2928C42.922 57.5587 42.6993 58.2106 42.6651 58.8109C42.5623 60.5778 43.8042 62.336 45.5086 62.8249C46.0225 62.9707 46.6563 62.9793 46.9817 62.559C47.3158 62.1302 47.1616 61.5127 46.9475 61.0066C46.5364 60.0374 44.9347 56.581 43.4616 57.2928Z" fill="#FEBAB0"/>
<path d="M55.6235 56.2379C55.6235 56.1779 55.7863 56.1093 56.0603 56.075C56.3344 56.0406 56.7198 56.0492 57.1053 56.1436C57.4907 56.2465 57.7819 56.4009 57.9532 56.5724C58.1245 56.744 58.1159 56.8983 58.0474 56.9155C57.9703 56.9412 57.859 56.8726 57.6705 56.804C57.4821 56.7354 57.1909 56.6325 56.874 56.5467C56.2231 56.3751 55.6321 56.358 55.6235 56.2379Z" fill="#5E3C69"/>
<path d="M54.433 47.0006C55.5379 47.4895 56.54 48.1757 57.3365 49.0677C58.4242 50.2856 58.8696 51.8809 59.1694 53.4504C59.315 54.2395 59.4263 55.0286 59.5634 55.8176C59.6747 56.4438 60.1286 57.4301 59.8717 58.0391C59.7261 58.3907 59.3835 58.6909 58.9724 58.6995C59.512 58.202 59.2036 57.1814 58.4585 57.0013C57.5763 56.7954 56.8911 56.7525 55.9661 56.7525C53.3967 56.7354 50.8615 55.4746 49.4141 53.5019C49.1571 54.7884 48.352 55.9635 47.2129 56.7268C46.9388 56.9069 46.6391 57.087 46.502 57.3701C46.3307 57.7474 46.5106 58.1763 46.6562 58.5622C47.4613 60.7236 47.0759 63.2281 45.6455 65.0721C46.1423 63.2109 45.9196 61.1782 45.0374 59.4285C44.7891 58.9396 44.4465 58.425 43.8812 58.2535C43.3245 58.0819 42.5793 58.4936 42.6993 59.0168C41.8513 56.744 41.2175 54.3081 41.6972 51.9581C42.802 46.6147 49.6196 44.8822 54.433 47.0006Z" fill="#4D3D6B"/>
<path d="M44.4294 105.083C44.4294 105.083 40.7893 108.866 40.3696 116.851C39.8472 126.791 56.874 170.627 56.874 170.627C56.874 170.627 62.6124 171.605 63.5888 169.924C64.5652 168.243 55.478 118.103 55.478 118.103L65.5502 114.037C65.5502 114.037 65.1305 108.574 62.4754 105.778C60.6511 108.591 44.4294 105.083 44.4294 105.083Z" fill="#2A4E96"/>
<path opacity="0.32" d="M58.3814 88.8642C60.12 88.4268 61.8244 87.8179 63.4689 87.0459C63.3147 88.0151 62.6467 88.787 61.9015 89.2245C61.1478 89.6533 60.2999 89.7562 59.4777 89.9449C50.0821 92.0634 45.7397 92.9468 46.7675 80.2531C46.9388 78.1603 50.4675 89.233 51.4096 89.5504C53.5251 90.2537 56.2316 89.4046 58.3814 88.8642Z" fill="#006359"/>
<path d="M44.4293 105.083L45.2258 102.381C45.2258 102.381 57.3108 104.448 62.5353 103.196C63.1263 102.536 62.4754 105.786 62.4754 105.786C62.4754 105.786 62.9807 107.33 55.9833 106.884C48.9772 106.438 44.4293 105.083 44.4293 105.083Z" fill="#1A3D75"/>
<path d="M48.9773 103.934C50.9643 100.392 48.5319 80.3303 48.5319 80.3303L62.6981 77.9631C63.5888 77.8173 64.3768 78.5378 64.3083 79.4383L62.5268 103.196L59.2893 104.671C59.2893 104.671 50.6817 105.881 48.9773 103.934Z" fill="#1A3D75"/>
<path d="M51.0414 83.2721C50.5275 79.8071 43.2303 71.3246 43.2303 71.3246L45.2944 70.7328C45.2944 70.7328 53.3967 78.6235 53.6965 83.7181C53.7479 84.6016 51.1699 84.1556 51.0414 83.2721Z" fill="#1A3D75"/>
<path d="M61.8673 80.5447C61.0536 75.673 54.7242 69.7721 54.7242 69.7721L56.5657 69.6949C56.5657 69.6949 63.8543 76.3334 64.1541 81.4281C64.2055 82.3201 62.0129 81.4195 61.8673 80.5447Z" fill="#1A3D75"/>
<path d="M52.96 84.087C52.96 84.087 52.5146 88.4354 53.9192 89.0272C55.3153 89.619 58.4843 90.1337 58.4843 90.1337L60.9167 88.5812L60.9938 82.8262L52.96 84.087Z" fill="white"/>
<path d="M51.5895 81.9513C51.9774 81.9513 52.2918 81.6364 52.2918 81.248C52.2918 80.8596 51.9774 80.5447 51.5895 80.5447C51.2016 80.5447 50.8872 80.8596 50.8872 81.248C50.8872 81.6364 51.2016 81.9513 51.5895 81.9513Z" fill="white"/>
<path d="M62.2356 80.1416C62.6235 80.1416 62.938 79.8267 62.938 79.4383C62.938 79.0499 62.6235 78.735 62.2356 78.735C61.8478 78.735 61.5333 79.0499 61.5333 79.4383C61.5333 79.8267 61.8478 80.1416 62.2356 80.1416Z" fill="white"/>
<path d="M161.87 70.0123C160.782 71.6848 159.712 73.4259 159.275 75.3728C158.316 79.6184 160.954 84.3785 165.056 85.8109C163.823 84.4214 163.609 82.3544 164.088 80.5618C164.568 78.7693 165.639 77.1997 166.769 75.7331C167.9 74.2579 171.994 73.0828 172.807 71.4103C173.827 69.3262 171.257 66.6759 170.889 64.3945C170.632 62.8163 169.673 59.0854 167.574 59.0854C165.339 59.094 165.219 62.1902 164.945 63.6826C164.525 66.0412 163.138 68.0568 161.87 70.0123Z" fill="#4D3D6B"/>
<path opacity="0.32" d="M165.698 68.9831C164.611 70.6556 163.54 72.3967 163.103 74.3436C162.144 78.5892 164.782 83.3493 168.885 84.7817C167.651 83.3922 167.437 81.3252 167.917 79.5326C168.396 77.7401 169.467 76.1705 170.598 74.7038C171.728 73.2286 175.822 72.0536 176.636 70.3811C177.655 68.2969 175.086 65.6467 174.717 63.3652C174.46 61.7871 173.501 58.0562 171.403 58.0562C169.167 58.0647 169.047 61.161 168.773 62.6534C168.354 65.0034 166.975 67.019 165.698 68.9831Z" fill="#4D3D6B"/>
<path d="M171.034 75.5101C165.142 72.5253 161.108 66.5987 158.358 60.7321C155.729 55.1143 155.224 49.2048 155.763 43.1581C155.815 42.5406 155.883 41.9059 156.157 41.3399C156.286 41.0825 158.487 37.2744 156.474 38.7068C156.174 38.9212 155.952 39.2471 155.609 39.4015C156.037 39.2042 156.526 35.7906 156.628 35.2245C156.671 35.0016 156.705 34.77 156.62 34.5556C156.534 34.3411 156.294 34.1782 156.08 34.2468C155.969 34.2811 155.892 34.3754 155.815 34.4612C155.429 34.8815 155.052 35.3103 154.667 35.7306C154.282 35.4561 153.725 35.4819 153.305 35.7049C152.886 35.9279 152.577 36.3052 152.329 36.6998C150.23 39.9847 152.337 42.6092 152.346 46.0914C152.346 47.498 152.038 48.8875 151.875 50.2855C150.342 63.4853 157.236 75.1498 168.199 82.6803C168.508 82.8862 169.116 82.9291 169.056 82.5774" fill="#FEBAB0"/>
<path d="M157.716 119.183C157.716 119.183 165.142 148.396 174.417 172.703C174.306 173.784 174.306 175.551 175.197 176.425C176.088 177.3 181.184 173.158 179.616 171.631C174.683 166.802 174.897 147.084 173.775 141.475L169.964 114.072L157.716 119.183Z" fill="#E29EA6"/>
<path d="M158.538 122.451C158.538 122.451 165.142 148.388 174.426 172.703C174.315 173.784 174.315 175.551 175.205 176.425C176.096 177.3 181.192 173.158 179.625 171.631C174.692 166.802 174.906 147.084 173.784 141.475L171.403 122.254L158.538 122.451Z" fill="#FEBAB0"/>
<path d="M178.623 169.564C176.996 171.073 176.31 171.339 174.238 172.163L172.208 176.451C172.208 176.451 169.775 181.194 170.666 182.06C171.557 182.935 180.439 174.513 180.439 174.513C180.439 174.513 181.937 173.106 180.37 171.571C179.419 170.653 178.974 170.627 178.623 169.564Z" fill="#343D63"/>
<path d="M163.874 144.983C163.874 144.983 161.904 150.789 158.316 176.563C157.699 177.463 156.842 179.007 157.202 180.199C157.562 181.391 163.412 180.328 163.386 178.132C163.3 171.331 169.741 155.918 171.463 150.472L170.795 146.201L163.874 144.983Z" fill="#EFA69E"/>
<path d="M163.506 175.851C161.356 176.383 160.628 176.288 158.41 176.005L154.564 178.784C154.564 178.784 150.153 181.76 150.513 182.952C150.873 184.145 162.709 181.066 162.709 181.066C162.709 181.066 164.696 180.559 164.063 178.458C163.686 177.18 163.3 176.949 163.506 175.851Z" fill="#343D63"/>
<path d="M178.058 103.711C178.058 103.711 181.595 107.39 182.006 115.161C182.511 124.844 164.525 168.192 164.525 168.192C164.525 168.192 159.763 177.6 158.804 175.962C157.853 174.324 167.3 116.387 167.3 116.387L157.502 112.433C157.502 112.433 157.913 107.116 160.5 104.388C162.264 107.124 178.058 103.711 178.058 103.711Z" fill="#FEBAB0"/>
<path d="M179.548 101.301C178.94 100.091 178.426 98.8563 178.22 97.5183C177.929 95.5628 178.434 93.5558 179.308 91.789C180.353 89.6619 181.937 87.9637 182.7 85.6994C183.744 82.5946 184.464 81.1279 184.198 77.9545C184.079 76.4964 182.725 75.4501 181.432 74.4123C179.145 72.5682 176.644 74.1464 174.015 72.9713C171.951 73.6232 168.816 71.9764 167.266 72.9713C166.932 75.9647 164.782 77.5257 163.943 79.3182C163.643 79.9615 163.052 80.7934 162.726 81.3938C162.016 82.7147 161.579 83.8897 161.45 85.3821C161.27 87.4662 162.384 89.6019 164.182 90.6568C164.379 93.693 163.583 96.7893 161.939 99.3366C161.939 99.3366 157.639 105.22 157.639 114.303C157.639 123.386 157.973 162.068 157.973 162.068C157.973 162.068 172.91 165.945 178.22 160.404C179.094 158.071 179.025 155.018 179.316 152.582C180.438 143.061 181.423 133.515 182.297 123.969C182.622 120.401 182.965 116.833 183.154 113.248C183.265 111.053 182.794 109.2 182.237 107.09C181.689 105.032 180.507 103.205 179.548 101.301Z" fill="#745DAF"/>
<path opacity="0.32" d="M178.143 127.563C179.796 126.465 180.01 125.53 179.83 123.558C178.794 124.553 177.304 124.879 175.891 125.153C173.767 125.582 171.643 125.976 169.527 126.431C168.097 126.731 164.422 126.319 165.476 127.769C167.343 130.342 175.916 129.004 178.143 127.563Z" fill="#E29EA6"/>
<path d="M180.635 85.6394C181.543 86.5142 185.235 91.6175 186.083 93.1356C186.083 93.1356 191.162 90.6826 190.622 89.8078C189.483 87.9723 188.584 86.1454 187.633 83.7096C187.025 82.1572 183.351 74.0521 181.338 75.047C180.841 75.2957 180.481 75.7417 180.182 76.2049C179.719 76.9167 179.359 77.6887 179.111 78.4949C178.64 80.0387 178.417 80.9136 178.785 82.4831C179.077 83.7696 179.813 84.8418 180.635 85.6394Z" fill="#FEBAB0"/>
<path d="M181.526 63.5111C182.4 59.9946 181.072 56.0321 178.255 53.7592C175.445 51.4777 171.3 51.006 168.045 52.5927C166.82 53.1931 165.596 54.5654 166.238 55.7662C166.735 56.6839 167.968 56.7954 168.953 57.1642C170.846 57.8675 172.011 59.7287 173.039 61.4698C173.775 62.7134 174.52 64 174.726 65.4323C174.974 67.1734 174.323 68.7687 173.253 70.0981C176.524 72.2595 180.884 66.1099 181.526 63.5111Z" fill="url(#paint0_linear)"/>
<path d="M173.45 67.1133C173.861 67.9625 174.272 68.8116 174.692 69.6607C174.726 69.7207 175.899 71.6848 176.096 71.316C175.197 73.0056 174.083 74.5838 172.79 75.999C172.499 76.3249 172.182 76.6422 171.78 76.8138C171.377 76.9853 170.872 76.9682 170.555 76.668C170.178 76.2992 170.212 75.6902 170.281 75.167C170.401 74.2064 170.683 73.2544 170.358 72.3538C170.135 71.7448 169.793 71.153 169.51 70.5698C169.262 70.0638 168.362 67.6451 167.6 67.7051C167.6 67.7051 173.45 67.1133 173.45 67.1133Z" fill="#EFA69E"/>
<path d="M170.435 72.2852L167.994 67.688L173.535 67.1133L175.24 70.8014C173.784 71.7363 172.148 72.148 170.435 72.2852Z" fill="#EFA69E"/>
<path d="M163.823 66.2985C164.028 67.4221 164.585 68.4942 165.245 69.3433C165.913 70.2096 166.692 70.4583 167.643 70.7242C170.649 71.5733 174.82 70.8443 175.839 66.9247C176.379 67.2334 177.03 66.7102 177.201 66.0498C177.364 65.4323 177.184 64.8919 177.15 64.2744C177.124 63.7684 177.158 63.2795 177.107 62.7649C176.978 61.5127 176.79 60.2261 176.225 59.1111C175.634 57.9447 174.692 57.1041 173.681 56.5381C172.67 55.972 171.583 55.6718 170.512 55.3888C168.67 54.8999 165.947 54.3167 164.679 56.4695C163.943 57.7217 164.38 60.046 164.157 61.5298C163.917 63.0822 163.532 64.6775 163.823 66.2985Z" fill="#FEBAB0"/>
<path d="M178.614 62.1388C179.111 62.3961 179.308 63.0222 179.325 63.5883C179.377 65.2522 178.152 66.8732 176.542 67.2849C176.053 67.405 175.462 67.3964 175.163 66.9933C174.854 66.5816 175.026 65.9984 175.24 65.5352C175.651 64.6347 177.261 61.4269 178.614 62.1388Z" fill="#E29EA6"/>
<path d="M178.803 63.511C178.803 63.4939 178.546 63.4939 178.177 63.674C177.809 63.8455 177.355 64.2058 177.03 64.7375C176.704 65.2607 176.542 65.8011 176.456 66.187C176.37 66.573 176.345 66.8217 176.362 66.8303C176.387 66.8389 176.456 66.5987 176.567 66.2213C176.687 65.844 176.858 65.3293 177.175 64.8233C177.492 64.3258 177.903 63.9656 178.237 63.7769C178.563 63.5882 178.803 63.5368 178.803 63.511Z" fill="#4D3D6B"/>
<path d="M176.901 66.5644C176.918 66.573 177.013 66.4872 177.132 66.3243C177.252 66.1613 177.424 65.9126 177.526 65.6038C177.629 65.2951 177.629 64.9777 177.569 64.7719C177.509 64.566 177.415 64.4631 177.398 64.4717C177.372 64.4803 177.424 64.6003 177.449 64.7976C177.475 64.9949 177.458 65.2693 177.364 65.5524C177.27 65.8354 177.124 66.0841 177.03 66.2557C176.935 66.4358 176.884 66.5559 176.901 66.5644Z" fill="#4D3D6B"/>
<path d="M169.998 59.2141C166.375 60.0546 161.733 60.3119 163.138 56.4609C164.833 51.8036 170.067 49.6594 174.315 52.2496C176.053 53.3046 177.15 54.7712 177.963 56.6067C178.589 57.9961 179.839 59.0168 179.282 60.5692C179.145 60.938 176.567 64.12 176.285 63.5625C175.368 61.7442 174.443 59.9259 173.527 58.1076C172.893 58.3992 171.54 58.8624 169.998 59.2141Z" fill="#4D3D6B"/>
<path d="M173.612 57.9361C174.931 60.3719 174.734 63.3309 173.887 65.9469C173.039 68.5628 171.583 70.9729 170.426 73.4774C169.262 75.9904 168.379 78.7264 168.765 81.4367C169.15 84.1556 171.069 86.823 173.887 87.4662C173.749 87.1832 173.612 86.9002 173.475 86.6171C174.203 86.7715 174.923 86.9259 175.651 87.0803C175.565 83.255 177.252 79.6012 179.034 76.1619C181.972 70.484 184.258 65.0635 182.948 58.6137C182.468 56.255 181.381 53.9564 179.565 52.2754C177.749 50.5943 175.154 49.5908 172.636 49.9167C170.118 50.2426 167.788 52.0352 167.249 54.3767" fill="#4D3D6B"/>
<path d="M170.332 51.5635C169.073 51.4091 168.354 49.8567 168.713 48.6388C169.073 47.4208 170.204 46.5803 171.386 46.1257C172.293 45.7741 173.27 45.6025 174.246 45.6197C175.796 45.6454 177.364 46.1772 178.511 47.2236C179.659 48.27 180.353 49.8395 180.207 51.3834C180.062 52.9272 179.008 54.3853 177.544 54.8913C176.079 55.3973 174.272 54.8312 173.467 53.5018" fill="#4D3D6B"/>
<path d="M63.7772 111.867C61.0279 128.549 62.7837 146.003 68.7962 161.742C105.574 160.936 142.342 160.121 179.12 159.315C194.93 158.963 210.749 158.62 226.56 158.268C234.465 158.097 242.371 157.968 250.276 157.745C254.447 157.625 254.053 156.227 252.417 152.848C250.781 149.485 249.214 146.098 248.186 142.495C246.79 137.624 246.388 132.34 247.946 127.529C249.137 123.841 251.407 120.599 252.82 116.996C254.875 111.739 255.012 105.743 253.18 100.4C252.058 97.1237 250.208 94.0961 247.826 91.5831C244.675 88.2638 242.936 87.8007 238.525 87.895C229.309 88.0923 220.094 88.2896 210.878 88.4868C192.446 88.8814 174.006 89.2673 155.575 89.6619C146.171 89.8591 136.775 90.065 127.371 90.2622C113.076 90.5624 98.7045 90.8626 84.4955 88.95C80.9411 88.4697 77.3953 87.8607 73.8923 87.0716C69.7897 86.1453 67.9312 84.267 67.5029 89.1301C66.8006 96.8493 65.0277 104.243 63.7772 111.867Z" fill="white"/>
<path d="M64.865 99.0707C64.1455 99.9026 63.803 100.906 64.6594 101.772C65.4902 102.604 67.3488 102.013 68.2738 101.738C69.4986 101.369 70.7233 101 71.9481 100.632C72.7361 100.391 73.6868 99.9369 73.6354 99.1135C73.6011 98.6161 73.19 98.2301 72.7703 97.9642C71.1173 96.8921 68.9333 96.7463 67.109 97.4496C66.4752 97.6898 65.5245 98.3073 64.865 99.0707Z" fill="#FEBAB0"/>
<path d="M43.5472 72.4053L50.7416 94.6279L65.6615 97.9986C65.6615 97.9986 65.5159 102.15 64.4368 102.562C63.3576 102.973 44.4893 100.186 43.7699 99.0793C43.2474 98.2645 40.4039 87.1918 38.9222 81.3252C38.3569 79.1038 39.6844 75.107 41.3375 73.5203L43.5472 72.4053Z" fill="#50968E"/>
<path d="M119.046 88.5298C118.215 88.5555 117.419 88.7699 116.862 89.4475C115.937 90.5625 116.836 92.1664 117.564 92.9383C118.061 93.4615 118.661 94.1648 119.294 94.5336C120.082 94.9882 121.093 95.2626 121.941 95.64C122.429 95.8287 122.874 94.8595 122.917 94.525C122.986 93.9847 122.84 93.3929 122.669 92.8783C122.378 91.9948 121.821 90.7769 120.93 90.3395C121.084 90.2966 122.96 90.3224 123.089 90.2537C123.089 90.2537 121.847 89.2331 121.513 89.0701C120.69 88.6756 119.962 88.5041 119.046 88.5298Z" fill="#FEBAB0"/>
<path d="M152.457 87.8092C153.288 87.8007 154.093 87.9808 154.684 88.6326C155.661 89.7047 154.83 91.3429 154.127 92.1491C153.656 92.6981 153.083 93.4185 152.466 93.813C151.695 94.3019 150.702 94.6193 149.871 95.031C149.391 95.2454 148.903 94.2848 148.843 93.9589C148.749 93.4185 148.877 92.8181 149.014 92.3035C149.263 91.4029 149.768 90.1679 150.642 89.6962C150.487 89.6533 148.62 89.7733 148.475 89.7047C148.475 89.7047 149.665 88.6241 149.999 88.4525C150.821 88.0237 151.541 87.8178 152.457 87.8092Z" fill="#FEBAB0"/>
<path d="M194.313 86.8916C195.144 86.8744 195.949 87.0374 196.549 87.6806C197.542 88.7442 196.737 90.3909 196.043 91.2057C195.572 91.7632 195.024 92.4923 194.408 92.8954C193.645 93.4014 192.652 93.7273 191.83 94.1562C191.359 94.3706 190.853 93.4271 190.785 93.1012C190.682 92.5609 190.802 91.9605 190.939 91.4459C191.179 90.5453 191.667 89.3017 192.523 88.8128C192.361 88.7785 190.502 88.9157 190.356 88.8471C190.356 88.8471 191.53 87.7493 191.864 87.5691C192.686 87.1231 193.388 86.9087 194.313 86.8916Z" fill="#FEBAB0"/>
<path d="M234.62 85.4421C235.776 85.4249 236.889 85.6651 237.72 86.5656C239.082 88.0494 237.943 90.3309 236.983 91.4544C236.332 92.2178 235.553 93.2299 234.697 93.7788C233.626 94.4649 232.256 94.9195 231.099 95.4941C230.44 95.7943 229.746 94.4735 229.669 94.0189C229.532 93.2727 229.703 92.4408 229.9 91.7203C230.243 90.4681 230.928 88.7527 232.136 88.0837C231.913 88.0323 229.326 88.2038 229.129 88.1095C229.129 88.1095 230.774 86.5999 231.236 86.3598C232.358 85.7508 233.343 85.4678 234.62 85.4421Z" fill="#FEBAB0"/>
<path d="M242.885 113.78C242.885 113.763 242.885 113.754 242.885 113.737C242.893 110.555 246.165 106.61 249.539 108.008C250.447 108.385 251.192 108.934 251.706 109.783C252.46 111.044 251.998 111.336 250.918 112.228C249.223 113.634 242.927 119.209 242.885 113.78Z" fill="#FEBAB0"/>
<path d="M265.076 78.5634L265.727 96.8321L248.503 107.57C248.503 107.57 250.541 111.293 252.092 111.284C253.642 111.267 275.054 102.133 275.405 100.392C275.756 98.6504 272.904 72.3023 272.904 72.3023L265.076 78.5634Z" fill="#745DAF"/>
<path opacity="0.49" d="M78.0548 149.503C78.1747 150.755 79.6821 151.415 80.9497 151.69C89.2405 153.508 98.4562 153.216 106.918 153.105C134.48 152.728 162.041 152.342 189.603 151.964C202.57 151.784 215.606 150.703 228.616 149.734C232.53 149.443 237.172 148.671 238.791 145.086C234.371 141.569 232.367 135.291 233.917 129.862C234.56 127.597 235.587 124.707 233.729 123.258C232.17 122.04 229.686 123.232 228.941 125.067C228.196 126.903 228.684 128.987 229.327 130.865C229.969 132.735 230.765 134.648 230.603 136.62C230.346 139.759 227.648 142.264 224.667 143.276C221.687 144.288 218.449 144.099 215.314 143.911C194.862 142.65 174.409 142.727 153.913 142.521C150.513 142.487 146.813 142.864 143.447 142.392C140.39 141.955 137.7 141.149 134.54 141.277C128.031 141.552 121.761 143.713 115.517 145.369C109.376 146.998 102.936 148.148 96.5634 147.521C90.4567 146.93 85.6347 145.129 79.5194 147.479C78.7315 147.779 78.0463 148.499 78.0463 149.34C78.0463 149.4 78.0463 149.451 78.0548 149.503Z" fill="#E6E6E6"/>
<path d="M85.5646 122.856H87.9742L86.5079 133.192H83.4317L85.5646 122.856ZM88.9278 119.637C88.9415 120.108 88.7911 120.498 88.4767 120.805C88.1622 121.113 87.7828 121.267 87.3385 121.267C86.9078 121.281 86.5284 121.144 86.2003 120.857C85.879 120.57 85.7115 120.197 85.6979 119.739C85.6842 119.295 85.8277 118.915 86.1285 118.601C86.4293 118.286 86.8155 118.122 87.2872 118.109C87.7247 118.095 88.1041 118.232 88.4254 118.519C88.7467 118.799 88.9142 119.172 88.9278 119.637ZM96.1379 123.943H93.6975L92.7439 129.409H89.7395L92.3337 114.479L97.2761 114.489C98.9304 114.489 100.202 114.879 101.091 115.658C101.986 116.437 102.383 117.521 102.28 118.909C102.136 120.959 101.043 122.385 98.9988 123.184L101.101 129.244V129.409H97.9016L96.1379 123.943ZM94.1282 121.451L96.3635 121.472C97.1565 121.458 97.8093 121.246 98.322 120.836C98.8415 120.419 99.1526 119.855 99.2551 119.144C99.3508 118.481 99.2449 117.962 98.9372 117.586C98.6296 117.21 98.1409 117.008 97.4709 116.981L94.9075 116.971L94.1282 121.451ZM112.546 122.938H106.824L106.127 126.937H112.853L112.423 129.409H102.692L105.286 114.479H114.996L114.556 116.971H107.86L107.234 120.529H112.976L112.546 122.938ZM118.033 124.148L117.11 129.409H114.106L116.7 114.479L121.93 114.489C123.543 114.489 124.811 114.937 125.734 115.832C126.657 116.728 127.06 117.897 126.944 119.339C126.834 120.802 126.223 121.971 125.108 122.846C124.001 123.721 122.586 124.159 120.863 124.159L118.033 124.148ZM118.454 121.657L120.956 121.677C121.762 121.677 122.432 121.469 122.965 121.052C123.499 120.635 123.816 120.071 123.919 119.36C124.021 118.649 123.905 118.081 123.57 117.658C123.242 117.234 122.753 117.008 122.104 116.981L119.274 116.971L118.454 121.657ZM133.2 129.614C132.209 129.593 131.334 129.361 130.575 128.916C129.823 128.465 129.225 127.819 128.781 126.978C128.343 126.131 128.09 125.16 128.022 124.066C127.947 122.945 128.067 121.749 128.381 120.477C128.695 119.206 129.201 118.088 129.899 117.124C130.596 116.16 131.413 115.439 132.349 114.961C133.293 114.482 134.311 114.253 135.405 114.274C136.41 114.294 137.288 114.534 138.04 114.992C138.792 115.443 139.383 116.096 139.814 116.95C140.245 117.798 140.491 118.762 140.552 119.842C140.621 121.045 140.491 122.282 140.163 123.554C139.835 124.825 139.325 125.926 138.635 126.855C137.944 127.785 137.134 128.482 136.205 128.947C135.282 129.412 134.28 129.634 133.2 129.614ZM137.456 121.534L137.538 120.559C137.606 119.343 137.442 118.42 137.046 117.791C136.656 117.162 136.061 116.834 135.261 116.806C134.01 116.765 133.016 117.319 132.277 118.468C131.546 119.616 131.132 121.222 131.037 123.287C130.968 124.497 131.129 125.43 131.519 126.086C131.908 126.736 132.513 127.074 133.334 127.101C134.407 127.149 135.296 126.732 136 125.85C136.704 124.962 137.165 123.707 137.384 122.087L137.456 121.534ZM147.619 123.943H145.178L144.225 129.409H141.22L143.815 114.479L148.757 114.489C150.411 114.489 151.683 114.879 152.572 115.658C153.467 116.437 153.864 117.521 153.761 118.909C153.617 120.959 152.524 122.385 150.48 123.184L152.582 129.244V129.409H149.383L147.619 123.943ZM145.609 121.451L147.845 121.472C148.637 121.458 149.29 121.246 149.803 120.836C150.323 120.419 150.634 119.855 150.736 119.144C150.832 118.481 150.726 117.962 150.418 117.586C150.111 117.21 149.622 117.008 148.952 116.981L146.388 116.971L145.609 121.451ZM166.734 116.971H162.304L160.151 129.409H157.146L159.3 116.971H154.921L155.362 114.479H167.175L166.734 116.971ZM173.77 126.332H168.561L167.022 129.409H163.71L171.688 114.479H174.467L177.307 129.409H174.241L173.77 126.332ZM169.791 123.841H173.39L172.549 118.283L169.791 123.841ZM190.046 121.185L194.219 114.479H197.664L191.143 124.159L190.241 129.409H187.185L188.159 123.82L185.062 114.489L188.231 114.479L190.046 121.185ZM203.48 126.332H198.271L196.733 129.409H193.421L201.398 114.479H204.177L207.018 129.409H203.952L203.48 126.332ZM199.501 123.841H203.101L202.26 118.283L199.501 123.841ZM211.941 124.825H209.531L210.987 114.479H214.074L211.941 124.825ZM208.578 128.065C208.564 127.614 208.708 127.235 209.008 126.927C209.309 126.613 209.692 126.449 210.157 126.435C210.594 126.421 210.974 126.558 211.295 126.845C211.616 127.125 211.784 127.494 211.797 127.952C211.811 128.404 211.668 128.786 211.367 129.101C211.066 129.415 210.68 129.579 210.208 129.593C209.73 129.593 209.337 129.443 209.029 129.142C208.728 128.841 208.578 128.482 208.578 128.065Z" fill="#50968E"/>
<defs>
<linearGradient id="paint0_linear" x1="166.067" y1="61.1025" x2="181.792" y2="61.1025" gradientUnits="userSpaceOnUse">
<stop offset="0.2012" stop-color="#FFD584"/>
<stop offset="0.9175" stop-color="#FCD271"/>
</linearGradient>
</defs>
</svg>
