<svg width="171" height="152" viewBox="0 0 171 152" fill="none" xmlns="http://www.w3.org/2000/svg">
<path opacity="0.3" d="M122.477 143.097C122.477 143.097 105.25 155.322 88.8959 149.576C72.5418 143.83 78.2878 127.476 61.5499 121.858C44.8119 116.24 13.3134 113.332 2.36797 88.8474C-8.57743 64.3511 19.5247 18.1502 63.8995 12.2645C108.286 6.37891 172.318 41.6345 170.248 69.1201C168.177 96.6057 137.877 133.722 122.477 143.097Z" fill="#C5DBD9"/>
<path opacity="0.3" d="M162.373 83.9388C162.373 83.9388 183.834 54.0803 156.197 19.4412C128.56 -15.1979 90.4313 3.31975 76.2407 22.1514C62.0501 40.9831 46.4055 27.9789 24.3984 42.0416C2.41452 56.0926 -2.7732 74.68 18.0475 108.621C51.442 163.057 146.298 121.66 162.373 83.9388Z" fill="#C5DBD9"/>
<path d="M49.6624 51.4749C54.6524 52.7776 65.2721 59.396 76.4036 62.4086C82.9173 64.165 86.1625 61.5479 92.5948 59.5705C123.128 50.1954 117.905 59.617 121.639 58.6516C121.662 61.3618 121.162 84.5669 121.197 89.1963C121.232 93.4652 119.255 96.2684 115.114 97.4548C108.751 99.2926 102.435 101.363 95.968 102.701C79.3929 106.132 67.61 102.305 52.6866 97.9317C48.7318 96.7686 46.673 94.0467 46.6265 89.9408C46.452 70.8299 49.5693 53.2778 49.6624 51.4749Z" fill="#50968E"/>
<path d="M135.05 80.333C137.726 86.7071 138.773 87.754 135.632 88.0098C133.748 88.1611 131.828 88.1145 129.932 87.9982C128.595 87.9168 128.223 87.1956 128.711 85.9161C129.421 84.0551 130.188 82.2056 130.921 80.3795C128.874 78.3207 128.676 74.9591 130.386 72.5746C130.735 72.0861 130.654 72.8305 130.561 61.7456C116.486 66.026 106.576 69.1084 89.4077 74.3426C84.8132 75.7384 80.1955 75.7733 75.5777 74.4473C59.619 69.8877 43.672 65.3165 27.725 60.7452C25.5615 60.1287 24.5031 58.2793 25.0963 56.2321C25.5499 54.6619 26.7945 54.0454 28.2368 53.615C32.1567 52.4286 70.611 40.7737 74.4959 39.564C79.6139 37.9704 84.6969 37.9006 89.8614 39.3779C105.541 43.8677 121.232 48.311 136.911 52.7775C139.063 53.394 140.017 54.406 140.122 56.1042C140.226 57.9769 139.238 59.3262 137.051 59.7798C135.469 60.1055 135.027 60.8267 135.12 62.3853C135.562 69.4225 134.585 71.458 136.109 73.4237C137.26 74.9359 136.551 78.7859 135.05 80.333Z" fill="#38635A"/>
</svg>
