<svg width="143" height="131" viewBox="0 0 143 131" fill="none" xmlns="http://www.w3.org/2000/svg">
<g clip-path="url(#clip0)">
<path d="M88.379 97.1453H63.8468L61.0161 128.791H91.2097L88.379 97.1453Z" fill="white"/>
<path d="M135.556 11.0386H16.6694C12.5806 11.0386 9.33064 14.2978 9.33064 18.3981V101.982C9.33064 106.082 12.5806 109.341 16.6694 109.341H135.452C139.54 109.341 142.79 106.082 142.79 101.982V18.3981C142.895 14.2978 139.54 11.0386 135.556 11.0386Z" fill="white"/>
<path d="M141.952 14.1926C142.161 14.7183 142.161 15.3491 142.161 15.9799V101.351C142.161 104.925 139.226 107.869 135.661 107.869H16.7742C13.2097 107.869 10.2742 104.925 10.2742 101.351V15.9799C10.2742 15.3491 10.379 14.7183 10.4839 14.1926C9.85484 15.244 9.43548 16.4005 9.43548 17.7673V103.033C9.43548 106.608 12.371 109.551 15.9355 109.551H136.5C140.065 109.551 143 106.608 143 103.033V17.6621C143 16.4005 142.685 15.1389 141.952 14.1926Z" fill="#CEEAEB"/>
<path d="M92.7823 126.583H59.4436V129.738H92.7823V126.583Z" fill="#39766D"/>
<path d="M136.395 11.0386H15.8306C12.2661 11.0386 9.33064 13.9824 9.33064 17.557V93.3604H142.895V17.4519C142.895 13.8773 139.96 11.0386 136.395 11.0386Z" fill="white"/>
<path d="M137.548 16.7159H14.6774V93.3604H137.548V16.7159Z" fill="#50968E"/>
<path d="M136.081 17.8724H16.25V91.9936H136.081V17.8724Z" fill="#CEEAEB"/>
<path d="M86.8065 101.666H65.4194C65 101.666 64.6855 101.982 64.6855 102.402C64.6855 102.823 65 103.138 65.4194 103.138H86.9113C87.3306 103.138 87.6452 102.823 87.6452 102.402C87.6452 102.087 87.2258 101.666 86.8065 101.666Z" fill="#CEEAEB"/>
<path d="M47.9113 109.657H36.2742L43.9274 72.1228L47.9113 109.657Z" fill="#254F48"/>
<path d="M0 130.263L3.56452 70.8612L43.9274 72.1228L43.6129 130.999L0 130.263Z" fill="#39766D"/>
<path d="M2.30645 127.53L5.55645 72.7537L41.621 73.9102L41.4113 128.266L2.30645 127.53Z" fill="white"/>
<path d="M38.5806 89.155L6.60484 88.2087V90.6269L38.5806 91.468V89.155Z" fill="#CEEAEB"/>
<path d="M38.5806 93.8862L6.60484 92.9399V95.3581L38.5806 96.3043V93.8862Z" fill="#CEEAEB"/>
<path d="M22.5403 97.4607H7.54839L7.75806 99.7737L22.6452 99.8788L22.5403 97.4607Z" fill="#CEEAEB"/>
<path d="M34.9113 107.133L22.3306 107.238L22.5403 108.921L35.121 108.815L34.9113 107.133Z" fill="#39766D"/>
<path d="M126.016 74.5409L124.863 40.687H125.702L126.75 74.5409H126.016Z" fill="#254F48"/>
<path d="M70.3468 69.2842L19.8145 57.0883C19.8145 57.0883 53.1532 11.7745 78.629 1.15576L127.903 40.2665L70.3468 69.2842Z" fill="#254F48"/>
<path d="M82.0887 40.1614C99.5968 38.1638 115.637 37.9535 128.113 39.3203L79.9919 1.15576C54.4113 11.7745 21.0726 57.0883 21.0726 57.0883L21.4919 57.1935C40.5726 53.6188 54.9355 43.3155 82.0887 40.1614Z" fill="#254F48"/>
<path d="M78.9436 -0.000732422C53.3629 10.618 19.8145 57.0884 19.8145 57.0884L21.3871 57.1935C29.879 46.2593 57.7661 12.6156 78.9436 3.88932L126.54 41.1076L128.113 40.3717L78.9436 -0.000732422Z" fill="#39766D"/>
<path d="M55.1452 58.7705L50.9516 47.5209C64.1613 34.2737 79.9919 28.0706 99.9113 32.6966L99.5968 44.8925C82.4032 42.8949 67.621 47.5209 55.1452 58.7705Z" fill="#39766D"/>
<path d="M51.0565 47.5209L55.25 58.7705C59.5484 54.8804 66.8871 50.4647 71.8145 48.2568C80.0968 39.8459 96.6613 38.7946 99.9113 40.3716L100.121 32.8018C87.3306 25.5474 64.8952 25.8628 51.0565 47.5209Z" fill="#39766D"/>
<path d="M126.121 72.1228C126.121 72.1228 123.605 76.5385 123.71 83.1621L129.79 84.2135C129.476 76.5385 126.121 72.1228 126.121 72.1228Z" fill="#254F48"/>
<path d="M127.484 82.321C125.911 78.2207 125.492 74.3306 126.226 72.333C126.121 72.2279 126.121 72.2279 126.121 72.2279C126.121 72.2279 123.605 76.6436 123.71 83.2672L128.218 84.1083C128.008 83.4775 127.694 82.8467 127.484 82.321Z" fill="#254F48"/>
<path d="M125.073 72.2279C125.073 72.9639 125.597 73.4896 126.331 73.4896C127.065 73.4896 127.589 72.9639 127.589 72.2279C127.589 71.492 127.065 70.9663 126.331 70.9663C125.597 70.9663 125.073 71.492 125.073 72.2279Z" fill="#254F48"/>
</g>
<defs>
<clipPath id="clip0">
<rect width="143" height="131" fill="white" transform="translate(0 -0.000732422)"/>
</clipPath>
</defs>
</svg>
